<svg width="50" height="50" viewBox="0 0 50 50" fill="none" xmlns="http://www.w3.org/2000/svg">
<path d="M45.6761 43.6024H4.32391V15.9125C4.32391 14.3524 5.58856 13.0876 7.14872 13.0876H42.8513C44.4113 13.0876 45.6761 14.3523 45.6761 15.9125V43.6024Z" fill="url(#paint0_linear_17_2141)"/>
<path d="M42.8512 13.0876H30.9471V43.6024H45.676V15.9125C45.676 14.3523 44.4113 13.0876 42.8512 13.0876Z" fill="url(#paint1_linear_17_2141)"/>
<path d="M45.6761 15.9125C45.6761 14.3524 44.4113 13.0876 42.8513 13.0876H25.1407V24.6027H45.6761V15.9125Z" fill="url(#paint2_linear_17_2141)"/>
<path d="M4.32391 29.9875H45.6761V43.6025H4.32391V29.9875Z" fill="url(#paint3_linear_17_2141)"/>
<path d="M43.6816 16.7429V43.6023H6.31836V16.7429C6.31836 15.9353 6.97363 15.281 7.78027 15.281H23.1306C23.3856 15.281 23.6209 15.4048 23.7789 15.605C24.0636 15.9656 24.5051 16.197 25 16.197C25.4949 16.197 25.9364 15.9656 26.2211 15.605C26.3792 15.4048 26.6144 15.281 26.8694 15.281H42.2197C43.0264 15.281 43.6816 15.9353 43.6816 16.7429Z" fill="url(#paint4_linear_17_2141)"/>
<path d="M21.824 15.2805H7.78055C6.97313 15.2805 6.31863 15.935 6.31863 16.7424V43.6023H21.824V15.2805Z" fill="url(#paint5_linear_17_2141)"/>
<path d="M6.31836 29.9875H43.6816V43.6022H6.31836V29.9875Z" fill="url(#paint6_linear_17_2141)"/>
<path d="M43.6816 23.672L40.7099 20.7002L24.2419 24.7051L9.46005 39.4869L13.5753 43.6021H43.6816V23.672Z" fill="url(#paint7_linear_17_2141)"/>
<path d="M43.6816 16.7429V28.0603H6.31836V16.7429C6.31836 15.9353 6.97363 15.281 7.78027 15.281H23.1306C23.3856 15.281 23.6209 15.4048 23.7789 15.605C24.0636 15.9656 24.5051 16.197 25 16.197C25.4949 16.197 25.9364 15.9656 26.2211 15.605C26.3792 15.4048 26.6144 15.281 26.8694 15.281H42.2197C43.0264 15.281 43.6816 15.9353 43.6816 16.7429Z" fill="url(#paint8_linear_17_2141)"/>
<path d="M42.2197 15.281H26.8694C26.6143 15.281 26.3791 15.4048 26.2211 15.605C26.0902 15.7707 25.9269 15.9079 25.7411 16.0083C25.5553 16.1087 25.351 16.1701 25.1407 16.1888V24.6029H43.6816V16.7429C43.6816 15.9353 43.0264 15.281 42.2197 15.281Z" fill="url(#paint9_linear_17_2141)"/>
<path d="M25 15.3281C25.3786 15.3281 25.6855 15.0212 25.6855 14.6426C25.6855 14.264 25.3786 13.957 25 13.957C24.6214 13.957 24.3145 14.264 24.3145 14.6426C24.3145 15.0212 24.6214 15.3281 25 15.3281Z" fill="url(#paint10_linear_17_2141)"/>
<path d="M47.0933 47.265H2.90663C1.69696 47.265 0.646477 46.4322 0.370598 45.2545L0.0345626 43.8202C-0.154988 43.0109 0.459074 42.2363 1.29023 42.2363H48.7097C49.5408 42.2363 50.155 43.0109 49.9653 43.8202L49.6293 45.2545C49.3535 46.4322 48.303 47.265 47.0933 47.265Z" fill="url(#paint11_linear_17_2141)"/>
<path d="M0.00195312 43.5549C0.00410156 43.6423 0.0136719 43.7308 0.0345703 43.8201L0.370605 45.2543C0.646582 46.4321 1.69697 47.2649 2.90664 47.2649H47.0934C48.303 47.2649 49.3535 46.4321 49.6294 45.2543L49.9654 43.8201C49.9863 43.7309 49.9959 43.6423 49.9981 43.5549H0.00195312Z" fill="url(#paint12_linear_17_2141)"/>
<path d="M48.7098 42.2363H38.7448V47.265H47.0933C48.303 47.265 49.3535 46.4322 49.6294 45.2545L49.9654 43.8202C50.155 43.0109 49.5409 42.2363 48.7098 42.2363Z" fill="url(#paint13_linear_17_2141)"/>
<path d="M20.4344 42.2363C20.8992 42.2389 21.2754 42.6163 21.2754 43.0817C21.2754 43.306 21.3645 43.5211 21.5231 43.6797C21.6817 43.8383 21.8968 43.9274 22.1211 43.9274H27.8789C28.1032 43.9274 28.3183 43.8383 28.4769 43.6797C28.6355 43.5211 28.7246 43.306 28.7246 43.0817C28.7246 42.8583 28.8131 42.6439 28.9707 42.4855C29.1283 42.3271 29.3422 42.2375 29.5656 42.2363H20.4344Z" fill="url(#paint14_linear_17_2141)"/>
<path d="M40.4987 20.4719C35.4919 18.1349 29.99 18.1732 25 20.5861C20.0099 18.1732 14.5081 18.1349 9.50125 20.4719C9.42924 20.5059 9.3684 20.5596 9.32585 20.6269C9.28331 20.6942 9.26082 20.7723 9.26102 20.8519V39.1297C9.26102 39.433 9.57274 39.6379 9.85008 39.5151C14.4622 37.4728 19.4709 37.4283 24.0999 39.3806C24.3848 39.5007 24.6909 39.5625 25 39.5625C25.3092 39.5625 25.6153 39.5007 25.9002 39.3806C30.5292 37.4283 35.5379 37.4728 40.15 39.5151C40.4273 39.6379 40.739 39.433 40.739 39.1297V20.8519C40.7392 20.7723 40.7167 20.6942 40.6742 20.6269C40.6316 20.5596 40.5707 20.5059 40.4987 20.4719Z" fill="url(#paint15_linear_17_2141)"/>
<path d="M40.4987 20.4719C35.4919 18.1349 29.99 18.1732 25 20.5861C20.0099 18.1732 14.5081 18.1349 9.50125 20.4719C9.42924 20.5059 9.3684 20.5596 9.32585 20.6269C9.28331 20.6942 9.26082 20.7723 9.26102 20.8519V39.1297C9.26102 39.433 9.57274 39.6379 9.85008 39.5151C14.4622 37.4728 19.4709 37.4283 24.0999 39.3806C24.3848 39.5007 24.6909 39.5625 25 39.5625C25.3092 39.5625 25.6153 39.5007 25.9002 39.3806C30.5292 37.4283 35.5379 37.4728 40.15 39.5151C40.4273 39.6379 40.739 39.433 40.739 39.1297V20.8519C40.7392 20.7723 40.7167 20.6942 40.6742 20.6269C40.6316 20.5596 40.5707 20.5059 40.4987 20.4719Z" fill="url(#paint16_linear_17_2141)"/>
<path d="M40.4987 20.4718C38.6317 19.6003 36.6958 19.0596 34.7433 18.8486V38.0511C36.5745 38.2489 38.391 38.7362 40.1499 39.515C40.4272 39.6379 40.739 39.433 40.739 39.1297V20.8518C40.7392 20.7721 40.7167 20.6941 40.6741 20.6268C40.6316 20.5595 40.5707 20.5057 40.4987 20.4718Z" fill="url(#paint17_linear_17_2141)"/>
<path d="M25 20.5858C20.0099 18.1729 14.5081 18.1347 9.50125 20.4717C9.42924 20.5056 9.3684 20.5594 9.32585 20.6267C9.28331 20.694 9.26082 20.772 9.26102 20.8516V39.1295C9.26102 39.4328 9.57274 39.6376 9.85008 39.5148C14.4622 37.4725 19.4709 37.428 24.0999 39.3804C24.3848 39.5005 24.6908 39.5623 25 39.5623V20.5858Z" fill="url(#paint18_linear_17_2141)"/>
<path d="M25 20.5858C20.0099 18.1729 14.5081 18.1347 9.50125 20.4717C9.42924 20.5056 9.3684 20.5594 9.32585 20.6267C9.28331 20.694 9.26082 20.772 9.26102 20.8516V39.1295C9.26102 39.4328 9.57274 39.6376 9.85008 39.5148C14.4622 37.4725 19.4709 37.428 24.0999 39.3804C24.3848 39.5005 24.6908 39.5623 25 39.5623V20.5858Z" fill="url(#paint19_linear_17_2141)"/>
<path d="M25 20.5858C20.0099 18.1729 14.5081 18.1347 9.50125 20.4717C9.42924 20.5056 9.3684 20.5594 9.32585 20.6267C9.28331 20.694 9.26082 20.772 9.26102 20.8516V39.1295C9.26102 39.4328 9.57274 39.6376 9.85008 39.5148C14.4622 37.4725 19.4709 37.428 24.0999 39.3804C24.3848 39.5005 24.6908 39.5623 25 39.5623V20.5858Z" fill="url(#paint20_linear_17_2141)"/>
<path d="M40.1499 38.8419C35.5378 36.7996 30.5291 36.755 25.9001 38.7074C25.6152 38.8275 25.3091 38.8893 24.9999 38.8893C24.6908 38.8893 24.3847 38.8275 24.0998 38.7074C19.4708 36.755 14.4621 36.7996 9.84999 38.8419C9.57264 38.9647 9.26093 38.7598 9.26093 38.4565V39.1298C9.26093 39.4332 9.57264 39.6379 9.84999 39.5152C14.4621 37.4729 19.4708 37.4284 24.0998 39.3807C24.3847 39.5008 24.6908 39.5627 24.9999 39.5627C25.3091 39.5627 25.6152 39.5008 25.9001 39.3807C30.5291 37.4284 35.5378 37.4729 40.1499 39.5152C40.4272 39.638 40.739 39.4332 40.739 39.1298V38.4565C40.739 38.7597 40.4272 38.9646 40.1499 38.8419Z" fill="url(#paint21_linear_17_2141)"/>
<path d="M39.7736 19.6515C34.9907 17.4841 29.7547 17.5502 25 19.8493C20.2453 17.5503 15.0093 17.4841 10.2264 19.6515C10.1004 19.7089 9.99352 19.8014 9.91864 19.9178C9.84376 20.0343 9.804 20.1699 9.80411 20.3084V37.2754C9.80411 37.7906 10.3276 38.1374 10.8039 37.9408C15.1795 36.1349 19.8979 36.1716 24.2591 38.05C24.493 38.1509 24.7451 38.2029 24.9999 38.2029C25.2547 38.2029 25.5068 38.1509 25.7407 38.05C30.102 36.1716 34.8203 36.1349 39.1959 37.9408C39.6722 38.1374 40.1957 37.7907 40.1957 37.2754V20.3084C40.1959 20.1699 40.1562 20.0343 40.0813 19.9178C40.0065 19.8014 39.8997 19.7089 39.7736 19.6515Z" fill="url(#paint22_linear_17_2141)"/>
<path d="M39.7736 19.6515C38.4193 19.0377 37.0287 18.6036 35.623 18.3479V36.8881C36.8296 37.1075 38.0252 37.4575 39.1961 37.9408C39.6724 38.1374 40.1959 37.7907 40.1959 37.2753V20.3083C40.196 20.1699 40.1562 20.0343 40.0814 19.9178C40.0065 19.8014 39.8997 19.7089 39.7736 19.6515Z" fill="url(#paint23_linear_17_2141)"/>
<path d="M25 19.8493C20.2453 17.5502 15.0093 17.484 10.2264 19.6515C10.1004 19.7089 9.99352 19.8013 9.91864 19.9178C9.84376 20.0343 9.804 20.1699 9.80411 20.3083V37.2753C9.80411 37.7906 10.3276 38.1373 10.8039 37.9408C15.1795 36.1349 19.8979 36.1715 24.2591 38.0499C24.493 38.1508 24.7451 38.2028 24.9999 38.2029V19.8493H25Z" fill="url(#paint24_linear_17_2141)"/>
<path d="M39.196 37.3095C34.8204 35.5036 30.1021 35.5402 25.7408 37.4187C25.5069 37.5196 25.2548 37.5716 25 37.5716C24.7452 37.5716 24.4931 37.5196 24.2592 37.4187C19.898 35.5402 15.1796 35.5036 10.804 37.3095C10.3277 37.5061 9.8042 37.1594 9.8042 36.6441V37.2752C9.8042 37.7904 10.3277 38.1372 10.804 37.9406C15.1796 36.1348 19.898 36.1714 24.2592 38.0498C24.4931 38.1507 24.7452 38.2028 25 38.2028C25.2548 38.2028 25.5069 38.1507 25.7408 38.0498C30.1021 36.1714 34.8204 36.1348 39.196 37.9406C39.6723 38.1372 40.1958 37.7905 40.1958 37.2752V36.6441C40.1959 37.1593 39.6724 37.5061 39.196 37.3095Z" fill="url(#paint25_linear_17_2141)"/>
<path d="M39.196 36.9035C34.8204 35.0976 30.1021 35.1342 25.7408 37.0127C25.5069 37.1136 25.2548 37.1656 25 37.1656C24.7452 37.1656 24.4931 37.1136 24.2592 37.0127C19.898 35.1342 15.1796 35.0976 10.804 36.9035C10.3277 37.1001 9.8042 36.7534 9.8042 36.2381V36.8692C9.8042 37.3844 10.3277 37.7312 10.804 37.5346C15.1796 35.7288 19.898 35.7654 24.2592 37.6438C24.4931 37.7447 24.7452 37.7967 25 37.7967C25.2548 37.7967 25.5069 37.7447 25.7408 37.6438C30.1021 35.7654 34.8204 35.7288 39.196 37.5346C39.6723 37.7312 40.1958 37.3845 40.1958 36.8692V36.2381C40.1959 36.7534 39.6724 37.1001 39.196 36.9035Z" fill="url(#paint26_linear_17_2141)"/>
<path d="M39.196 36.4972C34.8204 34.6914 30.1021 34.728 25.7408 36.6064C25.5069 36.7073 25.2548 36.7593 25 36.7593C24.7452 36.7593 24.4931 36.7073 24.2592 36.6064C19.898 34.728 15.1796 34.6914 10.804 36.4972C10.3277 36.6938 9.8042 36.3471 9.8042 35.8318V36.463C9.8042 36.9782 10.3277 37.325 10.804 37.1284C15.1796 35.3225 19.898 35.3591 24.2592 37.2376C24.4931 37.3385 24.7452 37.3905 25 37.3905C25.2548 37.3905 25.5069 37.3385 25.7408 37.2376C30.1021 35.3591 34.8204 35.3225 39.196 37.1284C39.6723 37.325 40.1958 36.9783 40.1958 36.463V35.8318C40.1959 36.3471 39.6724 36.6938 39.196 36.4972Z" fill="url(#paint27_linear_17_2141)"/>
<path d="M39.196 36.0912C34.8204 34.2854 30.1021 34.322 25.7408 36.2004C25.5069 36.3013 25.2548 36.3533 25 36.3533C24.7452 36.3533 24.4931 36.3013 24.2592 36.2004C19.898 34.322 15.1796 34.2854 10.804 36.0912C10.3277 36.2878 9.8042 35.9411 9.8042 35.4258V36.0569C9.8042 36.5722 10.3277 36.919 10.804 36.7224C15.1796 34.9165 19.898 34.9531 24.2592 36.8316C24.4931 36.9324 24.7452 36.9845 25 36.9845C25.2548 36.9845 25.5069 36.9324 25.7408 36.8316C30.1021 34.9531 34.8204 34.9165 39.196 36.7224C39.6723 36.919 40.1958 36.5723 40.1958 36.0569V35.4258C40.1959 35.941 39.6724 36.2878 39.196 36.0912Z" fill="url(#paint28_linear_17_2141)"/>
<path d="M40.1959 37.2754V20.3084C40.196 20.1699 40.1563 20.0343 40.0814 19.9178C40.0065 19.8014 39.8997 19.7089 39.7736 19.6515C34.9907 17.4841 29.7547 17.5502 25 19.8493C24.9813 19.8403 24.9626 19.832 24.9439 19.823V24.5468L22.0986 27.3922L31.3662 36.6597C34.0004 36.4664 36.656 36.8925 39.1961 37.9408C39.6724 38.1374 40.1959 37.7907 40.1959 37.2754Z" fill="url(#paint29_linear_17_2141)"/>
<path d="M25 28.9734C25.8734 28.9734 26.5814 28.2654 26.5814 27.392C26.5814 26.5186 25.8734 25.8105 25 25.8105C24.1266 25.8105 23.4185 26.5186 23.4185 27.392C23.4185 28.2654 24.1266 28.9734 25 28.9734Z" fill="url(#paint30_linear_17_2141)"/>
<path d="M25 28.9734C25.8734 28.9734 26.5814 28.2654 26.5814 27.392C26.5814 26.5186 25.8734 25.8105 25 25.8105C24.1266 25.8105 23.4185 26.5186 23.4185 27.392C23.4185 28.2654 24.1266 28.9734 25 28.9734Z" fill="url(#paint31_linear_17_2141)"/>
<path d="M25 28.9734C25.8734 28.9734 26.5814 28.2654 26.5814 27.392C26.5814 26.5186 25.8734 25.8105 25 25.8105C24.1266 25.8105 23.4185 26.5186 23.4185 27.392C23.4185 28.2654 24.1266 28.9734 25 28.9734Z" fill="url(#paint32_linear_17_2141)"/>
<path d="M27.1605 27.6761H22.8393C22.2246 27.6761 21.7263 27.1777 21.7263 26.563V25.1587H28.2735V26.563C28.2736 27.1777 27.7753 27.6761 27.1605 27.6761Z" fill="url(#paint33_linear_17_2141)"/>
<path d="M27.1605 27.6761H22.8393C22.2246 27.6761 21.7263 27.1777 21.7263 26.563V25.1587H28.2735V26.563C28.2736 27.1777 27.7753 27.6761 27.1605 27.6761Z" fill="url(#paint34_linear_17_2141)"/>
<path d="M28.2735 25.1589V26.5629C28.2735 27.1781 27.7753 27.6763 27.1602 27.6763H25V25.1589H28.2735Z" fill="url(#paint35_linear_17_2141)"/>
<path d="M31.5839 13.3353C31.5839 9.66794 28.5854 6.70095 24.9063 6.75212C21.351 6.80153 18.4532 9.71032 18.4166 13.2659C18.4003 14.8511 18.9443 16.3088 19.8629 17.4531C20.8379 18.6677 21.5178 20.0921 21.9036 21.6011L21.9519 21.7903H28.0481L28.1114 21.5428C28.4993 20.0258 29.2232 18.6219 30.1882 17.3888C31.0626 16.2714 31.5839 14.8642 31.5839 13.3353Z" fill="url(#paint36_linear_17_2141)"/>
<path d="M24.9062 6.75212C24.4045 6.75949 23.9053 6.8247 23.4185 6.94645V21.7902H28.048L28.1113 21.5427C28.4992 20.0257 29.2231 18.6219 30.1881 17.3888C31.0625 16.2714 31.5838 14.8642 31.5838 13.3353C31.5839 9.66794 28.5853 6.70095 24.9062 6.75212Z" fill="url(#paint37_linear_17_2141)"/>
<path d="M25 16.292C27.7665 16.292 30.0092 14.2518 30.0092 11.735C30.0092 9.21823 27.7665 7.17798 25 7.17798C22.2335 7.17798 19.9908 9.21823 19.9908 11.735C19.9908 14.2518 22.2335 16.292 25 16.292Z" fill="url(#paint38_linear_17_2141)"/>
<path d="M18.4165 13.2658C18.4002 14.8511 18.9442 16.3087 19.8628 17.453C20.8378 18.6677 21.5177 20.092 21.9035 21.601L21.9518 21.7901H28.048L28.1113 21.5427C28.4992 20.0257 29.2231 18.6219 30.1881 17.3888C31.0625 16.2713 31.5838 14.8642 31.5838 13.3353C31.5838 13.2423 31.5806 13.1501 31.5767 13.0581H18.4238C18.421 13.1273 18.4172 13.1962 18.4165 13.2658Z" fill="url(#paint39_linear_17_2141)"/>
<path d="M28.8198 26.0458H21.1801C20.9324 26.0458 20.6949 25.9474 20.5198 25.7723C20.3447 25.5972 20.2463 25.3597 20.2463 25.112C20.2463 24.8644 20.3447 24.6268 20.5198 24.4517C20.6949 24.2766 20.9324 24.1782 21.1801 24.1782H28.8198C29.0675 24.1782 29.305 24.2766 29.4801 24.4517C29.6552 24.6268 29.7536 24.8644 29.7536 25.112C29.7536 25.3597 29.6552 25.5972 29.4801 25.7723C29.305 25.9474 29.0675 26.0458 28.8198 26.0458Z" fill="url(#paint40_linear_17_2141)"/>
<path d="M28.8198 24.6027H21.1801C20.9324 24.6027 20.6949 24.5043 20.5198 24.3292C20.3447 24.1541 20.2463 23.9166 20.2463 23.6689C20.2463 23.5463 20.2704 23.4248 20.3174 23.3116C20.3643 23.1983 20.4331 23.0953 20.5198 23.0086C20.6065 22.9219 20.7094 22.8531 20.8227 22.8062C20.936 22.7593 21.0574 22.7351 21.1801 22.7351H28.8198C28.9424 22.7351 29.0639 22.7593 29.1772 22.8062C29.2905 22.8531 29.3934 22.9219 29.4801 23.0086C29.5668 23.0953 29.6356 23.1983 29.6825 23.3116C29.7294 23.4248 29.7536 23.5463 29.7536 23.6689C29.7536 23.9166 29.6552 24.1541 29.4801 24.3292C29.305 24.5043 29.0675 24.6027 28.8198 24.6027Z" fill="url(#paint41_linear_17_2141)"/>
<path d="M28.8198 23.1598H21.1801C20.9324 23.1598 20.6949 23.0614 20.5198 22.8863C20.3447 22.7112 20.2463 22.4737 20.2463 22.226C20.2463 21.9784 20.3447 21.7409 20.5198 21.5657C20.6949 21.3906 20.9324 21.2922 21.1801 21.2922H28.8198C29.0675 21.2922 29.305 21.3906 29.4801 21.5657C29.6552 21.7409 29.7536 21.9784 29.7536 22.226C29.7536 22.3487 29.7295 22.4701 29.6825 22.5834C29.6356 22.6967 29.5668 22.7996 29.4801 22.8863C29.3934 22.9731 29.2905 23.0418 29.1772 23.0888C29.0639 23.1357 28.9424 23.1598 28.8198 23.1598Z" fill="url(#paint42_linear_17_2141)"/>
<path d="M25.1329 2.73511C24.939 2.73511 24.7531 2.81212 24.616 2.9492C24.479 3.08628 24.4019 3.2722 24.4019 3.46606V4.49683C24.4019 4.69069 24.479 4.87661 24.616 5.01369C24.7531 5.15077 24.939 5.22778 25.1329 5.22778C25.3268 5.22778 25.5127 5.15077 25.6498 5.01369C25.7868 4.87661 25.8639 4.69069 25.8639 4.49683V3.46606C25.8639 3.37007 25.845 3.27501 25.8082 3.18632C25.7715 3.09763 25.7177 3.01705 25.6498 2.94917C25.5819 2.88129 25.5013 2.82745 25.4126 2.79072C25.324 2.75399 25.2289 2.73509 25.1329 2.73511Z" fill="url(#paint43_linear_17_2141)"/>
<path d="M34.538 6.48171L34.9267 5.52702C34.9971 5.34802 34.9941 5.1485 34.9183 4.97172C34.8426 4.79493 34.7002 4.65511 34.5221 4.58257C34.344 4.51002 34.1444 4.51059 33.9667 4.58415C33.789 4.65771 33.6475 4.79834 33.5727 4.97555L33.184 5.93024C33.1136 6.10924 33.1166 6.30876 33.1924 6.48554C33.2681 6.66233 33.4105 6.80215 33.5886 6.8747C33.7667 6.94724 33.9663 6.94667 34.144 6.87311C34.3217 6.79955 34.4632 6.65892 34.538 6.48171Z" fill="url(#paint44_linear_17_2141)"/>
<path d="M16.4341 6.98505C16.5225 6.94779 16.6028 6.89347 16.6703 6.82519C16.7378 6.75691 16.7911 6.67601 16.8273 6.5871C16.8635 6.4982 16.8819 6.40303 16.8813 6.30703C16.8807 6.21104 16.8613 6.1161 16.824 6.02763L16.4239 5.07763C16.3866 4.98916 16.3323 4.90889 16.264 4.84142C16.1958 4.77394 16.1149 4.72058 16.026 4.68437C15.937 4.64816 15.8419 4.62981 15.7459 4.63038C15.6499 4.63095 15.555 4.65042 15.4665 4.68769C15.378 4.72495 15.2977 4.77927 15.2303 4.84755C15.1628 4.91583 15.1094 4.99673 15.0732 5.08564C15.037 5.17454 15.0187 5.26971 15.0192 5.3657C15.0198 5.4617 15.0393 5.55664 15.0765 5.64511L15.4766 6.59511C15.5139 6.68358 15.5682 6.76385 15.6365 6.83133C15.7048 6.8988 15.7857 6.95217 15.8746 6.98838C15.9635 7.02459 16.0587 7.04293 16.1547 7.04236C16.2506 7.04179 16.3456 7.02232 16.4341 6.98505Z" fill="url(#paint45_linear_17_2141)"/>
<defs>
<linearGradient id="paint0_linear_17_2141" x1="4.32391" y1="28.345" x2="45.6761" y2="28.345" gradientUnits="userSpaceOnUse">
<stop stop-color="#5A5A5A"/>
<stop offset="1" stop-color="#444444"/>
</linearGradient>
<linearGradient id="paint1_linear_17_2141" x1="42.4282" y1="28.345" x2="45.5012" y2="28.345" gradientUnits="userSpaceOnUse">
<stop stop-color="#433F43" stop-opacity="0"/>
<stop offset="0.344" stop-color="#403C40" stop-opacity="0.344"/>
<stop offset="0.622" stop-color="#363336" stop-opacity="0.622"/>
<stop offset="0.876" stop-color="#252425" stop-opacity="0.876"/>
<stop offset="1" stop-color="#1A1A1A"/>
</linearGradient>
<linearGradient id="paint2_linear_17_2141" x1="33.9053" y1="18.7515" x2="30.2852" y2="17.6376" gradientUnits="userSpaceOnUse">
<stop stop-color="#433F43" stop-opacity="0"/>
<stop offset="0.344" stop-color="#403C40" stop-opacity="0.344"/>
<stop offset="0.622" stop-color="#363336" stop-opacity="0.622"/>
<stop offset="0.876" stop-color="#252425" stop-opacity="0.876"/>
<stop offset="1" stop-color="#1A1A1A"/>
</linearGradient>
<linearGradient id="paint3_linear_17_2141" x1="25" y1="38.6717" x2="25" y2="40.887" gradientUnits="userSpaceOnUse">
<stop stop-color="#433F43" stop-opacity="0"/>
<stop offset="0.344" stop-color="#403C40" stop-opacity="0.344"/>
<stop offset="0.622" stop-color="#363336" stop-opacity="0.622"/>
<stop offset="0.876" stop-color="#252425" stop-opacity="0.876"/>
<stop offset="1" stop-color="#1A1A1A"/>
</linearGradient>
<linearGradient id="paint4_linear_17_2141" x1="17.178" y1="22.048" x2="36.5776" y2="41.4476" gradientUnits="userSpaceOnUse">
<stop stop-color="#8AC9FE"/>
<stop offset="1" stop-color="#0172FB"/>
</linearGradient>
<linearGradient id="paint5_linear_17_2141" x1="9.84783" y1="29.4415" x2="4.92986" y2="29.4415" gradientUnits="userSpaceOnUse">
<stop stop-color="#2740B0" stop-opacity="0"/>
<stop offset="1" stop-color="#2740B0"/>
</linearGradient>
<linearGradient id="paint6_linear_17_2141" x1="25" y1="37.1054" x2="25" y2="44.7398" gradientUnits="userSpaceOnUse">
<stop stop-color="#2740B0" stop-opacity="0"/>
<stop offset="1" stop-color="#2740B0"/>
</linearGradient>
<linearGradient id="paint7_linear_17_2141" x1="31.244" y1="39.8106" x2="25.1178" y2="29.02" gradientUnits="userSpaceOnUse">
<stop stop-color="#2740B0" stop-opacity="0"/>
<stop offset="1" stop-color="#2740B0"/>
</linearGradient>
<linearGradient id="paint8_linear_17_2141" x1="25" y1="20.1889" x2="25" y2="14.0201" gradientUnits="userSpaceOnUse">
<stop stop-color="#2740B0" stop-opacity="0"/>
<stop offset="1" stop-color="#2740B0"/>
</linearGradient>
<linearGradient id="paint9_linear_17_2141" x1="33.2631" y1="19.5766" x2="29.8519" y2="17.5578" gradientUnits="userSpaceOnUse">
<stop stop-color="#2740B0" stop-opacity="0"/>
<stop offset="1" stop-color="#2740B0"/>
</linearGradient>
<linearGradient id="paint10_linear_17_2141" x1="22.883" y1="12.5256" x2="25.5414" y2="15.184" gradientUnits="userSpaceOnUse">
<stop stop-color="#433F43" stop-opacity="0"/>
<stop offset="0.344" stop-color="#403C40" stop-opacity="0.344"/>
<stop offset="0.622" stop-color="#363336" stop-opacity="0.622"/>
<stop offset="0.876" stop-color="#252425" stop-opacity="0.876"/>
<stop offset="1" stop-color="#1A1A1A"/>
</linearGradient>
<linearGradient id="paint11_linear_17_2141" x1="25" y1="42.3508" x2="25" y2="46.7144" gradientUnits="userSpaceOnUse">
<stop stop-color="#5A5A5A"/>
<stop offset="1" stop-color="#444444"/>
</linearGradient>
<linearGradient id="paint12_linear_17_2141" x1="25" y1="44.5319" x2="25" y2="47.3725" gradientUnits="userSpaceOnUse">
<stop stop-color="#433F43" stop-opacity="0"/>
<stop offset="0.344" stop-color="#403C40" stop-opacity="0.344"/>
<stop offset="0.622" stop-color="#363336" stop-opacity="0.622"/>
<stop offset="0.876" stop-color="#252425" stop-opacity="0.876"/>
<stop offset="1" stop-color="#1A1A1A"/>
</linearGradient>
<linearGradient id="paint13_linear_17_2141" x1="45.1327" y1="45.3347" x2="48.8456" y2="47.0519" gradientUnits="userSpaceOnUse">
<stop stop-color="#433F43" stop-opacity="0"/>
<stop offset="0.344" stop-color="#403C40" stop-opacity="0.344"/>
<stop offset="0.622" stop-color="#363336" stop-opacity="0.622"/>
<stop offset="0.876" stop-color="#252425" stop-opacity="0.876"/>
<stop offset="1" stop-color="#1A1A1A"/>
</linearGradient>
<linearGradient id="paint14_linear_17_2141" x1="25" y1="43.8814" x2="25" y2="42.486" gradientUnits="userSpaceOnUse">
<stop stop-color="#5A5A5A"/>
<stop offset="1" stop-color="#444444"/>
</linearGradient>
<linearGradient id="paint15_linear_17_2141" x1="18.0434" y1="18.3092" x2="32.7036" y2="42.9272" gradientUnits="userSpaceOnUse">
<stop stop-color="#BBEC6C"/>
<stop offset="0.197" stop-color="#B5E665"/>
<stop offset="0.48" stop-color="#A5D552"/>
<stop offset="0.812" stop-color="#8ABB33"/>
<stop offset="1" stop-color="#78A91F"/>
</linearGradient>
<linearGradient id="paint16_linear_17_2141" x1="25" y1="36.3217" x2="25" y2="39.4677" gradientUnits="userSpaceOnUse">
<stop stop-color="#334C0F" stop-opacity="0"/>
<stop offset="0.32" stop-color="#344C12" stop-opacity="0.32"/>
<stop offset="0.565" stop-color="#374A1C" stop-opacity="0.565"/>
<stop offset="0.786" stop-color="#3C482C" stop-opacity="0.786"/>
<stop offset="0.991" stop-color="#444443" stop-opacity="0.991"/>
<stop offset="1" stop-color="#444444"/>
</linearGradient>
<linearGradient id="paint17_linear_17_2141" x1="38.1782" y1="29.1999" x2="40.6015" y2="29.1999" gradientUnits="userSpaceOnUse">
<stop stop-color="#334C0F" stop-opacity="0"/>
<stop offset="0.32" stop-color="#344C12" stop-opacity="0.32"/>
<stop offset="0.565" stop-color="#374A1C" stop-opacity="0.565"/>
<stop offset="0.786" stop-color="#3C482C" stop-opacity="0.786"/>
<stop offset="0.991" stop-color="#444443" stop-opacity="0.991"/>
<stop offset="1" stop-color="#444444"/>
</linearGradient>
<linearGradient id="paint18_linear_17_2141" x1="12.6832" y1="29.1548" x2="25.06" y2="29.1548" gradientUnits="userSpaceOnUse">
<stop stop-color="#BBEC6C"/>
<stop offset="0.197" stop-color="#B5E665"/>
<stop offset="0.48" stop-color="#A5D552"/>
<stop offset="0.812" stop-color="#8ABB33"/>
<stop offset="1" stop-color="#78A91F"/>
</linearGradient>
<linearGradient id="paint19_linear_17_2141" x1="18.5369" y1="29.1548" x2="24.1688" y2="29.1548" gradientUnits="userSpaceOnUse">
<stop stop-color="#334C0F" stop-opacity="0"/>
<stop offset="0.32" stop-color="#344C12" stop-opacity="0.32"/>
<stop offset="0.565" stop-color="#374A1C" stop-opacity="0.565"/>
<stop offset="0.786" stop-color="#3C482C" stop-opacity="0.786"/>
<stop offset="0.991" stop-color="#444443" stop-opacity="0.991"/>
<stop offset="1" stop-color="#444444"/>
</linearGradient>
<linearGradient id="paint20_linear_17_2141" x1="17.1305" y1="36.9514" x2="17.1305" y2="39.7557" gradientUnits="userSpaceOnUse">
<stop stop-color="#334C0F" stop-opacity="0"/>
<stop offset="0.32" stop-color="#344C12" stop-opacity="0.32"/>
<stop offset="0.565" stop-color="#374A1C" stop-opacity="0.565"/>
<stop offset="0.786" stop-color="#3C482C" stop-opacity="0.786"/>
<stop offset="0.991" stop-color="#444443" stop-opacity="0.991"/>
<stop offset="1" stop-color="#444444"/>
</linearGradient>
<linearGradient id="paint21_linear_17_2141" x1="25" y1="24.7348" x2="25" y2="43.9532" gradientUnits="userSpaceOnUse">
<stop stop-color="#334C0F" stop-opacity="0"/>
<stop offset="0.32" stop-color="#344C12" stop-opacity="0.32"/>
<stop offset="0.565" stop-color="#374A1C" stop-opacity="0.565"/>
<stop offset="0.786" stop-color="#3C482C" stop-opacity="0.786"/>
<stop offset="0.991" stop-color="#444443" stop-opacity="0.991"/>
<stop offset="1" stop-color="#444444"/>
</linearGradient>
<linearGradient id="paint22_linear_17_2141" x1="23.2149" y1="25.0317" x2="32.3347" y2="44.2458" gradientUnits="userSpaceOnUse">
<stop stop-color="#F5FBFF"/>
<stop offset="1" stop-color="#91DCFA"/>
</linearGradient>
<linearGradient id="paint23_linear_17_2141" x1="36.6479" y1="28.1722" x2="40.356" y2="28.1722" gradientUnits="userSpaceOnUse">
<stop stop-color="#60B7FF" stop-opacity="0"/>
<stop offset="1" stop-color="#60B7FF"/>
</linearGradient>
<linearGradient id="paint24_linear_17_2141" x1="21.0373" y1="28.1384" x2="26.0026" y2="28.1384" gradientUnits="userSpaceOnUse">
<stop stop-color="#60B7FF" stop-opacity="0"/>
<stop offset="1" stop-color="#60B7FF"/>
</linearGradient>
<linearGradient id="paint25_linear_17_2141" x1="25" y1="40.1403" x2="25" y2="33.3408" gradientUnits="userSpaceOnUse">
<stop stop-color="#60B7FF" stop-opacity="0"/>
<stop offset="1" stop-color="#60B7FF"/>
</linearGradient>
<linearGradient id="paint26_linear_17_2141" x1="25" y1="39.7343" x2="25" y2="32.9349" gradientUnits="userSpaceOnUse">
<stop stop-color="#60B7FF" stop-opacity="0"/>
<stop offset="1" stop-color="#60B7FF"/>
</linearGradient>
<linearGradient id="paint27_linear_17_2141" x1="25" y1="39.3281" x2="25" y2="32.5286" gradientUnits="userSpaceOnUse">
<stop stop-color="#60B7FF" stop-opacity="0"/>
<stop offset="1" stop-color="#60B7FF"/>
</linearGradient>
<linearGradient id="paint28_linear_17_2141" x1="25" y1="38.922" x2="25" y2="32.1226" gradientUnits="userSpaceOnUse">
<stop stop-color="#60B7FF" stop-opacity="0"/>
<stop offset="1" stop-color="#60B7FF"/>
</linearGradient>
<linearGradient id="paint29_linear_17_2141" x1="33.3744" y1="26.6713" x2="26.4476" y2="22.007" gradientUnits="userSpaceOnUse">
<stop stop-color="#60B7FF" stop-opacity="0"/>
<stop offset="1" stop-color="#60B7FF"/>
</linearGradient>
<linearGradient id="paint30_linear_17_2141" x1="25" y1="27.3898" x2="25" y2="28.8054" gradientUnits="userSpaceOnUse">
<stop stop-color="#8AC9FE"/>
<stop offset="1" stop-color="#0172FB"/>
</linearGradient>
<linearGradient id="paint31_linear_17_2141" x1="23.9366" y1="27.392" x2="26.6907" y2="27.392" gradientUnits="userSpaceOnUse">
<stop stop-color="#2740B0" stop-opacity="0"/>
<stop offset="1" stop-color="#2740B0"/>
</linearGradient>
<linearGradient id="paint32_linear_17_2141" x1="24.8347" y1="29.3961" x2="24.9905" y2="27.5073" gradientUnits="userSpaceOnUse">
<stop stop-color="#2740B0" stop-opacity="0"/>
<stop offset="1" stop-color="#2740B0"/>
</linearGradient>
<linearGradient id="paint33_linear_17_2141" x1="25" y1="25.7932" x2="25" y2="27.3976" gradientUnits="userSpaceOnUse">
<stop stop-color="#8AC9FE"/>
<stop offset="1" stop-color="#0172FB"/>
</linearGradient>
<linearGradient id="paint34_linear_17_2141" x1="25" y1="26.8837" x2="25" y2="25.5784" gradientUnits="userSpaceOnUse">
<stop stop-color="#2740B0" stop-opacity="0"/>
<stop offset="1" stop-color="#2740B0"/>
</linearGradient>
<linearGradient id="paint35_linear_17_2141" x1="26.0591" y1="26.4176" x2="28.4088" y2="26.4176" gradientUnits="userSpaceOnUse">
<stop stop-color="#2740B0" stop-opacity="0"/>
<stop offset="1" stop-color="#2740B0"/>
</linearGradient>
<linearGradient id="paint36_linear_17_2141" x1="21.9389" y1="12.2644" x2="28.7152" y2="17.4051" gradientUnits="userSpaceOnUse">
<stop stop-color="#FEF0AE"/>
<stop offset="1" stop-color="#FAC600"/>
</linearGradient>
<linearGradient id="paint37_linear_17_2141" x1="26.1392" y1="14.8714" x2="30.699" y2="17.4471" gradientUnits="userSpaceOnUse">
<stop stop-color="#C41926" stop-opacity="0"/>
<stop offset="0.363" stop-color="#BF1C27" stop-opacity="0.363"/>
<stop offset="0.8" stop-color="#B12529" stop-opacity="0.8"/>
<stop offset="1" stop-color="#A72B2B"/>
</linearGradient>
<linearGradient id="paint38_linear_17_2141" x1="25" y1="13.8555" x2="25" y2="1.73511" gradientUnits="userSpaceOnUse">
<stop stop-color="white" stop-opacity="0"/>
<stop offset="1" stop-color="white"/>
</linearGradient>
<linearGradient id="paint39_linear_17_2141" x1="25" y1="17.9226" x2="25" y2="21.6594" gradientUnits="userSpaceOnUse">
<stop stop-color="#FE9738" stop-opacity="0"/>
<stop offset="1" stop-color="#FE9738"/>
</linearGradient>
<linearGradient id="paint40_linear_17_2141" x1="25" y1="24.218" x2="25" y2="25.8747" gradientUnits="userSpaceOnUse">
<stop stop-color="#8AC9FE"/>
<stop offset="1" stop-color="#0172FB"/>
</linearGradient>
<linearGradient id="paint41_linear_17_2141" x1="25" y1="22.7749" x2="25" y2="24.4316" gradientUnits="userSpaceOnUse">
<stop stop-color="#8AC9FE"/>
<stop offset="1" stop-color="#0172FB"/>
</linearGradient>
<linearGradient id="paint42_linear_17_2141" x1="25" y1="21.332" x2="25" y2="22.9887" gradientUnits="userSpaceOnUse">
<stop stop-color="#8AC9FE"/>
<stop offset="1" stop-color="#0172FB"/>
</linearGradient>
<linearGradient id="paint43_linear_17_2141" x1="23.0631" y1="3.58989" x2="27.8714" y2="4.49956" gradientUnits="userSpaceOnUse">
<stop stop-color="#FEF0AE"/>
<stop offset="1" stop-color="#FAC600"/>
</linearGradient>
<linearGradient id="paint44_linear_17_2141" x1="31.9693" y1="5.33405" x2="36.8153" y2="6.25085" gradientUnits="userSpaceOnUse">
<stop stop-color="#FEF0AE"/>
<stop offset="1" stop-color="#FAC600"/>
</linearGradient>
<linearGradient id="paint45_linear_17_2141" x1="13.4072" y1="5.35526" x2="19.3146" y2="6.47294" gradientUnits="userSpaceOnUse">
<stop stop-color="#FEF0AE"/>
<stop offset="1" stop-color="#FAC600"/>
</linearGradient>
</defs>
</svg>
