<svg width="50" height="50" viewBox="0 0 50 50" fill="none" xmlns="http://www.w3.org/2000/svg">
<g clip-path="url(#clip0_17_1749)">
<path d="M43.7418 6.66083C38.2339 6.66081 32.8943 4.7631 28.6218 1.28721C26.5123 -0.429069 23.4878 -0.429069 21.3782 1.28721C17.1058 4.76315 11.7662 6.66086 6.25834 6.66083C4.53844 6.66083 3.14423 8.05505 3.14423 9.77495V18.1212C3.14423 28.8282 7.9655 38.966 16.2711 45.7232L18.8345 47.8087C22.4258 50.7304 27.5746 50.7304 31.1659 47.8087L33.7293 45.7232C42.0348 38.9661 46.8562 28.8278 46.8562 18.1208V9.77426C46.8559 8.05436 45.4617 6.66083 43.7418 6.66083Z" fill="url(#paint0_linear_17_1749)"/>
<path d="M25 47.2522C24.3978 47.2516 23.8141 47.0441 23.3466 46.6646L18.4437 42.6757C14.8627 39.7622 11.9217 36.0185 9.93893 31.8494C7.95618 27.6802 6.90814 23.0363 6.90814 18.4198V11.7964C6.90814 10.9951 7.56324 10.3138 8.36344 10.2715C13.82 9.98299 19.0952 7.95956 23.3466 4.50073C23.8141 4.12116 24.3978 3.9137 25 3.91309C25.6022 3.91367 26.1859 4.1211 26.6534 4.50063C30.905 7.95956 36.1803 9.98299 41.6369 10.2715C42.4369 10.3138 43.0919 10.995 43.0919 11.7962V18.4194C43.0919 23.036 42.0438 27.6799 40.0611 31.8492C38.0783 36.0185 35.1375 39.7622 31.5564 42.6757L26.6534 46.6646C26.1859 47.0442 25.6022 47.2516 25 47.2522Z" fill="url(#paint1_linear_17_1749)"/>
<path d="M25 45.4237C24.4486 45.4231 23.9142 45.2332 23.4861 44.8856L18.997 41.2335C15.7181 38.5658 13.0253 35.138 11.2099 31.3207C9.39454 27.5035 8.43494 23.2514 8.43494 19.0243V12.9599C8.43494 12.2263 9.03474 11.6025 9.76739 11.5637C14.7635 11.2994 19.5936 9.4468 23.4861 6.27984C23.9142 5.93231 24.4486 5.74233 25 5.7417C25.5514 5.74225 26.0858 5.93219 26.5139 6.27974C30.4066 9.4468 35.2368 11.2994 40.2329 11.5637C40.9654 11.6024 41.5651 12.2261 41.5651 12.9596V19.0239C41.5651 23.2509 40.6055 27.503 38.7901 31.3204C36.9747 35.1379 34.282 38.5657 31.0031 41.2334L26.5139 44.8855C26.0859 45.2331 25.5514 45.4231 25 45.4237Z" fill="url(#paint2_linear_17_1749)"/>
<path d="M46.8559 9.77431C46.8559 8.05441 45.4617 6.66088 43.7418 6.66088C38.2339 6.66086 32.8943 4.76315 28.6218 1.28726C27.5988 0.453861 26.3195 -0.000835326 25 1.15206e-06V50C27.185 50 29.37 49.2696 31.1657 47.8087L33.7291 45.7232C42.0346 38.9662 46.8559 28.8278 46.856 18.1209L46.8559 9.77431Z" fill="url(#paint3_linear_17_1749)"/>
<path d="M41.3163 14.55C40.3368 13.5706 38.7488 13.7714 37.7692 14.7508L25.5487 26.9712C25.4296 27.0903 25.093 27.3161 25 27.3161C24.9071 27.3161 24.7712 27.2911 24.652 27.1719L19.9677 22.4876C18.9882 21.5082 17.5005 21.5082 16.521 22.4876C15.5415 23.4671 15.4411 24.8543 16.4206 25.8339L35.1183 44.5315C42.0917 38.2361 46.293 29.4337 46.803 20.0556L41.3163 14.55Z" fill="url(#paint4_linear_17_1749)"/>
<path d="M33.7291 45.7232C39.6572 40.9003 43.8097 34.3545 45.7016 27.1091L34.3991 15.8068C32.0403 13.3154 28.7019 11.9617 25.0001 11.9617C17.9472 11.9616 12.2588 17.6501 12.2589 24.7029C12.2589 28.4047 13.6126 31.743 16.1041 34.1019L29.6882 47.686C29.8886 47.8863 30.1562 48.0053 30.4392 48.0198C30.7221 48.0343 31.0005 47.9433 31.2203 47.7645L33.7291 45.7232Z" fill="url(#paint5_linear_17_1749)"/>
<path d="M25 37.6445C32.1476 37.6445 37.9419 31.8502 37.9419 24.7026C37.9419 17.555 32.1476 11.7607 25 11.7607C17.8524 11.7607 12.0582 17.555 12.0582 24.7026C12.0582 31.8502 17.8524 37.6445 25 37.6445Z" fill="url(#paint6_linear_17_1749)"/>
<path d="M35.4509 17.0691L25.5488 26.9712C25.4296 27.0903 25.093 27.3161 25 27.3161C24.9071 27.3161 24.7712 27.2911 24.652 27.1718L19.9677 22.4875C18.9882 21.5081 17.5005 21.5081 16.521 22.4875C15.5415 23.467 15.4411 24.8543 16.4206 25.8338L27.9039 37.3171C33.6533 35.999 37.9419 30.8517 37.9419 24.7025C37.9419 21.8476 37.0167 19.2092 35.4509 17.0691Z" fill="url(#paint7_linear_17_1749)"/>
<path d="M25 32.1316C23.5286 32.1316 22.1453 31.5585 21.1049 30.5181L16.4206 25.8339C15.4411 24.8544 15.4411 23.2664 16.4206 22.2869C17.4 21.3074 18.9881 21.3074 19.9677 22.2869L24.652 26.9712C24.7712 27.0904 24.9071 27.1154 25 27.1154C25.093 27.1154 25.2288 27.0904 25.3481 26.9712L37.7692 14.55C38.7487 13.5706 40.3368 13.5706 41.3163 14.55C42.2958 15.5295 42.2958 17.1175 41.3163 18.097L28.8951 30.5181C27.8547 31.5585 26.4714 32.1316 25 32.1316Z" fill="url(#paint8_linear_17_1749)"/>
</g>
<defs>
<linearGradient id="paint0_linear_17_1749" x1="6.68795" y1="2.36044" x2="44.3807" y2="40.0532" gradientUnits="userSpaceOnUse">
<stop stop-color="#B5DBFF"/>
<stop offset="1" stop-color="#76E2F8"/>
</linearGradient>
<linearGradient id="paint1_linear_17_1749" x1="49.5951" y1="45.8676" x2="16.2449" y2="12.5173" gradientUnits="userSpaceOnUse">
<stop stop-color="#B5DBFF" stop-opacity="0"/>
<stop offset="0.243" stop-color="#93CEF6" stop-opacity="0.243"/>
<stop offset="0.576" stop-color="#6ABFEC" stop-opacity="0.576"/>
<stop offset="0.84" stop-color="#51B5E5" stop-opacity="0.84"/>
<stop offset="1" stop-color="#48B2E3"/>
</linearGradient>
<linearGradient id="paint2_linear_17_1749" x1="18.5519" y1="15.1881" x2="33.2019" y2="29.8381" gradientUnits="userSpaceOnUse">
<stop stop-color="#EDF5FF"/>
<stop offset="1" stop-color="#D5E8FE"/>
</linearGradient>
<linearGradient id="paint3_linear_17_1749" x1="29.5425" y1="25.8423" x2="-0.554806" y2="11.3956" gradientUnits="userSpaceOnUse">
<stop stop-color="#B5DBFF" stop-opacity="0"/>
<stop offset="0.173" stop-color="#8FC5E9" stop-opacity="0.173"/>
<stop offset="0.454" stop-color="#56A4C8" stop-opacity="0.454"/>
<stop offset="0.696" stop-color="#2D8DB1" stop-opacity="0.696"/>
<stop offset="0.885" stop-color="#147EA2" stop-opacity="0.885"/>
<stop offset="1" stop-color="#0B799D"/>
</linearGradient>
<linearGradient id="paint4_linear_17_1749" x1="41.0561" y1="31.6846" x2="30.7561" y2="23.8593" gradientUnits="userSpaceOnUse">
<stop stop-color="#B5DBFF" stop-opacity="0"/>
<stop offset="0.173" stop-color="#8FC5E9" stop-opacity="0.173"/>
<stop offset="0.454" stop-color="#56A4C8" stop-opacity="0.454"/>
<stop offset="0.696" stop-color="#2D8DB1" stop-opacity="0.696"/>
<stop offset="0.885" stop-color="#147EA2" stop-opacity="0.885"/>
<stop offset="1" stop-color="#0B799D"/>
</linearGradient>
<linearGradient id="paint5_linear_17_1749" x1="39.3222" y1="39.0249" x2="22.1556" y2="21.8583" gradientUnits="userSpaceOnUse">
<stop stop-color="#B5DBFF" stop-opacity="0"/>
<stop offset="0.173" stop-color="#8FC5E9" stop-opacity="0.173"/>
<stop offset="0.454" stop-color="#56A4C8" stop-opacity="0.454"/>
<stop offset="0.696" stop-color="#2D8DB1" stop-opacity="0.696"/>
<stop offset="0.885" stop-color="#147EA2" stop-opacity="0.885"/>
<stop offset="1" stop-color="#0B799D"/>
</linearGradient>
<linearGradient id="paint6_linear_17_1749" x1="18.9805" y1="18.6832" x2="31.4547" y2="31.1573" gradientUnits="userSpaceOnUse">
<stop stop-color="#B9DD39"/>
<stop offset="1" stop-color="#90CC1C"/>
</linearGradient>
<linearGradient id="paint7_linear_17_1749" x1="36.7634" y1="32.2791" x2="32.1248" y2="27.6405" gradientUnits="userSpaceOnUse">
<stop stop-color="#66BB00" stop-opacity="0"/>
<stop offset="1" stop-color="#66BB00"/>
</linearGradient>
<linearGradient id="paint8_linear_17_1749" x1="23.861" y1="15.1844" x2="36.7809" y2="28.1043" gradientUnits="userSpaceOnUse">
<stop stop-color="#0B799D"/>
<stop offset="1" stop-color="#07485E"/>
</linearGradient>
<clipPath id="clip0_17_1749">
<rect width="50" height="50" fill="white"/>
</clipPath>
</defs>
</svg>
