<svg width="50" height="50" viewBox="0 0 50 50" fill="none" xmlns="http://www.w3.org/2000/svg">
<g clip-path="url(#clip0_17_2030)">
<path d="M39.8535 43.9648C39.6777 43.4375 39.4629 42.9297 39.2188 42.4414C38.6523 41.3086 37.9004 40.2734 37.0117 39.3945C35.6934 38.0762 34.0625 37.0703 32.2461 36.4941C31.6504 36.3086 31.0254 36.1621 30.3906 36.0742C29.5996 35.957 29.0137 35.293 29.0137 34.502H20.9766C20.9766 35.293 20.3906 35.957 19.5996 36.0742C18.9648 36.1621 18.3398 36.3086 17.7441 36.4941C15.9277 37.0703 14.2969 38.0762 12.9785 39.3945C12.0898 40.2832 11.3477 41.3086 10.7715 42.4414C10.5273 42.9297 10.3125 43.4375 10.1367 43.9648C9.74609 45.1367 9.53125 46.3965 9.53125 47.7051C9.53125 48.7109 10.3516 49.5313 11.3574 49.5313H38.6133C39.6191 49.5313 40.4395 48.7109 40.4395 47.7051C40.459 46.3867 40.2441 45.1367 39.8535 43.9648Z" fill="url(#paint0_linear_17_2030)"/>
<path d="M39.8535 43.9648C39.6777 43.4375 39.4629 42.9297 39.2188 42.4414C38.6523 41.3086 37.9004 40.2734 37.0117 39.3945C35.6934 38.0762 34.0625 37.0703 32.2461 36.4941C31.6504 36.3086 31.0254 36.1621 30.3906 36.0742C29.5996 35.957 29.0137 35.293 29.0137 34.502H20.9766C20.9766 35.293 20.3906 35.957 19.5996 36.0742C18.9648 36.1621 18.3398 36.3086 17.7441 36.4941C15.9277 37.0703 14.2969 38.0762 12.9785 39.3945C12.0898 40.2832 11.3477 41.3086 10.7715 42.4414C10.5273 42.9297 10.3125 43.4375 10.1367 43.9648C9.74609 45.1367 9.53125 46.3965 9.53125 47.7051C9.53125 48.7109 10.3516 49.5313 11.3574 49.5313H38.6133C39.6191 49.5313 40.4395 48.7109 40.4395 47.7051C40.459 46.3867 40.2441 45.1367 39.8535 43.9648Z" fill="url(#paint1_linear_17_2030)"/>
<path d="M39.6875 18.2617V22.3047C39.6875 23.0371 39.8145 23.7695 40.0684 24.4531C40.2832 25.0195 40.3906 25.625 40.3906 26.2305V36.0742C40.3906 37.2461 39.9219 38.3691 39.1016 39.1895L37.0605 41.2305L43.1738 47.3438L46.7676 43.75C48.2227 42.2949 49.043 40.3223 49.043 38.2617V25.5273C49.043 25.0977 49.1504 24.668 49.3652 24.2969C49.541 23.9844 49.668 23.6523 49.7559 23.3105C49.8438 22.9688 49.8926 22.6172 49.8926 22.2559V18.252H39.6875V18.2617Z" fill="url(#paint2_linear_17_2030)"/>
<path d="M49.043 31.0156V38.2617C49.043 40.3223 48.2227 42.2949 46.7676 43.75L43.1738 47.3437L37.0605 41.2305L39.1016 39.1895C39.9316 38.3594 40.3906 37.2363 40.3906 36.0742V31.0156H49.043Z" fill="url(#paint3_linear_17_2030)"/>
<path d="M49.043 25.5371C49.043 25.1074 49.1504 24.6777 49.3652 24.3066C49.541 23.9941 49.668 23.6621 49.7559 23.3203C49.8438 22.9785 49.8926 22.627 49.8926 22.2656V18.2617H43.7109V46.8164L46.7676 43.7598C48.2227 42.3047 49.043 40.332 49.043 38.2715V26.2305V25.5371Z" fill="url(#paint4_linear_17_2030)"/>
<path d="M39.834 18.2617H49.8828V22.2656C49.8828 22.627 49.834 22.9785 49.7461 23.3203C49.6582 23.6621 49.5312 23.9941 49.3555 24.3066C49.1504 24.6875 49.0332 25.1074 49.0332 25.5371V26.2305C49.0332 26.7383 48.6133 27.1582 48.1055 27.1582H40.5371V26.2305C40.5371 25.5957 40.4199 24.9609 40.1855 24.3848C39.9414 23.7695 39.834 23.1055 39.834 22.4414V18.2617Z" fill="url(#paint5_linear_17_2030)"/>
<path d="M39.834 18.2617H49.8828V22.2656C49.8828 22.627 49.834 22.9785 49.7461 23.3203C49.6582 23.6621 49.5312 23.9941 49.3555 24.3066C49.1504 24.6875 49.0332 25.1074 49.0332 25.5371V26.2305C49.0332 26.7383 48.6133 27.1582 48.1055 27.1582H40.5371V26.2305C40.5371 25.5957 40.4199 24.9609 40.1855 24.3848C39.9414 23.7695 39.834 23.1055 39.834 22.4414V18.2617Z" fill="url(#paint6_linear_17_2030)"/>
<path d="M40.9473 21.123C40.2246 21.123 39.6387 20.5371 39.6387 19.8145V17.7344C39.6387 17.041 40.2637 16.4648 40.9473 16.4648C42.168 16.4648 42.2559 17.3145 42.2559 17.3633V19.8047C42.2656 20.5273 41.6797 21.123 40.9473 21.123Z" fill="url(#paint7_linear_17_2030)"/>
<path d="M43.5254 21.123C42.8027 21.123 42.2168 20.5371 42.2168 19.8145V17.4609C42.2168 16.7676 42.8418 16.1914 43.5254 16.1914C44.7461 16.1914 44.834 17.041 44.834 17.0898V19.8145C44.8438 20.5273 44.2578 21.123 43.5254 21.123Z" fill="url(#paint8_linear_17_2030)"/>
<path d="M46.1133 20.9863C45.3906 20.9863 44.8047 20.4004 44.8047 19.6777V17.5977C44.8047 16.9043 45.4297 16.3281 46.1133 16.3281C47.334 16.3281 47.4219 17.1777 47.4219 17.2266V19.668C47.4219 20.3906 46.8359 20.9863 46.1133 20.9863Z" fill="url(#paint9_linear_17_2030)"/>
<path d="M48.6914 20.7617C47.9687 20.7617 47.3828 20.1758 47.3828 19.4531V17.8223C47.3828 17.1289 48.0078 16.5527 48.6914 16.5527C49.9121 16.5527 50 17.4023 50 17.4512V19.4531C50 20.1758 49.4141 20.7617 48.6914 20.7617Z" fill="url(#paint10_linear_17_2030)"/>
<path d="M44.2481 22.1778L43.4082 22.0117C43.3105 21.9922 43.2324 21.9336 43.1836 21.8457C43.1055 21.6895 43.0371 21.5332 42.9785 21.377C43.4375 21.25 43.8965 21.1035 44.3457 20.9571C45.127 20.6934 45.5273 19.8242 45.2344 19.0528C45.2051 18.9649 45.1563 18.877 45.1074 18.7989C44.7754 18.2617 44.1211 17.9785 43.4863 18.1543C43.3301 18.1934 43.1445 18.2422 42.9492 18.2813C42.6855 18.3301 42.4219 18.3789 42.1582 18.418C41.9824 18.4473 41.3379 18.4766 40.6934 18.5059C39.8633 18.545 39.1797 19.1602 39.0625 19.9805C39.0039 20.3614 38.9453 20.7715 38.8965 21.1524C38.7598 22.0996 38.9746 23.0664 39.5117 23.8575C39.9512 24.5117 40.3906 25.3321 40.3906 26.2305C40.3906 26.4844 40.498 26.7188 40.6641 26.8848C40.8301 27.0508 41.0645 27.1582 41.3184 27.1582H44.4629C45.625 27.1582 46.582 26.2207 46.582 25.0489V25.0098C46.582 23.6328 45.6055 22.4512 44.2481 22.1778Z" fill="url(#paint11_linear_17_2030)"/>
<path d="M44.2481 22.1778L43.4082 22.0117C43.3105 21.9922 43.2324 21.9336 43.1836 21.8457C43.1055 21.6895 43.0371 21.5332 42.9785 21.377C43.4375 21.25 43.8965 21.1035 44.3457 20.9571C45.127 20.6934 45.5273 19.8242 45.2344 19.0528C45.2051 18.9649 45.1563 18.877 45.1074 18.7989C44.7754 18.2617 44.1211 17.9785 43.4863 18.1543C43.3301 18.1934 43.1445 18.2422 42.9492 18.2813C42.6855 18.3301 42.4219 18.3789 42.1582 18.418C41.9824 18.4473 41.3379 18.4766 40.6934 18.5059C39.8633 18.545 39.1797 19.1602 39.0625 19.9805C39.0039 20.3614 38.9453 20.7715 38.8965 21.1524C38.7598 22.0996 38.9746 23.0664 39.5117 23.8575C39.9512 24.5117 40.3906 25.3321 40.3906 26.2305C40.3906 26.4844 40.498 26.7188 40.6641 26.8848C40.8301 27.0508 41.0645 27.1582 41.3184 27.1582H44.4629C45.625 27.1582 46.582 26.2207 46.582 25.0489V25.0098C46.582 23.6328 45.6055 22.4512 44.2481 22.1778Z" fill="url(#paint12_linear_17_2030)"/>
<path d="M46.5918 25.0195V25.0586C46.5918 26.2207 45.6348 27.168 44.4727 27.168H41.3281C41.0742 27.168 40.8398 27.0605 40.6738 26.8945C40.5078 26.7285 40.4004 26.4941 40.4004 26.2402C40.4004 25.5566 40.2637 24.8828 40 24.2676C39.9902 24.2383 39.9805 24.209 39.9609 24.1797C40.1855 23.8574 40.3418 23.4961 40.4199 23.0957L40.5859 22.2559C40.6055 22.1582 40.6641 22.0801 40.752 22.0313C40.9082 21.9531 41.0742 21.875 41.25 21.8164C41.416 21.7578 41.5918 21.709 41.7773 21.6797L41.8652 21.6602C42.2363 21.5723 42.6172 21.4844 42.9883 21.377C43.0469 21.5332 43.1152 21.6992 43.1934 21.8457C43.2422 21.9336 43.3203 21.9922 43.418 22.0117L44.2578 22.1777C45.6055 22.4512 46.582 23.6328 46.5918 25.0195Z" fill="url(#paint13_linear_17_2030)"/>
<path d="M46.5918 25.0195V25.0586C46.5918 26.2207 45.6348 27.168 44.4727 27.168H41.3281C41.0742 27.168 40.8398 27.0605 40.6738 26.8945C40.5078 26.7285 40.4004 26.4941 40.4004 26.2402C40.4004 25.5566 40.2637 24.8828 40 24.2676C39.9902 24.2383 39.9805 24.209 39.9609 24.1797C40.1855 23.8574 40.3418 23.4961 40.4199 23.0957L40.5859 22.2559C40.6055 22.1582 40.6641 22.0801 40.752 22.0313C40.9082 21.9531 41.0742 21.875 41.25 21.8164C41.416 21.7578 41.5918 21.709 41.7773 21.6797L41.8652 21.6602C42.2363 21.5723 42.6172 21.4844 42.9883 21.377C43.0469 21.5332 43.1152 21.6992 43.1934 21.8457C43.2422 21.9336 43.3203 21.9922 43.418 22.0117L44.2578 22.1777C45.6055 22.4512 46.582 23.6328 46.5918 25.0195Z" fill="url(#paint14_linear_17_2030)"/>
<path d="M44.3457 20.9472C43.8965 21.1035 43.4375 21.2402 42.9785 21.3671H38.877C38.8867 21.289 38.8965 21.2109 38.9062 21.1425C38.9648 20.7617 39.0234 20.3515 39.0723 19.9707C39.1895 19.1503 39.873 18.5253 40.7031 18.496C41.3477 18.4668 41.9922 18.4375 42.168 18.4082C42.4316 18.3691 42.6953 18.3203 42.9492 18.2714C43.1543 18.2324 43.3301 18.1933 43.4863 18.1445C44.1211 17.9785 44.7754 18.2519 45.1074 18.789C45.1562 18.8671 45.1953 18.9453 45.2344 19.0429C45.5273 19.8144 45.127 20.6738 44.3457 20.9472Z" fill="url(#paint15_linear_17_2030)"/>
<path d="M44.3457 20.9472C43.8965 21.1035 43.4375 21.2402 42.9785 21.3671H38.877C38.8867 21.289 38.8965 21.2109 38.9062 21.1425C38.9648 20.7617 39.0234 20.3515 39.0723 19.9707C39.1895 19.1503 39.873 18.5253 40.7031 18.496C41.3477 18.4668 41.9922 18.4375 42.168 18.4082C42.4316 18.3691 42.6953 18.3203 42.9492 18.2714C43.1543 18.2324 43.3301 18.1933 43.4863 18.1445C44.1211 17.9785 44.7754 18.2519 45.1074 18.789C45.1562 18.8671 45.1953 18.9453 45.2344 19.0429C45.5273 19.8144 45.127 20.6738 44.3457 20.9472Z" fill="url(#paint16_linear_17_2030)"/>
<path d="M10.3125 18.2617V22.3047C10.3125 23.0371 10.1855 23.7695 9.93164 24.4531C9.7168 25.0195 9.60938 25.625 9.60938 26.2305V36.0742C9.60938 37.2461 10.0781 38.3691 10.8984 39.1895L12.9395 41.2305L6.82617 47.3438L3.23242 43.75C2.5113 43.0295 1.93919 42.1739 1.54878 41.2322C1.15836 40.2905 0.957283 39.2811 0.957031 38.2617V25.5273C0.957031 25.0977 0.849609 24.668 0.634766 24.2969C0.458984 23.9844 0.332031 23.6523 0.244141 23.3105C0.15625 22.9688 0.107422 22.6172 0.107422 22.2559V18.252H10.3125V18.2617Z" fill="url(#paint17_linear_17_2030)"/>
<path d="M0.957031 31.0156V38.2617C0.957031 40.3223 1.77734 42.2949 3.23242 43.75L6.82617 47.3437L12.9395 41.2305L10.8984 39.1895C10.0684 38.3594 9.60938 37.2363 9.60938 36.0742V31.0156H0.957031Z" fill="url(#paint18_linear_17_2030)"/>
<path d="M10.166 18.2617H0.117188V22.2656C0.117188 22.627 0.166016 22.9785 0.253906 23.3203C0.341797 23.6621 0.46875 23.9941 0.644531 24.3066C0.849609 24.6875 0.966797 25.1074 0.966797 25.5371V26.2305C0.966797 26.7383 1.38672 27.1582 1.89453 27.1582H9.46289V26.2305C9.46289 25.5957 9.58008 24.9609 9.81445 24.3848C10.0586 23.7695 10.166 23.1055 10.166 22.4414V18.2617Z" fill="url(#paint19_linear_17_2030)"/>
<path d="M10.166 18.2617H0.117188V22.2656C0.117188 22.627 0.166016 22.9785 0.253906 23.3203C0.341797 23.6621 0.46875 23.9941 0.644531 24.3066C0.849609 24.6875 0.966797 25.1074 0.966797 25.5371V26.2305C0.966797 26.7383 1.38672 27.1582 1.89453 27.1582H9.46289V26.2305C9.46289 25.5957 9.58008 24.9609 9.81445 24.3848C10.0586 23.7695 10.166 23.1055 10.166 22.4414V18.2617Z" fill="url(#paint20_linear_17_2030)"/>
<path d="M9.05273 21.123C9.77539 21.123 10.3613 20.5371 10.3613 19.8145V17.7344C10.3613 17.041 9.73633 16.4648 9.05273 16.4648C7.83203 16.4648 7.74414 17.3145 7.74414 17.3633V19.8047C7.73438 20.5273 8.32031 21.123 9.05273 21.123Z" fill="url(#paint21_linear_17_2030)"/>
<path d="M6.47461 21.123C7.19727 21.123 7.7832 20.5371 7.7832 19.8145V17.4609C7.7832 16.7676 7.1582 16.1914 6.47461 16.1914C5.25391 16.1914 5.16602 17.041 5.16602 17.0898V19.8145C5.15625 20.5273 5.74219 21.123 6.47461 21.123Z" fill="url(#paint22_linear_17_2030)"/>
<path d="M3.88672 20.9863C4.60937 20.9863 5.19531 20.4004 5.19531 19.6777V17.5977C5.19531 16.9043 4.57031 16.3281 3.88672 16.3281C2.66602 16.3281 2.57812 17.1777 2.57812 17.2266V19.668C2.57812 20.3906 3.16406 20.9863 3.88672 20.9863Z" fill="url(#paint23_linear_17_2030)"/>
<path d="M1.30859 20.7618C2.03125 20.7618 2.61719 20.1759 2.61719 19.4532V17.8224C2.61719 17.129 1.99219 16.5528 1.30859 16.5528C0.0878906 16.5431 0 17.3829 0 17.4415V19.4434C0 20.1759 0.585937 20.7618 1.30859 20.7618Z" fill="url(#paint24_linear_17_2030)"/>
<path d="M5.75195 22.1778L6.5918 22.0117C6.68945 21.9922 6.76758 21.9336 6.81641 21.8457C6.89453 21.6895 6.96289 21.5332 7.02148 21.377C6.5625 21.25 6.10352 21.1035 5.6543 20.9571C4.87305 20.6934 4.47266 19.8242 4.76562 19.0528C4.79492 18.9649 4.84375 18.877 4.89258 18.7989C5.22461 18.2617 5.87891 17.9785 6.51367 18.1543C6.66992 18.1934 6.85547 18.2422 7.05078 18.2813C7.31445 18.3301 7.57812 18.3789 7.8418 18.418C8.01758 18.4473 8.66211 18.4766 9.30664 18.5059C10.1367 18.545 10.8203 19.1602 10.9375 19.9805C10.9961 20.3614 11.0547 20.7715 11.1035 21.1524C11.2402 22.0996 11.0254 23.0664 10.4883 23.8575C10.0488 24.5117 9.60938 25.3321 9.60938 26.2305C9.60938 26.4844 9.50195 26.7188 9.33594 26.8848C9.16992 27.0508 8.93555 27.1582 8.68164 27.1582H5.52734C4.36523 27.1582 3.4082 26.2207 3.4082 25.0489V25.0098C3.41797 23.6328 4.39453 22.4512 5.75195 22.1778Z" fill="url(#paint25_linear_17_2030)"/>
<path d="M5.75195 22.1778L6.5918 22.0117C6.68945 21.9922 6.76758 21.9336 6.81641 21.8457C6.89453 21.6895 6.96289 21.5332 7.02148 21.377C6.5625 21.25 6.10352 21.1035 5.6543 20.9571C4.87305 20.6934 4.47266 19.8242 4.76562 19.0528C4.79492 18.9649 4.84375 18.877 4.89258 18.7989C5.22461 18.2617 5.87891 17.9785 6.51367 18.1543C6.66992 18.1934 6.85547 18.2422 7.05078 18.2813C7.31445 18.3301 7.57812 18.3789 7.8418 18.418C8.01758 18.4473 8.66211 18.4766 9.30664 18.5059C10.1367 18.545 10.8203 19.1602 10.9375 19.9805C10.9961 20.3614 11.0547 20.7715 11.1035 21.1524C11.2402 22.0996 11.0254 23.0664 10.4883 23.8575C10.0488 24.5117 9.60938 25.3321 9.60938 26.2305C9.60938 26.4844 9.50195 26.7188 9.33594 26.8848C9.16992 27.0508 8.93555 27.1582 8.68164 27.1582H5.52734C4.36523 27.1582 3.4082 26.2207 3.4082 25.0489V25.0098C3.41797 23.6328 4.39453 22.4512 5.75195 22.1778Z" fill="url(#paint26_linear_17_2030)"/>
<path d="M3.4082 25.0195V25.0586C3.4082 26.2207 4.36523 27.168 5.52734 27.168H8.67188C8.92578 27.168 9.16016 27.0605 9.32617 26.8945C9.49219 26.7285 9.59961 26.4941 9.59961 26.2402C9.59961 25.5566 9.73633 24.8828 10 24.2676C10.0098 24.2383 10.0195 24.209 10.0391 24.1797C9.81445 23.8574 9.6582 23.4961 9.58008 23.0957L9.41406 22.2559C9.39453 22.1582 9.33594 22.0801 9.24805 22.0313C9.0918 21.9531 8.92578 21.875 8.75 21.8164C8.58398 21.7578 8.4082 21.709 8.22266 21.6797L8.13477 21.6602C7.76367 21.5723 7.38281 21.4844 7.01172 21.377C6.95313 21.5332 6.88477 21.6992 6.80664 21.8457C6.75781 21.9336 6.67969 21.9922 6.58203 22.0117L5.74219 22.1777C4.39453 22.4512 3.41797 23.6328 3.4082 25.0195Z" fill="url(#paint27_linear_17_2030)"/>
<path d="M3.4082 25.0195V25.0586C3.4082 26.2207 4.36523 27.168 5.52734 27.168H8.67188C8.92578 27.168 9.16016 27.0605 9.32617 26.8945C9.49219 26.7285 9.59961 26.4941 9.59961 26.2402C9.59961 25.5566 9.73633 24.8828 10 24.2676C10.0098 24.2383 10.0195 24.209 10.0391 24.1797C9.81445 23.8574 9.6582 23.4961 9.58008 23.0957L9.41406 22.2559C9.39453 22.1582 9.33594 22.0801 9.24805 22.0313C9.0918 21.9531 8.92578 21.875 8.75 21.8164C8.58398 21.7578 8.4082 21.709 8.22266 21.6797L8.13477 21.6602C7.76367 21.5723 7.38281 21.4844 7.01172 21.377C6.95313 21.5332 6.88477 21.6992 6.80664 21.8457C6.75781 21.9336 6.67969 21.9922 6.58203 22.0117L5.74219 22.1777C4.39453 22.4512 3.41797 23.6328 3.4082 25.0195Z" fill="url(#paint28_linear_17_2030)"/>
<path d="M5.6543 20.9472C6.10352 21.1035 6.5625 21.2402 7.02148 21.3671H11.123C11.1133 21.289 11.1035 21.2109 11.0938 21.1425C11.0352 20.7617 10.9766 20.3515 10.9277 19.9707C10.8105 19.1503 10.127 18.5253 9.29688 18.496C8.65234 18.4668 8.00781 18.4375 7.83203 18.4082C7.56836 18.3691 7.30469 18.3203 7.05078 18.2714C6.8457 18.2324 6.66992 18.1933 6.51367 18.1445C5.87891 17.9785 5.22461 18.2519 4.89258 18.789C4.84375 18.8671 4.80469 18.9453 4.76563 19.0429C4.47266 19.8144 4.87305 20.6738 5.6543 20.9472Z" fill="url(#paint29_linear_17_2030)"/>
<path d="M5.6543 20.9472C6.10352 21.1035 6.5625 21.2402 7.02148 21.3671H11.123C11.1133 21.289 11.1035 21.2109 11.0938 21.1425C11.0352 20.7617 10.9766 20.3515 10.9277 19.9707C10.8105 19.1503 10.127 18.5253 9.29688 18.496C8.65234 18.4668 8.00781 18.4375 7.83203 18.4082C7.56836 18.3691 7.30469 18.3203 7.05078 18.2714C6.8457 18.2324 6.66992 18.1933 6.51367 18.1445C5.87891 17.9785 5.22461 18.2519 4.89258 18.789C4.84375 18.8671 4.80469 18.9453 4.76563 19.0429C4.47266 19.8144 4.87305 20.6738 5.6543 20.9472Z" fill="url(#paint30_linear_17_2030)"/>
<path d="M41.0254 50.0001C41.8066 50.0001 42.5586 49.6876 43.1152 49.1309L46.3184 45.9278C46.6602 45.586 46.6602 45.0294 46.3184 44.6876L39.7461 38.1153C39.4043 37.7735 38.8477 37.7735 38.5059 38.1153C37.8613 38.7598 36.8555 38.8282 36.1328 38.2813C35.0586 37.4805 33.8379 36.8458 32.5391 36.4356C32.1973 36.3282 31.8457 36.2305 31.4844 36.1524C31.0352 36.0548 30.5762 36.1329 30.1758 36.3477C29.1309 36.9141 27.9785 37.3145 26.7578 37.5196L25 41.4844V50.0001H41.0254Z" fill="url(#paint31_linear_17_2030)"/>
<path d="M38.5156 38.1153C37.8711 38.7598 36.8652 38.8282 36.1426 38.2813C35.0684 37.4805 33.8477 36.8458 32.5488 36.4356C32.207 36.3282 31.8555 36.2305 31.4941 36.1524C31.0449 36.0548 30.5859 36.1329 30.1855 36.3477C30.1074 36.3868 30.0293 36.4258 29.9609 36.4649C27.8125 37.5684 26.1816 39.4532 25.4785 41.7579L25.0098 43.2911L24.541 41.7579C23.8379 39.4532 22.207 37.5587 20.0586 36.4649C19.9805 36.4258 19.9023 36.3868 19.834 36.3477C19.4336 36.1329 18.9648 36.0548 18.5254 36.1524C18.1738 36.2305 17.8223 36.3282 17.4707 36.4356C16.1621 36.8458 14.9512 37.4805 13.877 38.2813C13.1543 38.8184 12.1387 38.7501 11.5039 38.1153C11.1621 37.7735 10.6055 37.7735 10.2637 38.1153L3.69141 44.6876C3.34961 45.0294 3.34961 45.586 3.69141 45.9278L6.89453 49.1309C7.45117 49.6876 8.20312 50.0001 8.98438 50.0001H41.0352C41.8164 50.0001 42.5684 49.6876 43.125 49.1309L46.3281 45.9278C46.6699 45.586 46.6699 45.0294 46.3281 44.6876L39.7559 38.1153C39.4141 37.7735 38.8574 37.7735 38.5156 38.1153Z" fill="url(#paint32_linear_17_2030)"/>
<path d="M25 43.3008L6.86523 41.4941L3.67188 44.6875C3.33008 45.0293 3.33008 45.5859 3.67188 45.9277L6.875 49.1309C7.43164 49.6875 8.18359 50 8.96484 50H41.0156C41.7969 50 42.5488 49.6875 43.1055 49.1309L46.3086 45.9277C46.6504 45.5859 46.6504 45.0293 46.3086 44.6875L43.1152 41.4941L25 43.3008Z" fill="url(#paint33_linear_17_2030)"/>
<path d="M41.0254 50.0001C41.8066 50.0001 42.5586 49.6876 43.1152 49.1309L46.3184 45.9278C46.6602 45.586 46.6602 45.0294 46.3184 44.6876L39.7461 38.1153C39.4043 37.7735 38.8477 37.7735 38.4961 38.1153C37.8516 38.7501 36.8457 38.8184 36.123 38.2813C35.0488 37.4805 33.8281 36.8458 32.5293 36.4356C32.1875 36.3282 31.8359 36.2305 31.4746 36.1524C31.0254 36.0548 30.5664 36.1329 30.166 36.3477C30.0879 36.3868 30.0098 36.4258 29.9414 36.4649C27.793 37.5684 26.1621 39.4532 25.459 41.7579L24.9902 43.2911V50.0001H41.0254Z" fill="url(#paint34_linear_17_2030)"/>
<path d="M25 43.3007C25 40.1562 26.7676 37.2851 29.5703 35.8691L32.1289 34.5703C32.4316 34.414 32.8125 34.4824 33.0469 34.7265L34.9512 36.7187C35.2637 37.041 35.127 37.5781 34.707 37.7246L28.5645 39.8535C27.2168 40.3222 26.084 41.2793 25.4102 42.539L25 43.3007Z" fill="url(#paint35_linear_17_2030)"/>
<path d="M25 43.3007C25 40.1562 23.2324 37.2851 20.4297 35.8691L17.8809 34.5703C17.5781 34.414 17.1973 34.4824 16.9629 34.7265L15.0586 36.7187C14.7461 37.041 14.8828 37.5781 15.3027 37.7246L21.4453 39.8535C22.793 40.3222 23.9258 41.2793 24.5996 42.539L25 43.3007Z" fill="url(#paint36_linear_17_2030)"/>
<path d="M13.2617 27.9102C13.2617 26.377 14.3262 25.0879 15.7617 24.7461C16.1426 24.6583 16.5137 24.9512 16.5137 25.3418V30.4688C16.5137 30.8594 16.1523 31.1622 15.7617 31.0645C14.3262 30.7325 13.2617 29.4532 13.2617 27.9102Z" fill="url(#paint37_linear_17_2030)"/>
<path d="M36.7383 27.9102C36.7383 26.377 35.6738 25.0879 34.2383 24.7461C33.8574 24.6583 33.4863 24.9512 33.4863 25.3418V30.4688C33.4863 30.8594 33.8477 31.1622 34.2383 31.0645C35.6738 30.7325 36.7383 29.4532 36.7383 27.9102Z" fill="url(#paint38_linear_17_2030)"/>
<path d="M25 15.0488C30.1855 15.0488 34.3945 19.2578 34.3945 24.4434V29.2578C34.3945 34.4434 30.1855 38.6523 25 38.6523C19.8145 38.6523 15.6055 34.4434 15.6055 29.2578V24.4434C15.6055 19.248 19.8145 15.0488 25 15.0488Z" fill="url(#paint39_linear_17_2030)"/>
<path d="M25 15.0488C24.7559 15.0488 24.5117 15.0586 24.2773 15.0781V38.623C24.5117 38.6426 24.7559 38.6523 25 38.6523C30.1855 38.6523 34.3945 34.4434 34.3945 29.2578V24.4434C34.3945 19.248 30.1855 15.0488 25 15.0488Z" fill="url(#paint40_linear_17_2030)"/>
<path d="M15.6055 26.9922V29.2578C15.6055 34.4434 19.8145 38.6523 25 38.6523C30.1855 38.6523 34.3945 34.4434 34.3945 29.2578V26.9922H15.6055Z" fill="url(#paint41_linear_17_2030)"/>
<path d="M25.5176 32.9785H24.4824C23.6133 32.9785 22.959 32.1973 23.1152 31.3477L23.6035 28.6035C23.6621 28.252 23.9648 27.998 24.3262 27.998H25.6836C26.0352 27.998 26.3379 28.252 26.4062 28.6035L26.8945 31.3477C27.041 32.1973 26.3867 32.9785 25.5176 32.9785Z" fill="url(#paint42_linear_17_2030)"/>
<path d="M25.5176 32.9785H24.4824C23.6133 32.9785 22.959 32.1973 23.1152 31.3477L23.6035 28.6035C23.6621 28.252 23.9648 27.998 24.3262 27.998H25.6836C26.0352 27.998 26.3379 28.252 26.4062 28.6035L26.8945 31.3477C27.041 32.1973 26.3867 32.9785 25.5176 32.9785Z" fill="url(#paint43_linear_17_2030)"/>
<path d="M24.4824 32.9785H25.5176C26.3867 32.9785 27.041 32.1973 26.8848 31.3477L26.3965 28.6035C26.3379 28.252 26.0352 27.998 25.6738 27.998H24.3164C23.9648 27.998 23.6621 28.252 23.5938 28.6035L23.1055 31.3477C22.959 32.1973 23.6133 32.9785 24.4824 32.9785Z" fill="url(#paint44_linear_17_2030)"/>
<path d="M12.2754 19.3263C13.291 15.9669 16.0352 13.8185 18.3887 14.5314C20.7422 15.2443 21.8262 18.5548 20.8008 21.9142C19.7852 25.2735 17.041 27.422 14.6875 26.7091C12.334 25.9962 11.25 22.6954 12.2754 19.3263Z" fill="url(#paint45_linear_17_2030)"/>
<path d="M12.2754 19.3263C13.291 15.9669 16.0352 13.8185 18.3887 14.5314C20.7422 15.2443 21.8262 18.5548 20.8008 21.9142C19.7852 25.2735 17.041 27.422 14.6875 26.7091C12.334 25.9962 11.25 22.6954 12.2754 19.3263Z" fill="url(#paint46_linear_17_2030)"/>
<path d="M31.0645 13.2324C30.8203 13.2324 30.5762 13.2422 30.332 13.2715C28.877 13.418 27.4023 13.1738 26.0938 12.5098C25.2832 12.0996 24.3555 11.8652 23.3789 11.8652C20.127 11.8652 17.4902 14.4434 17.4902 17.6172C17.4902 20.791 20.127 23.3691 23.3789 23.3691H23.5547C24.2871 23.3496 24.9805 23.6719 25.4395 24.2578C26.7285 25.918 28.7598 27.002 31.0645 27.002C34.9512 27.002 38.1055 23.9258 38.1055 20.1172C38.1152 16.3086 34.9609 13.2324 31.0645 13.2324Z" fill="url(#paint47_linear_17_2030)"/>
<path d="M17.5 17.6172C17.5 20.791 20.1367 23.3691 23.3887 23.3691H23.5645C24.2969 23.3496 24.9902 23.6719 25.4492 24.2578C26.7383 25.918 28.7695 27.002 31.0742 27.002C34.9609 27.002 38.1152 23.9258 38.1152 20.1172C38.1152 19.0918 37.8809 18.1152 37.4707 17.2363H17.5098C17.5 17.3535 17.5 17.4805 17.5 17.6172Z" fill="url(#paint48_linear_17_2030)"/>
<path d="M17.5 17.6172C17.5 20.791 20.1367 23.3691 23.3887 23.3691H23.5645C24.2969 23.3496 24.9902 23.6719 25.4492 24.2578C26.7383 25.918 28.7695 27.002 31.0742 27.002C34.9609 27.002 38.1152 23.9258 38.1152 20.1172C38.1152 19.0918 37.8809 18.1152 37.4707 17.2363H17.5098C17.5 17.3535 17.5 17.4805 17.5 17.6172Z" fill="url(#paint49_linear_17_2030)"/>
<path d="M20.8398 27.5781C21.4941 27.5781 22.1191 27.7637 22.6855 28.1152C22.9883 28.3008 23.0273 28.7207 22.7832 28.9648C22.6074 29.1406 22.3242 29.1797 22.1094 29.043C21.7187 28.7988 21.2891 28.6719 20.8496 28.6719C20.4004 28.6719 19.9707 28.7988 19.5898 29.043C19.375 29.1797 19.0918 29.1406 18.916 28.9648C18.6719 28.7207 18.7109 28.3008 19.0137 28.1152C19.5508 27.7637 20.1855 27.5781 20.8398 27.5781Z" fill="url(#paint50_linear_17_2030)"/>
<path d="M29.1602 27.5781C29.8145 27.5781 30.4395 27.7637 31.0059 28.1152C31.3086 28.3008 31.3477 28.7207 31.1035 28.9648C30.9277 29.1406 30.6445 29.1797 30.4297 29.043C30.0391 28.7988 29.6094 28.6719 29.1699 28.6719C28.7207 28.6719 28.291 28.7988 27.9102 29.043C27.6953 29.1797 27.4121 29.1406 27.2363 28.9648C26.9922 28.7207 27.0313 28.3008 27.334 28.1152C27.8809 27.7637 28.5059 27.5781 29.1602 27.5781Z" fill="url(#paint51_linear_17_2030)"/>
<path d="M26.1816 0.732422L27.5293 3.4668C27.7246 3.85742 28.0957 4.12109 28.5254 4.18945L31.543 4.62891C32.627 4.78516 33.0566 6.11328 32.2754 6.875L30.0977 9.00391C29.7852 9.30664 29.6484 9.74609 29.7168 10.166L30.2344 13.1738C30.4199 14.248 29.2871 15.0684 28.3203 14.5605L25.625 13.1445C25.2441 12.9395 24.7852 12.9395 24.3945 13.1445L21.6992 14.5605C20.7324 15.0684 19.5996 14.248 19.7852 13.1738L20.3027 10.166C20.3809 9.73633 20.2344 9.30664 19.9219 9.00391L17.7441 6.875C16.9629 6.11328 17.3926 4.78516 18.4766 4.62891L21.4941 4.18945C21.9238 4.13086 22.2949 3.85742 22.4902 3.4668L23.8379 0.732422C24.3066 -0.244141 25.6934 -0.244141 26.1816 0.732422Z" fill="url(#paint52_linear_17_2030)"/>
<path d="M32.2656 6.875C32.2949 6.8457 32.3145 6.81641 32.3438 6.79688H17.6562C17.6758 6.82617 17.7051 6.85547 17.7344 6.875L19.9121 9.00391C20.2246 9.30664 20.3613 9.74609 20.293 10.166L19.7754 13.1738C19.5898 14.248 20.7227 15.0684 21.6895 14.5605L24.3848 13.1445C24.7656 12.9395 25.2246 12.9395 25.6152 13.1445L28.3105 14.5605C29.2773 15.0684 30.4102 14.248 30.2246 13.1738L29.707 10.166C29.6289 9.73633 29.7754 9.30664 30.0879 9.00391L32.2656 6.875Z" fill="url(#paint53_linear_17_2030)"/>
<path d="M25.6152 13.1348L28.3105 14.5508C29.2773 15.0586 30.4102 14.2383 30.2246 13.1641L29.707 10.1562C29.6289 9.72656 29.7754 9.29688 30.0879 8.99414L32.2656 6.86523C33.0469 6.10352 32.6172 4.77539 31.5332 4.61914L28.5156 4.17969C28.0859 4.12109 27.7148 3.84766 27.5195 3.45703L26.1719 0.722656C25.9277 0.234375 25.459 -0.00976562 24.9902 -0.00976562V12.9785C25.2148 12.9883 25.4199 13.0371 25.6152 13.1348Z" fill="url(#paint54_linear_17_2030)"/>
<path d="M9.74609 3.11523L10.8691 5.38086C11.0254 5.70312 11.3379 5.92773 11.6895 5.97656L14.1895 6.33789C15.0879 6.46484 15.4395 7.56836 14.7949 8.20312L12.9883 9.9707C12.7344 10.2246 12.6172 10.5859 12.6758 10.9375L13.1055 13.4277C13.2617 14.3164 12.3242 15 11.5234 14.5801L9.28711 13.3984C8.96484 13.2324 8.58398 13.2324 8.27148 13.3984L6.03516 14.5801C5.23438 15 4.29688 14.3164 4.45313 13.4277L4.88281 10.9375C4.94141 10.5859 4.82422 10.2246 4.57031 9.9707L2.73438 8.20312C2.08984 7.56836 2.44141 6.46484 3.33984 6.33789L5.83984 5.97656C6.19141 5.92773 6.50391 5.70312 6.66016 5.38086L7.7832 3.11523C8.18359 2.30469 9.3457 2.30469 9.74609 3.11523Z" fill="url(#paint55_linear_17_2030)"/>
<path d="M14.7949 8.20312C14.8145 8.18359 14.834 8.1543 14.8633 8.13477H2.66602C2.68555 8.1543 2.70508 8.18359 2.73438 8.20312L4.54102 9.9707C4.79492 10.2246 4.91211 10.5859 4.85352 10.9375L4.42383 13.4277C4.26758 14.3164 5.20508 15 6.00586 14.5801L8.24219 13.3984C8.56445 13.2324 8.94531 13.2324 9.25781 13.3984L11.4941 14.5801C12.2949 15 13.2324 14.3164 13.0762 13.4277L12.6465 10.9375C12.5879 10.5859 12.7051 10.2246 12.959 9.9707L14.7949 8.20312Z" fill="url(#paint56_linear_17_2030)"/>
<path d="M9.26758 13.4082L11.5039 14.5898C12.3047 15.0098 13.2422 14.3262 13.0859 13.4375L12.6563 10.9473C12.5977 10.5957 12.7148 10.2344 12.9688 9.98047L14.7949 8.20312C15.4395 7.56836 15.0879 6.46484 14.1895 6.33789L11.6895 5.97656C11.3379 5.92773 11.0254 5.70312 10.8691 5.38086L9.74609 3.11523C9.54102 2.70508 9.16016 2.50977 8.76953 2.50977V13.2812C8.93555 13.2812 9.11133 13.3203 9.26758 13.4082Z" fill="url(#paint57_linear_17_2030)"/>
<path d="M42.2168 3.11523L43.3398 5.38086C43.4961 5.70312 43.8086 5.92773 44.1602 5.97656L46.6602 6.33789C47.5586 6.46484 47.9102 7.56836 47.2656 8.20312L45.459 9.9707C45.2051 10.2246 45.0879 10.5859 45.1465 10.9375L45.5762 13.4277C45.7324 14.3164 44.7949 15 43.9941 14.5801L41.7578 13.3984C41.4355 13.2324 41.0547 13.2324 40.7422 13.3984L38.5059 14.5801C37.7051 15 36.7676 14.3164 36.9238 13.4277L37.3535 10.9375C37.4121 10.5859 37.2949 10.2246 37.041 9.9707L35.2051 8.20312C34.5605 7.56836 34.9121 6.46484 35.8105 6.33789L38.3105 5.97656C38.6621 5.92773 38.9746 5.70312 39.1309 5.38086L40.2539 3.11523C40.6543 2.30469 41.8164 2.30469 42.2168 3.11523Z" fill="url(#paint58_linear_17_2030)"/>
<path d="M47.2656 8.20312C47.2852 8.18359 47.3047 8.1543 47.334 8.13477H35.1465C35.166 8.1543 35.1855 8.18359 35.2148 8.20312L37.0215 9.9707C37.2754 10.2246 37.3926 10.5859 37.334 10.9375L36.9043 13.4277C36.748 14.3164 37.6855 15 38.4863 14.5801L40.7227 13.3984C41.0449 13.2324 41.4258 13.2324 41.7383 13.3984L43.9746 14.5801C44.7754 15 45.7129 14.3164 45.5566 13.4277L45.127 10.9375C45.0684 10.5859 45.1855 10.2246 45.4395 9.9707L47.2656 8.20312Z" fill="url(#paint59_linear_17_2030)"/>
<path d="M41.748 13.4082L43.9844 14.5898C44.7852 15.0098 45.7227 14.3262 45.5664 13.4375L45.1367 10.9473C45.0781 10.5957 45.1953 10.2344 45.4492 9.98047L47.2656 8.20312C47.9102 7.56836 47.5586 6.46484 46.6602 6.33789L44.1602 5.97656C43.8086 5.92773 43.4961 5.70312 43.3398 5.38086L42.2168 3.11523C42.0117 2.70508 41.6309 2.50977 41.2402 2.50977V13.2812C41.416 13.2812 41.582 13.3203 41.748 13.4082Z" fill="url(#paint60_linear_17_2030)"/>
</g>
<defs>
<linearGradient id="paint0_linear_17_2030" x1="21.3271" y1="42.0063" x2="28.2276" y2="42.0063" gradientUnits="userSpaceOnUse">
<stop stop-color="#FFDFCF"/>
<stop offset="0.245" stop-color="#FFDBCA"/>
<stop offset="0.499" stop-color="#FFD0BE"/>
<stop offset="0.757" stop-color="#FFBEA9"/>
<stop offset="1" stop-color="#FFA78F"/>
</linearGradient>
<linearGradient id="paint1_linear_17_2030" x1="25" y1="38.482" x2="25" y2="34.8545" gradientUnits="userSpaceOnUse">
<stop stop-color="#F89580" stop-opacity="0"/>
<stop offset="0.137" stop-color="#F6947F" stop-opacity="0.021"/>
<stop offset="0.279" stop-color="#F3917C" stop-opacity="0.084"/>
<stop offset="0.424" stop-color="#EE8E78" stop-opacity="0.19"/>
<stop offset="0.57" stop-color="#E68873" stop-opacity="0.337"/>
<stop offset="0.718" stop-color="#DD826B" stop-opacity="0.528"/>
<stop offset="0.864" stop-color="#D17963" stop-opacity="0.757"/>
<stop offset="0.997" stop-color="#C5715A"/>
</linearGradient>
<linearGradient id="paint2_linear_17_2030" x1="36.0669" y1="30.2059" x2="47.6601" y2="33.0874" gradientUnits="userSpaceOnUse">
<stop stop-color="#FFDFCF"/>
<stop offset="0.245" stop-color="#FFDBCA"/>
<stop offset="0.499" stop-color="#FFD0BE"/>
<stop offset="0.757" stop-color="#FFBEA9"/>
<stop offset="1" stop-color="#FFA78F"/>
</linearGradient>
<linearGradient id="paint3_linear_17_2030" x1="42.9387" y1="38.3252" x2="41.0822" y2="40.8313" gradientUnits="userSpaceOnUse">
<stop stop-color="#F89580" stop-opacity="0"/>
<stop offset="0.137" stop-color="#F6947F" stop-opacity="0.021"/>
<stop offset="0.279" stop-color="#F3917C" stop-opacity="0.084"/>
<stop offset="0.424" stop-color="#EE8E78" stop-opacity="0.19"/>
<stop offset="0.57" stop-color="#E68873" stop-opacity="0.337"/>
<stop offset="0.718" stop-color="#DD826B" stop-opacity="0.528"/>
<stop offset="0.864" stop-color="#D17963" stop-opacity="0.757"/>
<stop offset="0.997" stop-color="#C5715A"/>
</linearGradient>
<linearGradient id="paint4_linear_17_2030" x1="46.5201" y1="32.539" x2="49.4646" y2="32.539" gradientUnits="userSpaceOnUse">
<stop stop-color="#F89580" stop-opacity="0"/>
<stop offset="0.137" stop-color="#F6947F" stop-opacity="0.021"/>
<stop offset="0.279" stop-color="#F3917C" stop-opacity="0.084"/>
<stop offset="0.424" stop-color="#EE8E78" stop-opacity="0.19"/>
<stop offset="0.57" stop-color="#E68873" stop-opacity="0.337"/>
<stop offset="0.718" stop-color="#DD826B" stop-opacity="0.528"/>
<stop offset="0.864" stop-color="#D17963" stop-opacity="0.757"/>
<stop offset="0.997" stop-color="#C5715A"/>
</linearGradient>
<linearGradient id="paint5_linear_17_2030" x1="44.8608" y1="22.4858" x2="44.8608" y2="19.945" gradientUnits="userSpaceOnUse">
<stop stop-color="#F89580" stop-opacity="0"/>
<stop offset="0.137" stop-color="#F6947F" stop-opacity="0.021"/>
<stop offset="0.279" stop-color="#F3917C" stop-opacity="0.084"/>
<stop offset="0.424" stop-color="#EE8E78" stop-opacity="0.19"/>
<stop offset="0.57" stop-color="#E68873" stop-opacity="0.337"/>
<stop offset="0.718" stop-color="#DD826B" stop-opacity="0.528"/>
<stop offset="0.864" stop-color="#D17963" stop-opacity="0.757"/>
<stop offset="0.997" stop-color="#C5715A"/>
</linearGradient>
<linearGradient id="paint6_linear_17_2030" x1="44.9179" y1="22.003" x2="44.23" y2="20.3626" gradientUnits="userSpaceOnUse">
<stop stop-color="#F89580" stop-opacity="0"/>
<stop offset="0.137" stop-color="#F6947F" stop-opacity="0.021"/>
<stop offset="0.279" stop-color="#F3917C" stop-opacity="0.084"/>
<stop offset="0.424" stop-color="#EE8E78" stop-opacity="0.19"/>
<stop offset="0.57" stop-color="#E68873" stop-opacity="0.337"/>
<stop offset="0.718" stop-color="#DD826B" stop-opacity="0.528"/>
<stop offset="0.864" stop-color="#D17963" stop-opacity="0.757"/>
<stop offset="0.997" stop-color="#C5715A"/>
</linearGradient>
<linearGradient id="paint7_linear_17_2030" x1="40.3262" y1="18.7881" x2="42.2355" y2="18.7881" gradientUnits="userSpaceOnUse">
<stop stop-color="#FFDFCF"/>
<stop offset="0.245" stop-color="#FFDBCA"/>
<stop offset="0.499" stop-color="#FFD0BE"/>
<stop offset="0.757" stop-color="#FFBEA9"/>
<stop offset="1" stop-color="#FFA78F"/>
</linearGradient>
<linearGradient id="paint8_linear_17_2030" x1="42.8022" y1="18.6501" x2="44.6099" y2="18.6501" gradientUnits="userSpaceOnUse">
<stop stop-color="#FFDFCF"/>
<stop offset="0.245" stop-color="#FFDBCA"/>
<stop offset="0.499" stop-color="#FFD0BE"/>
<stop offset="0.757" stop-color="#FFBEA9"/>
<stop offset="1" stop-color="#FFA78F"/>
</linearGradient>
<linearGradient id="paint9_linear_17_2030" x1="45.4211" y1="18.6501" x2="47.1479" y2="18.6501" gradientUnits="userSpaceOnUse">
<stop stop-color="#FFDFCF"/>
<stop offset="0.245" stop-color="#FFDBCA"/>
<stop offset="0.499" stop-color="#FFD0BE"/>
<stop offset="0.757" stop-color="#FFBEA9"/>
<stop offset="1" stop-color="#FFA78F"/>
</linearGradient>
<linearGradient id="paint10_linear_17_2030" x1="47.8971" y1="18.6501" x2="49.56" y2="18.6501" gradientUnits="userSpaceOnUse">
<stop stop-color="#FFDFCF"/>
<stop offset="0.245" stop-color="#FFDBCA"/>
<stop offset="0.499" stop-color="#FFD0BE"/>
<stop offset="0.757" stop-color="#FFBEA9"/>
<stop offset="1" stop-color="#FFA78F"/>
</linearGradient>
<linearGradient id="paint11_linear_17_2030" x1="38.1991" y1="21.5257" x2="50.2427" y2="24.5192" gradientUnits="userSpaceOnUse">
<stop stop-color="#FFDFCF"/>
<stop offset="0.245" stop-color="#FFDBCA"/>
<stop offset="0.499" stop-color="#FFD0BE"/>
<stop offset="0.757" stop-color="#FFBEA9"/>
<stop offset="1" stop-color="#FFA78F"/>
</linearGradient>
<linearGradient id="paint12_linear_17_2030" x1="39.9818" y1="22.6265" x2="38.4901" y2="22.6265" gradientUnits="userSpaceOnUse">
<stop stop-color="#FFEEE6" stop-opacity="0"/>
<stop offset="0.12" stop-color="#FFEEE6" stop-opacity="0.016"/>
<stop offset="0.245" stop-color="#FFEEE6" stop-opacity="0.065"/>
<stop offset="0.372" stop-color="#FFEEE6" stop-opacity="0.147"/>
<stop offset="0.501" stop-color="#FFEEE6" stop-opacity="0.261"/>
<stop offset="0.63" stop-color="#FFEEE6" stop-opacity="0.408"/>
<stop offset="0.761" stop-color="#FFEEE6" stop-opacity="0.588"/>
<stop offset="0.89" stop-color="#FFEEE6" stop-opacity="0.797"/>
<stop offset="1" stop-color="#FFEEE6"/>
</linearGradient>
<linearGradient id="paint13_linear_17_2030" x1="43.9893" y1="24.2634" x2="48.6225" y2="24.2634" gradientUnits="userSpaceOnUse">
<stop stop-color="#F89580" stop-opacity="0"/>
<stop offset="0.137" stop-color="#F6947F" stop-opacity="0.021"/>
<stop offset="0.279" stop-color="#F3917C" stop-opacity="0.084"/>
<stop offset="0.424" stop-color="#EE8E78" stop-opacity="0.19"/>
<stop offset="0.57" stop-color="#E68873" stop-opacity="0.337"/>
<stop offset="0.718" stop-color="#DD826B" stop-opacity="0.528"/>
<stop offset="0.864" stop-color="#D17963" stop-opacity="0.757"/>
<stop offset="0.997" stop-color="#C5715A"/>
</linearGradient>
<linearGradient id="paint14_linear_17_2030" x1="43.5294" y1="24.0054" x2="44.7594" y2="21.8856" gradientUnits="userSpaceOnUse">
<stop stop-color="#F89580" stop-opacity="0"/>
<stop offset="0.137" stop-color="#F6947F" stop-opacity="0.021"/>
<stop offset="0.279" stop-color="#F3917C" stop-opacity="0.084"/>
<stop offset="0.424" stop-color="#EE8E78" stop-opacity="0.19"/>
<stop offset="0.57" stop-color="#E68873" stop-opacity="0.337"/>
<stop offset="0.718" stop-color="#DD826B" stop-opacity="0.528"/>
<stop offset="0.864" stop-color="#D17963" stop-opacity="0.757"/>
<stop offset="0.997" stop-color="#C5715A"/>
</linearGradient>
<linearGradient id="paint15_linear_17_2030" x1="43.2496" y1="19.1825" x2="44.9507" y2="18.1619" gradientUnits="userSpaceOnUse">
<stop stop-color="#F89580" stop-opacity="0"/>
<stop offset="0.137" stop-color="#F6947F" stop-opacity="0.021"/>
<stop offset="0.279" stop-color="#F3917C" stop-opacity="0.084"/>
<stop offset="0.424" stop-color="#EE8E78" stop-opacity="0.19"/>
<stop offset="0.57" stop-color="#E68873" stop-opacity="0.337"/>
<stop offset="0.718" stop-color="#DD826B" stop-opacity="0.528"/>
<stop offset="0.864" stop-color="#D17963" stop-opacity="0.757"/>
<stop offset="0.997" stop-color="#C5715A"/>
</linearGradient>
<linearGradient id="paint16_linear_17_2030" x1="42.1066" y1="20.1204" x2="42.1066" y2="17.7127" gradientUnits="userSpaceOnUse">
<stop stop-color="#FFEEE6" stop-opacity="0"/>
<stop offset="0.12" stop-color="#FFEEE6" stop-opacity="0.016"/>
<stop offset="0.245" stop-color="#FFEEE6" stop-opacity="0.065"/>
<stop offset="0.372" stop-color="#FFEEE6" stop-opacity="0.147"/>
<stop offset="0.501" stop-color="#FFEEE6" stop-opacity="0.261"/>
<stop offset="0.63" stop-color="#FFEEE6" stop-opacity="0.408"/>
<stop offset="0.761" stop-color="#FFEEE6" stop-opacity="0.588"/>
<stop offset="0.89" stop-color="#FFEEE6" stop-opacity="0.797"/>
<stop offset="1" stop-color="#FFEEE6"/>
</linearGradient>
<linearGradient id="paint17_linear_17_2030" x1="-0.993555" y1="29.231" x2="8.91582" y2="32.9357" gradientUnits="userSpaceOnUse">
<stop stop-color="#FFDFCF"/>
<stop offset="0.245" stop-color="#FFDBCA"/>
<stop offset="0.499" stop-color="#FFD0BE"/>
<stop offset="0.757" stop-color="#FFBEA9"/>
<stop offset="1" stop-color="#FFA78F"/>
</linearGradient>
<linearGradient id="paint18_linear_17_2030" x1="7.00898" y1="38.1687" x2="8.6334" y2="40.2107" gradientUnits="userSpaceOnUse">
<stop stop-color="#F89580" stop-opacity="0"/>
<stop offset="0.137" stop-color="#F6947F" stop-opacity="0.021"/>
<stop offset="0.279" stop-color="#F3917C" stop-opacity="0.084"/>
<stop offset="0.424" stop-color="#EE8E78" stop-opacity="0.19"/>
<stop offset="0.57" stop-color="#E68873" stop-opacity="0.337"/>
<stop offset="0.718" stop-color="#DD826B" stop-opacity="0.528"/>
<stop offset="0.864" stop-color="#D17963" stop-opacity="0.757"/>
<stop offset="0.997" stop-color="#C5715A"/>
</linearGradient>
<linearGradient id="paint19_linear_17_2030" x1="5.13916" y1="22.4858" x2="5.13916" y2="19.945" gradientUnits="userSpaceOnUse">
<stop stop-color="#F89580" stop-opacity="0"/>
<stop offset="0.137" stop-color="#F6947F" stop-opacity="0.021"/>
<stop offset="0.279" stop-color="#F3917C" stop-opacity="0.084"/>
<stop offset="0.424" stop-color="#EE8E78" stop-opacity="0.19"/>
<stop offset="0.57" stop-color="#E68873" stop-opacity="0.337"/>
<stop offset="0.718" stop-color="#DD826B" stop-opacity="0.528"/>
<stop offset="0.864" stop-color="#D17963" stop-opacity="0.757"/>
<stop offset="0.997" stop-color="#C5715A"/>
</linearGradient>
<linearGradient id="paint20_linear_17_2030" x1="5.08223" y1="22.003" x2="5.77012" y2="20.3626" gradientUnits="userSpaceOnUse">
<stop stop-color="#F89580" stop-opacity="0"/>
<stop offset="0.137" stop-color="#F6947F" stop-opacity="0.021"/>
<stop offset="0.279" stop-color="#F3917C" stop-opacity="0.084"/>
<stop offset="0.424" stop-color="#EE8E78" stop-opacity="0.19"/>
<stop offset="0.57" stop-color="#E68873" stop-opacity="0.337"/>
<stop offset="0.718" stop-color="#DD826B" stop-opacity="0.528"/>
<stop offset="0.864" stop-color="#D17963" stop-opacity="0.757"/>
<stop offset="0.997" stop-color="#C5715A"/>
</linearGradient>
<linearGradient id="paint21_linear_17_2030" x1="7.74385" y1="18.7882" x2="10.0561" y2="18.7882" gradientUnits="userSpaceOnUse">
<stop stop-color="#FFDFCF"/>
<stop offset="0.245" stop-color="#FFDBCA"/>
<stop offset="0.499" stop-color="#FFD0BE"/>
<stop offset="0.757" stop-color="#FFBEA9"/>
<stop offset="1" stop-color="#FFA78F"/>
</linearGradient>
<linearGradient id="paint22_linear_17_2030" x1="5.37686" y1="18.6501" x2="7.56162" y2="18.6501" gradientUnits="userSpaceOnUse">
<stop stop-color="#FFDFCF"/>
<stop offset="0.245" stop-color="#FFDBCA"/>
<stop offset="0.499" stop-color="#FFD0BE"/>
<stop offset="0.757" stop-color="#FFBEA9"/>
<stop offset="1" stop-color="#FFA78F"/>
</linearGradient>
<linearGradient id="paint23_linear_17_2030" x1="2.8707" y1="18.6501" x2="5.0917" y2="18.6501" gradientUnits="userSpaceOnUse">
<stop stop-color="#FFDFCF"/>
<stop offset="0.245" stop-color="#FFDBCA"/>
<stop offset="0.499" stop-color="#FFD0BE"/>
<stop offset="0.757" stop-color="#FFBEA9"/>
<stop offset="1" stop-color="#FFA78F"/>
</linearGradient>
<linearGradient id="paint24_linear_17_2030" x1="0.410937" y1="18.6502" x2="2.54639" y2="18.6502" gradientUnits="userSpaceOnUse">
<stop stop-color="#FFDFCF"/>
<stop offset="0.245" stop-color="#FFDBCA"/>
<stop offset="0.499" stop-color="#FFD0BE"/>
<stop offset="0.757" stop-color="#FFBEA9"/>
<stop offset="1" stop-color="#FFA78F"/>
</linearGradient>
<linearGradient id="paint25_linear_17_2030" x1="2.23467" y1="20.9144" x2="12.5379" y2="24.7664" gradientUnits="userSpaceOnUse">
<stop stop-color="#FFDFCF"/>
<stop offset="0.245" stop-color="#FFDBCA"/>
<stop offset="0.499" stop-color="#FFD0BE"/>
<stop offset="0.757" stop-color="#FFBEA9"/>
<stop offset="1" stop-color="#FFA78F"/>
</linearGradient>
<linearGradient id="paint26_linear_17_2030" x1="10.0182" y1="22.6265" x2="11.5099" y2="22.6265" gradientUnits="userSpaceOnUse">
<stop stop-color="#FFEEE6" stop-opacity="0"/>
<stop offset="0.12" stop-color="#FFEEE6" stop-opacity="0.016"/>
<stop offset="0.245" stop-color="#FFEEE6" stop-opacity="0.065"/>
<stop offset="0.372" stop-color="#FFEEE6" stop-opacity="0.147"/>
<stop offset="0.501" stop-color="#FFEEE6" stop-opacity="0.261"/>
<stop offset="0.63" stop-color="#FFEEE6" stop-opacity="0.408"/>
<stop offset="0.761" stop-color="#FFEEE6" stop-opacity="0.588"/>
<stop offset="0.89" stop-color="#FFEEE6" stop-opacity="0.797"/>
<stop offset="1" stop-color="#FFEEE6"/>
</linearGradient>
<linearGradient id="paint27_linear_17_2030" x1="6.01074" y1="24.2634" x2="1.37754" y2="24.2634" gradientUnits="userSpaceOnUse">
<stop stop-color="#F89580" stop-opacity="0"/>
<stop offset="0.137" stop-color="#F6947F" stop-opacity="0.021"/>
<stop offset="0.279" stop-color="#F3917C" stop-opacity="0.084"/>
<stop offset="0.424" stop-color="#EE8E78" stop-opacity="0.19"/>
<stop offset="0.57" stop-color="#E68873" stop-opacity="0.337"/>
<stop offset="0.718" stop-color="#DD826B" stop-opacity="0.528"/>
<stop offset="0.864" stop-color="#D17963" stop-opacity="0.757"/>
<stop offset="0.997" stop-color="#C5715A"/>
</linearGradient>
<linearGradient id="paint28_linear_17_2030" x1="6.23008" y1="23.8454" x2="4.55928" y2="22.1398" gradientUnits="userSpaceOnUse">
<stop stop-color="#FFEEE6" stop-opacity="0"/>
<stop offset="0.12" stop-color="#FFEEE6" stop-opacity="0.016"/>
<stop offset="0.245" stop-color="#FFEEE6" stop-opacity="0.065"/>
<stop offset="0.372" stop-color="#FFEEE6" stop-opacity="0.147"/>
<stop offset="0.501" stop-color="#FFEEE6" stop-opacity="0.261"/>
<stop offset="0.63" stop-color="#FFEEE6" stop-opacity="0.408"/>
<stop offset="0.761" stop-color="#FFEEE6" stop-opacity="0.588"/>
<stop offset="0.89" stop-color="#FFEEE6" stop-opacity="0.797"/>
<stop offset="1" stop-color="#FFEEE6"/>
</linearGradient>
<linearGradient id="paint29_linear_17_2030" x1="7.89336" y1="20.1204" x2="7.89336" y2="17.7127" gradientUnits="userSpaceOnUse">
<stop stop-color="#F89580" stop-opacity="0"/>
<stop offset="0.137" stop-color="#F6947F" stop-opacity="0.021"/>
<stop offset="0.279" stop-color="#F3917C" stop-opacity="0.084"/>
<stop offset="0.424" stop-color="#EE8E78" stop-opacity="0.19"/>
<stop offset="0.57" stop-color="#E68873" stop-opacity="0.337"/>
<stop offset="0.718" stop-color="#DD826B" stop-opacity="0.528"/>
<stop offset="0.864" stop-color="#D17963" stop-opacity="0.757"/>
<stop offset="0.997" stop-color="#C5715A"/>
</linearGradient>
<linearGradient id="paint30_linear_17_2030" x1="6.75039" y1="19.1825" x2="5.04941" y2="18.1619" gradientUnits="userSpaceOnUse">
<stop stop-color="#FFEEE6" stop-opacity="0"/>
<stop offset="0.12" stop-color="#FFEEE6" stop-opacity="0.016"/>
<stop offset="0.245" stop-color="#FFEEE6" stop-opacity="0.065"/>
<stop offset="0.372" stop-color="#FFEEE6" stop-opacity="0.147"/>
<stop offset="0.501" stop-color="#FFEEE6" stop-opacity="0.261"/>
<stop offset="0.63" stop-color="#FFEEE6" stop-opacity="0.408"/>
<stop offset="0.761" stop-color="#FFEEE6" stop-opacity="0.588"/>
<stop offset="0.89" stop-color="#FFEEE6" stop-opacity="0.797"/>
<stop offset="1" stop-color="#FFEEE6"/>
</linearGradient>
<linearGradient id="paint31_linear_17_2030" x1="37.8367" y1="49.5164" x2="40.0645" y2="51.7441" gradientUnits="userSpaceOnUse">
<stop stop-color="#FF4565" stop-opacity="0"/>
<stop offset="0.128" stop-color="#FE4463" stop-opacity="0.018"/>
<stop offset="0.26" stop-color="#FD4260" stop-opacity="0.073"/>
<stop offset="0.394" stop-color="#FA3E5B" stop-opacity="0.164"/>
<stop offset="0.53" stop-color="#F73954" stop-opacity="0.292"/>
<stop offset="0.668" stop-color="#F2334B" stop-opacity="0.456"/>
<stop offset="0.806" stop-color="#ED2C40" stop-opacity="0.657"/>
<stop offset="0.942" stop-color="#E62333" stop-opacity="0.891"/>
<stop offset="1" stop-color="#E41F2D"/>
</linearGradient>
<linearGradient id="paint32_linear_17_2030" x1="22.2332" y1="31.1571" x2="26.0312" y2="50.5794" gradientUnits="userSpaceOnUse">
<stop stop-color="#FE99A0"/>
<stop offset="0.213" stop-color="#FE949D"/>
<stop offset="0.434" stop-color="#FE8894"/>
<stop offset="0.659" stop-color="#FE7385"/>
<stop offset="0.884" stop-color="#FE5671"/>
<stop offset="1" stop-color="#FF4565"/>
</linearGradient>
<linearGradient id="paint33_linear_17_2030" x1="25" y1="46.8895" x2="25" y2="49.9819" gradientUnits="userSpaceOnUse">
<stop stop-color="#FF4565" stop-opacity="0"/>
<stop offset="0.128" stop-color="#FE4463" stop-opacity="0.018"/>
<stop offset="0.26" stop-color="#FD4260" stop-opacity="0.073"/>
<stop offset="0.394" stop-color="#FA3E5B" stop-opacity="0.164"/>
<stop offset="0.53" stop-color="#F73954" stop-opacity="0.292"/>
<stop offset="0.668" stop-color="#F2334B" stop-opacity="0.456"/>
<stop offset="0.806" stop-color="#ED2C40" stop-opacity="0.657"/>
<stop offset="0.942" stop-color="#E62333" stop-opacity="0.891"/>
<stop offset="1" stop-color="#E41F2D"/>
</linearGradient>
<linearGradient id="paint34_linear_17_2030" x1="33.0649" y1="43.9923" x2="27.7756" y2="37.1822" gradientUnits="userSpaceOnUse">
<stop stop-color="#FF4565" stop-opacity="0"/>
<stop offset="0.128" stop-color="#FE4463" stop-opacity="0.018"/>
<stop offset="0.26" stop-color="#FD4260" stop-opacity="0.073"/>
<stop offset="0.394" stop-color="#FA3E5B" stop-opacity="0.164"/>
<stop offset="0.53" stop-color="#F73954" stop-opacity="0.292"/>
<stop offset="0.668" stop-color="#F2334B" stop-opacity="0.456"/>
<stop offset="0.806" stop-color="#ED2C40" stop-opacity="0.657"/>
<stop offset="0.942" stop-color="#E62333" stop-opacity="0.891"/>
<stop offset="1" stop-color="#E41F2D"/>
</linearGradient>
<linearGradient id="paint35_linear_17_2030" x1="28.5859" y1="36.6259" x2="29.8814" y2="39.7402" gradientUnits="userSpaceOnUse">
<stop stop-color="#EAF6FF"/>
<stop offset="0.265" stop-color="#E5F3FE"/>
<stop offset="0.54" stop-color="#D9EDFE"/>
<stop offset="0.818" stop-color="#C4E3FE"/>
<stop offset="1" stop-color="#B3DAFE"/>
</linearGradient>
<linearGradient id="paint36_linear_17_2030" x1="21.2549" y1="36.7296" x2="20.0092" y2="39.9933" gradientUnits="userSpaceOnUse">
<stop stop-color="#EAF6FF"/>
<stop offset="0.265" stop-color="#E5F3FE"/>
<stop offset="0.54" stop-color="#D9EDFE"/>
<stop offset="0.818" stop-color="#C4E3FE"/>
<stop offset="1" stop-color="#B3DAFE"/>
</linearGradient>
<linearGradient id="paint37_linear_17_2030" x1="14.217" y1="26.51" x2="16.8287" y2="29.1216" gradientUnits="userSpaceOnUse">
<stop stop-color="#FFDFCF"/>
<stop offset="0.245" stop-color="#FFDBCA"/>
<stop offset="0.499" stop-color="#FFD0BE"/>
<stop offset="0.757" stop-color="#FFBEA9"/>
<stop offset="1" stop-color="#FFA78F"/>
</linearGradient>
<linearGradient id="paint38_linear_17_2030" x1="32.4792" y1="26.0139" x2="36.1338" y2="29.6685" gradientUnits="userSpaceOnUse">
<stop stop-color="#FFDFCF"/>
<stop offset="0.245" stop-color="#FFDBCA"/>
<stop offset="0.499" stop-color="#FFD0BE"/>
<stop offset="0.757" stop-color="#FFBEA9"/>
<stop offset="1" stop-color="#FFA78F"/>
</linearGradient>
<linearGradient id="paint39_linear_17_2030" x1="18.3883" y1="20.2365" x2="31.3014" y2="33.1495" gradientUnits="userSpaceOnUse">
<stop stop-color="#FFDFCF"/>
<stop offset="0.245" stop-color="#FFDBCA"/>
<stop offset="0.499" stop-color="#FFD0BE"/>
<stop offset="0.757" stop-color="#FFBEA9"/>
<stop offset="1" stop-color="#FFA78F"/>
</linearGradient>
<linearGradient id="paint40_linear_17_2030" x1="30.4004" y1="26.8481" x2="34.6528" y2="26.8481" gradientUnits="userSpaceOnUse">
<stop stop-color="#F89580" stop-opacity="0"/>
<stop offset="0.137" stop-color="#F6947F" stop-opacity="0.021"/>
<stop offset="0.279" stop-color="#F3917C" stop-opacity="0.084"/>
<stop offset="0.424" stop-color="#EE8E78" stop-opacity="0.19"/>
<stop offset="0.57" stop-color="#E68873" stop-opacity="0.337"/>
<stop offset="0.718" stop-color="#DD826B" stop-opacity="0.528"/>
<stop offset="0.864" stop-color="#D17963" stop-opacity="0.757"/>
<stop offset="0.997" stop-color="#C5715A"/>
</linearGradient>
<linearGradient id="paint41_linear_17_2030" x1="25" y1="30.5283" x2="25" y2="38.866" gradientUnits="userSpaceOnUse">
<stop stop-color="#F89580" stop-opacity="0"/>
<stop offset="0.137" stop-color="#F6947F" stop-opacity="0.021"/>
<stop offset="0.279" stop-color="#F3917C" stop-opacity="0.084"/>
<stop offset="0.424" stop-color="#EE8E78" stop-opacity="0.19"/>
<stop offset="0.57" stop-color="#E68873" stop-opacity="0.337"/>
<stop offset="0.718" stop-color="#DD826B" stop-opacity="0.528"/>
<stop offset="0.864" stop-color="#D17963" stop-opacity="0.757"/>
<stop offset="0.997" stop-color="#C5715A"/>
</linearGradient>
<linearGradient id="paint42_linear_17_2030" x1="25" y1="30.2311" x2="25" y2="33.4953" gradientUnits="userSpaceOnUse">
<stop stop-color="#F89580" stop-opacity="0"/>
<stop offset="0.137" stop-color="#F6947F" stop-opacity="0.021"/>
<stop offset="0.279" stop-color="#F3917C" stop-opacity="0.084"/>
<stop offset="0.424" stop-color="#EE8E78" stop-opacity="0.19"/>
<stop offset="0.57" stop-color="#E68873" stop-opacity="0.337"/>
<stop offset="0.718" stop-color="#DD826B" stop-opacity="0.528"/>
<stop offset="0.864" stop-color="#D17963" stop-opacity="0.757"/>
<stop offset="0.997" stop-color="#C5715A"/>
</linearGradient>
<linearGradient id="paint43_linear_17_2030" x1="25.5633" y1="30.6211" x2="27.4894" y2="31.0896" gradientUnits="userSpaceOnUse">
<stop stop-color="#F89580" stop-opacity="0"/>
<stop offset="0.137" stop-color="#F6947F" stop-opacity="0.021"/>
<stop offset="0.279" stop-color="#F3917C" stop-opacity="0.084"/>
<stop offset="0.424" stop-color="#EE8E78" stop-opacity="0.19"/>
<stop offset="0.57" stop-color="#E68873" stop-opacity="0.337"/>
<stop offset="0.718" stop-color="#DD826B" stop-opacity="0.528"/>
<stop offset="0.864" stop-color="#D17963" stop-opacity="0.757"/>
<stop offset="0.997" stop-color="#C5715A"/>
</linearGradient>
<linearGradient id="paint44_linear_17_2030" x1="24.4367" y1="30.6211" x2="22.5106" y2="31.0896" gradientUnits="userSpaceOnUse">
<stop stop-color="#FFDDCD" stop-opacity="0"/>
<stop offset="0.089" stop-color="#FFDDCD" stop-opacity="0.027"/>
<stop offset="0.216" stop-color="#FFDDCD" stop-opacity="0.101"/>
<stop offset="0.366" stop-color="#FFDDCD" stop-opacity="0.223"/>
<stop offset="0.535" stop-color="#FFDDCD" stop-opacity="0.393"/>
<stop offset="0.718" stop-color="#FFDDCD" stop-opacity="0.612"/>
<stop offset="0.911" stop-color="#FFDDCD" stop-opacity="0.873"/>
<stop offset="0.997" stop-color="#FFDDCD"/>
</linearGradient>
<linearGradient id="paint45_linear_17_2030" x1="16.0101" y1="19.9104" x2="19.7814" y2="25.024" gradientUnits="userSpaceOnUse">
<stop stop-color="#465A61"/>
<stop offset="0.398" stop-color="#44565C"/>
<stop offset="0.809" stop-color="#404C50"/>
<stop offset="1" stop-color="#3E4648"/>
</linearGradient>
<linearGradient id="paint46_linear_17_2030" x1="15.443" y1="20.6229" x2="20.4165" y2="20.6229" gradientUnits="userSpaceOnUse">
<stop stop-color="#444444" stop-opacity="0"/>
<stop offset="1"/>
</linearGradient>
<linearGradient id="paint47_linear_17_2030" x1="28.7516" y1="14.6976" x2="26.2587" y2="25.82" gradientUnits="userSpaceOnUse">
<stop stop-color="#465A61"/>
<stop offset="0.398" stop-color="#44565C"/>
<stop offset="0.809" stop-color="#404C50"/>
<stop offset="1" stop-color="#3E4648"/>
</linearGradient>
<linearGradient id="paint48_linear_17_2030" x1="26.8386" y1="21.4113" x2="25.0062" y2="25.0763" gradientUnits="userSpaceOnUse">
<stop stop-color="#444444" stop-opacity="0"/>
<stop offset="1"/>
</linearGradient>
<linearGradient id="paint49_linear_17_2030" x1="32.0151" y1="24.6722" x2="33.7197" y2="27.0586" gradientUnits="userSpaceOnUse">
<stop stop-color="#444444" stop-opacity="0"/>
<stop offset="1"/>
</linearGradient>
<linearGradient id="paint50_linear_17_2030" x1="20.8364" y1="27.1307" x2="20.8364" y2="29.2401" gradientUnits="userSpaceOnUse">
<stop stop-color="#465A61"/>
<stop offset="0.398" stop-color="#44565C"/>
<stop offset="0.809" stop-color="#404C50"/>
<stop offset="1" stop-color="#3E4648"/>
</linearGradient>
<linearGradient id="paint51_linear_17_2030" x1="29.1636" y1="27.1307" x2="29.1636" y2="29.2401" gradientUnits="userSpaceOnUse">
<stop stop-color="#465A61"/>
<stop offset="0.398" stop-color="#44565C"/>
<stop offset="0.809" stop-color="#404C50"/>
<stop offset="1" stop-color="#3E4648"/>
</linearGradient>
<linearGradient id="paint52_linear_17_2030" x1="21.0436" y1="4.49014" x2="28.633" y2="12.0796" gradientUnits="userSpaceOnUse">
<stop stop-color="#FFED86"/>
<stop offset="0.184" stop-color="#FEEA81"/>
<stop offset="0.374" stop-color="#FDE175"/>
<stop offset="0.568" stop-color="#FAD260"/>
<stop offset="0.764" stop-color="#F7BE43"/>
<stop offset="0.96" stop-color="#F3A41E"/>
<stop offset="1" stop-color="#F29E16"/>
</linearGradient>
<linearGradient id="paint53_linear_17_2030" x1="25" y1="11.0371" x2="25" y2="14.7432" gradientUnits="userSpaceOnUse">
<stop stop-color="#F29E16" stop-opacity="0"/>
<stop offset="0.121" stop-color="#F29D16" stop-opacity="0.016"/>
<stop offset="0.246" stop-color="#F29B18" stop-opacity="0.065"/>
<stop offset="0.373" stop-color="#F3971B" stop-opacity="0.147"/>
<stop offset="0.502" stop-color="#F5921E" stop-opacity="0.262"/>
<stop offset="0.632" stop-color="#F68B23" stop-opacity="0.41"/>
<stop offset="0.762" stop-color="#F9842A" stop-opacity="0.59"/>
<stop offset="0.892" stop-color="#FB7A31" stop-opacity="0.8"/>
<stop offset="1" stop-color="#FE7238"/>
</linearGradient>
<linearGradient id="paint54_linear_17_2030" x1="27.0496" y1="7.38301" x2="31.5051" y2="8.84492" gradientUnits="userSpaceOnUse">
<stop stop-color="#F29E16" stop-opacity="0"/>
<stop offset="0.121" stop-color="#F29D16" stop-opacity="0.016"/>
<stop offset="0.246" stop-color="#F29B18" stop-opacity="0.065"/>
<stop offset="0.373" stop-color="#F3971B" stop-opacity="0.147"/>
<stop offset="0.502" stop-color="#F5921E" stop-opacity="0.262"/>
<stop offset="0.632" stop-color="#F68B23" stop-opacity="0.41"/>
<stop offset="0.762" stop-color="#F9842A" stop-opacity="0.59"/>
<stop offset="0.892" stop-color="#FB7A31" stop-opacity="0.8"/>
<stop offset="1" stop-color="#FE7238"/>
</linearGradient>
<linearGradient id="paint55_linear_17_2030" x1="5.4793" y1="6.22939" x2="11.7773" y2="12.5274" gradientUnits="userSpaceOnUse">
<stop stop-color="#FFED86"/>
<stop offset="0.184" stop-color="#FEEA81"/>
<stop offset="0.374" stop-color="#FDE175"/>
<stop offset="0.568" stop-color="#FAD260"/>
<stop offset="0.764" stop-color="#F7BE43"/>
<stop offset="0.96" stop-color="#F3A41E"/>
<stop offset="1" stop-color="#F29E16"/>
</linearGradient>
<linearGradient id="paint56_linear_17_2030" x1="8.7625" y1="11.6623" x2="8.7625" y2="14.7378" gradientUnits="userSpaceOnUse">
<stop stop-color="#F29E16" stop-opacity="0"/>
<stop offset="0.121" stop-color="#F29D16" stop-opacity="0.016"/>
<stop offset="0.246" stop-color="#F29B18" stop-opacity="0.065"/>
<stop offset="0.373" stop-color="#F3971B" stop-opacity="0.147"/>
<stop offset="0.502" stop-color="#F5921E" stop-opacity="0.262"/>
<stop offset="0.632" stop-color="#F68B23" stop-opacity="0.41"/>
<stop offset="0.762" stop-color="#F9842A" stop-opacity="0.59"/>
<stop offset="0.892" stop-color="#FB7A31" stop-opacity="0.8"/>
<stop offset="1" stop-color="#FE7238"/>
</linearGradient>
<linearGradient id="paint57_linear_17_2030" x1="10.4634" y1="8.62998" x2="14.1606" y2="9.84316" gradientUnits="userSpaceOnUse">
<stop stop-color="#F29E16" stop-opacity="0"/>
<stop offset="0.121" stop-color="#F29D16" stop-opacity="0.016"/>
<stop offset="0.246" stop-color="#F29B18" stop-opacity="0.065"/>
<stop offset="0.373" stop-color="#F3971B" stop-opacity="0.147"/>
<stop offset="0.502" stop-color="#F5921E" stop-opacity="0.262"/>
<stop offset="0.632" stop-color="#F68B23" stop-opacity="0.41"/>
<stop offset="0.762" stop-color="#F9842A" stop-opacity="0.59"/>
<stop offset="0.892" stop-color="#FB7A31" stop-opacity="0.8"/>
<stop offset="1" stop-color="#FE7238"/>
</linearGradient>
<linearGradient id="paint58_linear_17_2030" x1="37.9543" y1="6.22939" x2="44.2523" y2="12.5274" gradientUnits="userSpaceOnUse">
<stop stop-color="#FFED86"/>
<stop offset="0.184" stop-color="#FEEA81"/>
<stop offset="0.374" stop-color="#FDE175"/>
<stop offset="0.568" stop-color="#FAD260"/>
<stop offset="0.764" stop-color="#F7BE43"/>
<stop offset="0.96" stop-color="#F3A41E"/>
<stop offset="1" stop-color="#F29E16"/>
</linearGradient>
<linearGradient id="paint59_linear_17_2030" x1="41.2375" y1="11.6623" x2="41.2375" y2="14.7378" gradientUnits="userSpaceOnUse">
<stop stop-color="#F29E16" stop-opacity="0"/>
<stop offset="0.121" stop-color="#F29D16" stop-opacity="0.016"/>
<stop offset="0.246" stop-color="#F29B18" stop-opacity="0.065"/>
<stop offset="0.373" stop-color="#F3971B" stop-opacity="0.147"/>
<stop offset="0.502" stop-color="#F5921E" stop-opacity="0.262"/>
<stop offset="0.632" stop-color="#F68B23" stop-opacity="0.41"/>
<stop offset="0.762" stop-color="#F9842A" stop-opacity="0.59"/>
<stop offset="0.892" stop-color="#FB7A31" stop-opacity="0.8"/>
<stop offset="1" stop-color="#FE7238"/>
</linearGradient>
<linearGradient id="paint60_linear_17_2030" x1="42.9384" y1="8.62998" x2="46.6356" y2="9.84316" gradientUnits="userSpaceOnUse">
<stop stop-color="#F29E16" stop-opacity="0"/>
<stop offset="0.121" stop-color="#F29D16" stop-opacity="0.016"/>
<stop offset="0.246" stop-color="#F29B18" stop-opacity="0.065"/>
<stop offset="0.373" stop-color="#F3971B" stop-opacity="0.147"/>
<stop offset="0.502" stop-color="#F5921E" stop-opacity="0.262"/>
<stop offset="0.632" stop-color="#F68B23" stop-opacity="0.41"/>
<stop offset="0.762" stop-color="#F9842A" stop-opacity="0.59"/>
<stop offset="0.892" stop-color="#FB7A31" stop-opacity="0.8"/>
<stop offset="1" stop-color="#FE7238"/>
</linearGradient>
<clipPath id="clip0_17_2030">
<rect width="50" height="50" fill="white"/>
</clipPath>
</defs>
</svg>
