<svg width="50" height="50" viewBox="0 0 50 50" fill="none" xmlns="http://www.w3.org/2000/svg">
<g clip-path="url(#clip0_17_1922)">
<path d="M15.5639 41.9417C15.7675 41.9417 15.9628 41.8609 16.1068 41.7169C16.2508 41.5729 16.3317 41.3776 16.3317 41.174C16.3317 40.9704 16.2508 40.7751 16.1068 40.6311C15.9628 40.4871 15.7675 40.4062 15.5639 40.4062H12.4928C12.2892 40.4062 12.0939 40.4871 11.95 40.6311C11.806 40.7751 11.7251 40.9704 11.7251 41.174C11.7251 41.3776 11.806 41.5729 11.95 41.7169C12.0939 41.8609 12.2892 41.9417 12.4928 41.9417H15.5639Z" fill="url(#paint0_linear_17_1922)"/>
<path d="M15.5639 41.9417C15.7675 41.9417 15.9628 41.8609 16.1068 41.7169C16.2508 41.5729 16.3317 41.3776 16.3317 41.174C16.3317 40.9704 16.2508 40.7751 16.1068 40.6311C15.9628 40.4871 15.7675 40.4062 15.5639 40.4062H12.4928C12.2892 40.4062 12.0939 40.4871 11.95 40.6311C11.806 40.7751 11.7251 40.9704 11.7251 41.174C11.7251 41.3776 11.806 41.5729 11.95 41.7169C12.0939 41.8609 12.2892 41.9417 12.4928 41.9417H15.5639Z" fill="url(#paint1_linear_17_1922)"/>
<path d="M19.5599 10.6947L19.1397 10.2745C18.0452 9.17999 16.2706 9.17999 15.1761 10.2745L13.2636 12.1869H9.43489C9.23127 12.1869 9.03599 12.2678 8.89201 12.4118C8.74803 12.5558 8.66714 12.7511 8.66714 12.9547C8.66714 13.1583 8.74803 13.3536 8.89201 13.4976C9.03599 13.6415 9.23127 13.7224 9.43489 13.7224H11.728L11.0669 14.3835C9.97244 15.478 9.97244 17.2526 11.0669 18.3471L11.4871 18.7673C12.5817 19.8618 14.3563 19.8618 15.4508 18.7673L19.5598 14.6583C20.6544 13.5638 20.6544 11.7892 19.5599 10.6947Z" fill="url(#paint2_linear_17_1922)"/>
<path d="M11.7281 13.7224L11.067 14.3835C9.97247 15.478 9.97247 17.2526 11.067 18.3471L11.4872 18.7673C12.5817 19.8618 14.3563 19.8618 15.4508 18.7673L19.5598 14.6583C19.8273 14.3914 20.0379 14.073 20.1787 13.7224H11.7281Z" fill="url(#paint3_linear_17_1922)"/>
<path d="M25.8479 12.4677L26.7446 4.95751C26.8707 3.90133 28.2323 3.08594 29.8697 3.08594C31.5072 3.08594 32.8687 3.90133 32.9948 4.95751L33.8916 12.4677C34.0726 13.9837 32.22 15.2784 29.8697 15.2784C27.5195 15.2784 25.6669 13.9837 25.8479 12.4677Z" fill="url(#paint4_linear_17_1922)"/>
<path d="M25.8479 12.4677L26.7446 4.95751C26.8707 3.90133 28.2323 3.08594 29.8697 3.08594C31.5072 3.08594 32.8687 3.90133 32.9948 4.95751L33.8916 12.4677C34.0726 13.9837 32.22 15.2784 29.8697 15.2784C27.5195 15.2784 25.6669 13.9837 25.8479 12.4677Z" fill="url(#paint5_linear_17_1922)"/>
<path d="M44.104 14.9554C36.2426 7.09398 23.4969 7.09398 15.6356 14.9554C9.58441 21.0065 8.19216 29.9514 11.4567 37.3354H8.44539C8.24177 37.3354 8.0465 37.4162 7.90252 37.5602C7.75854 37.7042 7.67765 37.8995 7.67765 38.1031C7.67765 38.3067 7.75854 38.502 7.90252 38.646C8.0465 38.79 8.24177 38.8708 8.44539 38.8708H12.2159C13.1126 40.5042 14.2517 42.0399 15.6356 43.4238C15.6537 43.4419 15.6724 43.4594 15.6906 43.4774H6.66118C6.45756 43.4774 6.26228 43.5583 6.1183 43.7023C5.97432 43.8463 5.89343 44.0415 5.89343 44.2452C5.89343 44.4488 5.97432 44.6441 6.1183 44.788C6.26228 44.932 6.45756 45.0129 6.66118 45.0129H17.3285C17.3589 45.0129 17.3887 45.0107 17.4181 45.0072C25.3188 51.2424 36.8123 50.7155 44.1041 43.4237C51.9653 35.5625 51.9653 22.8167 44.104 14.9554Z" fill="url(#paint6_linear_17_1922)"/>
<path d="M9.7395 29.1895C9.7395 40.3071 18.7521 49.3198 29.8698 49.3198C40.9874 49.3198 50.0001 40.3072 50.0001 29.1895C50.0001 26.7817 49.5759 24.4734 48.8007 22.3333H10.9389C10.1636 24.4734 9.7395 26.7817 9.7395 29.1895Z" fill="url(#paint7_linear_17_1922)"/>
<path d="M15.6355 43.4238C23.4968 51.285 36.2427 51.2851 44.1039 43.4238C51.9653 35.5624 51.9652 22.8166 44.1039 14.9553C42.4014 13.2528 40.4692 11.9204 38.4077 10.9553L11.6355 37.7275C12.6006 39.789 13.9329 41.7212 15.6355 43.4238Z" fill="url(#paint8_linear_17_1922)"/>
<path d="M29.8697 46.8907C39.6458 46.8907 47.5708 38.9656 47.5708 29.1896C47.5708 19.4136 39.6458 11.4885 29.8697 11.4885C20.0937 11.4885 12.1686 19.4136 12.1686 29.1896C12.1686 38.9656 20.0937 46.8907 29.8697 46.8907Z" fill="url(#paint9_linear_17_1922)"/>
<path d="M26.3457 32.7866L40.0944 46.5353C41.5255 45.6904 42.8745 44.6533 44.104 43.4238C51.9532 35.5746 51.9648 22.8565 44.14 14.9922L26.3457 32.7866Z" fill="url(#paint10_linear_17_1922)"/>
<path d="M29.8697 44.2848C38.2066 44.2848 44.965 37.5264 44.965 29.1895C44.965 20.8526 38.2066 14.0942 29.8697 14.0942C21.5328 14.0942 14.7744 20.8526 14.7744 29.1895C14.7744 37.5264 21.5328 44.2848 29.8697 44.2848Z" fill="url(#paint11_linear_17_1922)"/>
<path d="M29.8697 44.2848C38.2066 44.2848 44.965 37.5264 44.965 29.1895C44.965 20.8526 38.2066 14.0942 29.8697 14.0942C21.5328 14.0942 14.7744 20.8526 14.7744 29.1895C14.7744 37.5264 21.5328 44.2848 29.8697 44.2848Z" fill="url(#paint12_linear_17_1922)"/>
<path d="M29.8697 44.2848C38.2066 44.2848 44.965 37.5264 44.965 29.1895C44.965 20.8526 38.2066 14.0942 29.8697 14.0942C21.5328 14.0942 14.7744 20.8526 14.7744 29.1895C14.7744 37.5264 21.5328 44.2848 29.8697 44.2848Z" fill="url(#paint13_linear_17_1922)"/>
<path d="M26.3457 32.7866L36.374 42.8149C37.8817 42.0952 39.2951 41.1122 40.5437 39.8635C46.4266 33.9806 46.4383 24.4504 40.5798 18.5525L26.3457 32.7866Z" fill="url(#paint14_linear_17_1922)"/>
<path d="M26.5566 16.3166H29.661C29.8668 16.3166 30.0642 16.2348 30.2097 16.0893C30.3553 15.9437 30.4371 15.7463 30.4371 15.5405C30.4371 15.3347 30.3553 15.1373 30.2097 14.9917C30.0642 14.8462 29.8668 14.7644 29.661 14.7644H26.5566C26.3507 14.7644 26.1533 14.8462 26.0078 14.9917C25.8623 15.1373 25.7805 15.3347 25.7805 15.5405C25.7805 15.7463 25.8623 15.9437 26.0078 16.0893C26.1533 16.2348 26.3507 16.3166 26.5566 16.3166Z" fill="url(#paint15_linear_17_1922)"/>
<path d="M27.3988 17.8687H24.2944C24.1925 17.8687 24.0916 17.8887 23.9974 17.9277C23.9033 17.9667 23.8177 18.0239 23.7456 18.096C23.6736 18.168 23.6164 18.2536 23.5774 18.3477C23.5384 18.4419 23.5183 18.5428 23.5183 18.6447C23.5183 18.7466 23.5384 18.8476 23.5774 18.9417C23.6164 19.0359 23.6736 19.1214 23.7456 19.1935C23.8177 19.2656 23.9033 19.3227 23.9974 19.3617C24.0916 19.4007 24.1925 19.4208 24.2944 19.4208H27.3988C27.5007 19.4208 27.6017 19.4007 27.6958 19.3617C27.79 19.3227 27.8755 19.2656 27.9476 19.1935C28.0197 19.1214 28.0768 19.0359 28.1158 18.9417C28.1548 18.8476 28.1749 18.7466 28.1749 18.6447C28.1749 18.5428 28.1548 18.4419 28.1158 18.3477C28.0768 18.2536 28.0197 18.168 27.9476 18.096C27.8755 18.0239 27.79 17.9667 27.6958 17.9277C27.6017 17.8887 27.5007 17.8687 27.3988 17.8687Z" fill="url(#paint16_linear_17_1922)"/>
<path d="M42.8385 17.8687H32.0554C31.9535 17.8687 31.8526 17.8887 31.7584 17.9277C31.6643 17.9667 31.5787 18.0239 31.5066 18.096C31.4346 18.168 31.3774 18.2536 31.3384 18.3477C31.2994 18.4419 31.2793 18.5428 31.2793 18.6447C31.2793 18.7466 31.2994 18.8476 31.3384 18.9417C31.3774 19.0359 31.4346 19.1214 31.5066 19.1935C31.5787 19.2656 31.6643 19.3227 31.7584 19.3617C31.8526 19.4007 31.9535 19.4208 32.0554 19.4208H42.8385C42.9405 19.4208 43.0414 19.4007 43.1355 19.3617C43.2297 19.3227 43.3152 19.2656 43.3873 19.1935C43.4594 19.1214 43.5165 19.0359 43.5555 18.9417C43.5945 18.8476 43.6146 18.7466 43.6146 18.6447C43.6146 18.5428 43.5945 18.4419 43.5555 18.3477C43.5165 18.2536 43.4594 18.168 43.3873 18.096C43.3152 18.0239 43.2297 17.9667 43.1355 17.9277C43.0414 17.8887 42.9405 17.8687 42.8385 17.8687Z" fill="url(#paint17_linear_17_1922)"/>
<path d="M31.3825 20.9731H29.7612C29.6593 20.9731 29.5583 20.9932 29.4642 21.0322C29.37 21.0712 29.2845 21.1284 29.2124 21.2005C29.1403 21.2725 29.0832 21.3581 29.0442 21.4522C29.0052 21.5464 28.9851 21.6473 28.9851 21.7492C28.9851 21.8511 29.0052 21.9521 29.0442 22.0462C29.0832 22.1404 29.1403 22.2259 29.2124 22.298C29.2845 22.3701 29.37 22.4272 29.4642 22.4662C29.5583 22.5052 29.6593 22.5253 29.7612 22.5253H31.3825C31.4844 22.5253 31.5853 22.5052 31.6795 22.4662C31.7736 22.4272 31.8592 22.3701 31.9312 22.298C32.0033 22.2259 32.0605 22.1404 32.0995 22.0462C32.1385 21.9521 32.1585 21.8511 32.1585 21.7492C32.1585 21.6473 32.1385 21.5464 32.0995 21.4522C32.0605 21.3581 32.0033 21.2725 31.9312 21.2005C31.8592 21.1284 31.7736 21.0712 31.6795 21.0322C31.5853 20.9932 31.4844 20.9731 31.3825 20.9731Z" fill="url(#paint18_linear_17_1922)"/>
<path d="M47.6369 10.0336L45.9414 10.4329C45.8331 10.4584 45.7253 10.4852 45.6179 10.5131C42.9455 11.2084 40.5627 12.713 38.7305 14.7645H34.3176C34.1117 14.7645 33.9143 14.8462 33.7688 14.9918C33.6232 15.1373 33.5415 15.3347 33.5415 15.5406C33.5415 15.7464 33.6232 15.9438 33.7688 16.0893C33.9143 16.2349 34.1117 16.3166 34.3176 16.3166H37.4799L28.4907 27.8836L31.2487 30.6416L43.5977 21.0448C46.0428 19.1446 47.8395 16.5113 48.6192 13.5145C48.6472 13.407 48.6739 13.2992 48.6994 13.191L49.0987 11.4956C49.3058 10.6164 48.5159 9.82653 47.6369 10.0336Z" fill="url(#paint19_linear_17_1922)"/>
<path d="M43.6656 20.9896C42.9875 19.8612 42.1737 18.8202 41.2425 17.8897C40.312 16.9584 39.271 16.1446 38.1426 15.4666C38.1245 15.4894 38.1055 15.5114 38.0877 15.5344L28.4907 27.8833L31.2487 30.6414L43.5977 21.0444C43.6207 21.0267 43.6427 21.0076 43.6656 20.9896Z" fill="url(#paint20_linear_17_1922)"/>
<path d="M31.2488 30.6416L43.5977 21.0446C46.0428 19.1444 47.8396 16.5112 48.6193 13.5143C48.6473 13.4068 48.674 13.299 48.6995 13.1909L49.0988 11.4954C49.2023 11.0559 49.0567 10.6386 48.7752 10.3572L29.8697 29.2626L31.2488 30.6416Z" fill="url(#paint21_linear_17_1922)"/>
<path d="M29.8697 34.2465C32.6222 34.2465 34.8535 32.0151 34.8535 29.2626C34.8535 26.5101 32.6222 24.2788 29.8697 24.2788C27.1172 24.2788 24.8859 26.5101 24.8859 29.2626C24.8859 32.0151 27.1172 34.2465 29.8697 34.2465Z" fill="url(#paint22_linear_17_1922)"/>
<path d="M24.8859 29.2626C24.8859 32.0151 27.1173 34.2465 29.8697 34.2465C32.6222 34.2465 34.8535 32.0151 34.8535 29.2626C34.8535 28.6666 34.7485 28.095 34.5566 27.5652H25.1829C24.9859 28.1094 24.8854 28.6839 24.8859 29.2626Z" fill="url(#paint23_linear_17_1922)"/>
<path d="M26.3457 32.7865C28.292 34.7328 31.4475 34.7328 33.3938 32.7865C35.3401 30.8402 35.3401 27.6846 33.3938 25.7383C32.9849 25.3287 32.5077 24.9936 31.9835 24.748L25.3553 31.3763C25.6009 31.9004 25.936 32.3776 26.3457 32.7865Z" fill="url(#paint24_linear_17_1922)"/>
<path d="M39.5328 20.9749H36.0038C35.5917 20.9934 35.2629 21.3324 35.2629 21.7492C35.2629 21.955 35.3447 22.1524 35.4902 22.2979C35.6358 22.4435 35.8332 22.5252 36.039 22.5252H37.1117V22.527H39.5329C39.6349 22.527 39.7358 22.5069 39.8299 22.4679C39.9241 22.4289 40.0096 22.3717 40.0817 22.2997C40.1538 22.2276 40.2109 22.142 40.2499 22.0479C40.2889 21.9537 40.309 21.8528 40.309 21.7509C40.309 21.649 40.2889 21.548 40.2499 21.4539C40.2109 21.3597 40.1537 21.2742 40.0816 21.2021C40.0096 21.1301 39.924 21.0729 39.8298 21.0339C39.7357 20.9949 39.6348 20.9748 39.5328 20.9749Z" fill="url(#paint25_linear_17_1922)"/>
<path d="M34.3176 16.3166H39.501C39.7068 16.3166 39.9042 16.2348 40.0498 16.0893C40.1953 15.9437 40.2771 15.7463 40.2771 15.5405C40.2771 15.3347 40.1953 15.1373 40.0498 14.9917C39.9042 14.8462 39.7068 14.7644 39.501 14.7644H34.3176C34.1117 14.7644 33.9143 14.8462 33.7688 14.9917C33.6232 15.1373 33.5415 15.3347 33.5415 15.5405C33.5415 15.6424 33.5615 15.7433 33.6005 15.8375C33.6395 15.9317 33.6967 16.0172 33.7688 16.0893C33.8408 16.1614 33.9264 16.2185 34.0205 16.2575C34.1147 16.2965 34.2156 16.3166 34.3176 16.3166Z" fill="url(#paint26_linear_17_1922)"/>
<path d="M35.4744 6.61753H24.2651C23.6008 6.61753 23.0623 6.079 23.0623 5.41469V1.88302C23.0623 1.21871 23.6008 0.680176 24.2651 0.680176H35.4744C36.1387 0.680176 36.6773 1.21871 36.6773 1.88302V5.41469C36.6773 6.079 36.1387 6.61753 35.4744 6.61753Z" fill="url(#paint27_linear_17_1922)"/>
<path d="M33.1223 6.61743H26.617C26.0955 6.61743 25.6726 6.19459 25.6726 5.67302V1.62459C25.6726 1.10302 26.0955 0.680176 26.617 0.680176H33.1223C33.6439 0.680176 34.0668 1.10302 34.0668 1.62459V5.67302C34.0669 6.19459 33.644 6.61743 33.1223 6.61743Z" fill="black"/>
<path d="M30.834 6.61753H28.9055C28.754 6.61753 28.6087 6.55734 28.5015 6.45021C28.3944 6.34307 28.3342 6.19777 28.3342 6.04625V1.25145C28.3342 1.09994 28.3944 0.954633 28.5015 0.847498C28.6087 0.740363 28.754 0.680176 28.9055 0.680176H30.834C30.9855 0.680176 31.1308 0.740363 31.238 0.847498C31.3451 0.954633 31.4053 1.09994 31.4053 1.25145V6.04625C31.4053 6.19777 31.3451 6.34307 31.238 6.45021C31.1308 6.55734 30.9855 6.61753 30.834 6.61753Z" fill="black"/>
<path d="M5.02315 35.7999H8.09422C8.29784 35.7999 8.49312 35.719 8.6371 35.575C8.78108 35.431 8.86197 35.2358 8.86197 35.0321C8.86197 34.8285 8.78108 34.6333 8.6371 34.4893C8.49312 34.3453 8.29784 34.2644 8.09422 34.2644H5.02315C4.81953 34.2644 4.62425 34.3453 4.48027 34.4893C4.33629 34.6333 4.2554 34.8285 4.2554 35.0321C4.2554 35.2358 4.33629 35.431 4.48027 35.575C4.62425 35.719 4.81953 35.7999 5.02315 35.7999Z" fill="url(#paint28_linear_17_1922)"/>
<path d="M3.83882 37.3352H0.767745C0.564126 37.3352 0.368847 37.4161 0.224867 37.5601C0.0808872 37.7041 0 37.8993 0 38.1029C0 38.3066 0.0808872 38.5018 0.224867 38.6458C0.368847 38.7898 0.564126 38.8707 0.767745 38.8707H3.83882C4.04244 38.8707 4.23772 38.7898 4.3817 38.6458C4.52568 38.5018 4.60657 38.3066 4.60657 38.1029C4.60657 37.8993 4.52568 37.7041 4.3817 37.5601C4.23772 37.4161 4.04244 37.3352 3.83882 37.3352Z" fill="url(#paint29_linear_17_1922)"/>
<path d="M19.1126 37.3352H8.44539C8.24177 37.3352 8.04649 37.4161 7.90251 37.5601C7.75853 37.7041 7.67764 37.8993 7.67764 38.1029C7.67764 38.3066 7.75853 38.5018 7.90251 38.6458C8.04649 38.7898 8.24177 38.8707 8.44539 38.8707H19.1127C19.2136 38.8707 19.3134 38.8508 19.4065 38.8122C19.4997 38.7736 19.5843 38.7171 19.6556 38.6458C19.7269 38.5745 19.7834 38.4899 19.822 38.3967C19.8606 38.3036 19.8804 38.2037 19.8804 38.1029C19.8804 38.0021 19.8606 37.9022 19.822 37.8091C19.7834 37.716 19.7268 37.6313 19.6555 37.56C19.5842 37.4887 19.4996 37.4322 19.4065 37.3936C19.3133 37.355 19.2135 37.3352 19.1126 37.3352Z" fill="url(#paint30_linear_17_1922)"/>
<path d="M17.3283 43.4775H6.66109C6.45747 43.4775 6.26219 43.5584 6.11821 43.7024C5.97423 43.8464 5.89334 44.0417 5.89334 44.2453C5.89334 44.4489 5.97423 44.6442 6.11821 44.7882C6.26219 44.9321 6.45747 45.013 6.66109 45.013H17.3284C17.5321 45.013 17.7273 44.9321 17.8713 44.7881C18.0153 44.6441 18.0961 44.4489 18.0961 44.2452C18.0961 44.0416 18.0152 43.8463 17.8712 43.7024C17.7272 43.5584 17.532 43.4775 17.3283 43.4775Z" fill="url(#paint31_linear_17_1922)"/>
<path d="M7.88638 41.9417C8.09 41.9417 8.28527 41.8609 8.42925 41.7169C8.57323 41.5729 8.65412 41.3776 8.65412 41.174C8.65412 40.9704 8.57323 40.7751 8.42925 40.6311C8.28527 40.4871 8.09 40.4062 7.88638 40.4062H6.28245C6.07884 40.4062 5.88356 40.4871 5.73958 40.6311C5.5956 40.7751 5.51471 40.9704 5.51471 41.174C5.51471 41.3776 5.5956 41.5729 5.73958 41.7169C5.88356 41.8609 6.07884 41.9417 6.28245 41.9417H7.88638Z" fill="url(#paint32_linear_17_1922)"/>
<path d="M12.6958 35.7999H15.7351C15.9387 35.7999 16.134 35.719 16.278 35.575C16.422 35.431 16.5028 35.2358 16.5028 35.0321C16.5028 34.8285 16.422 34.6333 16.278 34.4893C16.134 34.3453 15.9387 34.2644 15.7351 34.2644H12.6958C12.4922 34.2644 12.2969 34.3453 12.1529 34.4893C12.0089 34.6333 11.928 34.8285 11.928 35.0321C11.928 35.2358 12.0089 35.431 12.1529 35.575C12.2969 35.719 12.4922 35.7999 12.6958 35.7999Z" fill="url(#paint33_linear_17_1922)"/>
<path d="M23.7264 43.4775H20.6553C20.4517 43.4775 20.2564 43.5584 20.1124 43.7024C19.9684 43.8464 19.8875 44.0417 19.8875 44.2453C19.8875 44.4489 19.9684 44.6442 20.1124 44.7882C20.2564 44.9321 20.4517 45.013 20.6553 45.013H23.7264C23.93 45.013 24.1253 44.9321 24.2692 44.7882C24.4132 44.6442 24.4941 44.4489 24.4941 44.2453C24.4941 44.0417 24.4132 43.8464 24.2692 43.7024C24.1253 43.5584 23.93 43.4775 23.7264 43.4775Z" fill="url(#paint34_linear_17_1922)"/>
<path d="M6.87568 12.187H3.8047C3.60108 12.187 3.4058 12.2679 3.26182 12.4119C3.11784 12.5559 3.03696 12.7511 3.03696 12.9548C3.03696 13.1584 3.11784 13.3537 3.26182 13.4976C3.4058 13.6416 3.60108 13.7225 3.8047 13.7225H6.87578C6.9766 13.7225 7.07644 13.7026 7.16958 13.664C7.26272 13.6255 7.34736 13.5689 7.41864 13.4976C7.48993 13.4263 7.54648 13.3417 7.58505 13.2485C7.62363 13.1554 7.64348 13.0555 7.64348 12.9547C7.64347 12.8539 7.62361 12.7541 7.58502 12.6609C7.54643 12.5678 7.48987 12.4831 7.41857 12.4118C7.34728 12.3406 7.26264 12.284 7.16949 12.2454C7.07634 12.2069 6.9765 12.187 6.87568 12.187Z" fill="url(#paint35_linear_17_1922)"/>
<path d="M9.38775 16.7935C9.59137 16.7935 9.78665 16.7127 9.93063 16.5687C10.0746 16.4247 10.1555 16.2294 10.1555 16.0258C10.1555 15.8222 10.0746 15.6269 9.93063 15.4829C9.78665 15.3389 9.59137 15.2581 9.38775 15.2581H6.47481C6.27119 15.2581 6.07591 15.3389 5.93193 15.4829C5.78795 15.6269 5.70706 15.8222 5.70706 16.0258C5.70706 16.2294 5.78795 16.4247 5.93193 16.5687C6.07591 16.7127 6.27119 16.7935 6.47481 16.7935H9.38775Z" fill="url(#paint36_linear_17_1922)"/>
<path d="M18.1191 12.187H9.43489C9.23127 12.187 9.03599 12.2679 8.89201 12.4119C8.74803 12.5559 8.66714 12.7511 8.66714 12.9548C8.66714 13.1584 8.74803 13.3537 8.89201 13.4976C9.03599 13.6416 9.23127 13.7225 9.43489 13.7225H18.1191C18.3227 13.7225 18.518 13.6416 18.662 13.4976C18.806 13.3537 18.8869 13.1584 18.8869 12.9548C18.8869 12.7511 18.806 12.5559 18.662 12.4119C18.518 12.2679 18.3227 12.187 18.1191 12.187Z" fill="url(#paint37_linear_17_1922)"/>
</g>
<defs>
<linearGradient id="paint0_linear_17_1922" x1="9.62059" y1="32.0885" x2="17.1446" y2="47.5973" gradientUnits="userSpaceOnUse">
<stop stop-color="#DEECF1"/>
<stop offset="1" stop-color="#D9B1EE"/>
</linearGradient>
<linearGradient id="paint1_linear_17_1922" x1="10.9349" y1="42.737" x2="14.1766" y2="41.0992" gradientUnits="userSpaceOnUse">
<stop stop-color="#8379C1" stop-opacity="0"/>
<stop offset="0.283" stop-color="#8374BE" stop-opacity="0.283"/>
<stop offset="0.586" stop-color="#8268B5" stop-opacity="0.586"/>
<stop offset="0.898" stop-color="#8152A6" stop-opacity="0.898"/>
<stop offset="1" stop-color="#814AA0"/>
</linearGradient>
<linearGradient id="paint2_linear_17_1922" x1="13.3368" y1="10.8464" x2="15.9983" y2="15.7941" gradientUnits="userSpaceOnUse">
<stop stop-color="#9BE69D"/>
<stop offset="1" stop-color="#0BB494"/>
</linearGradient>
<linearGradient id="paint3_linear_17_1922" x1="14.8301" y1="14.7337" x2="13.0131" y2="11.5091" gradientUnits="userSpaceOnUse">
<stop stop-color="#01525A" stop-opacity="0"/>
<stop offset="1" stop-color="#01525A"/>
</linearGradient>
<linearGradient id="paint4_linear_17_1922" x1="27.7712" y1="9.18211" x2="31.8969" y2="9.18211" gradientUnits="userSpaceOnUse">
<stop stop-color="#DEECF1"/>
<stop offset="1" stop-color="#8EBAC5"/>
</linearGradient>
<linearGradient id="paint5_linear_17_1922" x1="29.8697" y1="8.22143" x2="29.8697" y2="6.17143" gradientUnits="userSpaceOnUse">
<stop stop-color="#678D98" stop-opacity="0"/>
<stop offset="0.227" stop-color="#638892" stop-opacity="0.227"/>
<stop offset="0.522" stop-color="#597B82" stop-opacity="0.522"/>
<stop offset="0.853" stop-color="#476567" stop-opacity="0.853"/>
<stop offset="1" stop-color="#3E5959"/>
</linearGradient>
<linearGradient id="paint6_linear_17_1922" x1="16.316" y1="21.0766" x2="32.505" y2="37.2657" gradientUnits="userSpaceOnUse">
<stop stop-color="#A6E7F0"/>
<stop offset="0.171" stop-color="#90E2ED"/>
<stop offset="0.529" stop-color="#56D7E7"/>
<stop offset="1" stop-color="#02C7DD"/>
</linearGradient>
<linearGradient id="paint7_linear_17_1922" x1="29.8697" y1="30.8174" x2="29.8697" y2="48.2079" gradientUnits="userSpaceOnUse">
<stop stop-color="#0199B1" stop-opacity="0"/>
<stop offset="1" stop-color="#0199B1"/>
</linearGradient>
<linearGradient id="paint8_linear_17_1922" x1="29.4331" y1="28.753" x2="43.2427" y2="42.5625" gradientUnits="userSpaceOnUse">
<stop stop-color="#0199B1" stop-opacity="0"/>
<stop offset="1" stop-color="#0199B1"/>
</linearGradient>
<linearGradient id="paint9_linear_17_1922" x1="42.9081" y1="42.2279" x2="14.353" y2="13.6728" gradientUnits="userSpaceOnUse">
<stop stop-color="#A6E7F0"/>
<stop offset="0.171" stop-color="#90E2ED"/>
<stop offset="0.529" stop-color="#56D7E7"/>
<stop offset="1" stop-color="#02C7DD"/>
</linearGradient>
<linearGradient id="paint10_linear_17_1922" x1="41.92" y1="30.5667" x2="37.8231" y2="26.4696" gradientUnits="userSpaceOnUse">
<stop stop-color="#0199B1" stop-opacity="0"/>
<stop offset="1" stop-color="#0199B1"/>
</linearGradient>
<linearGradient id="paint11_linear_17_1922" x1="22.8576" y1="22.1774" x2="37.6029" y2="36.9228" gradientUnits="userSpaceOnUse">
<stop stop-color="#F9F5F3"/>
<stop offset="1" stop-color="#EFE2DD"/>
</linearGradient>
<linearGradient id="paint12_linear_17_1922" x1="29.8697" y1="23.0475" x2="29.8697" y2="10.0464" gradientUnits="userSpaceOnUse">
<stop stop-color="#9E9797" stop-opacity="0"/>
<stop offset="0.31" stop-color="#968F8F" stop-opacity="0.31"/>
<stop offset="0.785" stop-color="#827A7A" stop-opacity="0.785"/>
<stop offset="1" stop-color="#766E6E"/>
</linearGradient>
<linearGradient id="paint13_linear_17_1922" x1="26.7732" y1="27.4233" x2="12.237" y2="19.1314" gradientUnits="userSpaceOnUse">
<stop stop-color="#9E9797" stop-opacity="0"/>
<stop offset="0.31" stop-color="#968F8F" stop-opacity="0.31"/>
<stop offset="0.785" stop-color="#827A7A" stop-opacity="0.785"/>
<stop offset="1" stop-color="#766E6E"/>
</linearGradient>
<linearGradient id="paint14_linear_17_1922" x1="40.7883" y1="32.9951" x2="33.6512" y2="25.8581" gradientUnits="userSpaceOnUse">
<stop stop-color="#9E9797" stop-opacity="0"/>
<stop offset="0.31" stop-color="#968F8F" stop-opacity="0.31"/>
<stop offset="0.785" stop-color="#827A7A" stop-opacity="0.785"/>
<stop offset="1" stop-color="#766E6E"/>
</linearGradient>
<linearGradient id="paint15_linear_17_1922" x1="28.1908" y1="15.6587" x2="32.6949" y2="22.1591" gradientUnits="userSpaceOnUse">
<stop stop-color="#DEECF1"/>
<stop offset="1" stop-color="#D9B1EE"/>
</linearGradient>
<linearGradient id="paint16_linear_17_1922" x1="25.2091" y1="17.7247" x2="29.7133" y2="24.225" gradientUnits="userSpaceOnUse">
<stop stop-color="#DEECF1"/>
<stop offset="1" stop-color="#D9B1EE"/>
</linearGradient>
<linearGradient id="paint17_linear_17_1922" x1="33.0465" y1="12.294" x2="37.5507" y2="18.7944" gradientUnits="userSpaceOnUse">
<stop stop-color="#DEECF1"/>
<stop offset="1" stop-color="#D9B1EE"/>
</linearGradient>
<linearGradient id="paint18_linear_17_1922" x1="26.9482" y1="16.5197" x2="31.4524" y2="23.0201" gradientUnits="userSpaceOnUse">
<stop stop-color="#DEECF1"/>
<stop offset="1" stop-color="#D9B1EE"/>
</linearGradient>
<linearGradient id="paint19_linear_17_1922" x1="37.3292" y1="17.801" x2="41.5776" y2="22.1005" gradientUnits="userSpaceOnUse">
<stop stop-color="#5A5A5A"/>
<stop offset="1" stop-color="#444444"/>
</linearGradient>
<linearGradient id="paint20_linear_17_1922" x1="37.5397" y1="21.6206" x2="32.7308" y2="26.4295" gradientUnits="userSpaceOnUse">
<stop stop-color="#766E6E" stop-opacity="0"/>
<stop offset="1" stop-color="#1A1A1A"/>
</linearGradient>
<linearGradient id="paint21_linear_17_1922" x1="41.5113" y1="21.5187" x2="37.7719" y2="19.0881" gradientUnits="userSpaceOnUse">
<stop stop-color="#766E6E" stop-opacity="0"/>
<stop offset="1" stop-color="#1A1A1A"/>
</linearGradient>
<linearGradient id="paint22_linear_17_1922" x1="27.1877" y1="26.5805" x2="31.1957" y2="30.5885" gradientUnits="userSpaceOnUse">
<stop stop-color="#FFA1AE"/>
<stop offset="1" stop-color="#FF4565"/>
</linearGradient>
<linearGradient id="paint23_linear_17_1922" x1="29.8697" y1="29.3257" x2="29.8697" y2="35.1884" gradientUnits="userSpaceOnUse">
<stop stop-color="#FD4755" stop-opacity="0"/>
<stop offset="0.259" stop-color="#F74453" stop-opacity="0.259"/>
<stop offset="0.621" stop-color="#E53B4C" stop-opacity="0.621"/>
<stop offset="1" stop-color="#CA2E43"/>
</linearGradient>
<linearGradient id="paint24_linear_17_1922" x1="29.9518" y1="29.3177" x2="34.3155" y2="33.6814" gradientUnits="userSpaceOnUse">
<stop stop-color="#FD4755" stop-opacity="0"/>
<stop offset="0.259" stop-color="#F74453" stop-opacity="0.259"/>
<stop offset="0.621" stop-color="#E53B4C" stop-opacity="0.621"/>
<stop offset="1" stop-color="#CA2E43"/>
</linearGradient>
<linearGradient id="paint25_linear_17_1922" x1="38.6222" y1="21.7509" x2="34.2204" y2="21.7509" gradientUnits="userSpaceOnUse">
<stop stop-color="#DEECF1" stop-opacity="0"/>
<stop offset="1" stop-color="#D9B1EE"/>
</linearGradient>
<linearGradient id="paint26_linear_17_1922" x1="36.7284" y1="15.5405" x2="33.2976" y2="15.5405" gradientUnits="userSpaceOnUse">
<stop stop-color="#DEECF1" stop-opacity="0"/>
<stop offset="1" stop-color="#D9B1EE"/>
</linearGradient>
<linearGradient id="paint27_linear_17_1922" x1="29.8697" y1="1.4992" x2="29.8697" y2="6.27635" gradientUnits="userSpaceOnUse">
<stop stop-color="#FFF5C6"/>
<stop offset="1" stop-color="#FEE45A"/>
</linearGradient>
<linearGradient id="paint28_linear_17_1922" x1="5.67413" y1="33.2088" x2="13.1981" y2="48.7175" gradientUnits="userSpaceOnUse">
<stop stop-color="#DEECF1"/>
<stop offset="1" stop-color="#D9B1EE"/>
</linearGradient>
<linearGradient id="paint29_linear_17_1922" x1="1.33549" y1="36.1081" x2="8.8595" y2="51.6169" gradientUnits="userSpaceOnUse">
<stop stop-color="#DEECF1"/>
<stop offset="1" stop-color="#D9B1EE"/>
</linearGradient>
<linearGradient id="paint30_linear_17_1922" x1="11.8491" y1="38.103" x2="8.49656" y2="38.103" gradientUnits="userSpaceOnUse">
<stop stop-color="#DEECF1" stop-opacity="0"/>
<stop offset="1" stop-color="#D9B1EE"/>
</linearGradient>
<linearGradient id="paint31_linear_17_1922" x1="14.9457" y1="44.2453" x2="6.09089" y2="44.2453" gradientUnits="userSpaceOnUse">
<stop stop-color="#DEECF1" stop-opacity="0"/>
<stop offset="1" stop-color="#D9B1EE"/>
</linearGradient>
<linearGradient id="paint32_linear_17_1922" x1="3.99961" y1="34.8156" x2="11.5236" y2="50.3243" gradientUnits="userSpaceOnUse">
<stop stop-color="#DEECF1"/>
<stop offset="1" stop-color="#D9B1EE"/>
</linearGradient>
<linearGradient id="paint33_linear_17_1922" x1="15.9182" y1="35.0321" x2="11.6699" y2="35.0321" gradientUnits="userSpaceOnUse">
<stop stop-color="#8379C1" stop-opacity="0"/>
<stop offset="0.283" stop-color="#8374BE" stop-opacity="0.283"/>
<stop offset="0.586" stop-color="#8268B5" stop-opacity="0.586"/>
<stop offset="0.898" stop-color="#8152A6" stop-opacity="0.898"/>
<stop offset="1" stop-color="#814AA0"/>
</linearGradient>
<linearGradient id="paint34_linear_17_1922" x1="24.5683" y1="44.2453" x2="18.7845" y2="44.2453" gradientUnits="userSpaceOnUse">
<stop stop-color="#8379C1" stop-opacity="0"/>
<stop offset="0.283" stop-color="#8374BE" stop-opacity="0.283"/>
<stop offset="0.586" stop-color="#8268B5" stop-opacity="0.586"/>
<stop offset="0.898" stop-color="#8152A6" stop-opacity="0.898"/>
<stop offset="1" stop-color="#814AA0"/>
</linearGradient>
<linearGradient id="paint35_linear_17_1922" x1="4.37235" y1="10.9599" x2="11.8964" y2="26.4686" gradientUnits="userSpaceOnUse">
<stop stop-color="#DEECF1"/>
<stop offset="1" stop-color="#D9B1EE"/>
</linearGradient>
<linearGradient id="paint36_linear_17_1922" x1="4.05814" y1="8.04247" x2="13.505" y2="27.5144" gradientUnits="userSpaceOnUse">
<stop stop-color="#DEECF1"/>
<stop offset="1" stop-color="#D9B1EE"/>
</linearGradient>
<linearGradient id="paint37_linear_17_1922" x1="13.5125" y1="12.9548" x2="8.45087" y2="12.9548" gradientUnits="userSpaceOnUse">
<stop stop-color="#DEECF1" stop-opacity="0"/>
<stop offset="1" stop-color="#D9B1EE"/>
</linearGradient>
<clipPath id="clip0_17_1922">
<rect width="50" height="50" fill="white"/>
</clipPath>
</defs>
</svg>
