<svg width="50" height="50" viewBox="0 0 50 50" fill="none" xmlns="http://www.w3.org/2000/svg">
<g clip-path="url(#clip0_140_20656)">
<path d="M27.0993 33.5263L26.6365 30.8925H23.363L22.9001 33.5263C22.4112 36.3085 20.9202 38.7179 18.8009 40.1508C18.2469 40.5254 18.4766 41.5064 19.1184 41.5064H30.881C31.5228 41.5064 31.7526 40.5254 31.1985 40.1508C29.0792 38.7178 27.5883 36.3084 27.0993 33.5263Z" fill="url(#paint0_linear_140_20656)"/>
<path d="M31.1992 40.1508C29.0799 38.7179 27.589 36.3085 27.1 33.5263L26.6371 30.8925H25.1032L24.6404 33.5263C24.1514 36.3085 22.6605 38.7179 20.5412 40.1508C19.9871 40.5254 20.2168 41.5064 20.8586 41.5064H30.8815C31.5235 41.5064 31.7532 40.5254 31.1992 40.1508Z" fill="url(#paint1_linear_140_20656)"/>
<path d="M11.8387 26.7366C5.72762 26.7366 0.755859 21.7648 0.755859 15.6537C0.755859 9.54265 5.72762 4.57088 11.8387 4.57088C17.9498 4.57088 22.9215 9.54265 22.9215 15.6537C22.9215 21.7648 17.9498 26.7366 11.8387 26.7366ZM11.8387 7.15941C7.15498 7.15941 3.34439 10.97 3.34439 15.6537C3.34439 20.3375 7.15488 24.148 11.8387 24.148C16.5225 24.148 20.333 20.3375 20.333 15.6537C20.333 10.97 16.5224 7.15941 11.8387 7.15941Z" fill="url(#paint2_linear_140_20656)"/>
<path d="M38.161 26.7366C32.0499 26.7366 27.0781 21.7648 27.0781 15.6537C27.0781 9.54265 32.0499 4.57088 38.161 4.57088C44.272 4.57088 49.2438 9.54265 49.2438 15.6537C49.2438 21.7648 44.272 26.7366 38.161 26.7366ZM38.161 7.15941C33.4772 7.15941 29.6667 10.97 29.6667 15.6537C29.6667 20.3375 33.4772 24.148 38.161 24.148C42.8447 24.148 46.6553 20.3375 46.6553 15.6537C46.6553 10.97 42.8447 7.15941 38.161 7.15941Z" fill="url(#paint3_linear_140_20656)"/>
<path d="M43.0612 2.53814V2.54333L43.0497 2.62873C43.0497 2.63127 43.0485 2.63392 43.0485 2.63647L41.6912 13.2846C40.755 20.6323 36.703 27.0261 30.8076 30.4625C27.1697 32.5838 22.831 32.5838 19.1932 30.4625C16.2455 28.7436 13.7583 26.2871 11.8918 23.34C10.0242 20.3942 8.77818 16.9578 8.30955 13.2847L6.9522 2.63647C6.9522 2.63392 6.95102 2.63127 6.95102 2.62873L6.93945 2.54333V2.53814C6.93945 1.13637 15.025 0 25.0003 0C34.9756 0 43.0612 1.13637 43.0612 2.53814Z" fill="url(#paint4_linear_140_20656)"/>
<path d="M36.2179 0.549019L34.9872 10.204C34.051 17.5517 29.9989 23.9455 24.1035 27.3819C21.8505 28.6957 19.3287 29.1949 16.8711 28.8814C17.6083 29.4601 18.3823 29.9901 19.1925 30.4625C22.8304 32.5839 27.169 32.5839 30.807 30.4625C36.7024 27.0262 40.7544 20.6325 41.6906 13.2847L43.0479 2.63657C43.0479 2.63402 43.049 2.63137 43.049 2.62882L43.0606 2.54343V2.53823C43.0606 1.73206 40.3867 1.01392 36.2179 0.549019Z" fill="url(#paint5_linear_140_20656)"/>
<path d="M40.1451 2.53814V2.54333L40.1354 2.62873C40.1354 2.63127 40.1344 2.63392 40.1344 2.63647L38.9963 13.2846C38.2113 20.6323 34.8138 27.0261 29.8706 30.4625C26.8202 32.5838 23.1823 32.5838 20.1319 30.4625C17.6604 28.7436 15.5749 26.2871 14.0098 23.34C12.4437 20.3942 11.3991 16.9578 11.0061 13.2847L9.86811 2.63647C9.86811 2.63392 9.86713 2.63127 9.86713 2.62873L9.85742 2.54333V2.53814C9.85742 1.13637 16.637 0 25.0012 0C33.3655 0 40.1451 1.13637 40.1451 2.53814Z" fill="url(#paint6_linear_140_20656)"/>
<path d="M43.3744 2.53814V2.54333C43.3744 2.57176 43.3697 2.60029 43.3626 2.62873C43.3626 2.63127 43.3615 2.63392 43.3615 2.63647C42.9873 3.99422 34.9104 5.07755 25.0007 5.07755C15.091 5.07755 7.01401 3.99422 6.63989 2.63647C6.63989 2.63392 6.63872 2.63127 6.63872 2.62873C6.63135 2.60084 6.6274 2.57217 6.62695 2.54333V2.53814C6.62695 1.13637 14.8525 0 25.0007 0C35.1488 0 43.3744 1.13637 43.3744 2.53814Z" fill="url(#paint7_radial_140_20656)"/>
<path d="M40.9163 3.80804C37.7398 3.04931 31.802 2.53873 25.0002 2.53873C18.1983 2.53873 12.2606 3.04931 9.08398 3.80804C12.2608 4.56716 18.1987 5.07745 25.0002 5.07745C31.8016 5.07745 37.7395 4.56716 40.9163 3.80804Z" fill="url(#paint8_linear_140_20656)"/>
<path d="M24.9995 4.45088C16.4981 4.45088 9.33606 3.5153 7.16597 2.23912C6.90342 2.08471 6.59057 2.31588 6.62577 2.63726L6.83803 4.57412C6.89675 5.10971 7.21616 5.56961 7.67567 5.77745C11.0923 7.32226 17.5704 8.365 24.9995 8.365C32.4286 8.365 38.9067 7.32226 42.3233 5.77745C42.7828 5.56971 43.1023 5.10981 43.161 4.57412L43.3732 2.63726C43.4084 2.31588 43.0956 2.08471 42.833 2.23912C40.6629 3.5153 33.5009 4.45088 24.9995 4.45088Z" fill="url(#paint9_linear_140_20656)"/>
<path d="M32.801 50H17.2002C16.5395 50 16.0039 49.4644 16.0039 48.8037V41.8543C16.0039 41.1936 16.5395 40.658 17.2002 40.658H32.801C33.4617 40.658 33.9972 41.1936 33.9972 41.8543V48.8037C33.9972 49.4644 33.4617 50 32.801 50Z" fill="url(#paint10_linear_140_20656)"/>
<path d="M17.7457 41.6423C17.5448 41.6423 17.3522 41.7221 17.2101 41.8641C17.0681 42.0062 16.9883 42.1988 16.9883 42.3997V49.1168C16.9883 49.3772 17.0417 49.625 17.138 49.8502C17.3698 49.9493 17.6193 50.0002 17.8714 49.9999H32.13C33.1614 49.9999 33.9974 49.1638 33.9974 48.1326V42.5255C33.9974 42.2651 33.944 42.0173 33.8477 41.7921C33.6159 41.693 33.3664 41.6421 33.1143 41.6424H17.7457V41.6423Z" fill="url(#paint11_linear_140_20656)"/>
<path d="M32.7916 40.658H31.2305C32.2618 40.658 33.0978 41.4941 33.0978 42.5254V48.1326C33.0978 49.1639 32.2617 49.9999 31.2305 49.9999H32.1302C33.1615 49.9999 33.9975 49.1638 33.9975 48.1326V41.8639C33.9975 41.1979 33.4576 40.658 32.7916 40.658Z" fill="url(#paint12_linear_140_20656)"/>
<path d="M33.9977 48.8037V45.0919L31.2665 42.3607C31.2329 42.3136 31.1885 42.2752 31.137 42.2487C31.0856 42.2222 31.0286 42.2083 30.9707 42.2082H19.0313C18.9344 42.2082 18.8415 42.2467 18.773 42.3152C18.7045 42.3837 18.666 42.4767 18.666 42.5735V46.8247C18.666 46.9468 18.7265 47.0542 18.8185 47.1205L21.6979 50H32.8014C33.4621 50 33.9977 49.4644 33.9977 48.8037Z" fill="url(#paint13_linear_140_20656)"/>
<path d="M35.3962 50H14.6042C14.4377 50 14.2781 49.9339 14.1604 49.8162C14.0427 49.6985 13.9766 49.5388 13.9766 49.3724C13.9766 48.7613 14.472 48.266 15.0829 48.266H34.9174C35.5285 48.266 36.0238 48.7614 36.0238 49.3724C36.0238 49.5388 35.9577 49.6985 35.84 49.8162C35.7223 49.9339 35.5626 50 35.3962 50Z" fill="#555A66"/>
<path d="M30.9707 47.19H19.0313C18.9344 47.19 18.8415 47.1515 18.773 47.083C18.7045 47.0145 18.666 46.9216 18.666 46.8247V42.5735C18.666 42.4767 18.7045 42.3837 18.773 42.3152C18.8415 42.2467 18.9344 42.2082 19.0313 42.2082H30.9707C31.0676 42.2082 31.1605 42.2467 31.229 42.3152C31.2975 42.3837 31.336 42.4767 31.336 42.5735V46.8247C31.336 46.9216 31.2975 47.0145 31.229 47.083C31.1605 47.1515 31.0676 47.19 30.9707 47.19Z" fill="url(#paint14_linear_140_20656)"/>
<path d="M19.4812 43.2523C19.6305 43.2523 19.7515 43.1312 19.7515 42.982C19.7515 42.8327 19.6305 42.7117 19.4812 42.7117C19.332 42.7117 19.2109 42.8327 19.2109 42.982C19.2109 43.1312 19.332 43.2523 19.4812 43.2523Z" fill="url(#paint15_linear_140_20656)"/>
<path d="M30.5203 43.2523C30.6696 43.2523 30.7906 43.1312 30.7906 42.982C30.7906 42.8327 30.6696 42.7117 30.5203 42.7117C30.371 42.7117 30.25 42.8327 30.25 42.982C30.25 43.1312 30.371 43.2523 30.5203 43.2523Z" fill="url(#paint16_linear_140_20656)"/>
<path d="M19.4812 46.6866C19.6305 46.6866 19.7515 46.5656 19.7515 46.4163C19.7515 46.267 19.6305 46.146 19.4812 46.146C19.332 46.146 19.2109 46.267 19.2109 46.4163C19.2109 46.5656 19.332 46.6866 19.4812 46.6866Z" fill="url(#paint17_linear_140_20656)"/>
<path d="M30.5203 46.6866C30.6696 46.6866 30.7906 46.5656 30.7906 46.4163C30.7906 46.267 30.6696 46.146 30.5203 46.146C30.371 46.146 30.25 46.267 30.25 46.4163C30.25 46.5656 30.371 46.6866 30.5203 46.6866Z" fill="url(#paint18_linear_140_20656)"/>
<path d="M14.7264 8.23412C18.2365 6.79461 23.0896 10.5231 25.566 16.5619C28.0425 22.6006 27.2046 28.6629 23.6945 30.1024C20.1844 31.5419 15.3313 27.8133 12.8549 21.7746C10.3784 15.7359 11.2163 9.67363 14.7264 8.23412Z" fill="url(#paint19_linear_140_20656)"/>
</g>
<defs>
<linearGradient id="paint0_linear_140_20656" x1="18.4883" y1="30.8925" x2="31.5111" y2="30.8925" gradientUnits="userSpaceOnUse">
<stop stop-color="#FFDA45"/>
<stop offset="1" stop-color="#FFA425"/>
</linearGradient>
<linearGradient id="paint1_linear_140_20656" x1="20.2285" y1="30.8925" x2="31.5118" y2="30.8925" gradientUnits="userSpaceOnUse">
<stop stop-color="#FFDA45" stop-opacity="0"/>
<stop offset="1" stop-color="#FCEE21"/>
</linearGradient>
<linearGradient id="paint2_linear_140_20656" x1="0.755859" y1="4.57088" x2="22.9215" y2="4.57088" gradientUnits="userSpaceOnUse">
<stop stop-color="#FFDA45"/>
<stop offset="1" stop-color="#FFA425"/>
</linearGradient>
<linearGradient id="paint3_linear_140_20656" x1="27.0781" y1="4.57088" x2="49.2438" y2="4.57088" gradientUnits="userSpaceOnUse">
<stop stop-color="#FFDA45"/>
<stop offset="1" stop-color="#FFA425"/>
</linearGradient>
<linearGradient id="paint4_linear_140_20656" x1="6.93945" y1="0" x2="43.0612" y2="0" gradientUnits="userSpaceOnUse">
<stop stop-color="#FFDA45"/>
<stop offset="1" stop-color="#FFA425"/>
</linearGradient>
<linearGradient id="paint5_linear_140_20656" x1="25.996" y1="15.8847" x2="50.3466" y2="18.2197" gradientUnits="userSpaceOnUse">
<stop stop-color="#FFDA45" stop-opacity="0"/>
<stop offset="1" stop-color="#B53759"/>
</linearGradient>
<linearGradient id="paint6_linear_140_20656" x1="9.85742" y1="0" x2="40.1451" y2="0" gradientUnits="userSpaceOnUse">
<stop stop-color="#FFDA45" stop-opacity="0"/>
<stop offset="1" stop-color="#FCEE21"/>
</linearGradient>
<radialGradient id="paint7_radial_140_20656" cx="0" cy="0" r="1" gradientUnits="userSpaceOnUse" gradientTransform="translate(24.8929 5.17987) scale(20.5464 3.90381)">
<stop stop-color="#FFA425"/>
<stop offset="0.366" stop-color="#FFA727"/>
<stop offset="0.593" stop-color="#FFAF2C"/>
<stop offset="0.781" stop-color="#FFBE34"/>
<stop offset="0.948" stop-color="#FFD240"/>
<stop offset="1" stop-color="#FFDA45"/>
</radialGradient>
<linearGradient id="paint8_linear_140_20656" x1="9.08398" y1="2.53873" x2="40.9163" y2="2.53873" gradientUnits="userSpaceOnUse">
<stop stop-color="#FFDA45"/>
<stop offset="1" stop-color="#FFA425"/>
</linearGradient>
<linearGradient id="paint9_linear_140_20656" x1="6.62305" y1="2.19005" x2="43.3759" y2="2.19005" gradientUnits="userSpaceOnUse">
<stop stop-color="#FFDA45"/>
<stop offset="1" stop-color="#FFA425"/>
</linearGradient>
<linearGradient id="paint10_linear_140_20656" x1="22.3852" y1="40.0591" x2="28.3302" y2="52.0379" gradientUnits="userSpaceOnUse">
<stop stop-color="#7E8595"/>
<stop offset="1" stop-color="#555A66"/>
</linearGradient>
<linearGradient id="paint11_linear_140_20656" x1="24.9101" y1="45.3836" x2="11.4508" y2="35.2778" gradientUnits="userSpaceOnUse">
<stop stop-color="#BEC3D2" stop-opacity="0"/>
<stop offset="0.221" stop-color="#C5C9D7" stop-opacity="0.221"/>
<stop offset="0.534" stop-color="#D7DAE3" stop-opacity="0.534"/>
<stop offset="0.901" stop-color="#F6F6F8" stop-opacity="0.901"/>
<stop offset="1" stop-color="white"/>
</linearGradient>
<linearGradient id="paint12_linear_140_20656" x1="30.7819" y1="42.0988" x2="34.2079" y2="49.002" gradientUnits="userSpaceOnUse">
<stop stop-color="#7E8595"/>
<stop offset="1" stop-color="#555A66" stop-opacity="0"/>
</linearGradient>
<linearGradient id="paint13_linear_140_20656" x1="28.6173" y1="52.6907" x2="25.0947" y2="42.3604" gradientUnits="userSpaceOnUse">
<stop stop-color="#555A66" stop-opacity="0"/>
<stop offset="1" stop-color="#555A66"/>
</linearGradient>
<linearGradient id="paint14_linear_140_20656" x1="18.666" y1="42.2082" x2="31.336" y2="42.2082" gradientUnits="userSpaceOnUse">
<stop stop-color="#F9F7FC"/>
<stop offset="1" stop-color="#F0DDFC"/>
</linearGradient>
<linearGradient id="paint15_linear_140_20656" x1="19.5381" y1="43.0882" x2="19.4267" y2="42.881" gradientUnits="userSpaceOnUse">
<stop stop-color="#F9F7FC"/>
<stop offset="1" stop-color="#F0DDFC"/>
</linearGradient>
<linearGradient id="paint16_linear_140_20656" x1="30.5773" y1="43.0882" x2="30.4659" y2="42.881" gradientUnits="userSpaceOnUse">
<stop stop-color="#F9F7FC"/>
<stop offset="1" stop-color="#F0DDFC"/>
</linearGradient>
<linearGradient id="paint17_linear_140_20656" x1="19.5381" y1="46.5225" x2="19.4267" y2="46.3153" gradientUnits="userSpaceOnUse">
<stop stop-color="#F9F7FC"/>
<stop offset="1" stop-color="#F0DDFC"/>
</linearGradient>
<linearGradient id="paint18_linear_140_20656" x1="30.5773" y1="46.5226" x2="30.4659" y2="46.3153" gradientUnits="userSpaceOnUse">
<stop stop-color="#F9F7FC"/>
<stop offset="1" stop-color="#F0DDFC"/>
</linearGradient>
<linearGradient id="paint19_linear_140_20656" x1="21.7271" y1="17.4071" x2="9.18813" y2="26.3719" gradientUnits="userSpaceOnUse">
<stop stop-color="#FFDA45" stop-opacity="0"/>
<stop offset="1" stop-color="white"/>
</linearGradient>
<clipPath id="clip0_140_20656">
<rect width="50" height="50" fill="white"/>
</clipPath>
</defs>
</svg>
