<svg width="50" height="50" viewBox="0 0 50 50" fill="none" xmlns="http://www.w3.org/2000/svg">
<g clip-path="url(#clip0_140_20629)">
<path d="M37.0098 10.3269H34.5589C34.5589 6.49765 30.2708 3.38245 25 3.38245C19.7293 3.38245 15.4412 6.49775 15.4412 10.3269H12.9902C12.9902 7.75186 14.2845 5.35333 16.6344 3.57304C18.8829 1.86951 21.8539 0.931374 25 0.931374C28.1462 0.931374 31.1172 1.86951 33.3657 3.57294C35.7157 5.35324 37.0098 7.75177 37.0098 10.3269Z" fill="url(#paint0_linear_140_20629)"/>
<path d="M33.3658 3.57294C32.2261 2.70961 30.9004 2.04382 29.4609 1.59608V4.18647C32.4903 5.35274 34.559 7.66735 34.559 10.3268H37.01C37.01 7.75176 35.7158 5.35323 33.3658 3.57294Z" fill="url(#paint1_linear_140_20629)"/>
<path d="M17.3447 8.84403L17.0057 8.70971C15.7384 8.20785 14.3276 8.20785 13.0604 8.70971L12.7213 8.84403C12.4296 8.95955 12.1794 9.16007 12.0031 9.41957C11.8267 9.67907 11.7324 9.98558 11.7324 10.2993V13.6834C11.7324 14.5479 12.4332 15.2487 13.2977 15.2487H16.7684C17.6329 15.2487 18.3337 14.5479 18.3337 13.6834V10.2993C18.3336 9.98557 18.2393 9.67908 18.063 9.41959C17.8866 9.16009 17.6364 8.95957 17.3447 8.84403Z" fill="url(#paint2_linear_140_20629)"/>
<path d="M37.2784 8.84403L36.9393 8.70971C35.6721 8.20785 34.2613 8.20785 32.9941 8.70971L32.655 8.84403C32.3633 8.95954 32.113 9.16007 31.9367 9.41959C31.7603 9.67911 31.666 9.98565 31.666 10.2994V13.6835C31.666 14.548 32.3668 15.2488 33.2313 15.2488H36.702C37.5665 15.2488 38.2673 14.548 38.2673 13.6835V10.2994C38.2673 9.98565 38.173 9.67912 37.9967 9.4196C37.8204 9.16008 37.5701 8.95955 37.2784 8.84403Z" fill="url(#paint3_linear_140_20629)"/>
<path d="M11.1384 50H8.99146C8.32087 50 7.77734 49.4564 7.77734 48.7859V46.8627H12.3525V48.7859C12.3525 49.4564 11.8089 50 11.1384 50Z" fill="url(#paint4_linear_140_20629)"/>
<path d="M41.0075 50H38.8606C38.1901 50 37.6465 49.4564 37.6465 48.7859V46.8627H42.2217V48.7859C42.2216 49.4564 41.678 50 41.0075 50Z" fill="url(#paint5_linear_140_20629)"/>
<path d="M43.7632 48.5299H6.23694C3.29282 48.5299 0.90625 46.1432 0.90625 43.1992V17.9774C0.90625 15.0332 3.29292 12.6467 6.23694 12.6467H43.7633C46.7074 12.6467 49.094 15.0333 49.094 17.9774V43.1991C49.094 46.1432 46.7073 48.5299 43.7632 48.5299Z" fill="url(#paint6_linear_140_20629)"/>
<path d="M49.0939 29.1741C47.7595 30.5085 45.9496 31.2582 44.0625 31.2582H1.91992L19.1916 48.5299H43.7632C46.7073 48.5299 49.0938 46.1432 49.0938 43.1992V29.1741H49.0939Z" fill="url(#paint7_linear_140_20629)"/>
<path d="M45.5646 32.2358L26.8199 33.8618C25.6089 33.9668 24.391 33.9668 23.18 33.8618L4.43539 32.2358C1.92618 32.0181 0 29.9177 0 27.3989V16.1534C0 13.2093 2.38667 10.8227 5.33069 10.8227H44.6692C47.6133 10.8227 49.9999 13.2094 49.9999 16.1534V27.399C50 29.9177 48.0738 32.0181 45.5646 32.2358Z" fill="url(#paint8_linear_140_20629)"/>
<path d="M0 19.5006V27.3989C0 29.9177 1.92618 32.0181 4.43539 32.2358L23.18 33.8618C24.391 33.9668 25.6089 33.9668 26.8199 33.8618L45.5645 32.2358C48.0738 32.0181 50 29.9177 50 27.399V19.5007L0 19.5006Z" fill="url(#paint9_linear_140_20629)"/>
<path d="M0.90625 36.1765V43.1991C0.90625 46.1432 3.29292 48.5299 6.23694 48.5299H43.7633C46.7074 48.5299 49.094 46.1432 49.094 43.1991V36.1765H0.90625Z" fill="url(#paint10_linear_140_20629)"/>
<path d="M49.0934 35.5833V43.199C49.0934 44.6167 48.5395 45.9059 47.6366 46.8608L36.6395 35.8637C36.2209 35.6686 35.9307 35.2451 35.9307 34.752V33.6176C35.7709 33.4713 35.6433 33.2933 35.5561 33.095C35.4688 32.8967 35.4238 32.6824 35.4238 32.4657V29.0814C35.4238 28.2167 36.1248 27.5167 36.9895 27.5167H40.4601C41.0444 27.5167 41.5532 27.8373 41.8219 28.3118L49.0934 35.5833Z" fill="url(#paint11_linear_140_20629)"/>
<path d="M34.7856 48.5294H22.0503L9.38561 35.8637C8.96698 35.6686 8.67678 35.2451 8.67678 34.752V33.6176C8.51701 33.4713 8.38943 33.2933 8.30217 33.095C8.21491 32.8967 8.16987 32.6824 8.16992 32.4657V29.0814C8.16992 28.2167 8.8709 27.5167 9.73561 27.5167H13.2062C13.7905 27.5167 14.2993 27.8373 14.568 28.3118L34.7856 48.5294Z" fill="url(#paint12_linear_140_20629)"/>
<path d="M12.9383 35.8824H9.80607C9.12783 35.8824 8.57812 35.3326 8.57812 34.6544V32.6471H14.1664V34.6544C14.1663 35.3326 13.6165 35.8824 12.9383 35.8824Z" fill="url(#paint13_linear_140_20629)"/>
<path d="M13.6846 33.823L13.3456 33.9574C12.0784 34.4592 10.6675 34.4592 9.4003 33.9574L9.06119 33.823C8.76949 33.7075 8.51923 33.507 8.3429 33.2475C8.16656 32.988 8.07227 32.6815 8.07227 32.3677V28.9836C8.07227 28.1191 8.77305 27.4183 9.63756 27.4183H13.1082C13.9728 27.4183 14.6735 28.1191 14.6735 28.9836V32.3677C14.6736 32.6815 14.5793 32.988 14.403 33.2475C14.2266 33.507 13.9763 33.7075 13.6846 33.823Z" fill="url(#paint14_linear_140_20629)"/>
<path d="M40.1942 35.8824H37.0619C36.3837 35.8824 35.834 35.3326 35.834 34.6544V32.6471H41.4222V34.6544C41.4221 35.3326 40.8723 35.8824 40.1942 35.8824Z" fill="url(#paint15_linear_140_20629)"/>
<path d="M40.9384 33.823L40.5994 33.9574C39.3322 34.4592 37.9213 34.4592 36.6541 33.9574L36.3151 33.823C36.0234 33.7075 35.7731 33.507 35.5968 33.2475C35.4205 32.988 35.3262 32.6815 35.3262 32.3677V28.9836C35.3262 28.1191 36.027 27.4183 36.8915 27.4183H40.3621C41.2267 27.4183 41.9274 28.1191 41.9274 28.9836V32.3677C41.9274 32.6815 41.8331 32.988 41.6568 33.2475C41.4804 33.507 41.2301 33.7075 40.9384 33.823Z" fill="url(#paint16_linear_140_20629)"/>
<path d="M41.5544 32.5836C35.2518 26.2246 30.0275 20.9486 29.9942 20.8986C29.9216 20.789 29.8229 20.699 29.707 20.6369C29.5911 20.5747 29.4616 20.5422 29.33 20.5423H20.8653C20.7607 20.5422 20.657 20.5628 20.5603 20.6029C20.4636 20.6429 20.3758 20.7016 20.3018 20.7756C20.2277 20.8497 20.169 20.9375 20.129 21.0342C20.089 21.1309 20.0683 21.2346 20.0684 21.3392V22.6728C20.0684 22.8929 20.1576 23.0922 20.3018 23.2364C20.3477 23.2823 24.7256 27.6268 30.672 33.5275L41.5544 32.5836Z" fill="url(#paint17_linear_140_20629)"/>
<path d="M29.2324 23.3197H20.7677C20.663 23.3197 20.5594 23.2991 20.4627 23.2591C20.366 23.219 20.2781 23.1603 20.2041 23.0863C20.1301 23.0123 20.0714 22.9244 20.0313 22.8277C19.9913 22.731 19.9707 22.6274 19.9707 22.5227V21.1891C19.9707 20.7489 20.3276 20.3922 20.7677 20.3922H29.2325C29.6727 20.3922 30.0294 20.749 30.0294 21.1891V22.5227C30.0294 22.7341 29.9454 22.9368 29.7959 23.0863C29.6465 23.2357 29.4437 23.3197 29.2324 23.3197Z" fill="url(#paint18_linear_140_20629)"/>
<path d="M31.0168 6.11481C27.0315 4.39441 22.9649 4.39618 18.9835 6.11481C18.3424 6.39157 17.5958 6.14735 17.2498 5.54069L16.2029 3.7052C15.8005 2.9998 16.101 2.10579 16.8432 1.77618C22.1756 -0.591861 27.8237 -0.592155 33.1571 1.77618C33.8993 2.10579 34.1998 2.99971 33.7975 3.7052L32.7505 5.54069C32.4044 6.14726 31.658 6.39157 31.0168 6.11481Z" fill="url(#paint19_linear_140_20629)"/>
</g>
<defs>
<linearGradient id="paint0_linear_140_20629" x1="25" y1="0.931374" x2="25" y2="10.3269" gradientUnits="userSpaceOnUse">
<stop stop-color="#E6EEFF"/>
<stop offset="1" stop-color="#BAC8FA"/>
</linearGradient>
<linearGradient id="paint1_linear_140_20629" x1="35.5748" y1="8.39029" x2="33.3199" y2="6.33147" gradientUnits="userSpaceOnUse">
<stop stop-color="#A7B7F1" stop-opacity="0"/>
<stop offset="1" stop-color="#A7B7F1"/>
</linearGradient>
<linearGradient id="paint2_linear_140_20629" x1="15.0329" y1="9.34638" x2="15.0329" y2="11.3768" gradientUnits="userSpaceOnUse">
<stop stop-color="#FEE45A"/>
<stop offset="1" stop-color="#FEA613"/>
</linearGradient>
<linearGradient id="paint3_linear_140_20629" x1="34.9667" y1="9.34638" x2="34.9667" y2="11.3768" gradientUnits="userSpaceOnUse">
<stop stop-color="#FEE45A"/>
<stop offset="1" stop-color="#FEA613"/>
</linearGradient>
<linearGradient id="paint4_linear_140_20629" x1="10.065" y1="48.1046" x2="10.065" y2="49.6093" gradientUnits="userSpaceOnUse">
<stop stop-color="#5A5A5A"/>
<stop offset="1" stop-color="#444444"/>
</linearGradient>
<linearGradient id="paint5_linear_140_20629" x1="39.9339" y1="48.1046" x2="39.9339" y2="49.6093" gradientUnits="userSpaceOnUse">
<stop stop-color="#5A5A5A"/>
<stop offset="1" stop-color="#444444"/>
</linearGradient>
<linearGradient id="paint6_linear_140_20629" x1="17.829" y1="21.312" x2="39.2015" y2="48.959" gradientUnits="userSpaceOnUse">
<stop stop-color="#C86D36"/>
<stop offset="1" stop-color="#883F2E"/>
</linearGradient>
<linearGradient id="paint7_linear_140_20629" x1="25.507" y1="43.3824" x2="25.507" y2="33.0262" gradientUnits="userSpaceOnUse">
<stop stop-color="#883F2E" stop-opacity="0"/>
<stop offset="1" stop-color="#6D3326"/>
</linearGradient>
<linearGradient id="paint8_linear_140_20629" x1="15.0554" y1="15.6435" x2="39.7613" y2="30.5454" gradientUnits="userSpaceOnUse">
<stop stop-color="#C86D36"/>
<stop offset="1" stop-color="#883F2E"/>
</linearGradient>
<linearGradient id="paint9_linear_140_20629" x1="25" y1="23.9216" x2="25" y2="35.6929" gradientUnits="userSpaceOnUse">
<stop stop-color="#883F2E" stop-opacity="0"/>
<stop offset="1" stop-color="#6D3326"/>
</linearGradient>
<linearGradient id="paint10_linear_140_20629" x1="25.0002" y1="42.6471" x2="25.0002" y2="48.6667" gradientUnits="userSpaceOnUse">
<stop stop-color="#883F2E" stop-opacity="0"/>
<stop offset="1" stop-color="#6D3326"/>
</linearGradient>
<linearGradient id="paint11_linear_140_20629" x1="51.0355" y1="40.6187" x2="39.761" y2="34.9325" gradientUnits="userSpaceOnUse">
<stop stop-color="#883F2E" stop-opacity="0"/>
<stop offset="1" stop-color="#6D3326"/>
</linearGradient>
<linearGradient id="paint12_linear_140_20629" x1="21.9983" y1="40.8576" x2="5.72375" y2="29.6811" gradientUnits="userSpaceOnUse">
<stop stop-color="#883F2E" stop-opacity="0"/>
<stop offset="1" stop-color="#6D3326"/>
</linearGradient>
<linearGradient id="paint13_linear_140_20629" x1="11.3721" y1="34.183" x2="11.3721" y2="35.6867" gradientUnits="userSpaceOnUse">
<stop stop-color="#FEE45A"/>
<stop offset="1" stop-color="#FEA613"/>
</linearGradient>
<linearGradient id="paint14_linear_140_20629" x1="10.5876" y1="29.0474" x2="12.3849" y2="32.7728" gradientUnits="userSpaceOnUse">
<stop stop-color="#FEE45A"/>
<stop offset="1" stop-color="#FEA613"/>
</linearGradient>
<linearGradient id="paint15_linear_140_20629" x1="38.628" y1="34.183" x2="38.628" y2="35.6867" gradientUnits="userSpaceOnUse">
<stop stop-color="#FEE45A"/>
<stop offset="1" stop-color="#FEA613"/>
</linearGradient>
<linearGradient id="paint16_linear_140_20629" x1="37.8414" y1="29.0474" x2="39.6387" y2="32.7728" gradientUnits="userSpaceOnUse">
<stop stop-color="#FEE45A"/>
<stop offset="1" stop-color="#FEA613"/>
</linearGradient>
<linearGradient id="paint17_linear_140_20629" x1="33.5357" y1="32.1475" x2="25.5944" y2="19.3044" gradientUnits="userSpaceOnUse">
<stop stop-color="#883F2E" stop-opacity="0"/>
<stop offset="1" stop-color="#6D3326"/>
</linearGradient>
<linearGradient id="paint18_linear_140_20629" x1="25" y1="21.1053" x2="25" y2="23.1445" gradientUnits="userSpaceOnUse">
<stop stop-color="#E6EEFF"/>
<stop offset="1" stop-color="#BAC8FA"/>
</linearGradient>
<linearGradient id="paint19_linear_140_20629" x1="25.0001" y1="0.912452" x2="25.0001" y2="2.74098" gradientUnits="userSpaceOnUse">
<stop stop-color="#5A5A5A"/>
<stop offset="1" stop-color="#444444"/>
</linearGradient>
<clipPath id="clip0_140_20629">
<rect width="50" height="50" fill="white"/>
</clipPath>
</defs>
</svg>
