<svg width="16" height="16" viewBox="0 0 16 16" fill="none" xmlns="http://www.w3.org/2000/svg">
<g clip-path="url(#clip0_52_795)">
<path d="M8 0C3.58878 0 0 3.58878 0 8C0 12.4112 3.58878 16 8 16C12.4112 16 16 12.4112 16 8C16 3.58878 12.4112 0 8 0ZM11.6282 9.10422H7.84225C7.83462 9.10422 7.82725 9.10331 7.81972 9.10309C7.81219 9.10338 7.80481 9.10422 7.79719 9.10422C7.42381 9.10422 7.12113 8.80153 7.12113 8.42816V2.92959C7.12113 2.55622 7.42381 2.25353 7.79719 2.25353C8.17056 2.25353 8.47325 2.55622 8.47325 2.92959V7.75212H11.6282C12.0016 7.75212 12.3042 8.05481 12.3042 8.42819C12.3042 8.80156 12.0015 9.10422 11.6282 9.10422Z" fill="#D6B469"/>
</g>
<defs>
<clipPath id="clip0_52_795">
<rect width="16" height="16" fill="white"/>
</clipPath>
</defs>
</svg>
