<svg width="35" height="35" viewBox="0 0 35 35" fill="none" xmlns="http://www.w3.org/2000/svg">
<g clip-path="url(#clip0_1_346)">
<path d="M32.4537 19.5463C32.4537 27.8135 25.7453 34.5136 17.4743 34.5C9.25014 34.4864 2.53727 27.7547 2.54633 19.5297C2.54933 16.6933 3.34273 14.0431 4.71687 11.7844C4.92353 11.4458 5.40993 11.4186 5.65207 11.7331C5.65807 11.7399 5.6634 11.7475 5.66867 11.7543C6.14907 12.3749 7.12647 12.1962 7.3716 11.4511C8.9474 6.65953 11.8107 2.041 15.2249 0.554933C15.66 0.3656 16.1405 0.689267 16.1339 1.16373L16.1335 1.21093C16.1191 4.08393 18.4306 6.4744 21.3026 6.5508C21.4085 6.5536 21.5137 6.55333 21.6182 6.55C24.0723 6.4724 26.3197 7.9128 27.1892 10.209C27.3447 10.6197 27.4912 11.0338 27.6285 11.451C27.8736 12.1961 28.851 12.3749 29.3314 11.7542C29.3367 11.7474 29.3419 11.7399 29.348 11.7331C29.5923 11.4155 30.0795 11.4503 30.2877 11.7927C31.6618 14.0537 32.4537 16.7076 32.4537 19.5463Z" fill="url(#paint0_linear_1_346)"/>
<path d="M28.7835 23.2164C28.7835 29.4545 23.7217 34.5102 17.4806 34.4999C11.2749 34.4897 6.20961 29.4101 6.21641 23.2039C6.21867 21.0636 6.81734 19.0639 7.85421 17.3595C8.01014 17.104 8.37721 17.0835 8.55987 17.3208C8.56441 17.3259 8.56841 17.3316 8.57241 17.3367C8.93494 17.8051 9.67241 17.6702 9.85734 17.1079C11.0465 13.4924 13.207 10.0074 15.7833 8.88613C16.1115 8.74327 16.4741 8.98747 16.4692 9.34547C16.469 9.35733 16.4689 9.3692 16.4689 9.38113C16.4581 11.549 18.2022 13.3528 20.3693 13.4104C20.4493 13.4125 20.5287 13.4123 20.6075 13.4098C22.4593 13.3513 24.1551 14.4381 24.8111 16.1708C24.9285 16.4807 25.039 16.7932 25.1426 17.108C25.3275 17.6703 26.0651 17.8051 26.4275 17.3368C26.4315 17.3317 26.4355 17.326 26.4401 17.3209C26.6245 17.0813 26.9921 17.1075 27.1491 17.3658C28.1861 19.0719 28.7835 21.0745 28.7835 23.2164Z" fill="url(#paint1_linear_1_346)"/>
<path d="M2.54633 19.5297C2.53727 27.7547 9.25014 34.4864 17.4743 34.5C25.7453 34.5136 32.4537 27.8135 32.4537 19.5463C32.4537 18.8562 32.4065 18.1771 32.3159 17.5118H2.68407C2.59304 18.1806 2.54703 18.8548 2.54633 19.5297Z" fill="url(#paint2_linear_1_346)"/>
<path d="M28.5201 2.67947H28.5156C28.3277 2.68013 28.2112 2.8912 28.3067 3.05307C28.4658 3.323 28.5455 3.6452 28.513 3.98807C28.4476 4.67767 27.9165 5.24867 27.2335 5.36433C27.0698 5.39242 26.9026 5.39395 26.7385 5.36887C26.4744 5.32827 26.2298 5.53007 26.2291 5.7972V5.80267C26.2291 7.06793 27.2549 8.09367 28.5201 8.09367C29.7854 8.09367 30.8111 7.06793 30.8111 5.80267C30.8111 4.53733 29.7854 2.67947 28.5201 2.67947Z" fill="url(#paint3_linear_1_346)"/>
<path d="M30.8421 26.305L21.3962 16.8591C21.2273 16.5494 20.8615 16.3611 20.522 16.3611C20.2261 16.3611 19.963 16.4927 19.8314 16.7722L14.0603 28.6269C14.0109 28.7256 13.978 28.8407 13.978 28.9393C13.978 29.2237 14.1513 29.5313 14.443 29.6942L19.1569 34.4081C24.2731 33.8439 28.6113 30.7 30.8421 26.305Z" fill="url(#paint4_linear_1_346)"/>
<path d="M15.9953 17.8601C15.5583 17.273 14.8031 17.0353 13.9287 17.0353C12.5311 17.0353 11.4623 17.6271 11.4623 19.2549V21.5897C11.4623 22.4296 11.7473 22.9931 12.2147 23.3424L22.5109 33.6386C24.6658 32.8723 26.5927 31.6261 28.1635 30.0283L15.9953 17.8601Z" fill="url(#paint5_linear_1_346)"/>
<path d="M23.5282 23.1378C23.0913 22.5507 22.336 22.313 21.4616 22.313C20.0641 22.313 18.9953 22.9049 18.9953 24.5327V26.8675C18.9953 27.7073 19.2803 28.2708 19.7477 28.6201L24.0965 32.9689C26.0985 31.9832 27.8481 30.5633 29.2218 28.8315L23.5282 23.1378Z" fill="url(#paint6_linear_1_346)"/>
<path d="M11.3957 21.5231V19.1883C11.3957 17.5605 12.4644 16.9686 13.862 16.9686C15.2431 16.9686 16.3284 17.5605 16.3284 19.1883V21.5231C16.3284 23.1508 15.2432 23.7427 13.862 23.7427C12.4645 23.7427 11.3957 23.1508 11.3957 21.5231ZM14.6841 19.1883C14.6841 18.6457 14.3717 18.3991 13.862 18.3991C13.3523 18.3991 13.0564 18.6457 13.0564 19.1883V21.5231C13.0564 22.0657 13.3523 22.3123 13.862 22.3123C14.3717 22.3123 14.6841 22.0656 14.6841 21.5231V19.1883ZM21.4254 17.1659C21.4254 17.2645 21.4089 17.3796 21.3596 17.4783L15.572 29.3331C15.4569 29.5797 15.1445 29.7441 14.8321 29.7441C14.2731 29.7441 13.9113 29.2837 13.9113 28.8726C13.9113 28.7739 13.9442 28.6589 13.9935 28.5602L19.7647 16.7055C19.8963 16.4259 20.1593 16.2944 20.4553 16.2944C20.9157 16.2945 21.4254 16.6397 21.4254 17.1659ZM18.9426 26.8174V24.4826C18.9426 22.8549 20.0113 22.2629 21.4089 22.2629C22.7901 22.2629 23.8753 22.8548 23.8753 24.4826V26.8174C23.8753 28.4452 22.7901 29.0371 21.4089 29.0371C20.0114 29.0371 18.9426 28.4452 18.9426 26.8174ZM22.231 24.4826C22.231 23.94 21.9186 23.6934 21.4089 23.6934C20.8993 23.6934 20.6033 23.9401 20.6033 24.4826V26.8174C20.6033 27.36 20.8993 27.6066 21.4089 27.6066C21.9186 27.6066 22.231 27.36 22.231 26.8174V24.4826Z" fill="url(#paint7_linear_1_346)"/>
</g>
<defs>
<linearGradient id="paint0_linear_1_346" x1="7.67027" y1="9.99647" x2="23.0451" y2="25.3713" gradientUnits="userSpaceOnUse">
<stop stop-color="#FEE45A"/>
<stop offset="1" stop-color="#FEA613"/>
</linearGradient>
<linearGradient id="paint1_linear_1_346" x1="4.73621" y1="10.6639" x2="21.5942" y2="27.5219" gradientUnits="userSpaceOnUse">
<stop stop-color="#FEDBBD"/>
<stop offset="1" stop-color="#FD3581"/>
</linearGradient>
<linearGradient id="paint2_linear_1_346" x1="17.5" y1="19.7" x2="17.5" y2="32.5996" gradientUnits="userSpaceOnUse">
<stop stop-color="#FE646F" stop-opacity="0"/>
<stop offset="0.297" stop-color="#FC616A" stop-opacity="0.297"/>
<stop offset="0.621" stop-color="#F5575D" stop-opacity="0.621"/>
<stop offset="0.959" stop-color="#EB4747" stop-opacity="0.959"/>
<stop offset="1" stop-color="#E94444"/>
</linearGradient>
<linearGradient id="paint3_linear_1_346" x1="25.8397" y1="2.86613" x2="29.172" y2="6.1984" gradientUnits="userSpaceOnUse">
<stop stop-color="#FEE45A"/>
<stop offset="1" stop-color="#FEA613"/>
</linearGradient>
<linearGradient id="paint4_linear_1_346" x1="31.134" y1="29.3764" x2="18.7785" y2="24.9764" gradientUnits="userSpaceOnUse">
<stop stop-color="#FE646F" stop-opacity="0"/>
<stop offset="0.297" stop-color="#FC616A" stop-opacity="0.297"/>
<stop offset="0.621" stop-color="#F5575D" stop-opacity="0.621"/>
<stop offset="0.959" stop-color="#EB4747" stop-opacity="0.959"/>
<stop offset="1" stop-color="#E94444"/>
</linearGradient>
<linearGradient id="paint5_linear_1_346" x1="23.2075" y1="29.7037" x2="14.2761" y2="20.7724" gradientUnits="userSpaceOnUse">
<stop stop-color="#FE646F" stop-opacity="0"/>
<stop offset="0.297" stop-color="#FC616A" stop-opacity="0.297"/>
<stop offset="0.621" stop-color="#F5575D" stop-opacity="0.621"/>
<stop offset="0.959" stop-color="#EB4747" stop-opacity="0.959"/>
<stop offset="1" stop-color="#E94444"/>
</linearGradient>
<linearGradient id="paint6_linear_1_346" x1="31.2197" y1="34.6933" x2="22.8197" y2="27.1378" gradientUnits="userSpaceOnUse">
<stop stop-color="#FE646F" stop-opacity="0"/>
<stop offset="0.297" stop-color="#FC616A" stop-opacity="0.297"/>
<stop offset="0.621" stop-color="#F5575D" stop-opacity="0.621"/>
<stop offset="0.959" stop-color="#EB4747" stop-opacity="0.959"/>
<stop offset="1" stop-color="#E94444"/>
</linearGradient>
<linearGradient id="paint7_linear_1_346" x1="11.3957" y1="23.0193" x2="16.3283" y2="23.0193" gradientUnits="userSpaceOnUse">
<stop stop-color="#EAF6FF"/>
<stop offset="1" stop-color="#B3DAFE"/>
</linearGradient>
<clipPath id="clip0_1_346">
<rect width="34" height="34" fill="white" transform="translate(0.5 0.5)"/>
</clipPath>
</defs>
</svg>
