<svg width="42" height="26" viewBox="0 0 42 26" fill="none" xmlns="http://www.w3.org/2000/svg">
<path d="M41.6667 13.2422C41.6667 20.1012 36.0898 25.7422 29.1667 25.7422C22.3077 25.7422 16.6667 20.1012 16.6667 13.2422C16.6667 6.38321 22.2436 0.742188 29.1026 0.742188C36.0898 0.742188 41.6667 6.38321 41.6667 13.2422Z" fill="#F9B50B"/>
<path d="M24.9359 13.3063C24.9359 12.4089 24.8077 11.5114 24.6795 10.6781H16.9872C17.0513 10.2294 17.1795 9.84475 17.3077 9.33193H24.1667C24.0385 8.88321 23.8462 8.4345 23.6538 7.98578H17.8205C18.0128 7.53706 18.2692 7.15244 18.5256 6.63962H22.9487C22.6923 6.19091 22.3718 5.74219 21.9872 5.29347H19.5513C19.9359 4.84475 20.3205 4.46014 20.8333 4.01142C18.6538 1.96014 15.7051 0.742188 12.4359 0.742188C5.64103 0.934495 0 6.38321 0 13.2422C0 20.1012 5.57692 25.7422 12.5 25.7422C15.7692 25.7422 18.6538 24.4601 20.8974 22.473C21.3462 22.0883 21.7308 21.6396 22.1795 21.1268H19.6154C19.2949 20.7422 18.9744 20.2935 18.7179 19.8448H23.0769C23.3333 19.4601 23.5897 19.0114 23.7821 18.4986H17.9487C17.7564 18.114 17.5641 17.6653 17.4359 17.1524H24.2949C24.6795 15.9986 24.9359 14.7165 24.9359 13.3063Z" fill="#C8191C"/>
<path d="M16.9231 16.4481L17.1154 15.2942C17.0513 15.2942 16.9231 15.3583 16.7949 15.3583C16.3462 15.3583 16.2821 15.1019 16.3462 14.9737L16.7308 12.666H17.4359L17.6282 11.384H16.9872L17.1154 10.6147H15.7692C15.7692 10.6147 15 14.9737 15 15.4865C15 16.2558 15.4487 16.6404 16.0897 16.6404C16.4744 16.6404 16.7949 16.5122 16.9231 16.4481Z" fill="white"/>
<path d="M17.3718 14.3319C17.3718 16.1908 18.6538 16.6396 19.6795 16.6396C20.641 16.6396 21.0897 16.4473 21.0897 16.4473L21.3461 15.1652C21.3461 15.1652 20.641 15.4857 19.9359 15.4857C18.4615 15.4857 18.7179 14.396 18.7179 14.396H21.4102C21.4102 14.396 21.6025 13.5626 21.6025 13.178C21.6025 12.3447 21.1538 11.2549 19.6795 11.2549C18.3974 11.1908 17.3718 12.6652 17.3718 14.3319ZM19.6795 12.4088C20.3846 12.4088 20.2564 13.2421 20.2564 13.3062H18.782C18.8461 13.2421 18.9743 12.4088 19.6795 12.4088Z" fill="white"/>
<path d="M28.0769 16.447L28.3334 14.9727C28.3334 14.9727 27.6923 15.2932 27.1795 15.2932C26.2821 15.2932 25.8334 14.588 25.8334 13.7547C25.8334 12.1521 26.6026 11.3188 27.5641 11.3188C28.2051 11.3188 28.7821 11.7034 28.7821 11.7034L28.9744 10.2932C28.9744 10.2932 28.2051 9.97266 27.4359 9.97266C25.8975 9.97266 24.4231 11.3188 24.4231 13.8188C24.4231 15.4855 25.1923 16.5752 26.7949 16.5752C27.3718 16.6393 28.0769 16.447 28.0769 16.447Z" fill="white"/>
<path d="M9.67944 11.1899C8.78201 11.1899 8.07688 11.4464 8.07688 11.4464L7.88457 12.6002C7.88457 12.6002 8.4615 12.3438 9.35893 12.3438C9.80765 12.3438 10.1923 12.4079 10.1923 12.7925C10.1923 13.0489 10.1282 13.113 10.1282 13.113H9.55124C8.39739 13.113 7.17944 13.5617 7.17944 15.1002C7.17944 16.3181 7.94867 16.5746 8.46149 16.5746C9.35893 16.5746 9.80765 15.9976 9.87175 15.9976L9.80765 16.5105H10.8974L11.4102 12.8566C11.4102 11.254 10.1282 11.1899 9.67944 11.1899ZM9.93585 14.1387C9.93585 14.331 9.80765 15.4207 9.03842 15.4207C8.6538 15.4207 8.5256 15.1002 8.5256 14.9079C8.5256 14.5874 8.7179 14.1387 9.74355 14.1387C9.87175 14.1387 9.93585 14.1387 9.93585 14.1387Z" fill="white"/>
<path d="M12.6923 16.5762C13.0128 16.5762 14.6795 16.6403 14.6795 14.8454C14.6795 13.1787 13.0769 13.4992 13.0769 12.8582C13.0769 12.5377 13.3333 12.4095 13.782 12.4095C13.9743 12.4095 14.6795 12.4736 14.6795 12.4736L14.8718 11.2556C14.8718 11.2556 14.4231 11.1274 13.5897 11.1274C12.6282 11.1274 11.6025 11.5121 11.6025 12.8582C11.6025 14.3967 13.2692 14.2685 13.2692 14.8454C13.2692 15.23 12.8205 15.2941 12.5 15.2941C11.9231 15.2941 11.282 15.1018 11.282 15.1018L11.0897 16.3197C11.2179 16.448 11.6025 16.5762 12.6923 16.5762Z" fill="white"/>
<path d="M39.1025 10.1646L38.8461 11.9594C38.8461 11.9594 38.3333 11.3184 37.564 11.3184C36.3461 11.3184 35.3204 12.7928 35.3204 14.5235C35.3204 15.6133 35.8333 16.703 36.9871 16.703C37.7563 16.703 38.2692 16.1902 38.2692 16.1902L38.205 16.6389H39.5512L40.5127 10.2928L39.1025 10.1646ZM38.4615 13.6261C38.4615 14.3312 38.1409 15.2928 37.3717 15.2928C36.923 15.2928 36.6666 14.9081 36.6666 14.203C36.6666 13.1133 37.1153 12.4722 37.7563 12.4722C38.2051 12.5363 38.4615 12.8569 38.4615 13.6261Z" fill="white"/>
<path d="M2.43592 16.5107L3.20515 11.7671L3.33336 16.5107H4.23079L5.96156 11.7671L5.25643 16.5107H6.66669L7.75643 10.1646H5.57695L4.23079 14.0748L4.16669 10.1646H2.24361L1.15387 16.5107H2.43592Z" fill="white"/>
<path d="M22.9487 16.5116C23.3333 14.3322 23.3974 12.5373 24.3589 12.8578C24.4871 12.0245 24.6794 11.6398 24.8076 11.3193H24.5512C23.9743 11.3193 23.4615 12.0886 23.4615 12.0886L23.5897 11.3834H22.3076L21.4743 16.5116H22.9487Z" fill="white"/>
<path d="M31.1539 11.1899C30.2564 11.1899 29.5513 11.4464 29.5513 11.4464L29.359 12.6002C29.359 12.6002 29.9359 12.3438 30.8334 12.3438C31.2821 12.3438 31.6667 12.4079 31.6667 12.7925C31.6667 13.0489 31.6026 13.113 31.6026 13.113H31.0257C29.8718 13.113 28.6539 13.5617 28.6539 15.1002C28.6539 16.3181 29.4231 16.5746 29.9359 16.5746C30.8334 16.5746 31.2821 15.9976 31.3462 15.9976L31.2821 16.5105H32.5L33.0128 12.8566C33.0128 11.254 31.6026 11.1899 31.1539 11.1899ZM31.4744 14.1387C31.4744 14.331 31.3462 15.4207 30.5769 15.4207C30.1923 15.4207 30.0641 15.1002 30.0641 14.9079C30.0641 14.5874 30.2564 14.1387 31.2821 14.1387C31.4103 14.1387 31.4103 14.1387 31.4744 14.1387Z" fill="white"/>
<path d="M34.0384 16.5116C34.4231 14.3322 34.4872 12.5373 35.4487 12.8578C35.5769 12.0245 35.7692 11.6398 35.8974 11.3193H35.641C35.0641 11.3193 34.5513 12.0886 34.5513 12.0886L34.6795 11.3834H33.3974L32.5641 16.5116H34.0384Z" fill="white"/>
</svg>
