<svg width="63" height="19" viewBox="0 0 63 19" fill="none" xmlns="http://www.w3.org/2000/svg">
<path d="M56.2929 0.242188H44.3564C45.0518 4.19053 48.8761 7.90662 53.048 7.90662H62.5509C62.6667 7.55824 62.6667 6.97759 62.6667 6.62921C62.6667 3.14538 59.7695 0.242188 56.2929 0.242188Z" fill="url(#paint0_linear_52_844)"/>
<path d="M45.3994 8.60352V18.2421H51.1938V13.1325H56.2929C59.0742 13.1325 61.5079 11.1583 62.3191 8.60352H45.3994Z" fill="#4FAD50"/>
<path d="M25.0032 0.242188V18.1259H30.1023C30.1023 18.1259 31.377 18.1259 32.0723 16.8484C35.549 9.99691 36.592 7.90662 36.592 7.90662H37.2873V18.1259H43.0817V0.242188H37.9826C37.9826 0.242188 36.7078 0.358322 36.0125 1.5196C33.1153 7.44211 31.4929 10.4614 31.4929 10.4614H30.7976V0.242188H25.0032Z" fill="#4FAD50"/>
<path d="M0.666687 18.2411V0.357422H6.46108C6.46108 0.357422 8.08352 0.357418 9.01063 2.91223C11.3284 9.64763 11.5602 10.5767 11.5602 10.5767C11.5602 10.5767 12.0237 8.95086 14.1097 2.91223C15.0368 0.357418 16.6592 0.357422 16.6592 0.357422H22.4536V18.2411H16.6592V8.60249H15.9639L12.7191 18.2411H10.1695L6.92466 8.60249H6.22933V18.2411H0.666687Z" fill="#4FAD50"/>
<defs>
<linearGradient id="paint0_linear_52_844" x1="44.3358" y1="4.12933" x2="62.6257" y2="4.12933" gradientUnits="userSpaceOnUse">
<stop stop-color="#27B1E6"/>
<stop offset="1" stop-color="#148ACA"/>
</linearGradient>
</defs>
</svg>
