<svg width="60" height="60" viewBox="0 0 60 60" fill="none" xmlns="http://www.w3.org/2000/svg">
<g clip-path="url(#clip0_57_5572)">
<path d="M50.6181 40.6187H17.5316C12.3585 40.6187 8.14977 36.41 8.14977 31.2368V12.255H5.83953C2.61965 12.255 0 9.63539 0 6.41539V6.39245C0 3.17245 2.61965 0.552917 5.83953 0.552917C9.05953 0.552917 11.6792 3.17256 11.6792 6.39257V8.72574H27.4588C29.8331 8.72574 31.7647 10.6574 31.7647 13.0316V15.7277C31.7647 16.7023 30.9747 17.4924 30 17.4924C29.0253 17.4924 28.2353 16.7023 28.2353 15.7277V13.0316C28.2353 12.6035 27.8869 12.2552 27.4588 12.2552H11.6792V31.237C11.6792 34.4641 14.3046 37.0895 17.5316 37.0895H50.6182C53.8453 37.0895 56.4707 34.4641 56.4707 31.237V11.4786C56.4707 10.5039 57.2607 9.71386 58.2354 9.71386C59.2101 9.71386 60.0001 10.5039 60.0001 11.4786V31.2369C60 36.4101 55.7913 40.6187 50.6181 40.6187ZM5.83953 4.08233C4.56577 4.08233 3.52941 5.11868 3.52941 6.39245V6.41539C3.52941 7.68927 4.56577 8.72562 5.83953 8.72562H8.14977V6.39245C8.14977 5.11868 7.11341 4.08233 5.83953 4.08233Z" fill="url(#paint0_linear_57_5572)"/>
<path d="M18 37.0893H17.5317C14.3046 37.0893 11.6792 34.4639 11.6792 31.2368V20.9726H8.14978V31.2368C8.14978 36.41 12.3585 40.6187 17.5317 40.6187H18V37.0893Z" fill="url(#paint1_linear_57_5572)"/>
<path d="M55.9508 33.6432C55.0312 35.673 52.9876 37.0894 50.6181 37.0894H42.5647V40.6188H50.6181C54.9595 40.6188 58.6203 37.6541 59.6858 33.6432H55.9508Z" fill="url(#paint2_linear_57_5572)"/>
<path d="M24.4941 12.2551H27.4588C27.887 12.2551 28.2353 12.6034 28.2353 13.0315V15.7276C28.2353 16.7022 29.0253 17.4924 30 17.4924C30.9747 17.4924 31.7647 16.7022 31.7647 15.7276V13.0315C31.7647 10.6573 29.8331 8.72565 27.4588 8.72565H24.4941V12.2551Z" fill="url(#paint3_linear_57_5572)"/>
<path d="M34.8941 17.1364H25.1058L25.6741 14.3386C25.7577 13.9266 25.9812 13.5563 26.3067 13.2902C26.6322 13.0242 27.0396 12.8789 27.46 12.8789H32.54C32.9603 12.8789 33.3677 13.0242 33.6932 13.2902C34.0187 13.5563 34.2422 13.9266 34.3258 14.3386L34.8941 17.1364Z" fill="url(#paint4_linear_57_5572)"/>
<path d="M30 59.447C20.0918 59.447 12.0597 51.4149 12.0597 41.5067V26.828C12.0597 20.7052 17.0232 15.7415 23.1462 15.7415H36.854C42.9769 15.7415 47.9405 20.705 47.9405 26.828V41.5067C47.9404 51.4149 39.9083 59.447 30 59.447Z" fill="url(#paint5_linear_57_5572)"/>
<path d="M36.8539 15.7416H30V59.4471C39.9082 59.4471 47.9404 51.4149 47.9404 41.5067V26.828C47.9404 20.7052 42.9768 15.7416 36.8539 15.7416Z" fill="url(#paint6_linear_57_5572)"/>
<path d="M30 29.8033C23.7728 29.8033 17.7531 30.0642 12.0597 30.5502V41.5068C12.0597 51.4151 20.0918 59.4472 30 59.4472C39.9083 59.4472 47.9404 51.4151 47.9404 41.5068V30.5502C42.247 30.0642 36.2273 29.8033 30 29.8033Z" fill="url(#paint7_linear_57_5572)"/>
<path d="M30 58.0773C20.7128 58.0773 13.1842 50.5486 13.1842 41.2615V27.5029C13.1842 21.7639 17.8367 17.1114 23.5757 17.1114H36.4243C42.1634 17.1114 46.8158 21.7639 46.8158 27.5029V41.2615C46.8157 50.5486 39.287 58.0773 30 58.0773Z" fill="url(#paint8_linear_57_5572)"/>
<path d="M11.6792 8.72565H17.4353V12.2551H11.6792V8.72565Z" fill="url(#paint9_linear_57_5572)"/>
<path d="M5.83948 12.255H8.14972V8.72563H5.83948C4.71607 8.72563 3.77842 7.91916 3.57242 6.85504H0.0181885C0.243953 9.87022 2.7676 12.255 5.83948 12.255Z" fill="url(#paint10_linear_57_5572)"/>
<path d="M30 29.8033C23.7728 29.8033 17.7531 30.0642 12.0597 30.5502V31.5426C17.7532 31.0566 23.7728 30.7956 30 30.7956C36.2273 30.7956 42.247 31.0566 47.9404 31.5426V30.5502C42.247 30.0642 36.2273 29.8033 30 29.8033Z" fill="url(#paint11_linear_57_5572)"/>
<path d="M29.6 15.7416H30.4V29.8033H29.6V15.7416Z" fill="url(#paint12_linear_57_5572)"/>
<path d="M50.0766 4.02553C50.1588 3.94333 50.2564 3.87812 50.3638 3.83362C50.4713 3.78913 50.5864 3.76624 50.7026 3.76624C50.8189 3.76624 50.934 3.78913 51.0414 3.83362C51.1488 3.87812 51.2464 3.94333 51.3286 4.02553L53.5985 6.29542C53.6807 6.37762 53.7459 6.47522 53.7904 6.58263C53.8349 6.69004 53.8578 6.80516 53.8578 6.92142C53.8578 7.03768 53.8349 7.1528 53.7904 7.26021C53.7459 7.36762 53.6807 7.46521 53.5985 7.54742C53.5163 7.62962 53.4187 7.69484 53.3113 7.73933C53.2039 7.78382 53.0888 7.80672 52.9725 7.80672C52.8563 7.80672 52.7411 7.78382 52.6337 7.73933C52.5263 7.69484 52.4287 7.62962 52.3465 7.54742L50.0766 5.27753C49.9106 5.11149 49.8174 4.88632 49.8174 4.65153C49.8174 4.41675 49.9106 4.19157 50.0766 4.02553Z" fill="url(#paint13_linear_57_5572)"/>
<path d="M58.1587 0.552917C58.3935 0.552917 58.6187 0.646189 58.7847 0.812214C58.9508 0.978239 59.044 1.20342 59.044 1.43821V4.64821C59.044 4.88301 58.9508 5.10818 58.7847 5.27421C58.6187 5.44023 58.3935 5.53351 58.1587 5.53351C57.9239 5.53351 57.6988 5.44023 57.5327 5.27421C57.3667 5.10818 57.2734 4.88301 57.2734 4.64821V1.43809C57.2735 1.20332 57.3668 0.978172 57.5328 0.812173C57.6988 0.646173 57.924 0.552917 58.1587 0.552917Z" fill="url(#paint14_linear_57_5572)"/>
<path d="M51.5846 12.1076C51.5846 12.3424 51.4913 12.5676 51.3253 12.7336C51.1593 12.8997 50.9341 12.9929 50.6993 12.9929H47.4893C47.2545 12.9929 47.0293 12.8997 46.8633 12.7336C46.6973 12.5676 46.604 12.3424 46.604 12.1076C46.604 11.8729 46.6973 11.6477 46.8633 11.4816C47.0293 11.3156 47.2545 11.2224 47.4893 11.2224H50.6993C50.9341 11.2224 51.1593 11.3156 51.3253 11.4816C51.4913 11.6477 51.5846 11.8729 51.5846 12.1076Z" fill="url(#paint15_linear_57_5572)"/>
</g>
<defs>
<linearGradient id="paint0_linear_57_5572" x1="29.2802" y1="4.96927" x2="37.092" y2="50.0516" gradientUnits="userSpaceOnUse">
<stop stop-color="#FF7044"/>
<stop offset="1" stop-color="#F82814"/>
</linearGradient>
<linearGradient id="paint1_linear_57_5572" x1="10.7971" y1="28.8533" x2="15.0677" y2="34.1121" gradientUnits="userSpaceOnUse">
<stop stop-color="#F82814" stop-opacity="0"/>
<stop offset="1" stop-color="#C0272D"/>
</linearGradient>
<linearGradient id="paint2_linear_57_5572" x1="54.2353" y1="37.131" x2="47.6463" y2="37.131" gradientUnits="userSpaceOnUse">
<stop stop-color="#F82814" stop-opacity="0"/>
<stop offset="1" stop-color="#C0272D"/>
</linearGradient>
<linearGradient id="paint3_linear_57_5572" x1="27.046" y1="10.4824" x2="30.0107" y2="14.4353" gradientUnits="userSpaceOnUse">
<stop stop-color="#F82814" stop-opacity="0"/>
<stop offset="0.336" stop-color="#E0281F" stop-opacity="0.336"/>
<stop offset="0.744" stop-color="#C92729" stop-opacity="0.744"/>
<stop offset="1" stop-color="#C0272D"/>
</linearGradient>
<linearGradient id="paint4_linear_57_5572" x1="30" y1="13.8783" x2="30" y2="15.3908" gradientUnits="userSpaceOnUse">
<stop stop-color="#FFD945"/>
<stop offset="0.304" stop-color="#FFCD3E"/>
<stop offset="0.856" stop-color="#FFAD2B"/>
<stop offset="1" stop-color="#FFA325"/>
</linearGradient>
<linearGradient id="paint5_linear_57_5572" x1="23.7151" y1="21.5047" x2="28.9813" y2="32.7554" gradientUnits="userSpaceOnUse">
<stop stop-color="#8A7889"/>
<stop offset="1" stop-color="#6E566E"/>
</linearGradient>
<linearGradient id="paint6_linear_57_5572" x1="28.414" y1="23.1525" x2="36.1064" y2="36.6436" gradientUnits="userSpaceOnUse">
<stop stop-color="#8A7889"/>
<stop offset="1" stop-color="#6E566E"/>
</linearGradient>
<linearGradient id="paint7_linear_57_5572" x1="24.2636" y1="30.8128" x2="35.7458" y2="46.9818" gradientUnits="userSpaceOnUse">
<stop stop-color="#8A7889"/>
<stop offset="1" stop-color="#6E566E"/>
</linearGradient>
<linearGradient id="paint8_linear_57_5572" x1="25.8801" y1="29.9301" x2="12.5598" y2="12.0861" gradientUnits="userSpaceOnUse">
<stop stop-color="#8A7889" stop-opacity="0"/>
<stop offset="1" stop-color="#9D8B91"/>
</linearGradient>
<linearGradient id="paint9_linear_57_5572" x1="14.6118" y1="10.4904" x2="11.2236" y2="10.4904" gradientUnits="userSpaceOnUse">
<stop stop-color="#F82814" stop-opacity="0"/>
<stop offset="1" stop-color="#C0272D"/>
</linearGradient>
<linearGradient id="paint10_linear_57_5572" x1="5.50584" y1="9.55504" x2="8.50607" y2="9.55504" gradientUnits="userSpaceOnUse">
<stop stop-color="#F82814" stop-opacity="0"/>
<stop offset="1" stop-color="#C0272D"/>
</linearGradient>
<linearGradient id="paint11_linear_57_5572" x1="30" y1="31.8786" x2="30" y2="28.6307" gradientUnits="userSpaceOnUse">
<stop stop-color="#6E566E" stop-opacity="0"/>
<stop offset="0.219" stop-color="#685168" stop-opacity="0.219"/>
<stop offset="1" stop-color="#564357"/>
</linearGradient>
<linearGradient id="paint12_linear_57_5572" x1="30" y1="32.5191" x2="30" y2="6.26176" gradientUnits="userSpaceOnUse">
<stop stop-color="#6E566E" stop-opacity="0"/>
<stop offset="0.219" stop-color="#685168" stop-opacity="0.219"/>
<stop offset="1" stop-color="#564357"/>
</linearGradient>
<linearGradient id="paint13_linear_57_5572" x1="51.6691" y1="5.8916" x2="52.9571" y2="4.60358" gradientUnits="userSpaceOnUse">
<stop stop-color="#FFD945"/>
<stop offset="0.304" stop-color="#FFCD3E"/>
<stop offset="0.856" stop-color="#FFAD2B"/>
<stop offset="1" stop-color="#FFA325"/>
</linearGradient>
<linearGradient id="paint14_linear_57_5572" x1="57.9526" y1="3.04315" x2="59.7743" y2="3.04315" gradientUnits="userSpaceOnUse">
<stop stop-color="#FFD945"/>
<stop offset="0.304" stop-color="#FFCD3E"/>
<stop offset="0.856" stop-color="#FFAD2B"/>
<stop offset="1" stop-color="#FFA325"/>
</linearGradient>
<linearGradient id="paint15_linear_57_5572" x1="49.0944" y1="11.9014" x2="49.0944" y2="13.7231" gradientUnits="userSpaceOnUse">
<stop stop-color="#FFD945"/>
<stop offset="0.304" stop-color="#FFCD3E"/>
<stop offset="0.856" stop-color="#FFAD2B"/>
<stop offset="1" stop-color="#FFA325"/>
</linearGradient>
<clipPath id="clip0_57_5572">
<rect width="60" height="60" fill="white"/>
</clipPath>
</defs>
</svg>
