<svg width="60" height="60" viewBox="0 0 60 60" fill="none" xmlns="http://www.w3.org/2000/svg">
<g clip-path="url(#clip0_57_5463)">
<path d="M30 4.21875C15.7617 4.21875 4.21875 15.7617 4.21875 30C4.21875 44.2383 15.7617 55.7812 30 55.7812C44.2383 55.7812 55.7812 44.2383 55.7812 30C55.7812 15.7617 44.2383 4.21875 30 4.21875ZM30 50.332C18.7734 50.332 9.66797 41.2266 9.66797 30C9.66797 18.7734 18.7734 9.66797 30 9.66797C41.2266 9.66797 50.332 18.7734 50.332 30C50.332 41.2266 41.2266 50.332 30 50.332Z" fill="url(#paint0_linear_57_5463)"/>
<path d="M30 6.45703C16.9922 6.45703 6.45703 16.9922 6.45703 30C6.45703 43.0078 16.9922 53.543 30 53.543C43.0078 53.543 53.543 43.0078 53.543 30C53.543 16.9922 43.0078 6.45703 30 6.45703ZM30 50.332C18.7734 50.332 9.66797 41.2266 9.66797 30C9.66797 18.7734 18.7734 9.66797 30 9.66797C41.2266 9.66797 50.332 18.7734 50.332 30C50.332 41.2266 41.2266 50.332 30 50.332Z" fill="url(#paint1_linear_57_5463)"/>
<path d="M55.7812 30C55.7812 44.2383 44.2383 55.7812 30 55.7812C15.7617 55.7812 4.21875 44.2383 4.21875 30C4.21875 29.2852 4.25391 28.582 4.30078 27.8789H9.77344C9.70312 28.5703 9.66797 29.2734 9.66797 30C9.66797 41.2266 18.7734 50.332 30 50.332C41.2266 50.332 50.332 41.2266 50.332 30C50.332 29.2852 50.2969 28.582 50.2266 27.8789H55.6992C55.7461 28.582 55.7812 29.2852 55.7812 30Z" fill="url(#paint2_linear_57_5463)"/>
<path d="M55.7812 30C55.7812 44.2383 44.2383 55.7812 30 55.7812C28.3359 55.7812 26.7188 55.6289 25.1367 55.3242V49.7578C26.6953 50.1445 28.3242 50.3438 30 50.3438C41.2266 50.3438 50.332 41.2383 50.332 30.0117C50.332 18.7852 41.2266 9.67969 30 9.67969C28.3242 9.67969 26.6953 9.87891 25.1367 10.2656V4.67578C26.7188 4.38281 28.3359 4.21875 30 4.21875C44.2383 4.21875 55.7812 15.7617 55.7812 30Z" fill="url(#paint3_linear_57_5463)"/>
<path d="M55.7812 30C55.7812 44.2383 44.2383 55.7812 30 55.7812C22.8281 55.7812 16.3359 52.8516 11.6602 48.1172L15.5156 44.2617C19.207 48 24.3281 50.332 30 50.332C41.2266 50.332 50.332 41.2266 50.332 30C50.332 24.3281 48.0117 19.1953 44.2617 15.5156L48.1172 11.6602C52.8516 16.3359 55.7812 22.8281 55.7812 30Z" fill="url(#paint4_linear_57_5463)"/>
<path d="M50.332 30C50.332 35.7773 47.918 41.0039 44.0391 44.707H51.1641C54.082 40.5352 55.7813 35.4609 55.7813 30V29.7773H50.332V30Z" fill="url(#paint5_linear_57_5463)"/>
<path d="M9.66797 30V29.7773H4.21875V30C4.21875 35.4609 5.91797 40.5352 8.82422 44.707H15.9492C12.082 41.0039 9.66797 35.7773 9.66797 30Z" fill="url(#paint6_linear_57_5463)"/>
<path d="M46.1484 17.6484V9.91406C41.7305 6.35156 36.1172 4.21875 30 4.21875V9.66797C36.5859 9.66797 42.4336 12.7969 46.1484 17.6484Z" fill="url(#paint7_linear_57_5463)"/>
<path d="M46.1484 50.0859V42.3516C42.4336 47.2031 36.5742 50.332 30 50.332V55.7813C36.1172 55.7813 41.7305 53.6484 46.1484 50.0859Z" fill="url(#paint8_linear_57_5463)"/>
<path d="M30 0C31.4414 0 32.625 1.17188 32.625 2.625V9.94922C32.625 11.3906 31.4531 12.5742 30 12.5742C28.5586 12.5742 27.375 11.4023 27.375 9.94922V2.625C27.375 1.17188 28.5586 0 30 0Z" fill="url(#paint9_linear_57_5463)"/>
<path d="M30 47.4375C31.4414 47.4375 32.625 48.6094 32.625 50.0625V57.3867C32.625 58.8281 31.4531 60.0117 30 60.0117C28.5586 60.0117 27.375 58.8398 27.375 57.3867V50.0625C27.375 48.6094 28.5586 47.4375 30 47.4375Z" fill="url(#paint10_linear_57_5463)"/>
<path d="M60 30C60 31.4414 58.8281 32.625 57.375 32.625H50.0508C48.6094 32.625 47.4258 31.4531 47.4258 30C47.4258 28.5586 48.5977 27.375 50.0508 27.375H57.375C58.8281 27.375 60 28.5586 60 30Z" fill="url(#paint11_linear_57_5463)"/>
<path d="M12.5625 30C12.5625 31.4414 11.3906 32.625 9.9375 32.625H2.625C1.17188 32.625 0 31.4414 0 30C0 28.5586 1.17188 27.375 2.625 27.375H9.94922C11.3906 27.375 12.5625 28.5586 12.5625 30Z" fill="url(#paint12_linear_57_5463)"/>
<path d="M43.5937 23.168H43.4648C39.375 23.1562 36.0586 19.8398 36.0469 15.75V15.6211C36.0586 11.5313 39.375 8.21484 43.4648 8.20312H43.5937C47.6836 8.21484 51 11.5313 51.0117 15.6211V15.75C51 19.8516 47.6836 23.168 43.5937 23.168Z" fill="url(#paint13_radial_57_5463)"/>
<path d="M33.1406 34.7344V34.5469C33.1523 28.875 37.7578 24.2695 43.4297 24.2578H43.6172C49.2891 24.2695 53.8945 28.875 53.9063 34.5469V34.7344C53.8945 40.4062 33.1523 40.4062 33.1406 34.7344Z" fill="url(#paint14_radial_57_5463)"/>
<path d="M43.5937 23.168H43.4648C39.375 23.1562 36.0586 19.8398 36.0469 15.75V15.6211C36.0586 11.5313 39.375 8.21484 43.4648 8.20312H43.5937C47.6836 8.21484 51 11.5313 51.0117 15.6211V15.75C51 19.8516 47.6836 23.168 43.5937 23.168Z" fill="url(#paint15_radial_57_5463)"/>
<path d="M33.1406 34.7344V34.5469C33.1523 28.875 37.7578 24.2695 43.4297 24.2578H43.6172C49.2891 24.2695 53.8945 28.875 53.9063 34.5469V34.7344C53.8945 40.4062 33.1523 40.4062 33.1406 34.7344Z" fill="url(#paint16_radial_57_5463)"/>
<path d="M16.5469 23.168H16.418C12.3281 23.1562 9.01172 19.8398 9 15.75V15.6211C9.01172 11.5313 12.3281 8.21484 16.418 8.20312H16.5469C20.6367 8.21484 23.9531 11.5313 23.9648 15.6211V15.75C23.9531 19.8516 20.6367 23.168 16.5469 23.168Z" fill="url(#paint17_radial_57_5463)"/>
<path d="M6.09375 34.7344V34.5469C6.10547 28.875 10.7109 24.2695 16.3828 24.2578H16.5703C22.2422 24.2695 26.8477 28.875 26.8594 34.5469V34.7344C26.8477 40.4062 6.10547 40.4062 6.09375 34.7344Z" fill="url(#paint18_radial_57_5463)"/>
<path d="M16.5469 23.168H16.418C12.3281 23.1562 9.01172 19.8398 9 15.75V15.6211C9.01172 11.5313 12.3281 8.21484 16.418 8.20312H16.5469C20.6367 8.21484 23.9531 11.5313 23.9648 15.6211V15.75C23.9531 19.8516 20.6367 23.168 16.5469 23.168Z" fill="url(#paint19_radial_57_5463)"/>
<path d="M6.09375 34.7344V34.5469C6.10547 28.875 10.7109 24.2695 16.3828 24.2578H16.5703C22.2422 24.2695 26.8477 28.875 26.8594 34.5469V34.7344C26.8477 40.4062 6.10547 40.4062 6.09375 34.7344Z" fill="url(#paint20_radial_57_5463)"/>
<path d="M30.0703 29.543H29.9297C25.4883 29.5313 21.8906 25.9336 21.8789 21.4922V21.3516C21.8906 16.9102 25.4883 13.3125 29.9297 13.3008H30.0703C34.5117 13.3125 38.1094 16.9102 38.1211 21.3516V21.4922C38.1094 25.9336 34.5117 29.5313 30.0703 29.543Z" fill="url(#paint21_radial_57_5463)"/>
<path d="M30.0703 29.543H29.9297C25.4883 29.5313 21.8906 25.9336 21.8789 21.4922V21.3516C21.8906 16.9102 25.4883 13.3125 29.9297 13.3008H30.0703C34.5117 13.3125 38.1094 16.9102 38.1211 21.3516V21.4922C38.1094 25.9336 34.5117 29.5313 30.0703 29.543Z" fill="url(#paint22_radial_57_5463)"/>
<path d="M18.7383 42.082V41.8828C18.75 35.7305 23.7539 30.7266 29.9062 30.7148H30.1055C36.2578 30.7266 41.2617 35.7305 41.2734 41.8828V42.082C41.25 48.2461 18.75 48.2461 18.7383 42.082Z" fill="url(#paint23_radial_57_5463)"/>
<path d="M18.7383 42.082V41.8828C18.75 35.7305 23.7539 30.7266 29.9062 30.7148H30.1055C36.2578 30.7266 41.2617 35.7305 41.2734 41.8828V42.082C41.25 48.2461 18.75 48.2461 18.7383 42.082Z" fill="url(#paint24_radial_57_5463)"/>
</g>
<defs>
<linearGradient id="paint0_linear_57_5463" x1="16.0512" y1="16.0511" x2="44.9805" y2="44.9805" gradientUnits="userSpaceOnUse">
<stop stop-color="#5A5A5A"/>
<stop offset="1" stop-color="#444444"/>
</linearGradient>
<linearGradient id="paint1_linear_57_5463" x1="44.417" y1="44.4175" x2="11.2835" y2="11.284" gradientUnits="userSpaceOnUse">
<stop stop-color="#5A5A5A"/>
<stop offset="1" stop-color="#444444"/>
</linearGradient>
<linearGradient id="paint2_linear_57_5463" x1="30" y1="34.1559" x2="30" y2="56.0041" gradientUnits="userSpaceOnUse">
<stop stop-color="#433F43" stop-opacity="0"/>
<stop offset="0.411" stop-color="#373537" stop-opacity="0.269"/>
<stop offset="1" stop-color="#1A1A1A"/>
</linearGradient>
<linearGradient id="paint3_linear_57_5463" x1="34.063" y1="30" x2="55.9421" y2="30" gradientUnits="userSpaceOnUse">
<stop stop-color="#433F43" stop-opacity="0"/>
<stop offset="0.411" stop-color="#373537" stop-opacity="0.269"/>
<stop offset="1" stop-color="#1A1A1A"/>
</linearGradient>
<linearGradient id="paint4_linear_57_5463" x1="42.8065" y1="42.8074" x2="53.2423" y2="53.2432" gradientUnits="userSpaceOnUse">
<stop stop-color="#433F43" stop-opacity="0"/>
<stop offset="0.411" stop-color="#373537" stop-opacity="0.269"/>
<stop offset="1" stop-color="#1A1A1A"/>
</linearGradient>
<linearGradient id="paint5_linear_57_5463" x1="49.9148" y1="38.4084" x2="49.9148" y2="32.3611" gradientUnits="userSpaceOnUse">
<stop stop-color="#433F43" stop-opacity="0"/>
<stop offset="0.411" stop-color="#373537" stop-opacity="0.269"/>
<stop offset="1" stop-color="#1A1A1A"/>
</linearGradient>
<linearGradient id="paint6_linear_57_5463" x1="10.0852" y1="38.4084" x2="10.0852" y2="32.3611" gradientUnits="userSpaceOnUse">
<stop stop-color="#433F43" stop-opacity="0"/>
<stop offset="0.411" stop-color="#373537" stop-opacity="0.269"/>
<stop offset="1" stop-color="#1A1A1A"/>
</linearGradient>
<linearGradient id="paint7_linear_57_5463" x1="38.318" y1="10.9334" x2="31.6014" y2="10.9334" gradientUnits="userSpaceOnUse">
<stop stop-color="#433F43" stop-opacity="0"/>
<stop offset="0.411" stop-color="#373537" stop-opacity="0.269"/>
<stop offset="1" stop-color="#1A1A1A"/>
</linearGradient>
<linearGradient id="paint8_linear_57_5463" x1="38.318" y1="49.0673" x2="31.6014" y2="49.0673" gradientUnits="userSpaceOnUse">
<stop stop-color="#433F43" stop-opacity="0"/>
<stop offset="0.411" stop-color="#373537" stop-opacity="0.269"/>
<stop offset="1" stop-color="#1A1A1A"/>
</linearGradient>
<linearGradient id="paint9_linear_57_5463" x1="28.1021" y1="6.28113" x2="31.3985" y2="6.28113" gradientUnits="userSpaceOnUse">
<stop stop-color="#5A5A5A"/>
<stop offset="1" stop-color="#444444"/>
</linearGradient>
<linearGradient id="paint10_linear_57_5463" x1="28.1021" y1="53.7189" x2="31.3985" y2="53.7189" gradientUnits="userSpaceOnUse">
<stop stop-color="#5A5A5A"/>
<stop offset="1" stop-color="#444444"/>
</linearGradient>
<linearGradient id="paint11_linear_57_5463" x1="53.7189" y1="28.1021" x2="53.7189" y2="31.3985" gradientUnits="userSpaceOnUse">
<stop stop-color="#5A5A5A"/>
<stop offset="1" stop-color="#444444"/>
</linearGradient>
<linearGradient id="paint12_linear_57_5463" x1="6.28113" y1="28.1021" x2="6.28113" y2="31.3985" gradientUnits="userSpaceOnUse">
<stop stop-color="#5A5A5A"/>
<stop offset="1" stop-color="#444444"/>
</linearGradient>
<radialGradient id="paint13_radial_57_5463" cx="0" cy="0" r="1" gradientUnits="userSpaceOnUse" gradientTransform="translate(42.3021 13.7845) scale(7.99031 7.99031)">
<stop stop-color="#C8EFFE"/>
<stop offset="0.103" stop-color="#C0EDFD"/>
<stop offset="0.258" stop-color="#ABEAFD"/>
<stop offset="0.447" stop-color="#89E5FD"/>
<stop offset="0.661" stop-color="#5ADDFC"/>
<stop offset="0.895" stop-color="#1ED4FB"/>
<stop offset="1" stop-color="#01D0FB"/>
</radialGradient>
<radialGradient id="paint14_radial_57_5463" cx="0" cy="0" r="1" gradientUnits="userSpaceOnUse" gradientTransform="translate(41.0145 27.57) scale(10.4742)">
<stop stop-color="#C8EFFE"/>
<stop offset="0.103" stop-color="#C0EDFD"/>
<stop offset="0.258" stop-color="#ABEAFD"/>
<stop offset="0.447" stop-color="#89E5FD"/>
<stop offset="0.661" stop-color="#5ADDFC"/>
<stop offset="0.895" stop-color="#1ED4FB"/>
<stop offset="1" stop-color="#01D0FB"/>
</radialGradient>
<radialGradient id="paint15_radial_57_5463" cx="0" cy="0" r="1" gradientUnits="userSpaceOnUse" gradientTransform="translate(40.9391 13.8135) scale(10.8277 10.8277)">
<stop stop-color="white" stop-opacity="0"/>
<stop offset="0.217" stop-color="#FCFDFE" stop-opacity="0.011"/>
<stop offset="0.329" stop-color="#F2F9FC" stop-opacity="0.049"/>
<stop offset="0.416" stop-color="#E2F2F9" stop-opacity="0.113"/>
<stop offset="0.492" stop-color="#CBE8F5" stop-opacity="0.205"/>
<stop offset="0.559" stop-color="#ADDBEF" stop-opacity="0.324"/>
<stop offset="0.62" stop-color="#87CAE8" stop-opacity="0.471"/>
<stop offset="0.677" stop-color="#5BB7E0" stop-opacity="0.645"/>
<stop offset="0.73" stop-color="#2AA1D6" stop-opacity="0.841"/>
<stop offset="0.766" stop-color="#0290CF"/>
<stop offset="0.8" stop-color="#0692CF" stop-opacity="0.982"/>
<stop offset="0.833" stop-color="#1498D2" stop-opacity="0.927"/>
<stop offset="0.865" stop-color="#2CA2D6" stop-opacity="0.834"/>
<stop offset="0.897" stop-color="#4CB0DD" stop-opacity="0.704"/>
<stop offset="0.928" stop-color="#77C3E5" stop-opacity="0.536"/>
<stop offset="0.959" stop-color="#ABDAEF" stop-opacity="0.331"/>
<stop offset="0.989" stop-color="#E7F4FA" stop-opacity="0.092"/>
<stop offset="1" stop-color="white" stop-opacity="0"/>
</radialGradient>
<radialGradient id="paint16_radial_57_5463" cx="0" cy="0" r="1" gradientUnits="userSpaceOnUse" gradientTransform="translate(38.3767 27.6144) scale(16.7886 16.7886)">
<stop stop-color="white" stop-opacity="0"/>
<stop offset="0.217" stop-color="#FCFDFE" stop-opacity="0.011"/>
<stop offset="0.329" stop-color="#F2F9FC" stop-opacity="0.049"/>
<stop offset="0.416" stop-color="#E2F2F9" stop-opacity="0.113"/>
<stop offset="0.492" stop-color="#CBE8F5" stop-opacity="0.205"/>
<stop offset="0.559" stop-color="#ADDBEF" stop-opacity="0.324"/>
<stop offset="0.62" stop-color="#87CAE8" stop-opacity="0.471"/>
<stop offset="0.677" stop-color="#5BB7E0" stop-opacity="0.645"/>
<stop offset="0.73" stop-color="#2AA1D6" stop-opacity="0.841"/>
<stop offset="0.766" stop-color="#0290CF"/>
<stop offset="0.8" stop-color="#0692CF" stop-opacity="0.982"/>
<stop offset="0.833" stop-color="#1498D2" stop-opacity="0.927"/>
<stop offset="0.865" stop-color="#2CA2D6" stop-opacity="0.834"/>
<stop offset="0.897" stop-color="#4CB0DD" stop-opacity="0.704"/>
<stop offset="0.928" stop-color="#77C3E5" stop-opacity="0.536"/>
<stop offset="0.959" stop-color="#ABDAEF" stop-opacity="0.331"/>
<stop offset="0.989" stop-color="#E7F4FA" stop-opacity="0.092"/>
<stop offset="1" stop-color="white" stop-opacity="0"/>
</radialGradient>
<radialGradient id="paint17_radial_57_5463" cx="0" cy="0" r="1" gradientUnits="userSpaceOnUse" gradientTransform="translate(15.255 13.7845) scale(7.99031)">
<stop stop-color="#BBEC6C"/>
<stop offset="1" stop-color="#78A91F"/>
</radialGradient>
<radialGradient id="paint18_radial_57_5463" cx="0" cy="0" r="1" gradientUnits="userSpaceOnUse" gradientTransform="translate(13.9673 27.57) scale(10.4742)">
<stop stop-color="#BBEC6C"/>
<stop offset="1" stop-color="#78A91F"/>
</radialGradient>
<radialGradient id="paint19_radial_57_5463" cx="0" cy="0" r="1" gradientUnits="userSpaceOnUse" gradientTransform="translate(13.892 13.8135) scale(10.8277)">
<stop stop-color="#334C0F" stop-opacity="0"/>
<stop offset="0.287" stop-color="#334C0F" stop-opacity="0.03"/>
<stop offset="0.435" stop-color="#334C0F" stop-opacity="0.132"/>
<stop offset="0.551" stop-color="#334C0F" stop-opacity="0.308"/>
<stop offset="0.65" stop-color="#334C0F" stop-opacity="0.557"/>
<stop offset="0.738" stop-color="#334C0F" stop-opacity="0.877"/>
<stop offset="0.766" stop-color="#334C0F"/>
<stop offset="0.822" stop-color="#334C0F" stop-opacity="0.951"/>
<stop offset="0.875" stop-color="#334C0F" stop-opacity="0.8"/>
<stop offset="0.926" stop-color="#334C0F" stop-opacity="0.548"/>
<stop offset="0.977" stop-color="#334C0F" stop-opacity="0.198"/>
<stop offset="1" stop-color="#334C0F" stop-opacity="0"/>
</radialGradient>
<radialGradient id="paint20_radial_57_5463" cx="0" cy="0" r="1" gradientUnits="userSpaceOnUse" gradientTransform="translate(11.3296 27.6144) scale(16.7886)">
<stop stop-color="#334C0F" stop-opacity="0"/>
<stop offset="0.287" stop-color="#334C0F" stop-opacity="0.03"/>
<stop offset="0.435" stop-color="#334C0F" stop-opacity="0.132"/>
<stop offset="0.551" stop-color="#334C0F" stop-opacity="0.308"/>
<stop offset="0.65" stop-color="#334C0F" stop-opacity="0.557"/>
<stop offset="0.738" stop-color="#334C0F" stop-opacity="0.877"/>
<stop offset="0.766" stop-color="#334C0F"/>
<stop offset="0.822" stop-color="#334C0F" stop-opacity="0.951"/>
<stop offset="0.875" stop-color="#334C0F" stop-opacity="0.8"/>
<stop offset="0.926" stop-color="#334C0F" stop-opacity="0.548"/>
<stop offset="0.977" stop-color="#334C0F" stop-opacity="0.198"/>
<stop offset="1" stop-color="#334C0F" stop-opacity="0"/>
</radialGradient>
<radialGradient id="paint21_radial_57_5463" cx="0" cy="0" r="1" gradientUnits="userSpaceOnUse" gradientTransform="translate(28.6741 19.3498) scale(8.67316 8.67317)">
<stop stop-color="#FEF0AE"/>
<stop offset="1" stop-color="#FAC600"/>
</radialGradient>
<radialGradient id="paint22_radial_57_5463" cx="0" cy="0" r="1" gradientUnits="userSpaceOnUse" gradientTransform="translate(27.1946 19.3813) scale(11.753 11.753)">
<stop stop-color="#FE9738" stop-opacity="0"/>
<stop offset="0.218" stop-color="#FE9738" stop-opacity="0.01"/>
<stop offset="0.333" stop-color="#FE9738" stop-opacity="0.04"/>
<stop offset="0.425" stop-color="#FE9738" stop-opacity="0.094"/>
<stop offset="0.504" stop-color="#FE9738" stop-opacity="0.169"/>
<stop offset="0.575" stop-color="#FE9738" stop-opacity="0.268"/>
<stop offset="0.641" stop-color="#FE9738" stop-opacity="0.389"/>
<stop offset="0.702" stop-color="#FE9738" stop-opacity="0.533"/>
<stop offset="0.759" stop-color="#FE9738" stop-opacity="0.7"/>
<stop offset="0.812" stop-color="#FE9738" stop-opacity="0.883"/>
<stop offset="0.841" stop-color="#FE9738"/>
<stop offset="0.867" stop-color="#FE9738" stop-opacity="0.987"/>
<stop offset="0.888" stop-color="#FE9738" stop-opacity="0.948"/>
<stop offset="0.907" stop-color="#FE9738" stop-opacity="0.881"/>
<stop offset="0.925" stop-color="#FE9738" stop-opacity="0.786"/>
<stop offset="0.942" stop-color="#FE9738" stop-opacity="0.664"/>
<stop offset="0.959" stop-color="#FE9738" stop-opacity="0.515"/>
<stop offset="0.976" stop-color="#FE9738" stop-opacity="0.337"/>
<stop offset="0.991" stop-color="#FE9738" stop-opacity="0.137"/>
<stop offset="1" stop-color="#FE9738" stop-opacity="0.012"/>
</radialGradient>
<radialGradient id="paint23_radial_57_5463" cx="0" cy="0" r="1" gradientUnits="userSpaceOnUse" gradientTransform="translate(27.2764 34.3133) scale(11.3693)">
<stop stop-color="#FEF0AE"/>
<stop offset="1" stop-color="#FAC600"/>
</radialGradient>
<radialGradient id="paint24_radial_57_5463" cx="0" cy="0" r="1" gradientUnits="userSpaceOnUse" gradientTransform="translate(24.4133 34.3616) scale(18.2234)">
<stop stop-color="#FE9738" stop-opacity="0"/>
<stop offset="0.218" stop-color="#FE9738" stop-opacity="0.01"/>
<stop offset="0.333" stop-color="#FE9738" stop-opacity="0.04"/>
<stop offset="0.425" stop-color="#FE9738" stop-opacity="0.094"/>
<stop offset="0.504" stop-color="#FE9738" stop-opacity="0.169"/>
<stop offset="0.575" stop-color="#FE9738" stop-opacity="0.268"/>
<stop offset="0.641" stop-color="#FE9738" stop-opacity="0.389"/>
<stop offset="0.702" stop-color="#FE9738" stop-opacity="0.533"/>
<stop offset="0.759" stop-color="#FE9738" stop-opacity="0.7"/>
<stop offset="0.812" stop-color="#FE9738" stop-opacity="0.883"/>
<stop offset="0.841" stop-color="#FE9738"/>
<stop offset="0.867" stop-color="#FE9738" stop-opacity="0.987"/>
<stop offset="0.888" stop-color="#FE9738" stop-opacity="0.948"/>
<stop offset="0.907" stop-color="#FE9738" stop-opacity="0.881"/>
<stop offset="0.925" stop-color="#FE9738" stop-opacity="0.786"/>
<stop offset="0.942" stop-color="#FE9738" stop-opacity="0.664"/>
<stop offset="0.959" stop-color="#FE9738" stop-opacity="0.515"/>
<stop offset="0.976" stop-color="#FE9738" stop-opacity="0.337"/>
<stop offset="0.991" stop-color="#FE9738" stop-opacity="0.137"/>
<stop offset="1" stop-color="#FE9738" stop-opacity="0.012"/>
</radialGradient>
<clipPath id="clip0_57_5463">
<rect width="60" height="60" fill="white"/>
</clipPath>
</defs>
</svg>
