<svg width="50" height="50" viewBox="0 0 50 50" fill="none" xmlns="http://www.w3.org/2000/svg">
<g clip-path="url(#clip0_16_1286)">
<path d="M17.353 36.3484H32.6471V45.7602H17.353V36.3484Z" fill="url(#paint0_linear_16_1286)"/>
<path d="M17.353 36.3484H32.6471V45.7602H17.353V36.3484Z" fill="url(#paint1_linear_16_1286)"/>
<path d="M17.353 36.3484H32.6471V45.7602H17.353V36.3484Z" fill="url(#paint2_linear_16_1286)"/>
<path d="M47.0588 38.6032H2.94118C1.31676 38.6032 0 37.2865 0 35.6621V4.58363C0 2.95922 1.31676 1.64246 2.94118 1.64246H47.0588C48.6832 1.64246 50 2.95922 50 4.58363V35.6621C50 37.2865 48.6832 38.6032 47.0588 38.6032Z" fill="url(#paint3_linear_16_1286)"/>
<path d="M47.0589 1.64246H29.1177V38.6032H47.0589C48.6833 38.6032 50 37.2865 50 35.6621V4.58363C50 2.95922 48.6833 1.64246 47.0589 1.64246Z" fill="url(#paint4_linear_16_1286)"/>
<path d="M47.0588 1.64246H2.94118C1.31676 1.64246 0 2.95922 0 4.58363V32.594H50V4.58363C50 2.95922 48.6832 1.64246 47.0588 1.64246Z" fill="url(#paint5_linear_16_1286)"/>
<path d="M47.0589 1.64246H29.1177V32.594H50V4.58363C50 2.95922 48.6833 1.64246 47.0589 1.64246Z" fill="url(#paint6_linear_16_1286)"/>
<path d="M0 34.0934V35.662C0 37.2864 1.31676 38.6032 2.94118 38.6032H47.0588C48.6832 38.6032 50 37.2864 50 35.662V34.0934H0Z" fill="url(#paint7_linear_16_1286)"/>
<path d="M45.6863 4.04443H4.31372C3.33911 4.04443 2.54901 4.83453 2.54901 5.80914V28.4274C2.54901 29.402 3.33911 30.1921 4.31372 30.1921H45.6863C46.6609 30.1921 47.451 29.402 47.451 28.4274V5.80914C47.451 4.83453 46.6609 4.04443 45.6863 4.04443Z" fill="url(#paint8_linear_16_1286)"/>
<path d="M29.1177 30.1921H45.6863C46.6609 30.1921 47.451 29.402 47.451 28.4274V5.80914C47.451 4.83453 46.6609 4.04443 45.6863 4.04443H29.1177V30.1921Z" fill="url(#paint9_linear_16_1286)"/>
<path d="M47.451 18.382L42.1308 13.0618L25.0005 30.1921H45.6863C46.6609 30.1921 47.451 29.402 47.451 28.4274V18.382Z" fill="url(#paint10_linear_16_1286)"/>
<path d="M35.5774 48.3575H14.4227C13.8196 48.3575 13.3308 47.8687 13.3308 47.2657C13.3308 45.3967 14.846 43.8815 16.715 43.8815H33.2851C35.1541 43.8815 36.6693 45.3967 36.6693 47.2657C36.6692 47.8687 36.1804 48.3575 35.5774 48.3575Z" fill="url(#paint11_linear_16_1286)"/>
<path d="M35.5774 48.3575H14.4227C13.8196 48.3575 13.3308 47.8687 13.3308 47.2657C13.3308 45.3967 14.846 43.8815 16.715 43.8815H33.2851C35.1541 43.8815 36.6693 45.3967 36.6693 47.2657C36.6692 47.8687 36.1804 48.3575 35.5774 48.3575Z" fill="url(#paint12_linear_16_1286)"/>
<path d="M6.01489 30.192H43.9852C43.6838 19.9653 35.2997 11.7672 25 11.7672C14.7003 11.7672 6.31617 19.9653 6.01489 30.192Z" fill="url(#paint13_linear_16_1286)"/>
<path d="M38.1425 17.05L25.0005 30.1921H43.9851C43.833 25.0297 41.6206 20.385 38.1425 17.05Z" fill="url(#paint14_linear_16_1286)"/>
<path d="M42.6725 30.1925H45.6674C45.6674 24.4944 43.3495 19.3277 39.6072 15.5853L37.4904 17.7021C40.6905 20.9021 42.6725 25.3202 42.6725 30.1925Z" fill="url(#paint15_linear_16_1286)"/>
<path d="M42.6725 30.1925H45.6674C45.6674 24.4944 43.3495 19.3277 39.6072 15.5853L37.4904 17.7021C40.6905 20.9021 42.6725 25.3202 42.6725 30.1925Z" fill="url(#paint16_linear_16_1286)"/>
<path d="M37.4905 17.702L39.6073 15.5852C35.8648 11.843 30.698 9.52515 25 9.52515V12.52C29.8723 12.52 34.2904 14.502 37.4905 17.702Z" fill="url(#paint17_linear_16_1286)"/>
<path d="M4.33264 30.1925H7.32754C7.32754 25.3202 9.3095 20.9021 12.5095 17.7021L10.3927 15.5853C6.65048 19.3277 4.33264 24.4945 4.33264 30.1925Z" fill="url(#paint18_linear_16_1286)"/>
<path d="M25 12.52V9.52515C19.3019 9.52515 14.1352 11.843 10.3928 15.5853L12.5096 17.7021C15.7096 14.502 20.1276 12.52 25 12.52Z" fill="url(#paint19_linear_16_1286)"/>
<path d="M45.6673 30.1921H42.6724C42.6724 25.6722 40.9665 21.5428 38.1644 18.4149H41.9739C44.3016 21.7584 45.6673 25.8195 45.6673 30.1921Z" fill="url(#paint20_linear_16_1286)"/>
<path d="M11.8356 18.4149C9.03355 21.5428 7.32767 25.6722 7.32767 30.1921H4.33276C4.33276 25.8195 5.69845 21.7584 8.0261 18.4149H11.8356Z" fill="url(#paint21_linear_16_1286)"/>
<path d="M21.9979 18.4618H24.8108C24.9973 18.4618 25.1762 18.3877 25.3081 18.2558C25.4399 18.1239 25.514 17.945 25.514 17.7585C25.514 17.572 25.4399 17.3932 25.3081 17.2613C25.1762 17.1294 24.9973 17.0553 24.8108 17.0553H21.9979C21.9055 17.0553 21.814 17.0735 21.7287 17.1088C21.6434 17.1441 21.5659 17.1959 21.5006 17.2612C21.4353 17.3265 21.3835 17.4041 21.3481 17.4894C21.3128 17.5747 21.2946 17.6662 21.2946 17.7585C21.2946 17.8509 21.3128 17.9423 21.3481 18.0277C21.3835 18.113 21.4353 18.1905 21.5006 18.2558C21.5659 18.3211 21.6434 18.3729 21.7287 18.4083C21.814 18.4436 21.9055 18.4618 21.9979 18.4618Z" fill="url(#paint22_linear_16_1286)"/>
<path d="M22.761 19.8683H19.948C19.7615 19.8683 19.5827 19.9424 19.4508 20.0743C19.3189 20.2061 19.2448 20.385 19.2448 20.5715C19.2448 20.758 19.3189 20.9369 19.4508 21.0688C19.5827 21.2007 19.7615 21.2748 19.948 21.2748H22.7611C22.9456 21.2717 23.1214 21.1962 23.2508 21.0647C23.3802 20.9331 23.4526 20.756 23.4526 20.5715C23.4526 20.387 23.3801 20.2099 23.2507 20.0783C23.1214 19.9468 22.9455 19.8714 22.761 19.8683Z" fill="url(#paint23_linear_16_1286)"/>
<path d="M36.7515 19.8683H26.9805C26.794 19.8683 26.6151 19.9424 26.4833 20.0743C26.3514 20.2061 26.2773 20.385 26.2773 20.5715C26.2773 20.758 26.3514 20.9369 26.4833 21.0688C26.6151 21.2007 26.794 21.2748 26.9805 21.2748H36.7515C37.1399 21.2748 37.4547 20.96 37.4547 20.5715C37.4547 20.1831 37.1399 19.8683 36.7515 19.8683Z" fill="url(#paint24_linear_16_1286)"/>
<path d="M36.7515 19.8683H26.9805C26.794 19.8683 26.6151 19.9424 26.4833 20.0743C26.3514 20.2061 26.2773 20.385 26.2773 20.5715C26.2773 20.758 26.3514 20.9369 26.4833 21.0688C26.6151 21.2007 26.794 21.2748 26.9805 21.2748H36.7515C37.1399 21.2748 37.4547 20.96 37.4547 20.5715C37.4547 20.1831 37.1399 19.8683 36.7515 19.8683Z" fill="url(#paint25_linear_16_1286)"/>
<path d="M26.3707 22.6812H24.9016C24.7151 22.6812 24.5362 22.7552 24.4043 22.8871C24.2725 23.019 24.1984 23.1979 24.1984 23.3844C24.1984 23.5709 24.2725 23.7498 24.4043 23.8816C24.5362 24.0135 24.7151 24.0876 24.9016 24.0876H26.3707C26.5572 24.0876 26.7361 24.0135 26.868 23.8816C26.9999 23.7498 27.074 23.5709 27.074 23.3844C27.074 23.1979 26.9999 23.019 26.868 22.8871C26.7361 22.7552 26.5572 22.6812 26.3707 22.6812Z" fill="url(#paint26_linear_16_1286)"/>
<path d="M41.0993 12.7685L39.5629 13.1303C39.4649 13.1534 39.3671 13.1777 39.2698 13.203C36.8481 13.833 34.689 15.1964 33.0288 17.0553H29.0301C28.8436 17.0553 28.6647 17.1294 28.5328 17.2613C28.4009 17.3932 28.3268 17.5721 28.3268 17.7586C28.3268 17.9451 28.4009 18.124 28.5328 18.2558C28.6647 18.3877 28.8436 18.4618 29.0301 18.4618H31.8956L23.7502 28.943L26.2494 31.4422L37.4392 22.7461C39.6548 21.0244 41.2829 18.6382 41.9894 15.9227C42.0147 15.8253 42.0389 15.7276 42.062 15.6296L42.4239 14.0933C42.6117 13.2966 41.8959 12.5809 41.0993 12.7685Z" fill="url(#paint27_linear_16_1286)"/>
<path d="M37.5009 22.6963C36.8864 21.6738 36.149 20.7305 35.3052 19.8873C34.4621 19.0434 33.5188 18.3061 32.4963 17.6917C32.48 17.7124 32.4627 17.7322 32.4466 17.7531L23.7505 28.9429L26.2497 31.4421L37.4395 22.7461C37.4602 22.7298 37.4801 22.7126 37.5009 22.6963Z" fill="url(#paint28_linear_16_1286)"/>
<path d="M26.2496 31.442L37.4394 22.746C39.655 21.0242 41.2831 18.638 41.9896 15.9225C42.0149 15.8252 42.0391 15.7275 42.0623 15.6294L42.4241 14.093C42.5179 13.6948 42.3859 13.3166 42.1309 13.0616L25 30.1925L26.2496 31.442Z" fill="url(#paint29_linear_16_1286)"/>
<path d="M34.7756 18.4618H37.5885C37.775 18.4618 37.9539 18.3877 38.0858 18.2558C38.2176 18.1239 38.2917 17.945 38.2917 17.7585C38.2917 17.572 38.2176 17.3932 38.0858 17.2613C37.9539 17.1294 37.775 17.0553 37.5885 17.0553H34.7756C34.5891 17.0553 34.4102 17.1294 34.2783 17.2613C34.1464 17.3932 34.0723 17.572 34.0723 17.7585C34.0723 17.945 34.1464 18.1239 34.2783 18.2558C34.4102 18.3877 34.5891 18.4618 34.7756 18.4618Z" fill="url(#paint30_linear_16_1286)"/>
<path d="M30.6906 24.0876H33.5035C33.6901 24.0876 33.8689 24.0135 34.0008 23.8816C34.1327 23.7498 34.2068 23.5709 34.2068 23.3844C34.2068 23.1979 34.1327 23.019 34.0008 22.8871C33.8689 22.7552 33.6901 22.6812 33.5035 22.6812H30.6906C30.5041 22.6812 30.3252 22.7552 30.1933 22.8871C30.0615 23.019 29.9874 23.1979 29.9874 23.3844C29.9874 23.5709 30.0615 23.7498 30.1933 23.8816C30.3252 24.0135 30.5041 24.0876 30.6906 24.0876Z" fill="url(#paint31_linear_16_1286)"/>
<path d="M25 34.7086C27.4941 34.7086 29.516 32.6867 29.516 30.1926C29.516 27.6985 27.4941 25.6766 25 25.6766C22.5059 25.6766 20.484 27.6985 20.484 30.1926C20.484 32.6867 22.5059 34.7086 25 34.7086Z" fill="url(#paint32_linear_16_1286)"/>
<path d="M20.484 30.1926C20.484 32.6867 22.5059 34.7085 25 34.7085C27.4941 34.7085 29.516 32.6867 29.516 30.1926C29.5164 29.6681 29.4254 29.1476 29.2469 28.6544H20.753C20.5745 29.1476 20.4835 29.6681 20.484 30.1926Z" fill="url(#paint33_linear_16_1286)"/>
<path d="M21.8067 33.3858C23.5703 35.1495 26.4296 35.1495 28.1933 33.3858C29.9569 31.6222 29.9569 28.7629 28.1933 26.9993C27.8228 26.6281 27.3903 26.3244 26.9153 26.1019L20.9092 32.108C21.1318 32.5829 21.4355 33.0153 21.8067 33.3858Z" fill="url(#paint34_linear_16_1286)"/>
<path d="M28.3271 17.7584C28.3271 17.9449 28.4012 18.1238 28.5331 18.2557C28.6649 18.3876 28.8438 18.4616 29.0303 18.4616H31.8958L33.0289 17.0552H29.0303C28.8438 17.0552 28.6649 17.1293 28.5331 17.2611C28.4012 17.393 28.3271 17.5719 28.3271 17.7584Z" fill="url(#paint35_linear_16_1286)"/>
</g>
<defs>
<linearGradient id="paint0_linear_16_1286" x1="27.9852" y1="41.0543" x2="33.0587" y2="41.0543" gradientUnits="userSpaceOnUse">
<stop stop-color="#DEECF1"/>
<stop offset="1" stop-color="#8EBAC5"/>
</linearGradient>
<linearGradient id="paint1_linear_16_1286" x1="25" y1="42.1981" x2="25" y2="37.0309" gradientUnits="userSpaceOnUse">
<stop stop-color="#678D98" stop-opacity="0"/>
<stop offset="0.227" stop-color="#638892" stop-opacity="0.227"/>
<stop offset="0.522" stop-color="#597B82" stop-opacity="0.522"/>
<stop offset="0.853" stop-color="#476567" stop-opacity="0.853"/>
<stop offset="1" stop-color="#3E5959"/>
</linearGradient>
<linearGradient id="paint2_linear_16_1286" x1="25" y1="40.6295" x2="25" y2="45.6122" gradientUnits="userSpaceOnUse">
<stop stop-color="#678D98" stop-opacity="0"/>
<stop offset="0.227" stop-color="#638892" stop-opacity="0.227"/>
<stop offset="0.522" stop-color="#597B82" stop-opacity="0.522"/>
<stop offset="0.853" stop-color="#476567" stop-opacity="0.853"/>
<stop offset="1" stop-color="#3E5959"/>
</linearGradient>
<linearGradient id="paint3_linear_16_1286" x1="15.6822" y1="0.180985" x2="32.3134" y2="35.7749" gradientUnits="userSpaceOnUse">
<stop stop-color="#DEECF1"/>
<stop offset="1" stop-color="#8EBAC5"/>
</linearGradient>
<linearGradient id="paint4_linear_16_1286" x1="44.804" y1="20.1228" x2="50.2941" y2="20.1228" gradientUnits="userSpaceOnUse">
<stop stop-color="#678D98" stop-opacity="0"/>
<stop offset="0.227" stop-color="#638892" stop-opacity="0.227"/>
<stop offset="0.522" stop-color="#597B82" stop-opacity="0.522"/>
<stop offset="0.853" stop-color="#476567" stop-opacity="0.853"/>
<stop offset="1" stop-color="#3E5959"/>
</linearGradient>
<linearGradient id="paint5_linear_16_1286" x1="17.9297" y1="-1.78647" x2="30.9389" y2="35.2399" gradientUnits="userSpaceOnUse">
<stop stop-color="#5A5A5A"/>
<stop offset="1" stop-color="#444444"/>
</linearGradient>
<linearGradient id="paint6_linear_16_1286" x1="44.4118" y1="17.1182" x2="49.5098" y2="17.1182" gradientUnits="userSpaceOnUse">
<stop stop-color="#433F43" stop-opacity="0"/>
<stop offset="0.317" stop-color="#3B373B" stop-opacity="0.317"/>
<stop offset="0.822" stop-color="#242324" stop-opacity="0.822"/>
<stop offset="1" stop-color="#1A1A1A"/>
</linearGradient>
<linearGradient id="paint7_linear_16_1286" x1="25" y1="36.1749" x2="25" y2="39.2051" gradientUnits="userSpaceOnUse">
<stop stop-color="#678D98" stop-opacity="0"/>
<stop offset="0.227" stop-color="#638892" stop-opacity="0.227"/>
<stop offset="0.522" stop-color="#597B82" stop-opacity="0.522"/>
<stop offset="0.853" stop-color="#476567" stop-opacity="0.853"/>
<stop offset="1" stop-color="#3E5959"/>
</linearGradient>
<linearGradient id="paint8_linear_16_1286" x1="19.1455" y1="0.455511" x2="30.3079" y2="32.2254" gradientUnits="userSpaceOnUse">
<stop stop-color="#A6E7F0"/>
<stop offset="0.171" stop-color="#90E2ED"/>
<stop offset="0.529" stop-color="#56D7E7"/>
<stop offset="1" stop-color="#02C7DD"/>
</linearGradient>
<linearGradient id="paint9_linear_16_1286" x1="41.8628" y1="17.1183" x2="47.9443" y2="17.1183" gradientUnits="userSpaceOnUse">
<stop stop-color="#0199B1" stop-opacity="0"/>
<stop offset="1" stop-color="#0199B1"/>
</linearGradient>
<linearGradient id="paint10_linear_16_1286" x1="39.6685" y1="26.7588" x2="35.3548" y2="23.1314" gradientUnits="userSpaceOnUse">
<stop stop-color="#0199B1" stop-opacity="0"/>
<stop offset="1" stop-color="#0199B1"/>
</linearGradient>
<linearGradient id="paint11_linear_16_1286" x1="25" y1="45.6992" x2="25" y2="48.817" gradientUnits="userSpaceOnUse">
<stop stop-color="#DEECF1"/>
<stop offset="1" stop-color="#8EBAC5"/>
</linearGradient>
<linearGradient id="paint12_linear_16_1286" x1="25" y1="45.6992" x2="25" y2="48.817" gradientUnits="userSpaceOnUse">
<stop stop-color="#678D98" stop-opacity="0"/>
<stop offset="0.227" stop-color="#638892" stop-opacity="0.227"/>
<stop offset="0.522" stop-color="#597B82" stop-opacity="0.522"/>
<stop offset="0.853" stop-color="#476567" stop-opacity="0.853"/>
<stop offset="1" stop-color="#3E5959"/>
</linearGradient>
<linearGradient id="paint13_linear_16_1286" x1="20.5614" y1="17.4379" x2="26.3457" y2="32.0457" gradientUnits="userSpaceOnUse">
<stop stop-color="#F9F5F3"/>
<stop offset="1" stop-color="#EFE2DD"/>
</linearGradient>
<linearGradient id="paint14_linear_16_1286" x1="35.535" y1="28.5086" x2="32.6428" y2="24.8321" gradientUnits="userSpaceOnUse">
<stop stop-color="#9E9797" stop-opacity="0"/>
<stop offset="0.31" stop-color="#968F8F" stop-opacity="0.31"/>
<stop offset="0.785" stop-color="#827A7A" stop-opacity="0.785"/>
<stop offset="1" stop-color="#766E6E"/>
</linearGradient>
<linearGradient id="paint15_linear_16_1286" x1="38.2002" y1="14.3395" x2="44.4296" y2="28.6352" gradientUnits="userSpaceOnUse">
<stop stop-color="#FFA1AE"/>
<stop offset="1" stop-color="#FF4565"/>
</linearGradient>
<linearGradient id="paint16_linear_16_1286" x1="41.2417" y1="22.9455" x2="39.0854" y2="21.7476" gradientUnits="userSpaceOnUse">
<stop stop-color="#FD4755" stop-opacity="0"/>
<stop offset="0.259" stop-color="#F74453" stop-opacity="0.259"/>
<stop offset="0.621" stop-color="#E53B4C" stop-opacity="0.621"/>
<stop offset="1" stop-color="#CA2E43"/>
</linearGradient>
<linearGradient id="paint17_linear_16_1286" x1="29.3414" y1="4.52417" x2="34.1332" y2="19.938" gradientUnits="userSpaceOnUse">
<stop stop-color="#FFF5C6"/>
<stop offset="1" stop-color="#FEE45A"/>
</linearGradient>
<linearGradient id="paint18_linear_16_1286" x1="5.32735" y1="21.0051" x2="12.8345" y2="27.9533" gradientUnits="userSpaceOnUse">
<stop stop-color="#9BE69D"/>
<stop offset="1" stop-color="#0BB494"/>
</linearGradient>
<linearGradient id="paint19_linear_16_1286" x1="17.0495" y1="11.2226" x2="21.0427" y2="19.4486" gradientUnits="userSpaceOnUse">
<stop stop-color="#FFF5C6"/>
<stop offset="1" stop-color="#FEE45A"/>
</linearGradient>
<linearGradient id="paint20_linear_16_1286" x1="41.9158" y1="26.101" x2="41.9158" y2="29.6186" gradientUnits="userSpaceOnUse">
<stop stop-color="#FD4755" stop-opacity="0"/>
<stop offset="0.259" stop-color="#F74453" stop-opacity="0.259"/>
<stop offset="0.621" stop-color="#E53B4C" stop-opacity="0.621"/>
<stop offset="1" stop-color="#CA2E43"/>
</linearGradient>
<linearGradient id="paint21_linear_16_1286" x1="8.08423" y1="24.5436" x2="8.08423" y2="30.6954" gradientUnits="userSpaceOnUse">
<stop stop-color="#01525A" stop-opacity="0"/>
<stop offset="1" stop-color="#01525A"/>
</linearGradient>
<linearGradient id="paint22_linear_16_1286" x1="23.4786" y1="17.8657" x2="27.56" y2="23.7559" gradientUnits="userSpaceOnUse">
<stop stop-color="#DEECF1"/>
<stop offset="1" stop-color="#D9B1EE"/>
</linearGradient>
<linearGradient id="paint23_linear_16_1286" x1="20.7769" y1="19.7378" x2="24.8582" y2="25.628" gradientUnits="userSpaceOnUse">
<stop stop-color="#DEECF1"/>
<stop offset="1" stop-color="#D9B1EE"/>
</linearGradient>
<linearGradient id="paint24_linear_16_1286" x1="27.8787" y1="14.8169" x2="31.96" y2="20.7071" gradientUnits="userSpaceOnUse">
<stop stop-color="#DEECF1"/>
<stop offset="1" stop-color="#D9B1EE"/>
</linearGradient>
<linearGradient id="paint25_linear_16_1286" x1="28.5781" y1="18.6231" x2="30.3428" y2="19.6689" gradientUnits="userSpaceOnUse">
<stop stop-color="#8379C1" stop-opacity="0"/>
<stop offset="0.283" stop-color="#8374BE" stop-opacity="0.283"/>
<stop offset="0.586" stop-color="#8268B5" stop-opacity="0.586"/>
<stop offset="0.898" stop-color="#8152A6" stop-opacity="0.898"/>
<stop offset="1" stop-color="#814AA0"/>
</linearGradient>
<linearGradient id="paint26_linear_16_1286" x1="22.3527" y1="18.6459" x2="26.4341" y2="24.5361" gradientUnits="userSpaceOnUse">
<stop stop-color="#DEECF1"/>
<stop offset="1" stop-color="#D9B1EE"/>
</linearGradient>
<linearGradient id="paint27_linear_16_1286" x1="31.7593" y1="19.8068" x2="35.6088" y2="23.7027" gradientUnits="userSpaceOnUse">
<stop stop-color="#5A5A5A"/>
<stop offset="1" stop-color="#444444"/>
</linearGradient>
<linearGradient id="paint28_linear_16_1286" x1="31.9268" y1="23.2715" x2="27.5693" y2="27.629" gradientUnits="userSpaceOnUse">
<stop stop-color="#766E6E" stop-opacity="0"/>
<stop offset="1" stop-color="#1A1A1A"/>
</linearGradient>
<linearGradient id="paint29_linear_16_1286" x1="35.5256" y1="23.1791" x2="32.1372" y2="20.9766" gradientUnits="userSpaceOnUse">
<stop stop-color="#766E6E" stop-opacity="0"/>
<stop offset="1" stop-color="#1A1A1A"/>
</linearGradient>
<linearGradient id="paint30_linear_16_1286" x1="37.451" y1="17.7585" x2="34.0196" y2="17.7585" gradientUnits="userSpaceOnUse">
<stop stop-color="#DEECF1" stop-opacity="0"/>
<stop offset="1" stop-color="#D9B1EE"/>
</linearGradient>
<linearGradient id="paint31_linear_16_1286" x1="33.6275" y1="23.3844" x2="29.7711" y2="23.3844" gradientUnits="userSpaceOnUse">
<stop stop-color="#8379C1" stop-opacity="0"/>
<stop offset="0.283" stop-color="#8374BE" stop-opacity="0.283"/>
<stop offset="0.586" stop-color="#8268B5" stop-opacity="0.586"/>
<stop offset="0.898" stop-color="#8152A6" stop-opacity="0.898"/>
<stop offset="1" stop-color="#814AA0"/>
</linearGradient>
<linearGradient id="paint32_linear_16_1286" x1="22.5696" y1="27.7622" x2="26.2015" y2="31.3941" gradientUnits="userSpaceOnUse">
<stop stop-color="#FFA1AE"/>
<stop offset="1" stop-color="#FF4565"/>
</linearGradient>
<linearGradient id="paint33_linear_16_1286" x1="25" y1="30.2497" x2="25" y2="35.5622" gradientUnits="userSpaceOnUse">
<stop stop-color="#FD4755" stop-opacity="0"/>
<stop offset="0.259" stop-color="#F74453" stop-opacity="0.259"/>
<stop offset="0.621" stop-color="#E53B4C" stop-opacity="0.621"/>
<stop offset="1" stop-color="#CA2E43"/>
</linearGradient>
<linearGradient id="paint34_linear_16_1286" x1="25.0779" y1="30.2659" x2="29.032" y2="34.22" gradientUnits="userSpaceOnUse">
<stop stop-color="#FD4755" stop-opacity="0"/>
<stop offset="0.259" stop-color="#F74453" stop-opacity="0.259"/>
<stop offset="0.621" stop-color="#E53B4C" stop-opacity="0.621"/>
<stop offset="1" stop-color="#CA2E43"/>
</linearGradient>
<linearGradient id="paint35_linear_16_1286" x1="32.1242" y1="17.7585" x2="28.2025" y2="17.7585" gradientUnits="userSpaceOnUse">
<stop stop-color="#DEECF1" stop-opacity="0"/>
<stop offset="1" stop-color="#D9B1EE"/>
</linearGradient>
<clipPath id="clip0_16_1286">
<rect width="50" height="50" fill="white"/>
</clipPath>
</defs>
</svg>
