<svg width="50" height="50" viewBox="0 0 50 50" fill="none" xmlns="http://www.w3.org/2000/svg">
<g clip-path="url(#clip0_16_1026)">
<path d="M45.6489 50H4.35107C1.94775 50 0 48.0522 0 45.6489V4.35107C0 1.94775 1.94775 0 4.35107 0H45.6489C48.0522 0 50 1.94775 50 4.35107V45.6489C50 48.0522 48.0522 50 45.6489 50Z" fill="url(#paint0_linear_16_1026)"/>
<path d="M0 41.1389V45.649C0 48.0523 1.94775 50 4.35107 50H45.6489C48.0522 50 50 48.0523 50 45.649V41.1389H0Z" fill="url(#paint1_linear_16_1026)"/>
<path d="M45.6489 0H4.35107C1.94775 0 0 1.94775 0 4.35107V9.9998H50V4.35107C50 1.94775 48.0522 0 45.6489 0Z" fill="url(#paint2_linear_16_1026)"/>
<path d="M0 11.2518H50V12.4416H0V11.2518Z" fill="url(#paint3_linear_16_1026)"/>
<path d="M35.9699 5C35.9699 5.88496 35.2523 6.60254 34.3674 6.60254C33.4824 6.60254 32.7648 5.88496 32.7648 5C32.7648 4.11504 33.4823 3.39746 34.3674 3.39746C35.2524 3.39746 35.9699 4.11494 35.9699 5Z" fill="url(#paint4_radial_16_1026)"/>
<path d="M41.0797 5C41.0797 5.88496 40.3622 6.60254 39.4772 6.60254C38.5921 6.60254 37.8746 5.88496 37.8746 5C37.8746 4.11504 38.5922 3.39746 39.4772 3.39746C40.3621 3.39746 41.0797 4.11494 41.0797 5Z" fill="url(#paint5_radial_16_1026)"/>
<path d="M46.1895 5C46.1895 5.88496 45.472 6.60254 44.5869 6.60254C43.7019 6.60254 42.9844 5.88496 42.9844 5C42.9844 4.11504 43.702 3.39746 44.5869 3.39746C45.4719 3.39746 46.1895 4.11494 46.1895 5Z" fill="url(#paint6_linear_16_1026)"/>
<path d="M50 45.6489V26.0627L42.773 18.8362C42.0216 17.8948 40.8649 17.2913 39.5664 17.2913H10.4336C8.16768 17.2913 6.33047 19.128 6.33047 21.3939V32.1869C6.33047 33.485 6.93438 34.6416 7.8754 35.3935L22.4824 50H45.6494C48.0522 50 50 48.0522 50 45.6489Z" fill="url(#paint7_linear_16_1026)"/>
<path d="M39.5664 36.2895H10.4336C8.16768 36.2895 6.33047 34.4528 6.33047 32.1865V21.3939C6.33047 19.128 8.16729 17.2913 10.4336 17.2913H39.5664C41.8323 17.2913 43.6695 19.128 43.6695 21.3939V32.1869C43.6695 34.4528 41.8327 36.2895 39.5664 36.2895Z" fill="url(#paint8_linear_16_1026)"/>
<path d="M10.8853 32.4512C10.8853 32.3807 10.8913 32.3281 10.9031 32.2926L14.4097 20.848C14.5591 20.4246 14.978 20.2129 15.665 20.2129C16.3643 20.2129 16.7889 20.4102 16.9392 20.8047L20.4353 32.2468C20.4587 32.3212 20.4704 32.3765 20.4704 32.4135C20.4704 32.6352 20.3331 32.8266 20.0588 32.9864C19.7846 33.1466 19.4935 33.2268 19.1864 33.2268C18.8145 33.2268 18.5841 33.099 18.4944 32.8427L17.7632 30.3135H13.4224L12.7003 32.8357C12.6179 33.0967 12.4005 33.2268 12.0483 33.2268C11.7664 33.2268 11.5021 33.1509 11.2553 32.9979C11.0088 32.8449 10.8852 32.6626 10.8852 32.4513L10.8853 32.4512ZM13.8474 28.83H17.3526L15.5822 22.7695L13.8474 28.83Z" fill="url(#paint9_linear_16_1026)"/>
<path d="M21.7217 32.6264V20.919C21.7217 20.7541 21.801 20.613 21.9601 20.4951C22.1191 20.3777 22.316 20.3185 22.5518 20.3185H25.6771C26.8776 20.3185 27.84 20.6366 28.5641 21.2722C29.2881 21.9077 29.6497 22.9026 29.6497 24.2565V29.2888C29.6497 30.6426 29.2881 31.6371 28.5641 32.2731C27.84 32.9085 26.8775 33.2263 25.6771 33.2263H22.5518C22.316 33.2263 22.1188 33.168 21.9601 33.0501C21.801 32.9325 21.7217 32.791 21.7217 32.6263V32.6264ZM23.5936 31.567H25.6771C27.0778 31.567 27.7782 30.8075 27.7782 29.2889V24.2566C27.7782 22.7379 27.0778 21.9787 25.6771 21.9787H23.5936V31.567Z" fill="url(#paint10_linear_16_1026)"/>
<path d="M31.1863 31.2843C31.1863 31.0607 31.2686 30.8372 31.4334 30.6132C31.5982 30.3897 31.7867 30.2776 31.9984 30.2776C32.1277 30.2776 32.2838 30.3535 32.4665 30.5042C32.6531 30.6591 32.8329 30.8221 33.0052 30.9928C33.1813 31.1679 33.4492 31.3308 33.8085 31.4819C34.1675 31.6326 34.5707 31.7081 35.0182 31.7081C35.6892 31.7081 36.2278 31.5483 36.6337 31.2286C37.0399 30.9092 37.2429 30.4416 37.2429 29.8262C37.2429 29.2583 37.0456 28.7849 36.6516 28.4061C36.2571 28.0277 35.7804 27.7255 35.2211 27.5004C34.6531 27.2719 34.0909 27.0292 33.535 26.7726C32.97 26.5121 32.4901 26.1218 32.0957 25.6011C31.7013 25.0804 31.5044 24.4292 31.5044 23.648C31.5044 23.0259 31.625 22.4857 31.8664 22.0275C32.1076 21.5695 32.4341 21.2173 32.8465 20.9705C33.2584 20.7237 33.691 20.5447 34.1442 20.4334C34.5975 20.322 35.0769 20.2659 35.5835 20.2659C35.9013 20.2659 36.2335 20.2865 36.5811 20.3269C36.9299 20.3683 37.2752 20.4356 37.6141 20.528C37.9555 20.621 38.2378 20.7549 38.4617 20.9296C38.6853 21.1044 38.797 21.3024 38.797 21.5232C38.797 21.7445 38.7265 21.9676 38.5853 22.1923C38.4441 22.4174 38.2553 22.5295 38.0203 22.5295C37.9024 22.5295 37.7434 22.4735 37.5435 22.361C37.3433 22.2484 37.0754 22.1363 36.7401 22.0237C36.4044 21.9112 36.0187 21.8551 35.5835 21.8551C34.9125 21.8551 34.3765 21.9886 33.9768 22.2545C33.5762 22.5211 33.3763 22.9263 33.3763 23.471C33.3763 23.8258 33.4819 24.1306 33.694 24.3851C33.9058 24.6395 34.1797 24.8497 34.515 25.0152C34.8507 25.1812 35.2241 25.344 35.6365 25.5035C36.0558 25.6666 36.4655 25.8533 36.8637 26.0627C37.2696 26.2756 37.6403 26.5212 37.9761 26.7998C38.3114 27.0774 38.5853 27.4593 38.797 27.9445C39.0091 28.4298 39.1151 28.992 39.1151 29.631C39.1151 30.8475 38.747 31.7746 38.0116 32.4119C37.2753 33.0494 36.3015 33.3679 35.0891 33.3679C34.0058 33.3679 33.0849 33.1414 32.3258 32.6881C31.5658 32.2349 31.1863 31.7672 31.1863 31.2843Z" fill="url(#paint11_linear_16_1026)"/>
</g>
<defs>
<linearGradient id="paint0_linear_16_1026" x1="16.2481" y1="16.2481" x2="50.7282" y2="50.7282" gradientUnits="userSpaceOnUse">
<stop stop-color="#FFFCF8"/>
<stop offset="0.188" stop-color="#FAF8F6"/>
<stop offset="0.404" stop-color="#ECEEF2"/>
<stop offset="0.635" stop-color="#D5DCEA"/>
<stop offset="0.875" stop-color="#B5C4DF"/>
<stop offset="1" stop-color="#A1B5D8"/>
</linearGradient>
<linearGradient id="paint1_linear_16_1026" x1="25" y1="46.2811" x2="25" y2="52.4573" gradientUnits="userSpaceOnUse">
<stop stop-color="#A1B5D8" stop-opacity="0"/>
<stop offset="0.034" stop-color="#9FB3D5" stop-opacity="0.035"/>
<stop offset="0.452" stop-color="#8898AF" stop-opacity="0.451"/>
<stop offset="0.788" stop-color="#798898" stop-opacity="0.788"/>
<stop offset="1" stop-color="#748290"/>
</linearGradient>
<linearGradient id="paint2_linear_16_1026" x1="25" y1="5.80293" x2="25" y2="12.773" gradientUnits="userSpaceOnUse">
<stop stop-color="#3B395F"/>
<stop offset="0.063" stop-color="#37355A"/>
<stop offset="0.403" stop-color="#232543"/>
<stop offset="0.723" stop-color="#171B35"/>
<stop offset="1" stop-color="#131830"/>
</linearGradient>
<linearGradient id="paint3_linear_16_1026" x1="25" y1="11.2516" x2="25" y2="12.4417" gradientUnits="userSpaceOnUse">
<stop stop-color="#FFFCF8"/>
<stop offset="0.188" stop-color="#FAF8F6"/>
<stop offset="0.404" stop-color="#ECEEF2"/>
<stop offset="0.635" stop-color="#D5DCEA"/>
<stop offset="0.875" stop-color="#B5C4DF"/>
<stop offset="1" stop-color="#A1B5D8"/>
</linearGradient>
<radialGradient id="paint4_radial_16_1026" cx="0" cy="0" r="1" gradientUnits="userSpaceOnUse" gradientTransform="translate(34.3674 5) scale(1.60254)">
<stop stop-color="#00E7B2"/>
<stop offset="0.352" stop-color="#03E6B1"/>
<stop offset="0.575" stop-color="#0BE1AF"/>
<stop offset="0.762" stop-color="#1ADAAA"/>
<stop offset="0.928" stop-color="#2FCFA4"/>
<stop offset="1" stop-color="#3AC9A0"/>
</radialGradient>
<radialGradient id="paint5_radial_16_1026" cx="0" cy="0" r="1" gradientUnits="userSpaceOnUse" gradientTransform="translate(38.8889 3.72549) scale(2.82793)">
<stop stop-color="#FFC738"/>
<stop offset="0.487" stop-color="#FFC636"/>
<stop offset="0.675" stop-color="#FFC22F"/>
<stop offset="0.81" stop-color="#FFBB23"/>
<stop offset="0.92" stop-color="#FFB112"/>
<stop offset="1" stop-color="#FFA700"/>
</radialGradient>
<linearGradient id="paint6_linear_16_1026" x1="43.8337" y1="3.49355" x2="45.2062" y2="6.23867" gradientUnits="userSpaceOnUse">
<stop stop-color="#FF4974"/>
<stop offset="0.326" stop-color="#FE4672"/>
<stop offset="0.532" stop-color="#FB3E6C"/>
<stop offset="0.705" stop-color="#F52F60"/>
<stop offset="0.859" stop-color="#EE1A51"/>
<stop offset="1" stop-color="#E4003D"/>
</linearGradient>
<linearGradient id="paint7_linear_16_1026" x1="32.7694" y1="41.5657" x2="18.8479" y2="5.09507" gradientUnits="userSpaceOnUse">
<stop stop-color="#A1B5D8" stop-opacity="0"/>
<stop offset="0.034" stop-color="#9FB3D5" stop-opacity="0.035"/>
<stop offset="0.452" stop-color="#8898AF" stop-opacity="0.451"/>
<stop offset="0.788" stop-color="#798898" stop-opacity="0.788"/>
<stop offset="1" stop-color="#748290"/>
</linearGradient>
<linearGradient id="paint8_linear_16_1026" x1="18.1536" y1="15.039" x2="31.2908" y2="37.588" gradientUnits="userSpaceOnUse">
<stop stop-color="#FF4974"/>
<stop offset="0.326" stop-color="#FE4672"/>
<stop offset="0.532" stop-color="#FB3E6C"/>
<stop offset="0.705" stop-color="#F52F60"/>
<stop offset="0.859" stop-color="#EE1A51"/>
<stop offset="1" stop-color="#E4003D"/>
</linearGradient>
<linearGradient id="paint9_linear_16_1026" x1="15.6779" y1="24.2788" x2="15.6779" y2="36.254" gradientUnits="userSpaceOnUse">
<stop stop-color="#FFC738"/>
<stop offset="0.429" stop-color="#FFBB23"/>
<stop offset="1" stop-color="#FFA700"/>
</linearGradient>
<linearGradient id="paint10_linear_16_1026" x1="25.6858" y1="24.2788" x2="25.6858" y2="36.254" gradientUnits="userSpaceOnUse">
<stop stop-color="#FFC738"/>
<stop offset="0.429" stop-color="#FFBB23"/>
<stop offset="1" stop-color="#FFA700"/>
</linearGradient>
<linearGradient id="paint11_linear_16_1026" x1="35.1504" y1="24.2788" x2="35.1504" y2="36.254" gradientUnits="userSpaceOnUse">
<stop stop-color="#FFC738"/>
<stop offset="0.429" stop-color="#FFBB23"/>
<stop offset="1" stop-color="#FFA700"/>
</linearGradient>
<clipPath id="clip0_16_1026">
<rect width="50" height="50" fill="white"/>
</clipPath>
</defs>
</svg>
