<svg width="50" height="50" viewBox="0 0 50 50" fill="none" xmlns="http://www.w3.org/2000/svg">
<g clip-path="url(#clip0_17_1697)">
<path d="M50 11.1523V44.4043C50 45.6348 49.0039 46.6309 47.7734 46.6309H2.22656C0.996094 46.6211 0 45.625 0 44.4043V11.1523L25 7.26562L50 11.1523Z" fill="url(#paint0_linear_17_1697)"/>
<path d="M0 34.0723V44.4043C0 45.6348 0.996094 46.6309 2.22656 46.6309H47.7832C49.0137 46.6309 50.0098 45.6348 50.0098 44.4043V34.0723H0Z" fill="url(#paint1_linear_17_1697)"/>
<path d="M4.20898 32.1875L18.6523 46.6211H47.7734C49.0039 46.6211 50 45.625 50 44.3945V32.1875H4.20898Z" fill="url(#paint2_linear_17_1697)"/>
<path d="M0 11.1523V21.2598H50V11.1523L25 7.26562L0 11.1523Z" fill="url(#paint3_linear_17_1697)"/>
<path d="M50 11.1523V44.4043C50 45.6348 49.0039 46.6309 47.7734 46.6309H22.9492V7.57812L25 7.25586L50 11.1523Z" fill="url(#paint4_linear_17_1697)"/>
<path d="M47.7734 3.37891H2.22656C0.996094 3.37891 0 4.375 0 5.5957V11.1426H50V5.5957C50 4.375 49.0039 3.37891 47.7734 3.37891Z" fill="url(#paint5_linear_17_1697)"/>
<path d="M0 5.94727H50V11.1426H0V5.94727Z" fill="url(#paint6_linear_17_1697)"/>
<path d="M50 5.5957V11.1426H22.9492V3.37891H47.7832C49.0039 3.37891 50 4.375 50 5.5957Z" fill="url(#paint7_linear_17_1697)"/>
<path d="M4.16992 9.12109H4.14063C3.125 9.12109 2.30469 8.29102 2.29492 7.27539V7.24609C2.29492 6.23047 3.125 5.41016 4.14063 5.40039H4.16992C5.18555 5.40039 6.00586 6.23047 6.01562 7.24609V7.27539C6.00586 8.29102 5.18555 9.12109 4.16992 9.12109Z" fill="url(#paint8_radial_17_1697)"/>
<path d="M4.16992 9.12109H4.14063C3.125 9.12109 2.30469 8.29102 2.29492 7.27539V7.24609C2.29492 6.23047 3.125 5.41016 4.14063 5.40039H4.16992C5.18555 5.40039 6.00586 6.23047 6.01562 7.24609V7.27539C6.00586 8.29102 5.18555 9.12109 4.16992 9.12109Z" fill="url(#paint9_radial_17_1697)"/>
<path d="M8.99414 9.12109H8.96484C7.94922 9.12109 7.12891 8.29102 7.11914 7.27539V7.24609C7.11914 6.23047 7.94922 5.41016 8.96484 5.40039H8.99414C10.0098 5.40039 10.8301 6.23047 10.8398 7.24609V7.27539C10.8301 8.29102 10.0098 9.12109 8.99414 9.12109Z" fill="url(#paint10_radial_17_1697)"/>
<path d="M8.99414 9.12109H8.96484C7.94922 9.12109 7.12891 8.29102 7.11914 7.27539V7.24609C7.11914 6.23047 7.94922 5.41016 8.96484 5.40039H8.99414C10.0098 5.40039 10.8301 6.23047 10.8398 7.24609V7.27539C10.8301 8.29102 10.0098 9.12109 8.99414 9.12109Z" fill="url(#paint11_radial_17_1697)"/>
<path d="M13.8184 9.12109H13.7891C12.7734 9.12109 11.9531 8.29102 11.9434 7.27539V7.24609C11.9434 6.23047 12.7734 5.41016 13.7891 5.40039H13.8184C14.834 5.40039 15.6543 6.23047 15.6641 7.24609V7.27539C15.6641 8.29102 14.834 9.12109 13.8184 9.12109Z" fill="url(#paint12_radial_17_1697)"/>
<path d="M13.8184 9.12109H13.7891C12.7734 9.12109 11.9531 8.29102 11.9434 7.27539V7.24609C11.9434 6.23047 12.7734 5.41016 13.7891 5.40039H13.8184C14.834 5.40039 15.6543 6.23047 15.6641 7.24609V7.27539C15.6641 8.29102 14.834 9.12109 13.8184 9.12109Z" fill="url(#paint13_radial_17_1697)"/>
<path d="M45.8105 20.2344L29.541 40.5273L35.6348 46.6211H47.7734C49.0039 46.6211 50 45.625 50 44.3945V24.4238L45.8105 20.2344Z" fill="url(#paint14_linear_17_1697)"/>
<path d="M6.20117 19.375H43.8086C45.3418 19.375 46.5918 20.6152 46.5918 22.1582V30.2441C46.5918 31.7773 45.3516 33.0273 43.8086 33.0273H6.20117C4.66797 33.0273 3.41797 31.7871 3.41797 30.2441V22.1582C3.41797 20.6152 4.6582 19.375 6.20117 19.375Z" fill="url(#paint15_linear_17_1697)"/>
<path d="M34.3066 26.6797C34.0527 26.6797 33.8184 26.6504 33.6035 26.6016C33.3887 26.543 33.2031 26.4551 33.0469 26.3281C32.8906 26.2012 32.7637 26.0352 32.6758 25.8301C32.5879 25.625 32.5391 25.3809 32.5391 25.0879V23.418C32.5391 23.125 32.5879 22.8809 32.6758 22.6758C32.7637 22.4707 32.8906 22.3047 33.0469 22.1777C33.2031 22.0508 33.3887 21.9629 33.6035 21.9043C33.8184 21.8457 34.0527 21.8262 34.3066 21.8262C34.5508 21.8262 34.7754 21.8555 34.9902 21.9043C35.2051 21.9629 35.3906 22.0508 35.5566 22.1777C35.7129 22.3047 35.8398 22.4707 35.9375 22.6758C36.0254 22.8809 36.0742 23.125 36.0742 23.418V25.0879C36.0742 25.3809 36.0254 25.625 35.9375 25.8301C35.8496 26.0352 35.7227 26.2012 35.5566 26.3281C35.4004 26.4551 35.2051 26.543 34.9902 26.6016C34.7852 26.6504 34.5508 26.6797 34.3066 26.6797ZM34.9023 23.418C34.9023 23.2227 34.8535 23.0762 34.7461 22.9883C34.6387 22.9004 34.502 22.8516 34.3164 22.8516C33.9355 22.8516 33.7402 23.0371 33.7402 23.418V25.0879C33.7402 25.4687 33.9355 25.6543 34.3164 25.6543C34.4922 25.6543 34.6387 25.6055 34.7461 25.5176C34.8535 25.4297 34.9023 25.2832 34.9023 25.0879V23.418ZM39.0234 21.3477C39.1895 21.3477 39.3457 21.4062 39.4922 21.5137C39.6387 21.6309 39.7168 21.7773 39.7168 21.9629C39.7168 22.0508 39.6973 22.1191 39.668 22.1875L35.5273 30.6641C35.4883 30.752 35.4199 30.8203 35.3125 30.8789C35.2148 30.9375 35.1074 30.957 34.9902 30.957C34.7852 30.957 34.6289 30.8887 34.5117 30.7617C34.3945 30.625 34.3359 30.4883 34.3359 30.3418C34.3359 30.2734 34.3555 30.1953 34.3945 30.1172L38.5254 21.6406C38.5742 21.543 38.6426 21.4648 38.7207 21.416C38.8184 21.377 38.916 21.3477 39.0234 21.3477ZM39.707 30.459C39.4531 30.459 39.2187 30.4297 39.0039 30.3809C38.7891 30.3223 38.6035 30.2344 38.4473 30.1074C38.291 29.9805 38.1641 29.8145 38.0762 29.6094C37.9883 29.4043 37.9395 29.1602 37.9395 28.8672V27.1973C37.9395 26.9043 37.9883 26.6602 38.0762 26.4551C38.1641 26.25 38.291 26.084 38.4473 25.957C38.6035 25.8301 38.7891 25.7422 39.0039 25.6836C39.2187 25.625 39.4531 25.6055 39.707 25.6055C39.9512 25.6055 40.1758 25.6348 40.3906 25.6836C40.6055 25.7422 40.791 25.8301 40.957 25.957C41.1133 26.084 41.2402 26.25 41.3379 26.4551C41.4258 26.6602 41.4746 26.9043 41.4746 27.1973V28.8672C41.4746 29.1602 41.4258 29.4043 41.3379 29.6094C41.25 29.8145 41.123 29.9805 40.957 30.1074C40.8008 30.2344 40.6055 30.3223 40.3906 30.3809C40.1758 30.4297 39.9512 30.459 39.707 30.459ZM40.293 27.207C40.293 27.0117 40.2441 26.8652 40.1367 26.7773C40.0293 26.6895 39.8926 26.6406 39.707 26.6406C39.3262 26.6406 39.1309 26.8262 39.1309 27.207V28.877C39.1309 29.2578 39.3262 29.4434 39.707 29.4434C39.8828 29.4434 40.0293 29.3945 40.1367 29.3066C40.2441 29.2188 40.293 29.0723 40.293 28.877V27.207Z" fill="url(#paint16_linear_17_1697)"/>
<path d="M12.9395 24.3262C12.9395 24.2383 12.9297 24.1309 12.9102 23.9941C12.8906 23.8672 12.8418 23.7305 12.7637 23.6035C12.6855 23.4766 12.5684 23.3691 12.4121 23.2715C12.2559 23.1836 12.041 23.1348 11.7578 23.1348C11.377 23.1348 11.0938 23.2422 10.8789 23.457C10.6738 23.6719 10.5664 24.0039 10.5664 24.4531V27.9395C10.5664 28.3887 10.6738 28.7207 10.8789 28.9355C11.084 29.1504 11.377 29.2578 11.7676 29.2578C12.0313 29.2578 12.2363 29.2187 12.3828 29.1309C12.5293 29.043 12.6465 28.9355 12.7246 28.7988C12.8027 28.6719 12.8516 28.5254 12.8711 28.3691C12.8906 28.2129 12.9102 28.0762 12.9199 27.9395C12.9395 27.6953 13.0469 27.5293 13.2422 27.4414C13.4375 27.3535 13.6719 27.3145 13.9355 27.3145C14.2969 27.3145 14.5605 27.3828 14.7266 27.5098C14.8926 27.6367 14.9805 27.9004 14.9805 28.291C14.9805 28.7305 14.8926 29.1211 14.7266 29.4629C14.5605 29.8047 14.3262 30.0879 14.0332 30.3223C13.7305 30.5566 13.3887 30.7324 12.9883 30.8594C12.5879 30.9863 12.1484 31.0449 11.6797 31.0449C11.25 31.0449 10.8398 30.9863 10.459 30.8789C10.0781 30.7715 9.74609 30.5859 9.45313 30.3418C9.16016 30.0879 8.93555 29.7754 8.76953 29.3848C8.60352 28.9941 8.51562 28.5156 8.51562 27.9492V24.4629C8.51562 23.9063 8.60352 23.4277 8.76953 23.0273C8.93555 22.6367 9.16016 22.3145 9.45313 22.0605C9.74609 21.8066 10.0781 21.6309 10.459 21.5234C10.8398 21.416 11.25 21.3574 11.6797 21.3574C12.1484 21.3574 12.5879 21.416 12.9883 21.5332C13.3887 21.6504 13.7402 21.8164 14.0332 22.041C14.3359 22.2656 14.5605 22.5391 14.7266 22.8613C14.8926 23.1836 14.9805 23.5547 14.9805 23.9746C14.9805 24.3652 14.8926 24.6289 14.7266 24.7559C14.5605 24.8828 14.2969 24.9512 13.9551 24.9512C13.6719 24.9512 13.4375 24.9121 13.2422 24.8242C13.0566 24.7266 12.959 24.5605 12.9395 24.3262Z" fill="url(#paint17_linear_17_1697)"/>
<path d="M21.7285 21.3477C21.9434 21.3477 22.1094 21.4453 22.1973 21.6406C22.2949 21.8359 22.3438 22.041 22.3438 22.2559C22.3438 22.5098 22.2949 22.7246 22.1875 22.9102C22.0801 23.0957 21.9238 23.1836 21.7285 23.1836H19.9121V30.3223C19.9121 30.5371 19.8047 30.6934 19.5898 30.791C19.375 30.8984 19.1406 30.9473 18.8867 30.9473C18.6328 30.9473 18.3984 30.8984 18.1836 30.791C17.9687 30.6836 17.8613 30.5273 17.8613 30.3223V23.1836H16.0449C15.8398 23.1836 15.6934 23.0957 15.5859 22.9102C15.4785 22.7246 15.4297 22.5098 15.4297 22.2559C15.4297 22.041 15.4785 21.8262 15.5762 21.6406C15.6738 21.4453 15.8301 21.3477 16.0449 21.3477H21.7285Z" fill="url(#paint18_linear_17_1697)"/>
<path d="M23.1543 21.9727C23.1543 21.8066 23.2129 21.6602 23.3301 21.543C23.4473 21.416 23.5938 21.3574 23.7891 21.3574H26.5137C26.9629 21.3574 27.3828 21.4063 27.7734 21.4941C28.1641 21.582 28.5156 21.7383 28.8086 21.9629C29.1016 22.1777 29.3359 22.4707 29.502 22.832C29.668 23.1934 29.7559 23.6426 29.7559 24.1699C29.7559 24.9023 29.6094 25.4883 29.3066 25.9277C29.0039 26.3574 28.623 26.6699 28.1641 26.8457L29.7656 29.7559C29.8047 29.8242 29.834 29.9023 29.834 29.9902C29.834 30.1172 29.7949 30.2539 29.7168 30.3809C29.6387 30.5078 29.541 30.625 29.4141 30.7227C29.2871 30.8203 29.1504 30.9082 29.0039 30.9668C28.8477 31.0254 28.7012 31.0547 28.5547 31.0547C28.4277 31.0547 28.3008 31.0254 28.1836 30.9668C28.0664 30.9082 27.9688 30.8105 27.9004 30.6738L26.0742 27.168H25.2051V30.3418C25.2051 30.5566 25.0977 30.7129 24.8828 30.8105C24.668 30.918 24.4336 30.9668 24.1797 30.9668C23.9258 30.9668 23.6914 30.918 23.4766 30.8105C23.2617 30.7031 23.1543 30.5469 23.1543 30.3418V21.9727ZM25.2148 23.1348V25.5859H26.5137C26.8848 25.5859 27.168 25.498 27.3828 25.3223C27.5977 25.1465 27.6953 24.8242 27.6953 24.3652C27.6953 23.8965 27.5879 23.584 27.3828 23.4082C27.168 23.2324 26.8848 23.1445 26.5137 23.1445L25.2148 23.1348Z" fill="url(#paint19_linear_17_1697)"/>
<path d="M3.41797 25.0781V30.2441C3.41797 31.7773 4.6582 33.0273 6.20117 33.0273H43.8086C45.3418 33.0273 46.5918 31.7871 46.5918 30.2441V25.0781H3.41797Z" fill="url(#paint20_linear_17_1697)"/>
<path d="M3.41797 25.0781V30.2441C3.41797 31.7773 4.6582 33.0273 6.20117 33.0273H43.8086C45.3418 33.0273 46.5918 31.7871 46.5918 30.2441V25.0781H3.41797Z" fill="url(#paint21_linear_17_1697)"/>
<path d="M43.7988 19.375H30.3418V33.0176H43.7988C45.332 33.0176 46.582 31.7773 46.582 30.2344V22.1484C46.582 20.6152 45.3418 19.375 43.7988 19.375Z" fill="url(#paint22_linear_17_1697)"/>
<path d="M37.6074 30.7324L28.7793 28.9257C27.7246 28.7109 26.7871 29.6386 27.002 30.7031L28.8086 39.5312C29.0527 40.7031 30.498 41.1425 31.3477 40.2929L33.0566 38.5839L36.416 43.0371C36.6992 43.4179 37.2559 43.457 37.5977 43.1152L41.2012 39.5117C41.5332 39.1796 41.4941 38.623 41.123 38.33L36.6699 34.9706L38.3789 33.2617C39.2188 32.4218 38.7891 30.9667 37.6074 30.7324Z" fill="url(#paint23_linear_17_1697)"/>
<path d="M37.5977 43.1152L41.2012 39.5117C41.5332 39.1797 41.4941 38.623 41.123 38.3301L36.6699 34.9707L33.0566 38.5742L36.416 43.0273C36.709 43.418 37.2656 43.457 37.5977 43.1152Z" fill="url(#paint24_linear_17_1697)"/>
<path d="M36.6699 34.9707L38.3789 33.2617C39.2285 32.4121 38.7891 30.9668 37.6172 30.7227L31.084 29.3945L36.6699 34.9707Z" fill="url(#paint25_linear_17_1697)"/>
<path d="M28.8184 39.5215C29.0625 40.6934 30.5078 41.1328 31.3574 40.2832L33.0664 38.5742L27.4902 32.998L28.8184 39.5215Z" fill="url(#paint26_linear_17_1697)"/>
</g>
<defs>
<linearGradient id="paint0_linear_17_1697" x1="20.7339" y1="10.9817" x2="29.6448" y2="46.3469" gradientUnits="userSpaceOnUse">
<stop stop-color="#F3FAFF"/>
<stop offset="1" stop-color="#D5DAF3"/>
</linearGradient>
<linearGradient id="paint1_linear_17_1697" x1="25" y1="40.6164" x2="25" y2="46.9065" gradientUnits="userSpaceOnUse">
<stop stop-color="#DBD5EF" stop-opacity="0"/>
<stop offset="0.267" stop-color="#D8D2EC" stop-opacity="0.023"/>
<stop offset="0.443" stop-color="#D1C9E2" stop-opacity="0.098"/>
<stop offset="0.593" stop-color="#C4B9D1" stop-opacity="0.225"/>
<stop offset="0.729" stop-color="#B2A4BA" stop-opacity="0.405"/>
<stop offset="0.855" stop-color="#9A889C" stop-opacity="0.638"/>
<stop offset="0.971" stop-color="#7E6678" stop-opacity="0.92"/>
<stop offset="1" stop-color="#765D6E"/>
</linearGradient>
<linearGradient id="paint2_linear_17_1697" x1="27.6925" y1="33.3699" x2="22.7845" y2="23.4496" gradientUnits="userSpaceOnUse">
<stop stop-color="#DBD5EF" stop-opacity="0"/>
<stop offset="0.267" stop-color="#D8D2EC" stop-opacity="0.023"/>
<stop offset="0.443" stop-color="#D1C9E2" stop-opacity="0.098"/>
<stop offset="0.593" stop-color="#C4B9D1" stop-opacity="0.225"/>
<stop offset="0.729" stop-color="#B2A4BA" stop-opacity="0.405"/>
<stop offset="0.855" stop-color="#9A889C" stop-opacity="0.638"/>
<stop offset="0.971" stop-color="#7E6678" stop-opacity="0.92"/>
<stop offset="1" stop-color="#765D6E"/>
</linearGradient>
<linearGradient id="paint3_linear_17_1697" x1="25" y1="15.8329" x2="25" y2="10.2602" gradientUnits="userSpaceOnUse">
<stop stop-color="#DBD5EF" stop-opacity="0"/>
<stop offset="0.267" stop-color="#D8D2EC" stop-opacity="0.023"/>
<stop offset="0.443" stop-color="#D1C9E2" stop-opacity="0.098"/>
<stop offset="0.593" stop-color="#C4B9D1" stop-opacity="0.225"/>
<stop offset="0.729" stop-color="#B2A4BA" stop-opacity="0.405"/>
<stop offset="0.855" stop-color="#9A889C" stop-opacity="0.638"/>
<stop offset="0.971" stop-color="#7E6678" stop-opacity="0.92"/>
<stop offset="1" stop-color="#765D6E"/>
</linearGradient>
<linearGradient id="paint4_linear_17_1697" x1="43.5073" y1="26.9429" x2="50.4814" y2="26.9429" gradientUnits="userSpaceOnUse">
<stop stop-color="#DBD5EF" stop-opacity="0"/>
<stop offset="0.267" stop-color="#D8D2EC" stop-opacity="0.023"/>
<stop offset="0.443" stop-color="#D1C9E2" stop-opacity="0.098"/>
<stop offset="0.593" stop-color="#C4B9D1" stop-opacity="0.225"/>
<stop offset="0.729" stop-color="#B2A4BA" stop-opacity="0.405"/>
<stop offset="0.855" stop-color="#9A889C" stop-opacity="0.638"/>
<stop offset="0.971" stop-color="#7E6678" stop-opacity="0.92"/>
<stop offset="1" stop-color="#765D6E"/>
</linearGradient>
<linearGradient id="paint5_linear_17_1697" x1="23.9864" y1="1.50742" x2="25.7965" y2="13.6207" gradientUnits="userSpaceOnUse">
<stop stop-color="#C8EFFE"/>
<stop offset="0.103" stop-color="#C0EDFD"/>
<stop offset="0.258" stop-color="#ABEAFD"/>
<stop offset="0.447" stop-color="#89E5FD"/>
<stop offset="0.661" stop-color="#5ADDFC"/>
<stop offset="0.895" stop-color="#1ED4FB"/>
<stop offset="1" stop-color="#01D0FB"/>
</linearGradient>
<linearGradient id="paint6_linear_17_1697" x1="25" y1="8.1752" x2="25" y2="11.656" gradientUnits="userSpaceOnUse">
<stop stop-color="#0290CF" stop-opacity="0"/>
<stop offset="0.219" stop-color="#0290CF" stop-opacity="0.013"/>
<stop offset="0.364" stop-color="#0290CF" stop-opacity="0.056"/>
<stop offset="0.487" stop-color="#0290CF" stop-opacity="0.128"/>
<stop offset="0.599" stop-color="#0290CF" stop-opacity="0.231"/>
<stop offset="0.702" stop-color="#0290CF" stop-opacity="0.364"/>
<stop offset="0.799" stop-color="#0290CF" stop-opacity="0.528"/>
<stop offset="0.892" stop-color="#0290CF" stop-opacity="0.722"/>
<stop offset="0.979" stop-color="#0290CF" stop-opacity="0.941"/>
<stop offset="1" stop-color="#0290CF"/>
</linearGradient>
<linearGradient id="paint7_linear_17_1697" x1="45.0389" y1="7.26221" x2="50.0532" y2="7.26221" gradientUnits="userSpaceOnUse">
<stop stop-color="#0290CF" stop-opacity="0"/>
<stop offset="0.219" stop-color="#0290CF" stop-opacity="0.013"/>
<stop offset="0.364" stop-color="#0290CF" stop-opacity="0.056"/>
<stop offset="0.487" stop-color="#0290CF" stop-opacity="0.128"/>
<stop offset="0.599" stop-color="#0290CF" stop-opacity="0.231"/>
<stop offset="0.702" stop-color="#0290CF" stop-opacity="0.364"/>
<stop offset="0.799" stop-color="#0290CF" stop-opacity="0.528"/>
<stop offset="0.892" stop-color="#0290CF" stop-opacity="0.722"/>
<stop offset="0.979" stop-color="#0290CF" stop-opacity="0.941"/>
<stop offset="1" stop-color="#0290CF"/>
</linearGradient>
<radialGradient id="paint8_radial_17_1697" cx="0" cy="0" r="1" gradientUnits="userSpaceOnUse" gradientTransform="translate(3.84873 6.78867) scale(1.98457)">
<stop stop-color="#FD4755"/>
<stop offset="1" stop-color="#A72B2B"/>
</radialGradient>
<radialGradient id="paint9_radial_17_1697" cx="0" cy="0" r="1" gradientUnits="userSpaceOnUse" gradientTransform="translate(3.51025 6.7958) scale(2.68936)">
<stop stop-color="#C41926" stop-opacity="0"/>
<stop offset="0.156" stop-color="#C01926" stop-opacity="0.036"/>
<stop offset="0.309" stop-color="#B71C26" stop-opacity="0.144"/>
<stop offset="0.46" stop-color="#A72126" stop-opacity="0.325"/>
<stop offset="0.612" stop-color="#912826" stop-opacity="0.579"/>
<stop offset="0.761" stop-color="#753026" stop-opacity="0.903"/>
<stop offset="0.8" stop-color="#6D3326"/>
<stop offset="0.84" stop-color="#703226" stop-opacity="0.966"/>
<stop offset="0.878" stop-color="#792F26" stop-opacity="0.861"/>
<stop offset="0.915" stop-color="#882A26" stop-opacity="0.685"/>
<stop offset="0.952" stop-color="#9D2426" stop-opacity="0.439"/>
<stop offset="0.988" stop-color="#B91C26" stop-opacity="0.124"/>
<stop offset="1" stop-color="#C41926" stop-opacity="0"/>
</radialGradient>
<radialGradient id="paint10_radial_17_1697" cx="0" cy="0" r="1" gradientUnits="userSpaceOnUse" gradientTransform="translate(8.6752 6.78867) scale(1.98457)">
<stop stop-color="#FEF0AE"/>
<stop offset="1" stop-color="#FAC600"/>
</radialGradient>
<radialGradient id="paint11_radial_17_1697" cx="0" cy="0" r="1" gradientUnits="userSpaceOnUse" gradientTransform="translate(8.33672 6.7958) scale(2.68936)">
<stop stop-color="#FE9738" stop-opacity="0"/>
<stop offset="0.766" stop-color="#FE9738"/>
<stop offset="0.797" stop-color="#FE9738" stop-opacity="0.985"/>
<stop offset="0.827" stop-color="#FE9738" stop-opacity="0.94"/>
<stop offset="0.856" stop-color="#FE9738" stop-opacity="0.865"/>
<stop offset="0.885" stop-color="#FE9738" stop-opacity="0.759"/>
<stop offset="0.913" stop-color="#FE9738" stop-opacity="0.622"/>
<stop offset="0.941" stop-color="#FE9738" stop-opacity="0.454"/>
<stop offset="0.969" stop-color="#FE9738" stop-opacity="0.256"/>
<stop offset="0.996" stop-color="#FE9738" stop-opacity="0.032"/>
<stop offset="1" stop-color="#FE9738" stop-opacity="0"/>
</radialGradient>
<radialGradient id="paint12_radial_17_1697" cx="0" cy="0" r="1" gradientUnits="userSpaceOnUse" gradientTransform="translate(13.5017 6.78867) scale(1.98457)">
<stop stop-color="#BBEC6C"/>
<stop offset="1" stop-color="#78A91F"/>
</radialGradient>
<radialGradient id="paint13_radial_17_1697" cx="0" cy="0" r="1" gradientUnits="userSpaceOnUse" gradientTransform="translate(13.1632 6.7958) scale(2.68935)">
<stop stop-color="#334C0F" stop-opacity="0"/>
<stop offset="0.287" stop-color="#334C0F" stop-opacity="0.03"/>
<stop offset="0.435" stop-color="#334C0F" stop-opacity="0.132"/>
<stop offset="0.551" stop-color="#334C0F" stop-opacity="0.308"/>
<stop offset="0.65" stop-color="#334C0F" stop-opacity="0.557"/>
<stop offset="0.738" stop-color="#334C0F" stop-opacity="0.877"/>
<stop offset="0.766" stop-color="#334C0F"/>
<stop offset="0.822" stop-color="#334C0F" stop-opacity="0.951"/>
<stop offset="0.875" stop-color="#334C0F" stop-opacity="0.8"/>
<stop offset="0.926" stop-color="#334C0F" stop-opacity="0.548"/>
<stop offset="0.977" stop-color="#334C0F" stop-opacity="0.198"/>
<stop offset="1" stop-color="#334C0F" stop-opacity="0"/>
</radialGradient>
<linearGradient id="paint14_linear_17_1697" x1="46.4844" y1="38.1391" x2="37.063" y2="30.4349" gradientUnits="userSpaceOnUse">
<stop stop-color="#DBD5EF" stop-opacity="0"/>
<stop offset="0.267" stop-color="#D8D2EC" stop-opacity="0.023"/>
<stop offset="0.443" stop-color="#D1C9E2" stop-opacity="0.098"/>
<stop offset="0.593" stop-color="#C4B9D1" stop-opacity="0.225"/>
<stop offset="0.729" stop-color="#B2A4BA" stop-opacity="0.405"/>
<stop offset="0.855" stop-color="#9A889C" stop-opacity="0.638"/>
<stop offset="0.971" stop-color="#7E6678" stop-opacity="0.92"/>
<stop offset="1" stop-color="#765D6E"/>
</linearGradient>
<linearGradient id="paint15_linear_17_1697" x1="24.043" y1="20.6606" x2="25.9922" y2="31.9385" gradientUnits="userSpaceOnUse">
<stop stop-color="#FD4755"/>
<stop offset="1" stop-color="#A72B2B"/>
</linearGradient>
<linearGradient id="paint16_linear_17_1697" x1="40.183" y1="36.229" x2="35.2344" y2="20.5125" gradientUnits="userSpaceOnUse">
<stop stop-color="white" stop-opacity="0"/>
<stop offset="0.092" stop-color="white" stop-opacity="0.024"/>
<stop offset="0.218" stop-color="white" stop-opacity="0.092"/>
<stop offset="0.362" stop-color="white" stop-opacity="0.203"/>
<stop offset="0.52" stop-color="white" stop-opacity="0.359"/>
<stop offset="0.69" stop-color="white" stop-opacity="0.559"/>
<stop offset="0.866" stop-color="white" stop-opacity="0.798"/>
<stop offset="1" stop-color="white"/>
</linearGradient>
<linearGradient id="paint17_linear_17_1697" x1="11.7598" y1="38.8767" x2="11.7598" y2="20.7741" gradientUnits="userSpaceOnUse">
<stop stop-color="white" stop-opacity="0"/>
<stop offset="0.092" stop-color="white" stop-opacity="0.024"/>
<stop offset="0.218" stop-color="white" stop-opacity="0.092"/>
<stop offset="0.362" stop-color="white" stop-opacity="0.203"/>
<stop offset="0.52" stop-color="white" stop-opacity="0.359"/>
<stop offset="0.69" stop-color="white" stop-opacity="0.559"/>
<stop offset="0.866" stop-color="white" stop-opacity="0.798"/>
<stop offset="1" stop-color="white"/>
</linearGradient>
<linearGradient id="paint18_linear_17_1697" x1="18.8828" y1="38.8767" x2="18.8828" y2="20.7741" gradientUnits="userSpaceOnUse">
<stop stop-color="white" stop-opacity="0"/>
<stop offset="0.092" stop-color="white" stop-opacity="0.024"/>
<stop offset="0.218" stop-color="white" stop-opacity="0.092"/>
<stop offset="0.362" stop-color="white" stop-opacity="0.203"/>
<stop offset="0.52" stop-color="white" stop-opacity="0.359"/>
<stop offset="0.69" stop-color="white" stop-opacity="0.559"/>
<stop offset="0.866" stop-color="white" stop-opacity="0.798"/>
<stop offset="1" stop-color="white"/>
</linearGradient>
<linearGradient id="paint19_linear_17_1697" x1="26.4925" y1="38.8767" x2="26.4925" y2="20.7741" gradientUnits="userSpaceOnUse">
<stop stop-color="white" stop-opacity="0"/>
<stop offset="0.092" stop-color="white" stop-opacity="0.024"/>
<stop offset="0.218" stop-color="white" stop-opacity="0.092"/>
<stop offset="0.362" stop-color="white" stop-opacity="0.203"/>
<stop offset="0.52" stop-color="white" stop-opacity="0.359"/>
<stop offset="0.69" stop-color="white" stop-opacity="0.559"/>
<stop offset="0.866" stop-color="white" stop-opacity="0.798"/>
<stop offset="1" stop-color="white"/>
</linearGradient>
<linearGradient id="paint20_linear_17_1697" x1="25" y1="29.9264" x2="25" y2="32.6637" gradientUnits="userSpaceOnUse">
<stop stop-color="#C41926" stop-opacity="0"/>
<stop offset="0.162" stop-color="#BF1A26" stop-opacity="0.051"/>
<stop offset="0.371" stop-color="#B21E26" stop-opacity="0.198"/>
<stop offset="0.605" stop-color="#9D2426" stop-opacity="0.441"/>
<stop offset="0.856" stop-color="#802D26" stop-opacity="0.776"/>
<stop offset="1" stop-color="#6D3326"/>
</linearGradient>
<linearGradient id="paint21_linear_17_1697" x1="25.1469" y1="30.4371" x2="25.3558" y2="34.3356" gradientUnits="userSpaceOnUse">
<stop stop-color="#FD4755" stop-opacity="0"/>
<stop offset="0.093" stop-color="#FD4755" stop-opacity="0.024"/>
<stop offset="0.219" stop-color="#FD4755" stop-opacity="0.093"/>
<stop offset="0.364" stop-color="#FD4755" stop-opacity="0.205"/>
<stop offset="0.523" stop-color="#FD4755" stop-opacity="0.362"/>
<stop offset="0.693" stop-color="#FD4755" stop-opacity="0.563"/>
<stop offset="0.871" stop-color="#FD4755" stop-opacity="0.805"/>
<stop offset="1" stop-color="#FD4755"/>
</linearGradient>
<linearGradient id="paint22_linear_17_1697" x1="42.3625" y1="26.198" x2="46.4003" y2="26.198" gradientUnits="userSpaceOnUse">
<stop stop-color="#C41926" stop-opacity="0"/>
<stop offset="0.162" stop-color="#BF1A26" stop-opacity="0.051"/>
<stop offset="0.371" stop-color="#B21E26" stop-opacity="0.198"/>
<stop offset="0.605" stop-color="#9D2426" stop-opacity="0.441"/>
<stop offset="0.856" stop-color="#802D26" stop-opacity="0.776"/>
<stop offset="1" stop-color="#6D3326"/>
</linearGradient>
<linearGradient id="paint23_linear_17_1697" x1="34.2053" y1="31.9776" x2="34.2053" y2="39.4903" gradientUnits="userSpaceOnUse">
<stop stop-color="#5A5A5A"/>
<stop offset="1" stop-color="#444444"/>
</linearGradient>
<linearGradient id="paint24_linear_17_1697" x1="37.9236" y1="39.8372" x2="39.2271" y2="41.1406" gradientUnits="userSpaceOnUse">
<stop stop-color="#433F43" stop-opacity="0"/>
<stop offset="0.411" stop-color="#373537" stop-opacity="0.269"/>
<stop offset="1" stop-color="#1A1A1A"/>
</linearGradient>
<linearGradient id="paint25_linear_17_1697" x1="36.1529" y1="31.6889" x2="38.0243" y2="33.5602" gradientUnits="userSpaceOnUse">
<stop stop-color="#433F43" stop-opacity="0"/>
<stop offset="0.411" stop-color="#373537" stop-opacity="0.269"/>
<stop offset="1" stop-color="#1A1A1A"/>
</linearGradient>
<linearGradient id="paint26_linear_17_1697" x1="29.7754" y1="38.0665" x2="31.6467" y2="39.9378" gradientUnits="userSpaceOnUse">
<stop stop-color="#433F43" stop-opacity="0"/>
<stop offset="0.411" stop-color="#373537" stop-opacity="0.269"/>
<stop offset="1" stop-color="#1A1A1A"/>
</linearGradient>
<clipPath id="clip0_17_1697">
<rect width="50" height="50" fill="white"/>
</clipPath>
</defs>
</svg>
