<svg width="60" height="19" viewBox="0 0 60 19" fill="none" xmlns="http://www.w3.org/2000/svg">
<path d="M55.6988 0.499023H51.9898C50.8684 0.499023 50.0059 0.841881 49.4883 1.95617L42.4152 17.9847H47.4181C47.4181 17.9847 48.2807 15.8419 48.4532 15.3276C48.9708 15.3276 53.8874 15.3276 54.5775 15.3276C54.75 15.9276 55.1813 17.899 55.1813 17.899H59.6667L55.6988 0.499023ZM49.8333 11.7276C50.2646 10.699 51.731 6.84188 51.731 6.84188C51.731 6.9276 52.1623 5.81331 52.3348 5.21331L52.6798 6.75617C52.6798 6.75617 53.6287 10.9562 53.8012 11.8133H49.8333V11.7276Z" fill="#3362AB"/>
<path d="M42.7603 12.2422C42.7603 15.8422 39.4825 18.2422 34.3933 18.2422C32.2369 18.2422 30.1667 17.8136 29.0453 17.2993L29.7354 13.3565L30.3392 13.6136C31.8918 14.2993 32.9269 14.5565 34.8246 14.5565C36.2047 14.5565 37.6711 14.0422 37.6711 12.8422C37.6711 12.0708 37.0673 11.5565 35.1696 10.6993C33.3582 9.84219 30.943 8.47076 30.943 5.98504C30.943 2.55647 34.307 0.242188 39.0512 0.242188C40.8626 0.242188 42.4152 0.585045 43.3641 1.01362L42.674 4.78504L42.329 4.44219C41.4664 4.09933 40.3451 3.75647 38.7062 3.75647C36.8948 3.84219 36.0322 4.61362 36.0322 5.29933C36.0322 6.07076 37.0673 6.67076 38.7062 7.44219C41.4664 8.7279 42.7603 10.185 42.7603 12.2422Z" fill="#3362AB"/>
<path d="M0.666687 0.670006L0.752944 0.327148H8.17107C9.20616 0.327148 9.98248 0.670006 10.2412 1.78429L11.8801 9.49858C10.2412 5.38429 6.44593 2.04143 0.666687 0.670006Z" fill="#F9B50B"/>
<path d="M22.3173 0.499777L14.8129 17.8998H9.72369L5.41083 3.32835C8.51609 5.29978 11.1038 8.38549 12.0526 10.5283L12.5702 12.3283L17.2281 0.414062H22.3173V0.499777Z" fill="#3362AB"/>
<path d="M24.3012 0.414062H29.0453L26.0263 17.8998H21.2822L24.3012 0.414062Z" fill="#3362AB"/>
</svg>
