<svg width="60" height="60" viewBox="0 0 60 60" fill="none" xmlns="http://www.w3.org/2000/svg">
<g clip-path="url(#clip0_78_2790)">
<path d="M57.3945 16.5574H56.3498C56.0253 15.6832 55.642 14.832 55.2025 14.0096L56.0062 13.2059C57.0238 12.1884 57.0238 10.5387 56.0062 9.52118L50.4788 3.99376C49.4613 2.97624 47.8116 2.97624 46.7941 3.99376L45.7575 5.03035C45.0095 4.67741 44.2364 4.36965 43.4426 4.10682V2.60553C43.4426 1.16647 42.276 0 40.8371 0H33.02C31.5811 0 30.4145 1.16647 30.4145 2.60553V4.10682C29.6249 4.36776 28.8519 4.67617 28.0995 5.03035L27.0629 3.99376C26.0454 2.97624 24.3958 2.97624 23.3782 3.99376L17.8508 9.52118C16.8333 10.5387 16.8333 12.1885 17.8508 13.2059L18.6546 14.0096C18.215 14.832 17.8317 15.6832 17.5073 16.5574H16.4626C15.0236 16.5574 13.8571 17.7239 13.8571 19.1629V26.9799C13.8571 28.4188 15.0235 29.5854 16.4626 29.5854H17.0398C17.3413 30.6202 17.7237 31.6297 18.1833 32.6046L17.8509 32.9369C16.8334 33.9545 16.8334 35.6041 17.8509 36.6217L23.3784 42.1491C24.3959 43.1666 26.0455 43.1666 27.0631 42.1491L27.1626 42.0496C28.2046 42.6071 29.2927 43.0738 30.4147 43.4447V43.5373C30.4147 44.9762 31.5812 46.1428 33.0202 46.1428H40.8373C42.2762 46.1428 43.4428 44.9764 43.4428 43.5373V43.4447C44.5648 43.0737 45.6529 42.607 46.6949 42.0496L46.7945 42.1491C47.812 43.1666 49.4616 43.1666 50.4792 42.1491L56.0066 36.6217C57.0241 35.6041 57.0241 33.9545 56.0066 32.9369L55.6742 32.6046C56.1338 31.6297 56.5162 30.6202 56.8178 29.5854H57.3949C58.8339 29.5854 60.0005 28.4189 60.0005 26.9799V19.1629C60 17.724 58.8335 16.5574 57.3945 16.5574ZM36.9286 32.1044C32.3284 32.1044 28.6 28.376 28.6 23.7758C28.6 19.1755 32.3284 15.4472 36.9286 15.4472C41.5288 15.4472 45.2572 19.1756 45.2572 23.7758C45.2572 28.3759 41.5287 32.1044 36.9286 32.1044Z" fill="url(#paint0_linear_78_2790)"/>
<path d="M36.9286 38.9402C45.3045 38.9402 52.093 32.1517 52.093 23.7758C52.093 15.3999 45.3045 8.61133 36.9286 8.61133C28.5528 8.61133 21.7643 15.3998 21.7643 23.7757C21.7643 32.1516 28.5526 38.9402 36.9286 38.9402ZM36.9286 15.4472C41.5289 15.4472 45.2572 19.1756 45.2572 23.7758C45.2572 28.376 41.5289 32.1044 36.9286 32.1044C32.3284 32.1044 28.6 28.3759 28.6 23.7758C28.6 19.1757 32.3284 15.4472 36.9286 15.4472Z" fill="url(#paint1_linear_78_2790)"/>
<path d="M33.02 46.1427H40.8369C41.2754 46.1427 41.6882 46.0339 42.0507 45.8426L26.1317 30.0414C25.4056 29.3153 24.3462 29.3153 23.6202 30.0414L23.2861 30.3756L20.7846 27.8817C20.4494 27.394 19.8882 27.3093 19.2519 27.3093C19.2519 27.3093 13.8727 27.2781 13.888 27.3776C14.0795 28.6276 15.1589 29.5851 16.4626 29.5851H17.0397C17.3413 30.6199 17.7236 31.6294 18.1833 32.6043L17.8509 32.9366C16.8334 33.9541 16.8334 35.6038 17.8509 36.6213L23.3783 42.1487C24.3959 43.1663 26.0455 43.1663 27.063 42.1487L27.1626 42.0493C28.2046 42.6068 29.2926 43.0735 30.4147 43.4444V43.537C30.4146 44.9761 31.581 46.1427 33.02 46.1427Z" fill="url(#paint2_linear_78_2790)"/>
<path d="M31.0667 38.8892H30.3212C30.0897 38.2653 29.8162 37.6579 29.5025 37.0712L30.076 36.4976C30.8021 35.7716 30.8021 34.5945 30.076 33.8683L26.1318 29.9241C25.4058 29.198 24.2286 29.198 23.5025 29.9241L22.7628 30.6638C22.226 30.411 21.6743 30.1909 21.1109 30.0047V28.9334C21.1109 27.9066 20.2786 27.0742 19.2518 27.0742H13.6739C12.6471 27.0742 11.8147 27.9066 11.8147 28.9334V30.0047C11.2513 30.1908 10.6996 30.4109 10.1628 30.6638L9.42318 29.9241C8.69706 29.198 7.52 29.198 6.79388 29.9241L2.84965 33.8683C2.12353 34.5945 2.12353 35.7716 2.84965 36.4976L3.42318 37.0712C3.10955 37.658 2.83602 38.2654 2.60447 38.8892H1.85894C0.832353 38.8892 0 39.7215 0 40.7483V46.3262C0 47.353 0.832353 48.1854 1.85918 48.1854H2.27094C2.48612 48.9238 2.75896 49.6441 3.08694 50.3397L2.84976 50.5769C2.12365 51.3029 2.12365 52.4801 2.84976 53.2062L6.794 57.1505C7.52012 57.8766 8.69718 57.8766 9.4233 57.1505L9.49424 57.0795C10.2378 57.4773 11.0142 57.8103 11.8148 58.075V58.1412C11.8148 59.168 12.6472 60.0003 13.674 60.0003H19.2519C20.2787 60.0003 21.1111 59.168 21.1111 58.1412V58.075C21.9117 57.8103 22.6881 57.4772 23.4317 57.0795L23.5026 57.1505C24.2287 57.8766 25.4058 57.8766 26.1319 57.1505L30.0761 53.2062C30.8022 52.4801 30.8022 51.303 30.0761 50.5769L29.8389 50.3397C30.1669 49.6441 30.4397 48.9237 30.6549 48.1854H31.0668C32.0936 48.1854 32.926 47.353 32.926 46.3262V40.7483C32.9259 39.7215 32.0935 38.8892 31.0667 38.8892ZM16.4629 49.9828C13.1805 49.9828 10.52 47.3223 10.52 44.0399C10.52 40.7573 13.1805 38.0969 16.4629 38.0969C19.7454 38.0969 22.4059 40.7574 22.4059 44.0399C22.4059 47.3223 19.7454 49.9828 16.4629 49.9828Z" fill="url(#paint3_linear_78_2790)"/>
<path d="M24.1143 36.3879C19.8881 32.1617 13.0376 32.1617 8.81148 36.3879C4.58536 40.6142 4.58524 47.4646 8.81148 51.6908C13.0377 55.9169 19.8882 55.917 24.1143 51.6908C28.3404 47.4645 28.3405 40.6142 24.1143 36.3879ZM12.2605 48.2417C9.93948 45.9206 9.93948 42.1582 12.2605 39.8371C14.5816 37.5161 18.3441 37.5161 20.6652 39.8371C22.9863 42.1582 22.9863 45.9206 20.6652 48.2417C18.3441 50.5629 14.5817 50.5629 12.2605 48.2417Z" fill="url(#paint4_linear_78_2790)"/>
</g>
<defs>
<linearGradient id="paint0_linear_78_2790" x1="20.3306" y1="6.47353" x2="55.8208" y2="41.9638" gradientUnits="userSpaceOnUse">
<stop stop-color="#B5DBFF"/>
<stop offset="1" stop-color="#48B2E3"/>
</linearGradient>
<linearGradient id="paint1_linear_78_2790" x1="47.8383" y1="34.6856" x2="24.5105" y2="11.3578" gradientUnits="userSpaceOnUse">
<stop stop-color="#B5DBFF"/>
<stop offset="1" stop-color="#48B2E3"/>
</linearGradient>
<linearGradient id="paint2_linear_78_2790" x1="45.0652" y1="56.3464" x2="4.6848" y2="15.966" gradientUnits="userSpaceOnUse">
<stop stop-color="#07485E" stop-opacity="0"/>
<stop offset="0.333" stop-color="#063F52" stop-opacity="0.333"/>
<stop offset="0.936" stop-color="#032632" stop-opacity="0.936"/>
<stop offset="1" stop-color="#03232E"/>
</linearGradient>
<linearGradient id="paint3_linear_78_2790" x1="4.61929" y1="31.6936" x2="29.9439" y2="57.0182" gradientUnits="userSpaceOnUse">
<stop stop-color="#76E2F8"/>
<stop offset="1" stop-color="#48B2E3"/>
</linearGradient>
<linearGradient id="paint4_linear_78_2790" x1="16.4608" y1="55.0573" x2="16.4608" y2="31.5166" gradientUnits="userSpaceOnUse">
<stop stop-color="#76E2F8"/>
<stop offset="1" stop-color="#48B2E3"/>
</linearGradient>
<clipPath id="clip0_78_2790">
<rect width="60" height="60" fill="white"/>
</clipPath>
</defs>
</svg>
