<svg width="48" height="48" viewBox="0 0 48 48" fill="none" xmlns="http://www.w3.org/2000/svg">
<g clip-path="url(#clip0_87_4982)">
<path d="M28.7145 10.9215L20.974 7.5684C20.7273 7.46156 20.454 7.43154 20.1899 7.48224C19.9258 7.53294 19.6831 7.66202 19.4934 7.85265L19.1855 8.1624C18.6625 8.68796 17.8129 8.68871 17.2903 8.16465C17.2222 8.09692 17.1524 8.03075 17.0813 7.96618C14.9726 6.06222 11.6983 6.13544 9.6713 8.12584C7.51693 10.2403 7.51065 13.7007 9.64458 15.8236L9.65489 15.8335C10.1804 16.3549 10.1836 17.2115 9.66183 17.7363L9.35752 18.0416C9.16789 18.2323 9.04012 18.4757 8.99085 18.7401C8.94159 19.0045 8.97312 19.2775 9.08133 19.5237L12.4747 27.2467C12.7275 27.8215 13.0857 28.3438 13.5308 28.7867L28.9416 44.1166C29.8832 45.0529 31.4044 45.0489 32.3408 44.1077L45.6796 30.6987C46.616 29.7571 46.6119 28.2359 45.6708 27.2994L30.2599 11.9692C29.8149 11.5263 29.2906 11.1709 28.7145 10.9215ZM15.4482 13.9647C14.3562 15.0626 12.5815 15.0673 11.4836 13.975C10.3864 12.8836 10.3816 11.109 11.4737 10.011C12.5661 8.91324 14.3408 8.90837 15.4379 9.9998C16.5357 11.0921 16.5406 12.8664 15.4482 13.9647H15.4482Z" fill="url(#paint0_linear_87_4982)"/>
<path d="M19.1852 8.16241C18.6626 8.68797 17.8127 8.68872 17.2901 8.16466C17.222 8.09684 17.1523 8.03066 17.081 7.96619C14.9723 6.06222 11.698 6.13544 9.67141 8.12584C7.51704 10.2403 7.51047 13.7007 9.64469 15.8237L9.65454 15.8335C10.1801 16.3549 10.1838 17.2115 9.66157 17.7363L9.35754 18.0417C9.16787 18.2323 9.04005 18.4757 8.99074 18.7401C8.94142 19.0045 8.9729 19.2776 9.08107 19.5238L10.9583 23.7956L25.2555 9.42297L20.9738 7.56841C20.7271 7.46154 20.4539 7.4315 20.1898 7.4822C19.9258 7.53291 19.6831 7.662 19.4935 7.85266L19.1852 8.16241ZM15.448 13.9647C14.356 15.0626 12.5813 15.0674 11.4834 13.975C10.3863 12.8837 10.3815 11.1091 11.4736 10.0111C12.5659 8.91325 14.3406 8.90838 15.4378 9.99981C16.5356 11.0921 16.5405 12.8664 15.4481 13.9647H15.448Z" fill="url(#paint1_radial_87_4982)"/>
<path d="M9.35762 18.0416C9.16795 18.2323 9.04011 18.4757 8.99078 18.74C8.94145 19.0044 8.97291 19.2775 9.08106 19.5237L12.4744 27.2467C12.7272 27.8215 13.0854 28.3438 13.5305 28.7867L28.9414 44.1166C29.8829 45.0529 31.4042 45.0489 32.3405 44.1077L42.7541 33.6392L17.5369 8.42246C17.4777 8.35442 17.4169 8.28784 17.3545 8.22277C17.3325 8.20384 17.3106 8.18556 17.2901 8.16465C17.222 8.09683 17.1523 8.03066 17.081 7.96618C14.9723 6.06222 11.698 6.13544 9.6714 8.12584C7.51704 10.2403 7.51048 13.7007 9.64469 15.8236L9.65453 15.8335C10.1801 16.3549 10.1837 17.2115 9.66156 17.7363L9.35762 18.0416ZM11.4736 10.0107C12.5659 8.91287 14.3406 8.90837 15.4378 9.99971C16.5356 11.0921 16.5404 12.8664 15.4481 13.9647C14.3559 15.0626 12.5813 15.0673 11.4834 13.975C10.3862 12.8833 10.3815 11.109 11.4736 10.0107Z" fill="url(#paint2_linear_87_4982)"/>
<path d="M24.9678 22.0242L21.8858 14.1719C21.7875 13.9216 21.6162 13.7067 21.394 13.5552C21.1719 13.4037 20.9092 13.3227 20.6403 13.3227H20.2034C19.4622 13.3227 18.8623 12.721 18.8652 11.9809C18.8653 11.8848 18.863 11.7887 18.8583 11.6927C18.721 8.85493 16.3601 6.58525 13.5197 6.55188C10.501 6.51597 8.04344 8.95158 8.04344 11.9619V11.9761C8.04457 12.7163 7.43951 13.3227 6.69945 13.3227H6.26839C5.71836 13.3227 5.22402 13.6592 5.02292 14.1719L1.9409 22.0242C1.71139 22.6088 1.59363 23.2313 1.59375 23.8593V45.5963C1.59375 46.9242 2.66971 48.0001 3.99749 48.0001H22.9112C24.2391 48.0001 25.3146 46.9242 25.3146 45.5963V23.8593C25.3146 23.2313 25.197 22.6089 24.9678 22.0242ZM13.4542 14.7652C11.9055 14.7652 10.6508 13.5105 10.6508 11.9619C10.6508 10.4143 11.9055 9.15924 13.4542 9.15924C15.0029 9.15924 16.2575 10.4143 16.2575 11.9619C16.2579 13.5106 15.0029 14.7652 13.4542 14.7652Z" fill="url(#paint3_linear_87_4982)"/>
<path d="M21.1583 45.6974H5.75022C4.8446 45.6974 4.11035 44.9635 4.11035 44.0575V23.1825C4.11035 22.2769 4.8446 21.5426 5.75022 21.5426H21.1581C22.0637 21.5426 22.798 22.2769 22.798 23.1825V44.0576C22.798 44.9636 22.0638 45.6975 21.1581 45.6975L21.1583 45.6974Z" fill="url(#paint4_linear_87_4982)"/>
<path d="M25.0231 40.8327L10.9013 26.7143C10.393 26.3075 9.7191 26.1038 8.88098 26.1038C7.03926 26.1038 6.11816 26.9524 6.11816 28.6491V31.7117C6.11816 32.6304 6.3907 33.2981 6.93051 33.7196L17.1602 43.9236C20.0181 43.4223 22.679 42.3515 25.0231 40.8327Z" fill="url(#paint5_linear_87_4982)"/>
<path d="M25.3144 33.0581V40.6394C21.9251 42.9169 17.8452 44.2459 13.454 44.2459C12.8303 44.2459 12.2143 44.2173 11.6038 44.1642L9.15207 41.7125C8.9986 41.5531 8.92285 41.3778 8.92285 41.1847C8.92285 41.0745 8.95032 40.9705 9.00526 40.8738L16.5741 25.6694C16.6839 25.4212 16.8905 25.297 17.193 25.297C17.4157 25.297 17.6168 25.3729 17.7976 25.5245L25.3144 33.0581Z" fill="url(#paint6_linear_87_4982)"/>
<path d="M25.3142 38.9743V40.6376C23.354 41.9562 21.1869 42.9371 18.9026 43.5398L16.0554 40.6936C15.5163 40.2717 15.2441 39.6034 15.2441 38.6853V35.623C15.2441 33.9253 16.1645 33.0771 18.0057 33.0771C18.8448 33.0771 19.5186 33.2811 20.0265 33.6876L25.3142 38.9743Z" fill="url(#paint7_linear_87_4982)"/>
<path d="M6.11816 31.7116V28.649C6.11816 26.9523 7.03916 26.1037 8.88079 26.1037C9.71948 26.1037 10.393 26.3074 10.9016 26.7142C11.4095 27.1215 11.664 27.7664 11.664 28.649V31.7116C11.664 32.5949 11.4095 33.2397 10.9016 33.6466C10.3929 34.0535 9.71938 34.2571 8.88079 34.2571C7.03916 34.2571 6.11816 33.4086 6.11816 31.7116ZM7.5877 31.6772C7.5877 32.4729 8.01838 32.8706 8.88079 32.8706C9.75679 32.8706 10.1948 32.4729 10.1948 31.6772V28.6837C10.1948 27.8884 9.75679 27.4903 8.88079 27.4903C8.01838 27.4903 7.5877 27.8884 7.5877 28.6837V31.6772ZM8.9226 41.1843C8.9226 41.0741 8.95007 40.9705 9.00501 40.8738L16.5742 25.6691C16.6841 25.4208 16.8906 25.2966 17.1931 25.2966C17.4158 25.2966 17.6172 25.3729 17.7977 25.5245C17.9787 25.6763 18.069 25.8624 18.069 26.0829C18.069 26.1936 18.0486 26.3037 18.0072 26.414L10.4376 41.5567C10.3135 41.8186 10.0799 41.9501 9.73598 41.9501C9.49935 41.9501 9.30491 41.8706 9.15191 41.712C8.9991 41.5535 8.9226 41.3773 8.9226 41.1844V41.1843ZM20.0272 33.6927C19.5185 33.283 18.845 33.0775 18.0069 33.0775C16.1652 33.0775 15.2441 33.9322 15.2441 35.6421V38.7282C15.2441 40.438 16.1652 41.2927 18.0069 41.2927C18.845 41.2927 19.5185 41.0877 20.0272 40.6778C20.5355 40.2677 20.79 39.6177 20.79 38.7282V35.6421C20.79 34.7526 20.5355 34.1029 20.0272 33.6927ZM19.3208 38.6992C19.3208 39.5042 18.8828 39.9063 18.0068 39.9063C17.1444 39.9063 16.7133 39.5041 16.7133 38.6992V35.6711C16.7133 34.8665 17.1444 34.464 18.0068 34.464C18.8828 34.464 19.3208 34.8665 19.3208 35.671V38.6992Z" fill="#FFFCF8"/>
<path d="M20.2031 13.3228C19.4619 13.3228 18.862 12.721 18.8646 11.9809C18.8646 11.8861 18.8627 11.7894 18.858 11.6927C18.7206 8.85494 16.3596 6.58525 13.519 6.55188C10.5007 6.51597 8.04304 8.95159 8.04304 11.9619V11.9762C8.04379 12.7163 7.4391 13.3227 6.69904 13.3227H6.2676C5.71795 13.3227 5.22323 13.6592 5.0226 14.172L3.31738 18.5156H23.5901L21.8853 14.172C21.7871 13.9216 21.6157 13.7067 21.3936 13.5552C21.1714 13.4037 20.9088 13.3227 20.6399 13.3227L20.2031 13.3228ZM13.4538 14.7652C11.9051 14.7652 10.6504 13.5106 10.6504 11.9619C10.6504 10.4143 11.9051 9.15925 13.4538 9.15925C15.0026 9.15925 16.2571 10.4143 16.2571 11.9619C16.2575 13.5107 15.0025 14.7652 13.4538 14.7652Z" fill="url(#paint8_radial_87_4982)"/>
<path d="M15.7405 13.5831C15.2325 14.2983 14.3984 14.7653 13.4539 14.7653C12.0583 14.7653 10.9018 13.746 10.6868 12.4116H7.96955C7.90635 12.5955 7.80414 12.7635 7.66992 12.9042L13.2814 18.5156H20.673L15.7405 13.5831Z" fill="url(#paint9_linear_87_4982)"/>
<path d="M9.85499 2.36934C12.1922 2.36934 14.0972 4.26009 14.1217 6.5925C14.9691 6.69797 15.7586 7.00313 16.4409 7.45781C16.4743 7.18875 16.4916 6.91481 16.4916 6.63722C16.491 2.97694 13.5141 0 9.8549 0C6.19471 0 3.21777 2.97694 3.21777 6.63722C3.21777 9.53175 5.08105 11.9997 7.67127 12.9049C8.37328 13.1497 9.11153 13.2744 9.85499 13.2737C10.2216 13.2737 10.5808 13.2433 10.9317 13.1855C12.8773 12.8679 14.5407 11.6993 15.5295 10.0767V10.076C15.0157 9.51272 14.2762 9.15928 13.4545 9.15928C13.3996 9.15928 13.3446 9.16116 13.2908 9.16481C12.7155 9.94406 11.8812 10.5219 10.9174 10.7707C10.5702 10.8593 10.2133 10.9041 9.85499 10.904C9.27674 10.904 8.72531 10.7887 8.22168 10.5799C6.67593 9.9375 5.58721 8.41144 5.58721 6.63722C5.58721 4.28391 7.50177 2.36934 9.85499 2.36934Z" fill="url(#paint10_linear_87_4982)"/>
</g>
<defs>
<linearGradient id="paint0_linear_87_4982" x1="7.93776" y1="29.3451" x2="69.0029" y2="13.3537" gradientUnits="userSpaceOnUse">
<stop stop-color="#FFD459"/>
<stop offset="0.23" stop-color="#FFD355"/>
<stop offset="0.436" stop-color="#FFCF4A"/>
<stop offset="0.634" stop-color="#FFC838"/>
<stop offset="0.825" stop-color="#FFBF1F"/>
<stop offset="1" stop-color="#FFB400"/>
</linearGradient>
<radialGradient id="paint1_radial_87_4982" cx="0" cy="0" r="1" gradientUnits="userSpaceOnUse" gradientTransform="translate(13.5284 12.0889) rotate(-88.78) scale(5.22612)">
<stop stop-color="#A64153"/>
<stop offset="0.198" stop-color="#AD4949" stop-opacity="0.8"/>
<stop offset="0.533" stop-color="#C15D2F" stop-opacity="0.467"/>
<stop offset="0.96" stop-color="#E27F04" stop-opacity="0.039"/>
<stop offset="1" stop-color="#E58200" stop-opacity="0"/>
</radialGradient>
<linearGradient id="paint2_linear_87_4982" x1="31.2484" y1="24.8253" x2="1.56619" y2="27.6272" gradientUnits="userSpaceOnUse">
<stop stop-color="#E58200" stop-opacity="0"/>
<stop offset="0.04" stop-color="#E27F04" stop-opacity="0.039"/>
<stop offset="0.467" stop-color="#C15D2F" stop-opacity="0.467"/>
<stop offset="0.802" stop-color="#AD4949" stop-opacity="0.8"/>
<stop offset="1" stop-color="#A64153"/>
</linearGradient>
<linearGradient id="paint3_linear_87_4982" x1="1.59375" y1="6.55148" x2="25.3146" y2="6.55148" gradientUnits="userSpaceOnUse">
<stop stop-color="#FF6E3A"/>
<stop offset="0.16" stop-color="#FF6440"/>
<stop offset="0.427" stop-color="#FF4B52"/>
<stop offset="0.766" stop-color="#FF216E"/>
<stop offset="1" stop-color="#FF0084"/>
</linearGradient>
<linearGradient id="paint4_linear_87_4982" x1="4.11035" y1="21.5426" x2="22.798" y2="21.5426" gradientUnits="userSpaceOnUse">
<stop stop-color="#FF6E3A"/>
<stop offset="0.16" stop-color="#FF6440"/>
<stop offset="0.427" stop-color="#FF4B52"/>
<stop offset="0.766" stop-color="#FF216E"/>
<stop offset="1" stop-color="#FF0084"/>
</linearGradient>
<linearGradient id="paint5_linear_87_4982" x1="6.11816" y1="26.1038" x2="25.0231" y2="26.1038" gradientUnits="userSpaceOnUse">
<stop stop-color="#E58200" stop-opacity="0"/>
<stop offset="0.241" stop-color="#DA760F" stop-opacity="0.243"/>
<stop offset="0.704" stop-color="#BC5737" stop-opacity="0.706"/>
<stop offset="1" stop-color="#A64153"/>
</linearGradient>
<linearGradient id="paint6_linear_87_4982" x1="8.92285" y1="25.297" x2="25.3144" y2="25.297" gradientUnits="userSpaceOnUse">
<stop stop-color="#E58200" stop-opacity="0"/>
<stop offset="0.241" stop-color="#DA760F" stop-opacity="0.243"/>
<stop offset="0.704" stop-color="#BC5737" stop-opacity="0.706"/>
<stop offset="1" stop-color="#A64153"/>
</linearGradient>
<linearGradient id="paint7_linear_87_4982" x1="15.2441" y1="33.0771" x2="25.3142" y2="33.0771" gradientUnits="userSpaceOnUse">
<stop stop-color="#E58200" stop-opacity="0"/>
<stop offset="0.241" stop-color="#DA760F" stop-opacity="0.243"/>
<stop offset="0.704" stop-color="#BC5737" stop-opacity="0.706"/>
<stop offset="1" stop-color="#A64153"/>
</linearGradient>
<radialGradient id="paint8_radial_87_4982" cx="0" cy="0" r="1" gradientUnits="userSpaceOnUse" gradientTransform="translate(13.4857 12.0244) scale(5.25412)">
<stop stop-color="#A64153"/>
<stop offset="0.409" stop-color="#BD294B" stop-opacity="0.592"/>
<stop offset="1" stop-color="#E4003D" stop-opacity="0"/>
</radialGradient>
<linearGradient id="paint9_linear_87_4982" x1="7.66992" y1="12.4116" x2="20.673" y2="12.4116" gradientUnits="userSpaceOnUse">
<stop stop-color="#E58200" stop-opacity="0"/>
<stop offset="0.241" stop-color="#DA760F" stop-opacity="0.243"/>
<stop offset="0.704" stop-color="#BC5737" stop-opacity="0.706"/>
<stop offset="1" stop-color="#A64153"/>
</linearGradient>
<linearGradient id="paint10_linear_87_4982" x1="3.21768" y1="6.63675" x2="16.4913" y2="6.63675" gradientUnits="userSpaceOnUse">
<stop stop-color="#45425A"/>
<stop offset="1" stop-color="#2D3251"/>
</linearGradient>
<clipPath id="clip0_87_4982">
<rect width="48" height="48" fill="white"/>
</clipPath>
</defs>
</svg>
