<svg width="48" height="48" viewBox="0 0 48 48" fill="none" xmlns="http://www.w3.org/2000/svg">
<path d="M0.110905 32.1296C0.552468 30.557 2.18475 29.6397 3.75816 30.0817L4.94794 30.4158L7.36359 33.8431C9.27469 36.5545 12.4058 38.1362 15.6625 38.1362C15.7902 38.1362 15.9181 38.1328 16.0461 38.1279C15.2083 38.269 14.3603 38.3398 13.5108 38.3395C12.0398 38.3395 10.5451 38.1317 9.06253 37.7153L2.15887 35.7769C0.586218 35.3351 -0.330751 33.7023 0.110905 32.1296Z" fill="url(#paint0_linear_87_5054)"/>
<path d="M0.110905 32.1296C0.552468 30.557 2.18475 29.6397 3.75816 30.0817L4.94794 30.4158L7.36359 33.8431C9.27469 36.5545 12.4058 38.1362 15.6625 38.1362C15.7902 38.1362 15.9181 38.1328 16.0461 38.1279C15.2083 38.269 14.3603 38.3398 13.5108 38.3395C12.0398 38.3395 10.5451 38.1317 9.06253 37.7153L2.15887 35.7769C0.586218 35.3351 -0.330751 33.7023 0.110905 32.1296Z" fill="url(#paint1_linear_87_5054)"/>
<path d="M12.5674 27.9229C13.828 26.8857 15.6921 27.0671 16.7305 28.3291L18.5183 30.502C19.8473 29.804 21.0357 28.8563 22.0663 27.6653L22.4055 27.2749C20.7216 26.2465 19.0956 25.1262 17.5351 23.9188C16.0444 22.7647 15.8091 20.6022 17.0066 19.147C17.1417 18.9827 17.2922 18.8316 17.4562 18.6961C18.5722 17.7694 20.1917 17.6563 21.4445 18.4845C23.9351 20.1332 26.7415 21.2456 29.6853 21.7511C30.1848 21.8378 30.6936 21.8708 31.1996 21.8642C32.9335 21.8444 37.3438 21.8208 38.7818 22.0864C38.795 22.089 38.9869 22.1258 39.0684 22.1442C40.8273 22.5267 42.3942 23.5232 43.5431 24.91L44.9477 26.6021C45.372 27.1133 45.6043 27.7568 45.6043 28.4212V39.842C45.6043 41.0891 44.5933 42.1002 43.3461 42.1002C40.839 42.1002 38.3586 41.5862 36.0581 40.5898C35.0505 40.1182 33.9336 39.9296 32.827 40.0443C32.827 40.0443 25.108 40.9802 24.2865 40.9802C21.2959 40.9802 18.3855 39.6525 16.44 37.2877L12.1625 32.086C11.124 30.8254 11.3054 28.9613 12.5674 27.9229Z" fill="url(#paint2_linear_87_5054)"/>
<path d="M12.5674 27.9229C13.828 26.8857 15.6921 27.0671 16.7305 28.3291L18.5183 30.502C19.8473 29.804 21.0357 28.8563 22.0663 27.6653L22.4055 27.2749C20.7216 26.2465 19.0956 25.1262 17.5351 23.9188C16.0444 22.7647 15.8091 20.6022 17.0066 19.147C17.1417 18.9827 17.2922 18.8316 17.4562 18.6961C18.5722 17.7694 20.1917 17.6563 21.4445 18.4845C23.9351 20.1332 26.7415 21.2456 29.6853 21.7511C30.1848 21.8378 30.6936 21.8708 31.1996 21.8642C32.9335 21.8444 37.3438 21.8208 38.7818 22.0864C38.795 22.089 38.9869 22.1258 39.0684 22.1442C40.8273 22.5267 42.3942 23.5232 43.5431 24.91L44.9477 26.6021C45.372 27.1133 45.6043 27.7568 45.6043 28.4212V39.842C45.6043 41.0891 44.5933 42.1002 43.3461 42.1002C40.839 42.1002 38.3586 41.5862 36.0581 40.5898C35.0505 40.1182 33.9336 39.9296 32.827 40.0443C32.827 40.0443 25.108 40.9802 24.2865 40.9802C21.2959 40.9802 18.3855 39.6525 16.44 37.2877L12.1625 32.086C11.124 30.8254 11.3054 28.9613 12.5674 27.9229Z" fill="url(#paint3_linear_87_5054)"/>
<path d="M43.543 24.9099C42.3941 23.5231 40.8271 22.5267 39.0683 22.1441C38.9868 22.1257 38.7948 22.0889 38.7817 22.0863C38.1554 21.9706 36.965 21.9098 35.6777 21.8797V40.4272C35.8063 40.477 35.9331 40.5313 36.058 40.5897C38.3585 41.5861 40.8389 42.1001 43.3459 42.1001C44.5931 42.1001 45.6042 41.0891 45.6042 39.8419V28.4212C45.6042 27.7568 45.3719 27.1133 44.9475 26.6021L43.543 24.9099Z" fill="url(#paint4_linear_87_5054)"/>
<path d="M17.4557 18.6967C18.5722 17.7697 20.1923 17.657 21.4448 18.485C23.9351 20.1334 26.7412 21.2456 29.6847 21.7507C30.1847 21.8378 30.693 21.8705 31.2001 21.8647C31.9284 21.8558 33.1303 21.8467 34.3854 21.8587V33.6681C33.7098 33.2077 32.8481 33.0275 31.9936 33.2437L25.2998 34.9384C23.7249 35.3371 22.0406 34.7841 21.0087 33.5295L18.518 30.5017C19.8466 29.8037 21.036 28.8554 22.0664 27.6656L22.4055 27.2741C20.7214 26.246 19.0953 25.1257 17.5348 23.9183C16.0438 22.7647 15.8088 20.6015 17.0068 19.1466C17.1416 18.9825 17.2919 18.8318 17.4557 18.6967Z" fill="url(#paint5_linear_87_5054)"/>
<path d="M17.5348 23.9187C19.0954 25.126 20.7213 26.2464 22.4052 27.2748L22.066 27.6652C21.0354 28.8562 19.8471 29.8039 18.5181 30.5019L18.4538 30.4238C18.1643 30.6088 17.867 30.7813 17.5628 30.941L20.2031 34.1492C20.4258 34.4205 20.6801 34.6642 20.9606 34.8751C23.228 29.1889 27.7973 24.8185 40.51 26.0102C41.9461 26.145 43.3631 26.1556 44.7381 26.3505L44.9477 26.6023C44.9497 26.6048 44.9516 26.6077 44.9537 26.6102C44.9514 26.6076 44.9497 26.6047 44.9474 26.6019L43.5428 24.9098C42.3939 23.523 40.827 22.5266 39.0682 22.144C38.9867 22.1257 38.7947 22.0888 38.7816 22.0862C37.3434 21.8207 32.9332 21.8443 31.1993 21.864C30.6932 21.8706 30.1845 21.8377 29.685 21.7509C26.7412 21.2455 23.9348 20.133 21.4442 18.4843C20.1914 17.6561 18.5719 17.7692 17.4559 18.696C17.2919 18.8315 17.1414 18.9825 17.0063 19.1468C15.8088 20.6021 16.0441 22.7646 17.5348 23.9187Z" fill="url(#paint6_linear_87_5054)"/>
<path d="M23.957 24.4672V24.3139C23.9683 19.6357 27.7647 15.8393 32.4428 15.8281C32.4939 15.828 32.545 15.828 32.596 15.8281C37.2741 15.8393 41.0705 19.6357 41.0818 24.3139V24.4672C41.0705 29.1454 23.9683 29.1453 23.957 24.4672Z" fill="url(#paint7_radial_87_5054)"/>
<path d="M23.957 24.4672V24.3139C23.9683 19.6357 27.7647 15.8393 32.4428 15.8281C32.4939 15.828 32.545 15.828 32.596 15.8281C37.2741 15.8393 41.0705 19.6357 41.0818 24.3139V24.4672C41.0705 29.1454 23.9683 29.1453 23.957 24.4672Z" fill="url(#paint8_radial_87_5054)"/>
<path d="M23.957 24.4672V24.3139C23.9683 19.6357 27.7647 15.8393 32.4428 15.8281C32.4939 15.828 32.545 15.828 32.596 15.8281C37.2741 15.8393 41.0705 19.6357 41.0818 24.3139V24.4672C41.0705 29.1454 23.9683 29.1453 23.957 24.4672Z" fill="url(#paint9_linear_87_5054)"/>
<path d="M23.957 24.4672V24.3139C23.9683 19.6357 27.7647 15.8393 32.4428 15.8281C32.4939 15.828 32.545 15.828 32.596 15.8281C37.2741 15.8393 41.0705 19.6357 41.0818 24.3139V24.4672C41.0705 29.1454 23.9683 29.1453 23.957 24.4672Z" fill="url(#paint10_linear_87_5054)"/>
<path d="M32.5962 15.8282C32.5451 15.8281 32.494 15.8281 32.443 15.8282C31.4056 15.8297 30.3773 16.0217 29.4092 16.3947L39.5754 26.561C40.5082 26.0188 41.08 25.321 41.0821 24.4672V24.314C41.0707 19.6358 37.2743 15.8394 32.5962 15.8282Z" fill="url(#paint11_linear_87_5054)"/>
<path d="M32.5751 17.2187H32.4646C29.0924 17.2105 26.3558 14.474 26.3477 11.1018C26.3476 11.065 26.3476 11.0282 26.3477 10.9913C26.3558 7.61915 29.0924 4.8825 32.4646 4.87444H32.5751C35.9473 4.8825 38.6839 7.61915 38.692 10.9913V11.1018C38.6839 14.4739 35.9473 17.2105 32.5751 17.2187Z" fill="url(#paint12_radial_87_5054)"/>
<path d="M32.5751 17.2187H32.4646C29.0924 17.2105 26.3558 14.474 26.3477 11.1018C26.3476 11.065 26.3476 11.0282 26.3477 10.9913C26.3558 7.61915 29.0924 4.8825 32.4646 4.87444H32.5751C35.9473 4.8825 38.6839 7.61915 38.692 10.9913V11.1018C38.6839 14.4739 35.9473 17.2105 32.5751 17.2187Z" fill="url(#paint13_radial_87_5054)"/>
<path d="M2.0752 24.4672V24.3139C2.08645 19.6357 5.88285 15.8393 10.561 15.8281C10.6121 15.828 10.6632 15.828 10.7142 15.8281C15.3923 15.8393 19.1887 19.6357 19.1999 24.3139V24.4672C19.1887 29.1454 2.08645 29.1453 2.0752 24.4672Z" fill="url(#paint14_radial_87_5054)"/>
<path d="M2.0752 24.4672V24.3139C2.08645 19.6357 5.88285 15.8393 10.561 15.8281C10.6121 15.828 10.6632 15.828 10.7142 15.8281C15.3923 15.8393 19.1887 19.6357 19.1999 24.3139V24.4672C19.1887 29.1454 2.08645 29.1453 2.0752 24.4672Z" fill="url(#paint15_radial_87_5054)"/>
<path d="M10.7134 15.8282C10.6623 15.8281 10.6112 15.8281 10.5602 15.8282C9.52278 15.8297 8.49444 16.0217 7.52637 16.3947L17.6926 26.561C18.6254 26.0188 19.1972 25.321 19.1993 24.4673V24.314C19.1879 19.6359 15.3915 15.8394 10.7134 15.8282Z" fill="url(#paint16_linear_87_5054)"/>
<path d="M10.6922 17.2187H10.5817C7.20956 17.2105 4.47291 14.474 4.46484 11.1018V10.9913C4.47291 7.61915 7.20956 4.8825 10.5817 4.87444H10.6922C14.0644 4.8825 16.801 7.61915 16.8091 10.9913V11.1018C16.801 14.4739 14.0644 17.2105 10.6922 17.2187Z" fill="url(#paint17_radial_87_5054)"/>
<path d="M10.6922 17.2187H10.5817C7.20956 17.2105 4.47291 14.474 4.46484 11.1018V10.9913C4.47291 7.61915 7.20956 4.8825 10.5817 4.87444H10.6922C14.0644 4.8825 16.801 7.61915 16.8091 10.9913V11.1018C16.801 14.4739 14.0644 17.2105 10.6922 17.2187Z" fill="url(#paint18_radial_87_5054)"/>
<path d="M13.0156 29.4907V29.3374C13.0269 24.6593 16.8233 20.8629 21.5014 20.8516C21.5525 20.8515 21.6036 20.8515 21.6546 20.8516C26.3327 20.8629 30.1291 24.6593 30.1404 29.3374V29.4907C30.1292 34.1688 13.0269 34.1688 13.0156 29.4907Z" fill="url(#paint19_radial_87_5054)"/>
<path d="M13.0156 29.4907V29.3374C13.0269 24.6593 16.8233 20.8629 21.5014 20.8516C21.5525 20.8515 21.6036 20.8515 21.6546 20.8516C26.3327 20.8629 30.1291 24.6593 30.1404 29.3374V29.4907C30.1292 34.1688 13.0269 34.1688 13.0156 29.4907Z" fill="url(#paint20_radial_87_5054)"/>
<path d="M21.6548 20.8517C21.6037 20.8516 21.5526 20.8516 21.5016 20.8517C20.4642 20.8532 19.4358 21.0452 18.4678 21.4182L28.6339 31.5844C29.5667 31.0422 30.1385 30.3444 30.1406 29.4906V29.3374C30.1294 24.6592 26.3329 20.8628 21.6548 20.8517Z" fill="url(#paint21_linear_87_5054)"/>
<path d="M21.6336 22.2421H21.5232C18.151 22.234 15.4143 19.4974 15.4062 16.1252V16.0147C15.4143 12.6426 18.151 9.9059 21.5232 9.89784H21.6336C25.0058 9.9059 27.7424 12.6426 27.7505 16.0147V16.1252C27.7424 19.4974 25.0059 22.234 21.6336 22.2421Z" fill="url(#paint22_radial_87_5054)"/>
<path d="M21.6336 22.2421H21.5232C18.151 22.234 15.4143 19.4974 15.4062 16.1252V16.0147C15.4143 12.6426 18.151 9.9059 21.5232 9.89784H21.6336C25.0058 9.9059 27.7424 12.6426 27.7505 16.0147V16.1252C27.7424 19.4974 25.0059 22.234 21.6336 22.2421Z" fill="url(#paint23_radial_87_5054)"/>
<path d="M12.1618 32.0866L16.441 37.2873C18.3862 39.652 21.2954 40.9803 24.2862 40.9803C25.1084 40.9803 25.9357 40.8801 26.7521 40.6728L27.9106 40.3792L21.8053 34.2739C21.5082 34.062 21.2404 33.8119 21.0088 33.53L16.7306 28.3283C15.693 27.0675 13.8292 26.886 12.5674 27.9235C11.3056 28.9611 11.1241 30.8249 12.1618 32.0866Z" fill="url(#paint24_linear_87_5054)"/>
<path d="M15.4205 39.4843C15.9963 39.4786 16.5748 39.4234 17.1513 39.3164C18.7574 39.0182 19.8176 37.4745 19.5194 35.8684C19.2213 34.2624 17.6771 33.2018 16.0715 33.5003C14.4735 33.797 12.8291 33.1366 11.88 31.8183L7.9452 26.3526C6.99064 25.0269 5.14236 24.726 3.81673 25.6804C2.49111 26.6347 2.19008 28.4831 3.14445 29.8087L7.07923 35.2744C9.01723 37.9666 12.1639 39.5168 15.4205 39.4843Z" fill="url(#paint25_linear_87_5054)"/>
<path d="M15.4205 39.4843C15.9963 39.4786 16.5748 39.4234 17.1513 39.3164C18.7574 39.0182 19.8176 37.4745 19.5194 35.8684C19.2213 34.2624 17.6771 33.2018 16.0715 33.5003C14.4735 33.797 12.8291 33.1366 11.88 31.8183L7.9452 26.3526C6.99064 25.0269 5.14236 24.726 3.81673 25.6804C2.49111 26.6347 2.19008 28.4831 3.14445 29.8087L7.07923 35.2744C9.01723 37.9666 12.1639 39.5168 15.4205 39.4843Z" fill="url(#paint26_linear_87_5054)"/>
<path d="M7.46058 30.449L11.1783 36.0643C13.2931 39.2593 17.0793 40.9952 20.8715 40.527C20.943 40.5181 21.0134 40.5081 21.0838 40.4982L26.5404 39.7047C27.8845 39.5103 28.8853 38.4381 29.048 37.1535H21.184V34.506L20.2327 34.6439C18.6287 34.877 17.007 34.1539 16.1102 32.7989L12.3935 27.1836C11.4918 25.8216 9.65677 25.4477 8.29383 26.3503C6.93192 27.2519 6.55889 29.0871 7.46058 30.449Z" fill="url(#paint27_linear_87_5054)"/>
<path d="M7.46058 30.449L11.1783 36.0643C13.2931 39.2593 17.0793 40.9952 20.8715 40.527C20.943 40.5181 21.0134 40.5081 21.0838 40.4982L26.5404 39.7047C27.8845 39.5103 28.8853 38.4381 29.048 37.1535H21.184V34.506L20.2327 34.6439C18.6287 34.877 17.007 34.1539 16.1102 32.7989L12.3935 27.1836C11.4918 25.8216 9.65677 25.4477 8.29383 26.3503C6.93192 27.2519 6.55889 29.0871 7.46058 30.449Z" fill="url(#paint28_linear_87_5054)"/>
<path d="M24.2861 40.9798C25.108 40.9798 25.9358 40.8796 26.7517 40.6731L33.4454 38.9784C35.0289 38.5776 35.9877 36.9688 35.5868 35.3853C35.1858 33.8017 33.5768 32.8432 31.9936 33.2439L25.2998 34.9386C23.7249 35.3373 22.0406 34.7842 21.0087 33.5297L16.7302 28.3286C15.6924 27.067 13.8284 26.8858 12.5671 27.9233C11.3056 28.9611 11.1242 30.825 12.1618 32.0865L16.4402 37.2876C18.3855 39.6523 21.2955 40.9798 24.2861 40.9798Z" fill="url(#paint29_linear_87_5054)"/>
<path d="M24.2861 40.9798C25.108 40.9798 25.9358 40.8796 26.7517 40.6731L33.4454 38.9784C35.0289 38.5776 35.9877 36.9688 35.5868 35.3853C35.1858 33.8017 33.5768 32.8432 31.9936 33.2439L25.2998 34.9386C23.7249 35.3373 22.0406 34.7842 21.0087 33.5297L16.7302 28.3286C15.6924 27.067 13.8284 26.8858 12.5671 27.9233C11.3056 28.9611 11.1242 30.825 12.1618 32.0865L16.4402 37.2876C18.3855 39.6523 21.2955 40.9798 24.2861 40.9798Z" fill="url(#paint30_linear_87_5054)"/>
<path d="M12.7168 32.7607L16.4395 37.2876C18.385 39.6524 21.2954 40.9801 24.286 40.9801C25.1075 40.9801 32.8265 40.0442 32.8265 40.0442C33.9331 39.9295 35.0501 40.1181 36.0576 40.5897C38.3582 41.5861 40.8386 42.1001 43.3456 42.1001C44.5927 42.1001 45.6038 41.0891 45.6038 39.8419V32.7607H12.7168Z" fill="url(#paint31_linear_87_5054)"/>
<path d="M47.1849 43.1257H43.6758C43.4598 43.1257 43.2526 43.0399 43.0999 42.8872C42.9471 42.7344 42.8613 42.5273 42.8613 42.3112V24.3617C42.8613 24.1457 42.9471 23.9385 43.0999 23.7857C43.2526 23.633 43.4598 23.5472 43.6758 23.5472H47.1849C47.4009 23.5472 47.6081 23.633 47.7608 23.7857C47.9136 23.9385 47.9994 24.1457 47.9994 24.3617V42.3112C47.9994 42.5273 47.9136 42.7344 47.7608 42.8872C47.6081 43.0399 47.4009 43.1257 47.1849 43.1257Z" fill="url(#paint32_linear_87_5054)"/>
<path d="M47.9997 24.3616L47.9992 42.3112C47.9992 42.5273 47.9133 42.7344 47.7606 42.8872C47.6079 43.0399 47.4007 43.1257 47.1847 43.1257H44.7554L44.7549 23.5472H47.1851C47.292 23.5472 47.398 23.5682 47.4968 23.6091C47.5956 23.65 47.6854 23.71 47.7611 23.7856C47.8367 23.8613 47.8967 23.9511 47.9377 24.0499C47.9786 24.1487 47.9997 24.2546 47.9997 24.3616Z" fill="url(#paint33_linear_87_5054)"/>
<path d="M47.9997 35.3831L47.9992 42.3112C47.9992 42.5273 47.9134 42.7344 47.7606 42.8872C47.6079 43.0399 47.4007 43.1257 47.1847 43.1257H43.6762C43.5692 43.1259 43.4632 43.1049 43.3644 43.064C43.2655 43.0231 43.1756 42.9631 43.1 42.8875C43.0243 42.8118 42.9644 42.722 42.9235 42.6231C42.8826 42.5242 42.8616 42.4182 42.8618 42.3112L42.8613 35.3831H47.9997Z" fill="url(#paint34_linear_87_5054)"/>
<defs>
<linearGradient id="paint0_linear_87_5054" x1="8.84953" y1="32.6686" x2="7.35019" y2="37.4479" gradientUnits="userSpaceOnUse">
<stop stop-color="#FFDFCF"/>
<stop offset="1" stop-color="#FFA78F"/>
</linearGradient>
<linearGradient id="paint1_linear_87_5054" x1="3.67584" y1="36.6829" x2="7.518" y2="34.8399" gradientUnits="userSpaceOnUse">
<stop stop-color="#F89580" stop-opacity="0"/>
<stop offset="0.286" stop-color="#EE8E79" stop-opacity="0.287"/>
<stop offset="0.762" stop-color="#D57B65" stop-opacity="0.765"/>
<stop offset="0.997" stop-color="#C5715A"/>
</linearGradient>
<linearGradient id="paint2_linear_87_5054" x1="32.0501" y1="26.2143" x2="24.4839" y2="45.0944" gradientUnits="userSpaceOnUse">
<stop stop-color="#FFDFCF"/>
<stop offset="1" stop-color="#FFA78F"/>
</linearGradient>
<linearGradient id="paint3_linear_87_5054" x1="29.8723" y1="33.6525" x2="27.6001" y2="26.2343" gradientUnits="userSpaceOnUse">
<stop stop-color="#F89580" stop-opacity="0"/>
<stop offset="0.286" stop-color="#EE8E79" stop-opacity="0.287"/>
<stop offset="0.762" stop-color="#D57B65" stop-opacity="0.765"/>
<stop offset="0.997" stop-color="#C5715A"/>
</linearGradient>
<linearGradient id="paint4_linear_87_5054" x1="40.2594" y1="31.9899" x2="43.9077" y2="31.9899" gradientUnits="userSpaceOnUse">
<stop stop-color="#F89580" stop-opacity="0"/>
<stop offset="0.286" stop-color="#EE8E79" stop-opacity="0.287"/>
<stop offset="0.762" stop-color="#D57B65" stop-opacity="0.765"/>
<stop offset="0.997" stop-color="#C5715A"/>
</linearGradient>
<linearGradient id="paint5_linear_87_5054" x1="23.3476" y1="27.6498" x2="18.6909" y2="30.3536" gradientUnits="userSpaceOnUse">
<stop stop-color="#F89580" stop-opacity="0"/>
<stop offset="0.286" stop-color="#EE8E79" stop-opacity="0.287"/>
<stop offset="0.762" stop-color="#D57B65" stop-opacity="0.765"/>
<stop offset="0.997" stop-color="#C5715A"/>
</linearGradient>
<linearGradient id="paint6_linear_87_5054" x1="30.6082" y1="25.146" x2="30.6832" y2="34.0087" gradientUnits="userSpaceOnUse">
<stop stop-color="#F89580" stop-opacity="0"/>
<stop offset="0.286" stop-color="#EE8E79" stop-opacity="0.287"/>
<stop offset="0.762" stop-color="#D57B65" stop-opacity="0.765"/>
<stop offset="0.997" stop-color="#C5715A"/>
</linearGradient>
<radialGradient id="paint7_radial_87_5054" cx="0" cy="0" r="1" gradientUnits="userSpaceOnUse" gradientTransform="translate(30.4495 18.5604) scale(8.64094 8.64094)">
<stop stop-color="#FBC9CF"/>
<stop offset="1" stop-color="#F28CC4"/>
</radialGradient>
<radialGradient id="paint8_radial_87_5054" cx="0" cy="0" r="1" gradientUnits="userSpaceOnUse" gradientTransform="translate(27.0185 17.7014) scale(16.5848 16.5848)">
<stop stop-color="#AF66DA" stop-opacity="0"/>
<stop offset="0.766" stop-color="#814AA0"/>
<stop offset="0.829" stop-color="#844BA4" stop-opacity="0.73"/>
<stop offset="0.889" stop-color="#8D51AF" stop-opacity="0.475"/>
<stop offset="0.947" stop-color="#9C5AC2" stop-opacity="0.226"/>
<stop offset="1" stop-color="#AF66DA" stop-opacity="0"/>
</radialGradient>
<linearGradient id="paint9_linear_87_5054" x1="30.5895" y1="24.245" x2="27.9863" y2="26.2132" gradientUnits="userSpaceOnUse">
<stop stop-color="#AF66DA" stop-opacity="0"/>
<stop offset="0.237" stop-color="#AA63D4" stop-opacity="0.237"/>
<stop offset="0.573" stop-color="#9B5AC1" stop-opacity="0.573"/>
<stop offset="0.967" stop-color="#834BA3" stop-opacity="0.967"/>
<stop offset="1" stop-color="#814AA0"/>
</linearGradient>
<linearGradient id="paint10_linear_87_5054" x1="28.111" y1="20.6524" x2="25.1269" y2="19.573" gradientUnits="userSpaceOnUse">
<stop stop-color="#AF66DA" stop-opacity="0"/>
<stop offset="0.237" stop-color="#AA63D4" stop-opacity="0.237"/>
<stop offset="0.573" stop-color="#9B5AC1" stop-opacity="0.573"/>
<stop offset="0.967" stop-color="#834BA3" stop-opacity="0.967"/>
<stop offset="1" stop-color="#814AA0"/>
</linearGradient>
<linearGradient id="paint11_linear_87_5054" x1="35.3099" y1="20.7332" x2="34.7597" y2="15.6115" gradientUnits="userSpaceOnUse">
<stop stop-color="#AF66DA" stop-opacity="0"/>
<stop offset="0.237" stop-color="#AA63D4" stop-opacity="0.237"/>
<stop offset="0.573" stop-color="#9B5AC1" stop-opacity="0.573"/>
<stop offset="0.967" stop-color="#834BA3" stop-opacity="0.967"/>
<stop offset="1" stop-color="#814AA0"/>
</linearGradient>
<radialGradient id="paint12_radial_87_5054" cx="0" cy="0" r="1" gradientUnits="userSpaceOnUse" gradientTransform="translate(31.5121 9.47353) scale(6.59175)">
<stop stop-color="#FBC9CF"/>
<stop offset="1" stop-color="#F28CC4"/>
</radialGradient>
<radialGradient id="paint13_radial_87_5054" cx="0" cy="0" r="1" gradientUnits="userSpaceOnUse" gradientTransform="translate(30.3878 9.49744) scale(8.93241)">
<stop stop-color="#AF66DA" stop-opacity="0"/>
<stop offset="0.766" stop-color="#814AA0"/>
<stop offset="0.829" stop-color="#844BA4" stop-opacity="0.73"/>
<stop offset="0.889" stop-color="#8D51AF" stop-opacity="0.475"/>
<stop offset="0.947" stop-color="#9C5AC2" stop-opacity="0.226"/>
<stop offset="1" stop-color="#AF66DA" stop-opacity="0"/>
</radialGradient>
<radialGradient id="paint14_radial_87_5054" cx="0" cy="0" r="1" gradientUnits="userSpaceOnUse" gradientTransform="translate(8.56766 18.5604) scale(8.64094 8.64094)">
<stop stop-color="#FEF0AE"/>
<stop offset="0.119" stop-color="#FEEFA8"/>
<stop offset="0.278" stop-color="#FDEB97"/>
<stop offset="0.46" stop-color="#FDE47B"/>
<stop offset="0.659" stop-color="#FCDB54"/>
<stop offset="0.87" stop-color="#FBCF22"/>
<stop offset="1" stop-color="#FAC600"/>
</radialGradient>
<radialGradient id="paint15_radial_87_5054" cx="0" cy="0" r="1" gradientUnits="userSpaceOnUse" gradientTransform="translate(5.1367 17.7014) scale(16.5848 16.5848)">
<stop stop-color="#FE9738" stop-opacity="0"/>
<stop offset="0.72" stop-color="#FE9738" stop-opacity="0.855"/>
<stop offset="0.841" stop-color="#FE9738"/>
<stop offset="1" stop-color="#FE9738" stop-opacity="0.012"/>
</radialGradient>
<linearGradient id="paint16_linear_87_5054" x1="13.5014" y1="20.5108" x2="12.4503" y2="15.8155" gradientUnits="userSpaceOnUse">
<stop stop-color="#FE9738" stop-opacity="0"/>
<stop offset="1" stop-color="#FE9738"/>
</linearGradient>
<radialGradient id="paint17_radial_87_5054" cx="0" cy="0" r="1" gradientUnits="userSpaceOnUse" gradientTransform="translate(9.62925 9.47353) scale(6.59175)">
<stop stop-color="#FEF0AE"/>
<stop offset="0.119" stop-color="#FEEFA8"/>
<stop offset="0.278" stop-color="#FDEB97"/>
<stop offset="0.46" stop-color="#FDE47B"/>
<stop offset="0.659" stop-color="#FCDB54"/>
<stop offset="0.87" stop-color="#FBCF22"/>
<stop offset="1" stop-color="#FAC600"/>
</radialGradient>
<radialGradient id="paint18_radial_87_5054" cx="0" cy="0" r="1" gradientUnits="userSpaceOnUse" gradientTransform="translate(8.50491 9.49744) scale(8.93241)">
<stop stop-color="#FE9738" stop-opacity="0"/>
<stop offset="0.72" stop-color="#FE9738" stop-opacity="0.855"/>
<stop offset="0.841" stop-color="#FE9738"/>
<stop offset="1" stop-color="#FE9738" stop-opacity="0.012"/>
</radialGradient>
<radialGradient id="paint19_radial_87_5054" cx="0" cy="0" r="1" gradientUnits="userSpaceOnUse" gradientTransform="translate(19.5039 23.5788) scale(8.63944 8.63944)">
<stop stop-color="#B3DAFE"/>
<stop offset="1" stop-color="#0182FC"/>
</radialGradient>
<radialGradient id="paint20_radial_87_5054" cx="0" cy="0" r="1" gradientUnits="userSpaceOnUse" gradientTransform="translate(16.0734 22.7199) scale(16.5818 16.5818)">
<stop stop-color="#0182FC" stop-opacity="0"/>
<stop offset="0.766" stop-color="#024C67"/>
<stop offset="0.806" stop-color="#024D6B" stop-opacity="0.827"/>
<stop offset="0.845" stop-color="#025176" stop-opacity="0.663"/>
<stop offset="0.882" stop-color="#025889" stop-opacity="0.503"/>
<stop offset="0.919" stop-color="#0262A4" stop-opacity="0.345"/>
<stop offset="0.956" stop-color="#016FC7" stop-opacity="0.189"/>
<stop offset="0.992" stop-color="#017EF1" stop-opacity="0.036"/>
<stop offset="1" stop-color="#0182FC" stop-opacity="0"/>
</radialGradient>
<linearGradient id="paint21_linear_87_5054" x1="24.3184" y1="25.0394" x2="23.4296" y2="20.5527" gradientUnits="userSpaceOnUse">
<stop stop-color="#0182FC" stop-opacity="0"/>
<stop offset="0.127" stop-color="#0180F5" stop-opacity="0.127"/>
<stop offset="0.311" stop-color="#0179E2" stop-opacity="0.311"/>
<stop offset="0.529" stop-color="#016DC2" stop-opacity="0.529"/>
<stop offset="0.771" stop-color="#025D97" stop-opacity="0.771"/>
<stop offset="1" stop-color="#024C67"/>
</linearGradient>
<radialGradient id="paint22_radial_87_5054" cx="0" cy="0" r="1" gradientUnits="userSpaceOnUse" gradientTransform="translate(20.5663 14.4935) scale(6.59063 6.59062)">
<stop stop-color="#B3DAFE"/>
<stop offset="1" stop-color="#0182FC"/>
</radialGradient>
<radialGradient id="paint23_radial_87_5054" cx="0" cy="0" r="1" gradientUnits="userSpaceOnUse" gradientTransform="translate(19.4421 14.5175) scale(8.93091 8.93091)">
<stop stop-color="#0182FC" stop-opacity="0"/>
<stop offset="0.766" stop-color="#024C67"/>
<stop offset="0.806" stop-color="#024D6B" stop-opacity="0.827"/>
<stop offset="0.845" stop-color="#025176" stop-opacity="0.663"/>
<stop offset="0.882" stop-color="#025889" stop-opacity="0.503"/>
<stop offset="0.919" stop-color="#0262A4" stop-opacity="0.345"/>
<stop offset="0.956" stop-color="#016FC7" stop-opacity="0.189"/>
<stop offset="0.992" stop-color="#017EF1" stop-opacity="0.036"/>
<stop offset="1" stop-color="#0182FC" stop-opacity="0"/>
</radialGradient>
<linearGradient id="paint24_linear_87_5054" x1="18.1953" y1="36.1541" x2="16.5262" y2="37.7968" gradientUnits="userSpaceOnUse">
<stop stop-color="#F89580" stop-opacity="0"/>
<stop offset="0.286" stop-color="#EE8E79" stop-opacity="0.287"/>
<stop offset="0.762" stop-color="#D57B65" stop-opacity="0.765"/>
<stop offset="0.997" stop-color="#C5715A"/>
</linearGradient>
<linearGradient id="paint25_linear_87_5054" x1="11.8084" y1="31.5784" x2="7.77776" y2="35.2553" gradientUnits="userSpaceOnUse">
<stop stop-color="#FFDFCF"/>
<stop offset="1" stop-color="#FFA78F"/>
</linearGradient>
<linearGradient id="paint26_linear_87_5054" x1="9.84045" y1="33.3109" x2="6.77633" y2="35.9509" gradientUnits="userSpaceOnUse">
<stop stop-color="#F89580" stop-opacity="0"/>
<stop offset="0.286" stop-color="#EE8E79" stop-opacity="0.287"/>
<stop offset="0.762" stop-color="#D57B65" stop-opacity="0.765"/>
<stop offset="0.997" stop-color="#C5715A"/>
</linearGradient>
<linearGradient id="paint27_linear_87_5054" x1="17.44" y1="33.3775" x2="13.1191" y2="37.6983" gradientUnits="userSpaceOnUse">
<stop stop-color="#FFDFCF"/>
<stop offset="1" stop-color="#FFA78F"/>
</linearGradient>
<linearGradient id="paint28_linear_87_5054" x1="15.2043" y1="35.1442" x2="12.3759" y2="37.5013" gradientUnits="userSpaceOnUse">
<stop stop-color="#F89580" stop-opacity="0"/>
<stop offset="0.286" stop-color="#EE8E79" stop-opacity="0.287"/>
<stop offset="0.762" stop-color="#D57B65" stop-opacity="0.765"/>
<stop offset="0.997" stop-color="#C5715A"/>
</linearGradient>
<linearGradient id="paint29_linear_87_5054" x1="27.1524" y1="24.2515" x2="19.5862" y2="43.1317" gradientUnits="userSpaceOnUse">
<stop stop-color="#FFDFCF"/>
<stop offset="1" stop-color="#FFA78F"/>
</linearGradient>
<linearGradient id="paint30_linear_87_5054" x1="21.3665" y1="35.3407" x2="17.4307" y2="39.2141" gradientUnits="userSpaceOnUse">
<stop stop-color="#F89580" stop-opacity="0"/>
<stop offset="0.286" stop-color="#EE8E79" stop-opacity="0.287"/>
<stop offset="0.762" stop-color="#D57B65" stop-opacity="0.765"/>
<stop offset="0.997" stop-color="#C5715A"/>
</linearGradient>
<linearGradient id="paint31_linear_87_5054" x1="29.1021" y1="37.6657" x2="28.8768" y2="42.8481" gradientUnits="userSpaceOnUse">
<stop stop-color="#F89580" stop-opacity="0"/>
<stop offset="0.286" stop-color="#EE8E79" stop-opacity="0.287"/>
<stop offset="0.762" stop-color="#D57B65" stop-opacity="0.765"/>
<stop offset="0.997" stop-color="#C5715A"/>
</linearGradient>
<linearGradient id="paint32_linear_87_5054" x1="43.2772" y1="33.3353" x2="47.7583" y2="33.3352" gradientUnits="userSpaceOnUse">
<stop stop-color="#EAF6FF"/>
<stop offset="1" stop-color="#B4D2E2"/>
</linearGradient>
<linearGradient id="paint33_linear_87_5054" x1="45.9022" y1="33.3351" x2="48.1316" y2="33.3352" gradientUnits="userSpaceOnUse">
<stop stop-color="#3692BC" stop-opacity="0"/>
<stop offset="1" stop-color="#3692BC"/>
</linearGradient>
<linearGradient id="paint34_linear_87_5054" x1="45.4253" y1="40.9427" x2="45.4253" y2="43.7724" gradientUnits="userSpaceOnUse">
<stop stop-color="#3692BC" stop-opacity="0"/>
<stop offset="1" stop-color="#3692BC"/>
</linearGradient>
</defs>
</svg>
