<svg width="60" height="60" viewBox="0 0 60 60" fill="none" xmlns="http://www.w3.org/2000/svg">
<g clip-path="url(#clip0_1_368)">
<path d="M6.60471 24.0592H1.83929C0.823529 24.0592 0 23.2356 0 22.2199V10.9547C0 9.93882 0.823529 9.1153 1.83929 9.1153H6.60471V24.0592Z" fill="url(#paint0_linear_1_368)"/>
<path d="M6.60471 50.8847H1.83929C0.823529 50.8847 0 50.0612 0 49.0453V37.7801C0 36.7642 0.823529 35.9408 1.83929 35.9408H6.60471V50.8847Z" fill="url(#paint1_linear_1_368)"/>
<path d="M54.6443 58.3488H8.65813C5.70025 58.3488 3.30237 55.9509 3.30237 52.9931V7.00693C3.30237 4.04905 5.70025 1.65117 8.65813 1.65117H54.6443C57.6021 1.65117 60 4.04905 60 7.00693V52.9931C60 55.9509 57.6021 58.3488 54.6443 58.3488Z" fill="url(#paint2_linear_1_368)"/>
<path d="M60 52.9931V22.102L49.8065 11.8445C48.7042 10.7435 47.1622 10.9879 46.06 12.0888L39.9625 18.1864C37.5909 16.5811 34.7306 15.3989 31.6511 15.3989C23.4519 15.3989 17.0502 21.8006 17.0502 29.9998C17.0502 33.0793 18.1101 36.0619 19.7154 38.4334L13.6179 44.4088C12.5169 45.5111 12.3947 47.0531 13.4956 48.1553L23.7462 58.3488H54.6443C57.6021 58.3488 60 55.9509 60 52.9931Z" fill="url(#paint3_linear_1_368)"/>
<path d="M31.6511 38.1945C36.1768 38.1945 39.8457 34.5256 39.8457 29.9999C39.8457 25.4741 36.1768 21.8053 31.6511 21.8053C27.1253 21.8053 23.4565 25.4741 23.4565 29.9999C23.4565 34.5256 27.1253 38.1945 31.6511 38.1945Z" fill="url(#paint4_linear_1_368)"/>
<path d="M25.6977 39.9439L17.4863 48.1553C16.3841 49.2562 14.5976 49.2562 13.4955 48.1553C12.3946 47.0531 12.3946 45.2666 13.4955 44.1645L21.7069 35.9531C22.6895 37.5907 24.0601 38.9613 25.6977 39.9439Z" fill="url(#paint5_linear_1_368)"/>
<path d="M50.6325 13.8398C50.6328 14.2103 50.56 14.5773 50.4183 14.9198C50.2765 15.2622 50.0686 15.5732 49.8065 15.8352L41.5951 24.0466C40.6124 22.409 39.2418 21.0384 37.6042 20.0558L45.8157 11.8444C46.9179 10.7434 48.7044 10.7434 49.8065 11.8444C50.0686 12.1063 50.2765 12.4174 50.4182 12.7598C50.56 13.1022 50.6328 13.4692 50.6325 13.8398Z" fill="url(#paint6_linear_1_368)"/>
<path d="M17.4863 11.8444L25.6977 20.0558C24.0602 21.0384 22.6896 22.409 21.7069 24.0466L13.4955 15.8352C12.3946 14.7329 12.3946 12.9465 13.4955 11.8444C14.5977 10.7434 16.3842 10.7434 17.4863 11.8444Z" fill="url(#paint7_linear_1_368)"/>
<path d="M49.8065 48.1553C49.2554 48.7052 48.5332 48.9813 47.8111 48.9813C47.089 48.9813 46.3667 48.7052 45.8157 48.1553L37.6042 39.9439C39.2418 38.9612 40.6124 37.5907 41.5951 35.9531L49.8065 44.1645C50.9074 45.2667 50.9074 47.0532 49.8065 48.1553Z" fill="url(#paint8_linear_1_368)"/>
<path d="M31.6511 15.1546C23.4519 15.1546 16.8058 21.8007 16.8058 29.9999C16.8058 38.199 23.4519 44.8452 31.6511 44.8452C39.8503 44.8452 46.4964 38.199 46.4964 29.9999C46.4964 21.8007 39.8503 15.1546 31.6511 15.1546ZM31.6511 37.3339C27.6004 37.3339 24.3171 34.0506 24.3171 29.9999C24.3171 25.9492 27.6004 22.6659 31.6511 22.6659C35.7018 22.6659 38.9851 25.9492 38.9851 29.9999C38.9851 34.0506 35.7018 37.3339 31.6511 37.3339Z" fill="url(#paint9_linear_1_368)"/>
<path d="M31.6511 41.5887C38.0515 41.5887 43.2399 36.4003 43.2399 29.9999C43.2399 23.5994 38.0515 18.411 31.6511 18.411C25.2506 18.411 20.0623 23.5994 20.0623 29.9999C20.0623 36.4003 25.2506 41.5887 31.6511 41.5887ZM31.6511 22.6657C35.7018 22.6657 38.9851 25.949 38.9851 29.9997C38.9851 34.0505 35.7018 37.3337 31.6511 37.3337C27.6004 37.3337 24.3171 34.0505 24.3171 29.9997C24.3171 25.949 27.6004 22.6657 31.6511 22.6657Z" fill="url(#paint10_linear_1_368)"/>
<path d="M3.30237 47.9774V52.9931C3.30237 55.9509 5.70025 58.3488 8.65813 58.3488H54.6443C57.6021 58.3488 60 55.9509 60 52.9931V47.9774H3.30237Z" fill="url(#paint11_linear_1_368)"/>
<path d="M60 27.4207L55.1685 22.589C54.8345 22.1941 54.336 21.9428 53.7782 21.9428C52.7725 21.9428 51.9573 22.7581 51.9573 23.7638V36.5109C51.9573 37.0687 52.2087 37.5672 52.6035 37.9012L60 45.2979V27.4207Z" fill="url(#paint12_linear_1_368)"/>
<path d="M53.6407 38.1946C52.6349 38.1946 51.8196 37.3793 51.8196 36.3736V23.6265C51.8196 22.6207 52.6349 21.8055 53.6406 21.8055C54.6463 21.8055 55.4615 22.6208 55.4615 23.6265V36.3736C55.4616 37.3793 54.6465 38.1946 53.6407 38.1946Z" fill="url(#paint13_linear_1_368)"/>
</g>
<defs>
<linearGradient id="paint0_linear_1_368" x1="0.858471" y1="16.5873" x2="3.058" y2="16.5873" gradientUnits="userSpaceOnUse">
<stop stop-color="#7FAEF4"/>
<stop offset="1" stop-color="#4C8DF1"/>
</linearGradient>
<linearGradient id="paint1_linear_1_368" x1="0.858471" y1="43.4127" x2="3.058" y2="43.4127" gradientUnits="userSpaceOnUse">
<stop stop-color="#7FAEF4"/>
<stop offset="1" stop-color="#4C8DF1"/>
</linearGradient>
<linearGradient id="paint2_linear_1_368" x1="15.2483" y1="13.5971" x2="55.6334" y2="53.9821" gradientUnits="userSpaceOnUse">
<stop stop-color="#7FAEF4"/>
<stop offset="1" stop-color="#4C8DF1"/>
</linearGradient>
<linearGradient id="paint3_linear_1_368" x1="44.6296" y1="42.9785" x2="28.7354" y2="27.0842" gradientUnits="userSpaceOnUse">
<stop stop-color="#4C8DF1" stop-opacity="0"/>
<stop offset="0.563" stop-color="#466CC8" stop-opacity="0.563"/>
<stop offset="1" stop-color="#4256AC"/>
</linearGradient>
<linearGradient id="paint4_linear_1_368" x1="34.8893" y1="33.2381" x2="26.0499" y2="24.3987" gradientUnits="userSpaceOnUse">
<stop stop-color="#4C8DF1" stop-opacity="0"/>
<stop offset="0.563" stop-color="#466CC8" stop-opacity="0.563"/>
<stop offset="1" stop-color="#4256AC"/>
</linearGradient>
<linearGradient id="paint5_linear_1_368" x1="17.3157" y1="41.7687" x2="20.0716" y2="44.5246" gradientUnits="userSpaceOnUse">
<stop stop-color="#E3E5E4"/>
<stop offset="1" stop-color="#CBD0E4"/>
</linearGradient>
<linearGradient id="paint6_linear_1_368" x1="43.4199" y1="15.6645" x2="46.1758" y2="18.4205" gradientUnits="userSpaceOnUse">
<stop stop-color="#E3E5E4"/>
<stop offset="1" stop-color="#CBD0E4"/>
</linearGradient>
<linearGradient id="paint7_linear_1_368" x1="19.5155" y1="16.0312" x2="16.3169" y2="19.2299" gradientUnits="userSpaceOnUse">
<stop stop-color="#E3E5E4"/>
<stop offset="1" stop-color="#CBD0E4"/>
</linearGradient>
<linearGradient id="paint8_linear_1_368" x1="45.6198" y1="42.1353" x2="42.4211" y2="45.334" gradientUnits="userSpaceOnUse">
<stop stop-color="#E3E5E4"/>
<stop offset="1" stop-color="#CBD0E4"/>
</linearGradient>
<linearGradient id="paint9_linear_1_368" x1="26.1361" y1="24.4849" x2="37.5052" y2="35.854" gradientUnits="userSpaceOnUse">
<stop stop-color="#EBEFF0"/>
<stop offset="1" stop-color="#E3E5E4"/>
</linearGradient>
<linearGradient id="paint10_linear_1_368" x1="35.9563" y1="34.305" x2="27.0811" y2="25.4299" gradientUnits="userSpaceOnUse">
<stop stop-color="#E3E5E4"/>
<stop offset="1" stop-color="#CBD0E4"/>
</linearGradient>
<linearGradient id="paint11_linear_1_368" x1="31.6512" y1="53.6549" x2="31.6512" y2="61.7586" gradientUnits="userSpaceOnUse">
<stop stop-color="#4256AC" stop-opacity="0"/>
<stop offset="1" stop-color="#1B1464"/>
</linearGradient>
<linearGradient id="paint12_linear_1_368" x1="58.6181" y1="33.9875" x2="52.6612" y2="32.6434" gradientUnits="userSpaceOnUse">
<stop stop-color="#4C8DF1" stop-opacity="0"/>
<stop offset="0.563" stop-color="#466CC8" stop-opacity="0.563"/>
<stop offset="1" stop-color="#4256AC"/>
</linearGradient>
<linearGradient id="paint13_linear_1_368" x1="53.2182" y1="30" x2="55.1474" y2="30" gradientUnits="userSpaceOnUse">
<stop stop-color="#E3E5E4"/>
<stop offset="1" stop-color="#CBD0E4"/>
</linearGradient>
<clipPath id="clip0_1_368">
<rect width="60" height="60" fill="white"/>
</clipPath>
</defs>
</svg>
