<svg width="22" height="22" viewBox="0 0 22 22" fill="none" xmlns="http://www.w3.org/2000/svg">
<g clip-path="url(#clip0_52_819)">
<path d="M12.8386 13.4788C12.2913 13.8437 11.6555 14.0366 11 14.0366C10.3446 14.0366 9.70879 13.8437 9.16145 13.4788L0.14648 7.46865C0.0967142 7.43537 0.0478691 7.40074 0 7.36479L0 17.2131C0 18.3422 0.916309 19.2383 2.02525 19.2383H19.9747C21.1038 19.2383 22 18.322 22 17.2131V7.36475C21.952 7.40079 21.9031 7.4355 21.8532 7.46882L12.8386 13.4788Z" fill="#D6B469"/>
<path d="M0.861524 6.39604L9.8765 12.4063C10.2178 12.6338 10.6089 12.7475 11 12.7475C11.3911 12.7475 11.7822 12.6337 12.1235 12.4063L21.1385 6.39604C21.678 6.03661 22 5.43505 22 4.78579C22 3.66942 21.0918 2.76123 19.9754 2.76123H2.02456C0.908232 2.76127 1.06567e-06 3.66946 1.06567e-06 4.78686C-0.000333601 5.10535 0.0781614 5.41897 0.228485 5.69975C0.378809 5.98053 0.596288 6.21974 0.861524 6.39604Z" fill="#D6B469"/>
</g>
<defs>
<clipPath id="clip0_52_819">
<rect width="22" height="22" fill="white"/>
</clipPath>
</defs>
</svg>
