<svg width="60" height="60" viewBox="0 0 60 60" fill="none" xmlns="http://www.w3.org/2000/svg">
<g clip-path="url(#clip0_57_5618)">
<path d="M53.1854 29.488C52.5326 38.2267 48.4861 46.3828 41.8697 52.1297C39.1146 54.5227 36.1146 56.7398 32.5486 59.2043C31.7996 59.7222 30.9105 59.9997 29.9998 59.9997C29.0891 59.9997 28.2 59.7222 27.451 59.2043C23.9705 56.7984 21.0291 54.6293 18.3291 52.3019C11.6213 46.5211 7.47402 38.3168 6.81438 29.4868C6.36789 23.5114 6.53078 17.0919 7.31945 11.9135L7.32004 11.9093C7.35215 11.6948 7.55055 11.5506 7.76582 11.5765C7.96176 11.6 8.16133 11.6122 8.36359 11.6122C10.4903 11.6122 12.3025 10.2647 12.9938 8.37726C13.285 7.58203 14.0184 7.035 14.8615 6.95625C19.7421 6.50086 25.0543 4.87652 28.2421 0.849841C29.1386 -0.283362 30.8612 -0.283362 31.7577 0.849841C34.9456 4.8764 40.2577 6.50086 45.1382 6.95625C45.9814 7.03488 46.7147 7.58203 47.0059 8.37726C47.6972 10.2647 49.5094 11.6122 51.6361 11.6122C51.8384 11.6122 52.038 11.6 52.2339 11.5765C52.4492 11.5506 52.6476 11.6948 52.6797 11.9093L52.6803 11.9135C53.4689 17.092 53.6318 23.5127 53.1854 29.488Z" fill="url(#paint0_linear_57_5618)"/>
<path d="M44.2196 9.80251C40.3207 9.35638 35.2859 8.09744 31.4623 4.7631C30.625 4.03291 29.3747 4.03291 28.5374 4.7631C24.7138 8.09732 19.679 9.35638 15.7802 9.80251C15.4663 9.83837 15.1962 10.0296 15.0454 10.3071C14.1023 12.0428 12.5035 13.3696 10.5808 13.9552C10.4003 14.0102 10.24 14.1171 10.1198 14.2625C9.99961 14.408 9.9249 14.5856 9.90496 14.7733C9.43293 19.1875 9.36766 24.3322 9.73621 29.2684C10.0354 33.2749 11.1061 37.1269 12.919 40.7173C14.7307 44.3053 17.1945 47.4564 20.2418 50.0828C22.6034 52.1181 25.248 54.119 29.0787 56.7683C29.2929 56.9165 29.5373 57.0239 29.7957 57.0572C30.1844 57.1071 30.5665 57.0136 30.883 56.7948C34.8271 54.0682 37.5385 52.0116 39.9488 49.9179C42.9429 47.3172 45.3632 44.19 47.1422 40.6233C48.9166 37.0662 49.9666 33.2463 50.2636 29.2699C50.6323 24.3332 50.5669 19.1878 50.095 14.7734C50.0751 14.5857 50.0004 14.4081 49.8802 14.2626C49.76 14.1172 49.5997 14.0103 49.4192 13.9553C47.4965 13.3697 45.8977 12.0428 44.9546 10.3072C44.8035 10.0296 44.5334 9.83849 44.2196 9.80251Z" fill="url(#paint1_linear_57_5618)"/>
<path d="M52.6796 11.9093C52.6475 11.6949 52.4491 11.5507 52.2339 11.5766C52.0355 11.6004 51.836 11.6124 51.6362 11.6124C49.5095 11.6124 47.6973 10.2648 47.006 8.3774C46.7148 7.58216 45.9814 7.03513 45.1383 6.95638C40.2576 6.50087 34.9455 4.87654 31.7577 0.849856C31.177 0.115911 30.2504 -0.139675 29.4255 0.0772391V59.9603C30.5014 60.0992 31.6165 59.8488 32.5487 59.2043C36.1147 56.7399 39.1147 54.5227 41.8698 52.1297C48.4862 46.3828 52.5327 38.2267 53.1854 29.488C53.6319 23.5126 53.469 17.092 52.6803 11.9135L52.6796 11.9093Z" fill="url(#paint2_linear_57_5618)"/>
<path d="M53.0565 30.8204C52.0979 39.1398 48.0393 46.8134 41.6709 52.302C38.9707 54.6292 36.0293 56.7988 32.5492 59.2047C31.8001 59.7226 30.911 60 30.0002 60C29.0895 60 28.2004 59.7226 27.4513 59.2047C23.8854 56.7395 20.885 54.5224 18.1303 52.1296C11.8519 46.6761 7.88954 39.0525 6.9436 30.8204H53.0565Z" fill="url(#paint3_linear_57_5618)"/>
<path d="M6.9436 30.8204C7.9022 39.1398 11.9609 46.8134 18.3292 52.302C21.0294 54.6292 23.9708 56.7988 27.4509 59.2047C28.2001 59.7226 29.0892 60 29.9999 60C30.9106 60 31.7997 59.7226 32.5488 59.2047C36.1147 56.7395 39.1151 54.5224 41.8698 52.1296C48.1483 46.6761 52.1106 39.0525 53.0564 30.8204H6.9436Z" fill="url(#paint4_linear_57_5618)"/>
<path d="M20.2418 50.0828C22.6034 52.1181 25.2478 54.1188 29.0786 56.7682C29.2928 56.9163 29.537 57.0238 29.7954 57.0571C30.1842 57.1071 30.5664 57.0135 30.883 56.7947C34.8271 54.0681 37.5384 52.0115 39.9488 49.9178C42.7181 47.5123 44.9954 44.6555 46.7297 41.4181L44.769 39.4574H12.3193C12.5097 39.8818 12.7096 40.3019 12.919 40.7173C14.7307 44.3053 17.1945 47.4564 20.2418 50.0828Z" fill="url(#paint5_linear_57_5618)"/>
<path d="M49.4191 13.9553C47.4964 13.3697 45.8976 12.0429 44.9545 10.3072C44.8036 10.0297 44.5334 9.83847 44.2197 9.80261C44.019 9.77949 43.8184 9.75456 43.6182 9.72784L39.9795 11.9453V41.5186H46.6748C46.8354 41.2227 46.9912 40.9243 47.1421 40.6234C48.9164 37.0663 49.9664 33.2464 50.2635 29.27C50.6322 24.3333 50.5668 19.1879 50.0949 14.7735C50.075 14.5858 50.0003 14.4082 49.8801 14.2627C49.7599 14.1172 49.5996 14.0103 49.4191 13.9553Z" fill="url(#paint6_linear_57_5618)"/>
<path d="M40.6129 19.7702L41.3944 18.6354C42.4 17.0486 43.3173 15.4075 44.1422 13.7197C44.9298 12.1067 44.2209 10.1607 42.5858 9.42175C42.4014 9.33817 42.2093 9.27255 42.0122 9.22581C40.669 8.90378 39.2383 9.48866 38.5166 10.7231C38.3378 11.0293 38.1213 11.3742 37.8748 11.7466C36.251 14.1992 34.298 16.4016 32.0876 18.3122C31.945 18.4235 31.805 18.5382 31.6677 18.6561C29.6823 20.3714 27.1398 21.3062 24.5165 21.3062H23.0979V40.1249H26.0292C26.9672 40.1249 27.8897 40.3631 28.7105 40.8171C29.388 41.1904 30.1099 41.4768 30.8591 41.6695C31.6076 41.8616 32.3773 41.9591 33.1501 41.9596H44.0748V19.7705L40.6129 19.7702Z" fill="url(#paint7_linear_57_5618)"/>
<path d="M44.0748 19.7704V41.9595H33.1501C32.3773 41.9591 31.6076 41.8616 30.8591 41.6695C30.1099 41.4767 29.388 41.1904 28.7105 40.8171C27.8897 40.3631 26.9672 40.1249 26.0292 40.1249H23.0979V21.3062H24.5165C26.4988 21.3062 28.436 20.772 30.1201 19.7704H44.0748Z" fill="url(#paint8_linear_57_5618)"/>
<path d="M44.1422 13.7197C44.9298 12.1067 44.2209 10.1607 42.5858 9.42175C42.4014 9.33817 42.2093 9.27255 42.0122 9.22581C40.669 8.90378 39.2383 9.48866 38.5166 10.7231C38.3378 11.0293 38.1213 11.3742 37.8748 11.7466C36.251 14.1992 34.298 16.4016 32.0876 18.3122C31.945 18.4235 31.805 18.5382 31.6677 18.6561C29.6823 20.3714 27.1398 21.3062 24.5165 21.3062H23.0979V34.0923C24.3554 34.5433 25.7109 34.7897 27.1242 34.7897C32.7738 34.7897 37.5059 30.8612 38.7374 25.5869L40.6127 19.7701L41.3943 18.6353C42.3999 17.0485 43.3172 15.4075 44.1422 13.7197Z" fill="url(#paint9_linear_57_5618)"/>
<path d="M40.6128 19.7702L40.6141 19.7698L41.3945 18.6354C42.4001 17.0486 43.3174 15.4075 44.1423 13.7197C44.9299 12.1067 44.221 10.1607 42.5859 9.42175C42.4014 9.33817 42.2093 9.27255 42.0123 9.22581C40.6691 8.90378 39.2383 9.48866 38.5167 10.7231C38.3379 11.0293 38.1214 11.3742 37.8749 11.7466C35.8208 14.8493 33.2413 17.5535 30.2778 19.7702H40.6128Z" fill="url(#paint10_linear_57_5618)"/>
<path d="M33.6839 16.7014C33.049 17.3902 32.3759 18.0427 31.6678 18.6559C29.3259 20.6791 26.2089 21.6165 23.0987 21.2149C23.0981 21.2148 23.0977 21.2152 23.0977 21.2158V40.1252H26.0293C26.9672 40.1252 27.8898 40.3631 28.7107 40.8167C29.3881 41.1901 30.1098 41.4766 30.8589 41.6695C31.6074 41.8616 32.3771 41.959 33.1499 41.9594H33.6839V16.7014Z" fill="url(#paint11_linear_57_5618)"/>
<path d="M23.0979 28.9719V40.1249H26.0292C26.9672 40.125 27.8897 40.3631 28.7105 40.8171C29.388 41.1905 30.1099 41.4769 30.8591 41.6695C31.6076 41.8617 32.3773 41.9591 33.1501 41.9596H44.0748V28.9719H23.0979Z" fill="url(#paint12_linear_57_5618)"/>
<path d="M23.1246 41.6306H17.241C16.3322 41.6306 15.5955 40.8939 15.5955 39.9851V21.4999C15.5955 20.5911 16.3322 19.8544 17.241 19.8544H23.1246C24.0334 19.8544 24.7702 20.5911 24.7702 21.4999V39.9851C24.7702 40.8939 24.0334 41.6306 23.1246 41.6306Z" fill="url(#paint13_linear_57_5618)"/>
<path d="M23.1246 41.6306H17.241C16.3322 41.6306 15.5955 40.8939 15.5955 39.9851V21.4999C15.5955 20.5911 16.3322 19.8544 17.241 19.8544H23.1246C24.0334 19.8544 24.7702 20.5911 24.7702 21.4999V39.9851C24.7702 40.8939 24.0334 41.6306 23.1246 41.6306Z" fill="url(#paint14_linear_57_5618)"/>
<path d="M24.7702 39.9851V27.4581H15.5955V39.9851C15.5955 40.8938 16.3322 41.6306 17.241 41.6306H23.1246C24.0334 41.6306 24.7702 40.8938 24.7702 39.9851Z" fill="url(#paint15_linear_57_5618)"/>
<path d="M19.9981 43.7447H12.9721C11.8868 43.7447 11.0071 42.8649 11.0071 41.7797V19.7053C11.0071 18.62 11.8868 17.7403 12.9721 17.7403H19.9981C21.0833 17.7403 21.9631 18.62 21.9631 19.7053V41.7797C21.9632 42.8648 21.0833 43.7447 19.9981 43.7447Z" fill="url(#paint16_linear_57_5618)"/>
<path d="M21.9632 41.7796V26.8204H11.0071V41.7796C11.0071 42.8649 11.8868 43.7446 12.9721 43.7446H19.9981C21.0833 43.7447 21.9632 42.8649 21.9632 41.7796Z" fill="url(#paint17_linear_57_5618)"/>
<path d="M34.6121 22.593C34.6121 21.0341 35.8759 19.7702 37.4349 19.7702H45.6589C47.15 19.7702 48.3994 21.1092 48.3994 22.5918C48.3994 25.2234 46.5823 25.4066 46.4618 25.4158H37.4349C35.8758 25.4158 34.6121 24.152 34.6121 22.593Z" fill="url(#paint18_linear_57_5618)"/>
<path d="M45.6588 19.7702H41.9683V25.4158H46.4618C46.5823 25.4066 48.3994 25.2234 48.3994 22.5918C48.3994 21.1091 47.1499 19.7702 45.6588 19.7702Z" fill="url(#paint19_linear_57_5618)"/>
<path d="M34.6121 28.2386C34.6121 26.6797 35.8759 25.4158 37.4349 25.4158H46.2524C47.7435 25.4158 48.993 26.7548 48.993 28.2375C48.993 30.869 47.1759 31.0522 47.0554 31.0615H37.4349C35.8758 31.0615 34.6121 29.7976 34.6121 28.2386Z" fill="url(#paint20_linear_57_5618)"/>
<path d="M46.2525 25.4158H41.9683V31.0615H47.0555C47.176 31.0522 48.9931 30.869 48.9931 28.2375C48.9929 26.7547 47.7435 25.4158 46.2525 25.4158Z" fill="url(#paint21_linear_57_5618)"/>
<path d="M34.6121 33.8843C34.6121 32.3253 35.8759 31.0615 37.4349 31.0615H45.6589C47.15 31.0615 48.3994 32.4004 48.3994 33.8831C48.3994 36.5147 46.5823 36.6978 46.4618 36.7071H37.4349C35.8758 36.7071 34.6121 35.4432 34.6121 33.8843Z" fill="url(#paint22_linear_57_5618)"/>
<path d="M45.6588 31.0615H41.9683V36.7071H46.4618C46.5823 36.6978 48.3994 36.5147 48.3994 33.8831C48.3994 32.4003 47.1499 31.0615 45.6588 31.0615Z" fill="url(#paint23_linear_57_5618)"/>
<path d="M34.6121 39.5299C34.6121 37.971 35.8759 36.7071 37.4349 36.7071H44.7C46.1911 36.7071 47.4406 38.0461 47.4406 39.5287C47.4406 42.1603 45.6235 42.3435 45.503 42.3527H37.4349C35.8758 42.3527 34.6121 41.0888 34.6121 39.5299Z" fill="url(#paint24_linear_57_5618)"/>
<path d="M44.7 36.7071H40.4158V42.3527H45.503C45.6235 42.3435 47.4406 42.1603 47.4406 39.5287C47.4406 38.046 46.1911 36.7071 44.7 36.7071Z" fill="url(#paint25_linear_57_5618)"/>
</g>
<defs>
<linearGradient id="paint0_linear_57_5618" x1="14.0421" y1="10.6541" x2="50.9882" y2="47.6002" gradientUnits="userSpaceOnUse">
<stop stop-color="#B3DAFE"/>
<stop offset="1" stop-color="#0182FC"/>
</linearGradient>
<linearGradient id="paint1_linear_57_5618" x1="54.1558" y1="43.7004" x2="4.59297" y2="14.0851" gradientUnits="userSpaceOnUse">
<stop stop-color="#B3DAFE"/>
<stop offset="1" stop-color="#0182FC"/>
</linearGradient>
<linearGradient id="paint2_linear_57_5618" x1="46.4994" y1="30.7511" x2="54.7698" y2="31.127" gradientUnits="userSpaceOnUse">
<stop stop-color="#314DC9" stop-opacity="0"/>
<stop offset="0.276" stop-color="#304BC4" stop-opacity="0.276"/>
<stop offset="0.563" stop-color="#2B45B8" stop-opacity="0.563"/>
<stop offset="0.854" stop-color="#243BA3" stop-opacity="0.854"/>
<stop offset="1" stop-color="#1F3596"/>
</linearGradient>
<linearGradient id="paint3_linear_57_5618" x1="21.6484" y1="46.3839" x2="16.469" y2="53.9024" gradientUnits="userSpaceOnUse">
<stop stop-color="#314DC9" stop-opacity="0"/>
<stop offset="0.276" stop-color="#304BC4" stop-opacity="0.276"/>
<stop offset="0.563" stop-color="#2B45B8" stop-opacity="0.563"/>
<stop offset="0.854" stop-color="#243BA3" stop-opacity="0.854"/>
<stop offset="1" stop-color="#1F3596"/>
</linearGradient>
<linearGradient id="paint4_linear_57_5618" x1="38.3517" y1="46.3839" x2="43.5312" y2="53.9024" gradientUnits="userSpaceOnUse">
<stop stop-color="#314DC9" stop-opacity="0"/>
<stop offset="0.276" stop-color="#304BC4" stop-opacity="0.276"/>
<stop offset="0.563" stop-color="#2B45B8" stop-opacity="0.563"/>
<stop offset="0.854" stop-color="#243BA3" stop-opacity="0.854"/>
<stop offset="1" stop-color="#1F3596"/>
</linearGradient>
<linearGradient id="paint5_linear_57_5618" x1="29.3797" y1="51.9695" x2="29.5467" y2="38.6589" gradientUnits="userSpaceOnUse">
<stop stop-color="#314DC9" stop-opacity="0"/>
<stop offset="0.276" stop-color="#304BC4" stop-opacity="0.276"/>
<stop offset="0.563" stop-color="#2B45B8" stop-opacity="0.563"/>
<stop offset="0.854" stop-color="#243BA3" stop-opacity="0.854"/>
<stop offset="1" stop-color="#1F3596"/>
</linearGradient>
<linearGradient id="paint6_linear_57_5618" x1="45.9774" y1="26.8326" x2="37.3311" y2="24.2012" gradientUnits="userSpaceOnUse">
<stop stop-color="#314DC9" stop-opacity="0"/>
<stop offset="0.276" stop-color="#304BC4" stop-opacity="0.276"/>
<stop offset="0.563" stop-color="#2B45B8" stop-opacity="0.563"/>
<stop offset="0.854" stop-color="#243BA3" stop-opacity="0.854"/>
<stop offset="1" stop-color="#1F3596"/>
</linearGradient>
<linearGradient id="paint7_linear_57_5618" x1="30.2318" y1="19.7338" x2="44.1561" y2="43.513" gradientUnits="userSpaceOnUse">
<stop stop-color="#FFDFCF"/>
<stop offset="1" stop-color="#FFA78F"/>
</linearGradient>
<linearGradient id="paint8_linear_57_5618" x1="31.228" y1="29.2029" x2="38.2623" y2="31.4242" gradientUnits="userSpaceOnUse">
<stop stop-color="#F89580" stop-opacity="0"/>
<stop offset="0.286" stop-color="#EE8E79" stop-opacity="0.287"/>
<stop offset="0.762" stop-color="#D57B65" stop-opacity="0.765"/>
<stop offset="0.997" stop-color="#C5715A"/>
</linearGradient>
<linearGradient id="paint9_linear_57_5618" x1="34.6175" y1="23.3429" x2="40.9642" y2="29.4779" gradientUnits="userSpaceOnUse">
<stop stop-color="#F89580" stop-opacity="0"/>
<stop offset="0.286" stop-color="#EE8E79" stop-opacity="0.287"/>
<stop offset="0.762" stop-color="#D57B65" stop-opacity="0.765"/>
<stop offset="0.997" stop-color="#C5715A"/>
</linearGradient>
<linearGradient id="paint10_linear_57_5618" x1="39.0186" y1="16.5216" x2="42.5797" y2="19.2448" gradientUnits="userSpaceOnUse">
<stop stop-color="#F89580" stop-opacity="0"/>
<stop offset="0.286" stop-color="#EE8E79" stop-opacity="0.287"/>
<stop offset="0.762" stop-color="#D57B65" stop-opacity="0.765"/>
<stop offset="0.997" stop-color="#C5715A"/>
</linearGradient>
<linearGradient id="paint11_linear_57_5618" x1="28.0886" y1="29.3305" x2="23.3982" y2="29.3305" gradientUnits="userSpaceOnUse">
<stop stop-color="#F89580" stop-opacity="0"/>
<stop offset="0.286" stop-color="#EE8E79" stop-opacity="0.287"/>
<stop offset="0.762" stop-color="#D57B65" stop-opacity="0.765"/>
<stop offset="0.997" stop-color="#C5715A"/>
</linearGradient>
<linearGradient id="paint12_linear_57_5618" x1="33.5863" y1="36.5878" x2="33.5863" y2="42.1951" gradientUnits="userSpaceOnUse">
<stop stop-color="#F89580" stop-opacity="0"/>
<stop offset="0.286" stop-color="#EE8E79" stop-opacity="0.287"/>
<stop offset="0.762" stop-color="#D57B65" stop-opacity="0.765"/>
<stop offset="0.997" stop-color="#C5715A"/>
</linearGradient>
<linearGradient id="paint13_linear_57_5618" x1="19.8505" y1="30.7424" x2="24.4073" y2="30.7424" gradientUnits="userSpaceOnUse">
<stop stop-color="#F5FBFF"/>
<stop offset="1" stop-color="#D8ECFE"/>
</linearGradient>
<linearGradient id="paint14_linear_57_5618" x1="24.5385" y1="30.7425" x2="22.0292" y2="30.7425" gradientUnits="userSpaceOnUse">
<stop stop-color="#B3DAFE" stop-opacity="0"/>
<stop offset="0.431" stop-color="#B1D9FE" stop-opacity="0.432"/>
<stop offset="0.666" stop-color="#A9D6FE" stop-opacity="0.666"/>
<stop offset="0.852" stop-color="#9BD0FE" stop-opacity="0.852"/>
<stop offset="1" stop-color="#8AC9FE"/>
</linearGradient>
<linearGradient id="paint15_linear_57_5618" x1="20.1828" y1="36.7967" x2="20.1828" y2="40.9677" gradientUnits="userSpaceOnUse">
<stop stop-color="#B3DAFE" stop-opacity="0"/>
<stop offset="0.431" stop-color="#B1D9FE" stop-opacity="0.432"/>
<stop offset="0.666" stop-color="#A9D6FE" stop-opacity="0.666"/>
<stop offset="0.852" stop-color="#9BD0FE" stop-opacity="0.852"/>
<stop offset="1" stop-color="#8AC9FE"/>
</linearGradient>
<linearGradient id="paint16_linear_57_5618" x1="13.4237" y1="30.7425" x2="21.0239" y2="30.7425" gradientUnits="userSpaceOnUse">
<stop stop-color="#FEF0AE"/>
<stop offset="1" stop-color="#FAC600"/>
</linearGradient>
<linearGradient id="paint17_linear_57_5618" x1="16.4851" y1="37.9723" x2="16.4851" y2="42.9531" gradientUnits="userSpaceOnUse">
<stop stop-color="#FE9738" stop-opacity="0"/>
<stop offset="1" stop-color="#FE9738"/>
</linearGradient>
<linearGradient id="paint18_linear_57_5618" x1="41.3644" y1="20.5128" x2="41.6929" y2="25.3583" gradientUnits="userSpaceOnUse">
<stop stop-color="#FFDFCF"/>
<stop offset="1" stop-color="#FFA78F"/>
</linearGradient>
<linearGradient id="paint19_linear_57_5618" x1="45.2514" y1="23.261" x2="48.1181" y2="25.0431" gradientUnits="userSpaceOnUse">
<stop stop-color="#F89580" stop-opacity="0"/>
<stop offset="0.286" stop-color="#EE8E79" stop-opacity="0.287"/>
<stop offset="0.762" stop-color="#D57B65" stop-opacity="0.765"/>
<stop offset="0.997" stop-color="#C5715A"/>
</linearGradient>
<linearGradient id="paint20_linear_57_5618" x1="41.6603" y1="26.145" x2="41.9909" y2="31.0215" gradientUnits="userSpaceOnUse">
<stop stop-color="#FFDFCF"/>
<stop offset="1" stop-color="#FFA78F"/>
</linearGradient>
<linearGradient id="paint21_linear_57_5618" x1="45.5966" y1="28.9367" x2="48.6549" y2="30.8377" gradientUnits="userSpaceOnUse">
<stop stop-color="#F89580" stop-opacity="0"/>
<stop offset="0.286" stop-color="#EE8E79" stop-opacity="0.287"/>
<stop offset="0.762" stop-color="#D57B65" stop-opacity="0.765"/>
<stop offset="0.997" stop-color="#C5715A"/>
</linearGradient>
<linearGradient id="paint22_linear_57_5618" x1="41.3644" y1="31.8041" x2="41.6929" y2="36.6495" gradientUnits="userSpaceOnUse">
<stop stop-color="#FFDFCF"/>
<stop offset="1" stop-color="#FFA78F"/>
</linearGradient>
<linearGradient id="paint23_linear_57_5618" x1="45.2514" y1="34.5522" x2="48.1181" y2="36.3343" gradientUnits="userSpaceOnUse">
<stop stop-color="#F89580" stop-opacity="0"/>
<stop offset="0.286" stop-color="#EE8E79" stop-opacity="0.287"/>
<stop offset="0.762" stop-color="#D57B65" stop-opacity="0.765"/>
<stop offset="0.997" stop-color="#C5715A"/>
</linearGradient>
<linearGradient id="paint24_linear_57_5618" x1="40.8865" y1="37.4716" x2="41.2116" y2="42.2667" gradientUnits="userSpaceOnUse">
<stop stop-color="#FFDFCF"/>
<stop offset="1" stop-color="#FFA78F"/>
</linearGradient>
<linearGradient id="paint25_linear_57_5618" x1="44.0442" y1="40.228" x2="47.1024" y2="42.129" gradientUnits="userSpaceOnUse">
<stop stop-color="#F89580" stop-opacity="0"/>
<stop offset="0.286" stop-color="#EE8E79" stop-opacity="0.287"/>
<stop offset="0.762" stop-color="#D57B65" stop-opacity="0.765"/>
<stop offset="0.997" stop-color="#C5715A"/>
</linearGradient>
<clipPath id="clip0_57_5618">
<rect width="60" height="60" fill="white"/>
</clipPath>
</defs>
</svg>
