<svg width="60" height="60" viewBox="0 0 60 60" fill="none" xmlns="http://www.w3.org/2000/svg">
<g clip-path="url(#clip0_78_2595)">
<path d="M16.5617 59.7474L9.94315 53.1289C9.4437 52.6294 9.70819 51.5549 10.5341 50.7291C11.2411 50.0221 12.1511 49.7112 12.7152 49.9838L13.3581 50.2943C16.0428 51.5914 18.0992 53.6479 19.3962 56.3324L19.7067 56.9753C19.9793 57.5396 19.6684 58.4494 18.9614 59.1564C18.1356 59.9823 17.0612 60.2469 16.5617 59.7474Z" fill="url(#paint0_linear_78_2595)"/>
<path d="M16.5617 59.7474L9.94315 53.1289C9.4437 52.6294 9.70819 51.5549 10.5341 50.7291C11.2411 50.0221 12.1511 49.7112 12.7152 49.9838L13.3581 50.2943C16.0428 51.5914 18.0992 53.6479 19.3962 56.3324L19.7067 56.9753C19.9793 57.5396 19.6684 58.4494 18.9614 59.1564C18.1356 59.9823 17.0612 60.2469 16.5617 59.7474Z" fill="url(#paint1_linear_78_2595)"/>
<path d="M16.5617 59.7473C17.0611 60.2468 18.1356 59.9823 18.9615 59.1564C19.6685 58.4494 19.9794 57.5395 19.7068 56.9753L19.3962 56.3324C18.7477 54.9901 17.9093 53.8048 16.8974 52.793L13.2523 56.4381L16.5617 59.7473Z" fill="url(#paint2_linear_78_2595)"/>
<path d="M10.5341 50.7293C9.70828 51.5551 9.44367 52.6296 9.94312 53.1291L16.5616 59.7476C17.0611 60.2471 18.1356 59.9826 18.9614 59.1566C19.3911 58.7269 19.6734 58.2224 19.7684 57.766L11.9246 49.9224C11.4683 50.0173 10.9638 50.2995 10.5341 50.7293Z" fill="url(#paint3_linear_78_2595)"/>
<path d="M21.1435 55.1658L14.5249 48.5473C14.0255 48.0479 14.29 46.9734 15.1159 46.1475C15.8229 45.4406 16.7329 45.1297 17.297 45.4022L17.9399 45.7128C20.6245 47.0098 22.681 49.0663 23.978 51.7509L24.2885 52.3938C24.5611 52.958 24.2502 53.8679 23.5432 54.5749C22.7174 55.4008 21.6429 55.6653 21.1435 55.1658Z" fill="url(#paint4_linear_78_2595)"/>
<path d="M21.1435 55.1658L14.5249 48.5473C14.0255 48.0479 14.29 46.9734 15.1159 46.1475C15.8229 45.4406 16.7329 45.1297 17.297 45.4022L17.9399 45.7128C20.6245 47.0098 22.681 49.0663 23.978 51.7509L24.2885 52.3938C24.5611 52.958 24.2502 53.8679 23.5432 54.5749C22.7174 55.4008 21.6429 55.6653 21.1435 55.1658Z" fill="url(#paint5_linear_78_2595)"/>
<path d="M21.1435 55.1658C21.6429 55.6653 22.7174 55.4008 23.5432 54.5748C24.2502 53.8678 24.5611 52.958 24.2886 52.3937L23.978 51.7508C23.3295 50.4086 22.4911 49.2232 21.4792 48.2114L17.8341 51.8565L21.1435 55.1658Z" fill="url(#paint6_linear_78_2595)"/>
<path d="M15.1158 46.1474C14.2899 46.9733 14.0253 48.0477 14.5248 48.5472L21.1433 55.1657C21.6428 55.6651 22.7173 55.4006 23.5431 54.5747C23.9728 54.145 24.2551 53.6405 24.35 53.184L16.5063 45.3403C16.05 45.4354 15.5456 45.7177 15.1158 46.1474Z" fill="url(#paint7_linear_78_2595)"/>
<path d="M1.46484 58.0013C0.223472 56.7599 0.223472 54.7472 1.46484 53.5058L26.7212 28.2494C27.9626 27.008 29.9753 27.008 31.2168 28.2494C32.4581 29.4908 32.4581 31.5034 31.2168 32.7449L5.96039 58.0013C4.7189 59.2427 2.70621 59.2427 1.46484 58.0013Z" fill="url(#paint8_linear_78_2595)"/>
<path d="M26.7212 28.2494L21.0033 33.9673L25.4988 38.4629L31.2168 32.7449C31.3796 32.5815 31.5241 32.4008 31.6478 32.2061L27.2601 27.8184C27.0654 27.9421 26.8847 28.0866 26.7212 28.2494Z" fill="url(#paint9_linear_78_2595)"/>
<path d="M3.92777 51.043L1.46484 53.5059C0.223472 54.7473 0.223472 56.76 1.46484 58.0014C2.70621 59.2428 4.71902 59.2428 5.96039 58.0014L8.42332 55.5385L3.92777 51.043Z" fill="url(#paint10_linear_78_2595)"/>
<path d="M3.92777 51.043L1.46484 53.5059C0.223472 54.7473 0.223472 56.76 1.46484 58.0014C2.70621 59.2428 4.71902 59.2428 5.96039 58.0014L8.42332 55.5385L3.92777 51.043Z" fill="url(#paint11_linear_78_2595)"/>
<path d="M54.7285 28.2786C54.7285 25.293 53.4819 22.5985 51.4809 20.6873C53.2808 20.246 54.9866 19.3224 56.3926 17.9164C60.4912 13.8178 60.4905 7.1729 56.392 3.07427C52.2935 -1.02437 45.6485 -1.02495 41.5499 3.07368C40.1439 4.4797 39.2203 6.18548 38.779 7.98536C36.8678 5.98427 34.1734 4.73774 31.1877 4.73774C25.3914 4.73774 20.6923 9.43603 20.6923 15.2322C20.6923 21.0286 25.3914 25.7277 31.1877 25.7277C32.197 25.7283 33.2011 25.5834 34.1691 25.2974C33.883 26.2653 33.7381 27.2694 33.7387 28.2787C33.7387 34.0751 38.4378 38.7742 44.2342 38.7742C50.0304 38.774 54.7285 34.0749 54.7285 28.2786ZM53.3906 6.07556C55.8315 8.51646 55.8315 12.4735 53.3906 14.9145C50.9497 17.3556 46.9921 17.356 44.5512 14.9151C42.1103 12.4742 42.1107 8.51657 44.5518 6.07567C46.9928 3.63478 50.9497 3.63466 53.3906 6.07556ZM31.1876 21.483C27.7356 21.483 24.9375 18.6842 24.9375 15.2321C24.9375 11.7801 27.7356 8.98204 31.1876 8.98204C34.6396 8.98204 37.4376 11.7801 37.4376 15.2321C37.4376 18.6841 34.6396 21.483 31.1876 21.483ZM44.2341 34.5287C40.7821 34.5287 37.9832 31.7306 37.9832 28.2786C37.9832 24.8266 40.7819 22.0285 44.2341 22.0285C47.686 22.0285 50.4841 24.8266 50.4841 28.2786C50.484 31.7306 47.686 34.5287 44.2341 34.5287Z" fill="url(#paint12_linear_78_2595)"/>
<path d="M31.1876 4.73779C25.3912 4.73779 20.6921 9.43607 20.6921 15.2323C20.6921 21.0286 25.3912 25.7277 31.1876 25.7277C36.9839 25.7277 41.683 21.0286 41.683 15.2323C41.683 9.43596 36.9839 4.73779 31.1876 4.73779ZM31.1876 21.4832C27.7356 21.4832 24.9375 18.6844 24.9375 15.2323C24.9375 11.7803 27.7356 8.98221 31.1876 8.98221C34.6396 8.98221 37.4376 11.7803 37.4376 15.2323C37.4376 18.6844 34.6396 21.4832 31.1876 21.4832Z" fill="url(#paint13_linear_78_2595)"/>
<path d="M54.7286 28.2786C54.7286 22.4823 50.0303 17.7832 44.2341 17.7832C38.4377 17.7832 33.7386 22.4823 33.7386 28.2786C33.7386 34.075 38.4377 38.7741 44.2341 38.7741C50.0304 38.7741 54.7286 34.075 54.7286 28.2786ZM37.9832 28.2786C37.9832 24.8266 40.782 22.0286 44.2341 22.0286C47.6861 22.0286 50.4842 24.8266 50.4842 28.2786C50.4842 31.7306 47.6861 34.5287 44.2341 34.5287C40.782 34.5287 37.9832 31.7306 37.9832 28.2786Z" fill="url(#paint14_linear_78_2595)"/>
<path d="M54.7286 28.2786C54.7286 22.4823 50.0303 17.7832 44.2341 17.7832C38.4377 17.7832 33.7386 22.4823 33.7386 28.2786C33.7386 34.075 38.4377 38.7741 44.2341 38.7741C50.0304 38.7741 54.7286 34.075 54.7286 28.2786ZM37.9832 28.2786C37.9832 24.8266 40.782 22.0286 44.2341 22.0286C47.6861 22.0286 50.4842 24.8266 50.4842 28.2786C50.4842 31.7306 47.6861 34.5287 44.2341 34.5287C40.782 34.5287 37.9832 31.7306 37.9832 28.2786Z" fill="url(#paint15_linear_78_2595)"/>
<path d="M56.392 3.07427C52.2933 -1.02437 45.6484 -1.02495 41.5498 3.07368C37.4512 7.17231 37.4512 13.8179 41.5498 17.9164C45.6484 22.0149 52.294 22.015 56.3925 17.9164C60.4912 13.8178 60.4906 7.1729 56.392 3.07427ZM44.5512 14.915C42.1103 12.4741 42.1108 8.51645 44.5518 6.07556C46.9927 3.63466 50.9498 3.63466 53.3908 6.07556C55.8318 8.51645 55.8317 12.4735 53.3908 14.9145C50.9498 17.3554 46.9921 17.356 44.5512 14.915Z" fill="url(#paint16_linear_78_2595)"/>
<path d="M41.5421 19.9395C42.6553 19.9395 43.5577 19.037 43.5577 17.9238C43.5577 16.8106 42.6553 15.9082 41.5421 15.9082C40.4289 15.9082 39.5265 16.8106 39.5265 17.9238C39.5265 19.037 40.4289 19.9395 41.5421 19.9395Z" fill="url(#paint17_linear_78_2595)"/>
<path d="M54.5955 4.87105C51.4891 1.76465 46.4528 1.76418 43.3465 4.87059C40.2401 7.97699 40.2401 13.0137 43.3465 16.1201C46.4529 19.2265 51.4896 19.2265 54.5961 16.1201C57.7022 13.0136 57.7018 7.97734 54.5955 4.87105ZM45.2901 14.1763C43.2572 12.1435 43.2577 8.84746 45.2906 6.81461C47.3234 4.78176 50.6189 4.78176 52.6518 6.81461C54.6847 8.84746 54.6847 12.143 52.6518 14.1759C50.6189 16.2088 47.3229 16.2092 45.2901 14.1763Z" fill="url(#paint18_linear_78_2595)"/>
<path d="M31.1876 7.27832C26.7946 7.27832 23.233 10.8392 23.233 15.2322C23.233 19.6253 26.7946 23.1868 31.1876 23.1868C35.5806 23.1868 39.1422 19.6252 39.1422 15.2322C39.1422 10.8391 35.5807 7.27832 31.1876 7.27832ZM31.1876 20.438C28.3126 20.438 25.9824 18.107 25.9824 15.2322C25.9824 12.3572 28.3126 10.027 31.1876 10.027C34.0626 10.027 36.3928 12.3572 36.3928 15.2322C36.3928 18.1071 34.0626 20.438 31.1876 20.438Z" fill="url(#paint19_linear_78_2595)"/>
<path d="M52.1879 28.2788C52.1879 23.8858 48.627 20.3242 44.234 20.3242C39.8409 20.3242 36.2794 23.8858 36.2794 28.2788C36.2794 32.6718 39.841 36.2334 44.234 36.2334C48.6271 36.2334 52.1879 32.6718 52.1879 28.2788ZM39.0282 28.2788C39.0282 25.4038 41.3591 23.0736 44.234 23.0736C47.1089 23.0736 49.4392 25.4038 49.4392 28.2788C49.4392 31.1537 47.1089 33.484 44.234 33.484C41.359 33.484 39.0282 31.1537 39.0282 28.2788Z" fill="url(#paint20_linear_78_2595)"/>
<path d="M31.4662 34.619L24.8477 28.0004C24.3482 27.501 24.6127 26.4265 25.4387 25.6007C26.1457 24.8937 27.0556 24.5828 27.6198 24.8554L28.2627 25.1659C30.9473 26.4629 33.0037 28.5195 34.3007 31.204L34.6113 31.8469C34.8839 32.4111 34.573 33.321 33.866 34.028C33.0402 34.8539 31.9658 35.1185 31.4662 34.619Z" fill="url(#paint21_linear_78_2595)"/>
<path d="M31.4662 34.6189C31.9657 35.1184 33.0402 34.8539 33.866 34.0279C34.573 33.321 34.8839 32.4111 34.6113 31.8469L34.3008 31.204C33.6523 29.8617 32.8139 28.6763 31.802 27.6646L28.1569 31.3097L31.4662 34.6189Z" fill="url(#paint22_linear_78_2595)"/>
<path d="M25.4388 25.6005C24.6129 26.4265 24.3483 27.5008 24.8478 28.0003L31.4663 34.6188C31.9658 35.1183 33.0402 34.8538 33.8661 34.0278C34.2958 33.5981 34.5781 33.0936 34.673 32.6372L26.8293 24.7935C26.373 24.8885 25.8685 25.1707 25.4388 25.6005Z" fill="url(#paint23_linear_78_2595)"/>
<path d="M33.9425 30.9752L28.4914 25.5241C28.08 25.1127 28.2979 24.2278 28.9781 23.5476C29.5604 22.9653 30.3098 22.7093 30.7745 22.9338L31.3039 23.1896C33.515 24.2579 35.2087 25.9516 36.277 28.1627L36.5328 28.6922C36.7574 29.1569 36.5013 29.9062 35.919 30.4885C35.2388 31.1687 34.354 31.3865 33.9425 30.9752Z" fill="url(#paint24_linear_78_2595)"/>
<path d="M33.9426 30.9752C34.354 31.3867 35.2389 31.1687 35.9191 30.4885C36.5014 29.9062 36.7574 29.1568 36.5329 28.6922L36.2771 28.1627C35.7429 27.0572 35.0525 26.081 34.219 25.2476L31.2169 28.2497L33.9426 30.9752Z" fill="url(#paint25_linear_78_2595)"/>
<path d="M28.9781 23.5475C28.2979 24.2277 28.08 25.1127 28.4914 25.524L33.9425 30.9751C34.354 31.3865 35.2388 31.1686 35.919 30.4884C36.273 30.1344 36.5054 29.7189 36.5836 29.343L30.1234 22.8828C29.7476 22.9611 29.332 23.1936 28.9781 23.5475Z" fill="url(#paint26_linear_78_2595)"/>
<path d="M7.40028 57.5177L1.94907 52.0666C1.53762 51.6551 1.75559 50.7703 2.43574 50.0901C3.01805 49.5078 3.76746 49.2517 4.23211 49.4763L4.76157 49.7321C6.97266 50.8004 8.66637 52.4941 9.73465 54.7052L9.99047 55.2346C10.215 55.6994 9.95895 56.4487 9.37664 57.031C8.69649 57.7112 7.8116 57.9291 7.40028 57.5177Z" fill="url(#paint27_linear_78_2595)"/>
<path d="M7.40011 57.5177C7.81155 57.9291 8.69644 57.7112 9.37659 57.031C9.9589 56.4487 10.215 55.6993 9.99042 55.2346L9.7346 54.7052C9.20046 53.5996 8.50999 52.6235 7.67655 51.79L4.67456 54.7921L7.40011 57.5177Z" fill="url(#paint28_linear_78_2595)"/>
<path d="M2.43574 50.09C1.75559 50.7701 1.53762 51.6551 1.94907 52.0665L7.40016 57.5176C7.8116 57.929 8.69649 57.711 9.37664 57.0309C9.73067 56.6769 9.96305 56.2614 10.0412 55.8855L3.58125 49.4253C3.2052 49.5036 2.78977 49.736 2.43574 50.09Z" fill="url(#paint29_linear_78_2595)"/>
</g>
<defs>
<linearGradient id="paint0_linear_78_2595" x1="16.2599" y1="53.3997" x2="13.6247" y2="56.0348" gradientUnits="userSpaceOnUse">
<stop stop-color="#FEF0AE"/>
<stop offset="1" stop-color="#FAC600"/>
</linearGradient>
<linearGradient id="paint1_linear_78_2595" x1="13.7174" y1="53.2581" x2="12.1091" y2="51.6498" gradientUnits="userSpaceOnUse">
<stop stop-color="#FE9738" stop-opacity="0"/>
<stop offset="1" stop-color="#FE9738"/>
</linearGradient>
<linearGradient id="paint2_linear_78_2595" x1="16.7191" y1="57.5018" x2="17.5144" y2="59.9208" gradientUnits="userSpaceOnUse">
<stop stop-color="#FE9738" stop-opacity="0"/>
<stop offset="1" stop-color="#FE9738"/>
</linearGradient>
<linearGradient id="paint3_linear_78_2595" x1="14.7669" y1="54.8928" x2="13.1182" y2="56.5415" gradientUnits="userSpaceOnUse">
<stop stop-color="#FE9738" stop-opacity="0"/>
<stop offset="1" stop-color="#FE9738"/>
</linearGradient>
<linearGradient id="paint4_linear_78_2595" x1="20.8416" y1="48.8181" x2="18.2065" y2="51.4532" gradientUnits="userSpaceOnUse">
<stop stop-color="#FEF0AE"/>
<stop offset="1" stop-color="#FAC600"/>
</linearGradient>
<linearGradient id="paint5_linear_78_2595" x1="18.508" y1="48.8853" x2="16.6283" y2="47.0057" gradientUnits="userSpaceOnUse">
<stop stop-color="#FE9738" stop-opacity="0"/>
<stop offset="1" stop-color="#FE9738"/>
</linearGradient>
<linearGradient id="paint6_linear_78_2595" x1="21.3009" y1="52.9202" x2="22.0961" y2="55.3392" gradientUnits="userSpaceOnUse">
<stop stop-color="#FE9738" stop-opacity="0"/>
<stop offset="1" stop-color="#FE9738"/>
</linearGradient>
<linearGradient id="paint7_linear_78_2595" x1="19.3487" y1="50.3109" x2="17.7" y2="51.9596" gradientUnits="userSpaceOnUse">
<stop stop-color="#FE9738" stop-opacity="0"/>
<stop offset="1" stop-color="#FE9738"/>
</linearGradient>
<linearGradient id="paint8_linear_78_2595" x1="14.6721" y1="41.45" x2="18.255" y2="45.0328" gradientUnits="userSpaceOnUse">
<stop stop-color="#FEF0AE"/>
<stop offset="1" stop-color="#FAC600"/>
</linearGradient>
<linearGradient id="paint9_linear_78_2595" x1="26.113" y1="33.3467" x2="27.9935" y2="31.4662" gradientUnits="userSpaceOnUse">
<stop stop-color="#FE9738" stop-opacity="0"/>
<stop offset="1" stop-color="#FE9738"/>
</linearGradient>
<linearGradient id="paint10_linear_78_2595" x1="4.46486" y1="54.995" x2="1.96817" y2="57.4917" gradientUnits="userSpaceOnUse">
<stop stop-color="#FE9738" stop-opacity="0"/>
<stop offset="1" stop-color="#FE9738"/>
</linearGradient>
<linearGradient id="paint11_linear_78_2595" x1="3.83866" y1="55.658" x2="5.78456" y2="57.6039" gradientUnits="userSpaceOnUse">
<stop stop-color="#FE9738" stop-opacity="0"/>
<stop offset="1" stop-color="#FE9738"/>
</linearGradient>
<linearGradient id="paint12_linear_78_2595" x1="40.0793" y1="2.351" x2="40.0793" y2="31.171" gradientUnits="userSpaceOnUse">
<stop stop-color="#FEF0AE"/>
<stop offset="1" stop-color="#FAC600"/>
</linearGradient>
<linearGradient id="paint13_linear_78_2595" x1="27.1557" y1="19.2579" x2="23.7487" y2="22.6649" gradientUnits="userSpaceOnUse">
<stop stop-color="#FE9738" stop-opacity="0"/>
<stop offset="1" stop-color="#FE9738"/>
</linearGradient>
<linearGradient id="paint14_linear_78_2595" x1="40.0599" y1="30.3012" x2="35.132" y2="32.6968" gradientUnits="userSpaceOnUse">
<stop stop-color="#FE9738" stop-opacity="0"/>
<stop offset="1" stop-color="#FE9738"/>
</linearGradient>
<linearGradient id="paint15_linear_78_2595" x1="46.5933" y1="32.5028" x2="49.5706" y2="37.8414" gradientUnits="userSpaceOnUse">
<stop stop-color="#FE9738" stop-opacity="0"/>
<stop offset="1" stop-color="#FE9738"/>
</linearGradient>
<linearGradient id="paint16_linear_78_2595" x1="51.9541" y1="12.7589" x2="57.3955" y2="16.8998" gradientUnits="userSpaceOnUse">
<stop stop-color="#FE9738" stop-opacity="0"/>
<stop offset="1" stop-color="#FE9738"/>
</linearGradient>
<linearGradient id="paint17_linear_78_2595" x1="41.7127" y1="19.8316" x2="41.3623" y2="15.8992" gradientUnits="userSpaceOnUse">
<stop stop-color="#FEF0AE"/>
<stop offset="1" stop-color="#FAC600"/>
</linearGradient>
<linearGradient id="paint18_linear_78_2595" x1="48.9712" y1="18.3619" x2="48.9712" y2="3.5146" gradientUnits="userSpaceOnUse">
<stop stop-color="#FEF0AE"/>
<stop offset="1" stop-color="#FAC600"/>
</linearGradient>
<linearGradient id="paint19_linear_78_2595" x1="31.1877" y1="23.0988" x2="31.1877" y2="8.25187" gradientUnits="userSpaceOnUse">
<stop stop-color="#FEF0AE"/>
<stop offset="1" stop-color="#FAC600"/>
</linearGradient>
<linearGradient id="paint20_linear_78_2595" x1="44.2338" y1="36.1454" x2="44.2338" y2="21.2978" gradientUnits="userSpaceOnUse">
<stop stop-color="#FEF0AE"/>
<stop offset="1" stop-color="#FAC600"/>
</linearGradient>
<linearGradient id="paint21_linear_78_2595" x1="31.1645" y1="28.2713" x2="28.5293" y2="30.9064" gradientUnits="userSpaceOnUse">
<stop stop-color="#FEF0AE"/>
<stop offset="1" stop-color="#FAC600"/>
</linearGradient>
<linearGradient id="paint22_linear_78_2595" x1="31.6237" y1="32.3734" x2="32.4189" y2="34.7923" gradientUnits="userSpaceOnUse">
<stop stop-color="#FE9738" stop-opacity="0"/>
<stop offset="1" stop-color="#FE9738"/>
</linearGradient>
<linearGradient id="paint23_linear_78_2595" x1="29.6716" y1="29.7641" x2="28.023" y2="31.4127" gradientUnits="userSpaceOnUse">
<stop stop-color="#FE9738" stop-opacity="0"/>
<stop offset="1" stop-color="#FE9738"/>
</linearGradient>
<linearGradient id="paint24_linear_78_2595" x1="33.6891" y1="25.7465" x2="31.5188" y2="27.9168" gradientUnits="userSpaceOnUse">
<stop stop-color="#FEF0AE"/>
<stop offset="1" stop-color="#FAC600"/>
</linearGradient>
<linearGradient id="paint25_linear_78_2595" x1="34.0674" y1="29.125" x2="34.7224" y2="31.1173" gradientUnits="userSpaceOnUse">
<stop stop-color="#FE9738" stop-opacity="0"/>
<stop offset="1" stop-color="#FE9738"/>
</linearGradient>
<linearGradient id="paint26_linear_78_2595" x1="32.4596" y1="26.976" x2="31.1017" y2="28.3339" gradientUnits="userSpaceOnUse">
<stop stop-color="#FE9738" stop-opacity="0"/>
<stop offset="1" stop-color="#FE9738"/>
</linearGradient>
<linearGradient id="paint27_linear_78_2595" x1="7.14688" y1="52.289" x2="4.9765" y2="54.4593" gradientUnits="userSpaceOnUse">
<stop stop-color="#FEF0AE"/>
<stop offset="1" stop-color="#FAC600"/>
</linearGradient>
<linearGradient id="paint28_linear_78_2595" x1="7.52494" y1="55.6676" x2="8.17998" y2="57.6599" gradientUnits="userSpaceOnUse">
<stop stop-color="#FE9738" stop-opacity="0"/>
<stop offset="1" stop-color="#FE9738"/>
</linearGradient>
<linearGradient id="paint29_linear_78_2595" x1="5.91726" y1="53.5185" x2="4.55937" y2="54.8764" gradientUnits="userSpaceOnUse">
<stop stop-color="#FE9738" stop-opacity="0"/>
<stop offset="1" stop-color="#FE9738"/>
</linearGradient>
<clipPath id="clip0_78_2595">
<rect width="60" height="60" fill="white"/>
</clipPath>
</defs>
</svg>
