<svg width="60" height="60" viewBox="0 0 60 60" fill="none" xmlns="http://www.w3.org/2000/svg">
<g clip-path="url(#clip0_78_2563)">
<path d="M55.8636 52.6914H16.0904C15.0384 52.6914 14.1857 51.8385 14.1857 50.7866V12.4594C14.1856 9.65566 16.4584 7.38281 19.2621 7.38281H54.9234C57.7271 7.38281 60 9.65566 60 12.4594V48.555C60 50.8397 58.1484 52.6914 55.8636 52.6914Z" fill="url(#paint0_linear_78_2563)"/>
<path d="M16.0904 52.6915H55.8636C58.1483 52.6915 60 50.8393 60 48.5551V15.8181L56.0445 11.8627C55.3985 11.1416 54.4605 10.6875 53.4164 10.6875H14.5043C14.2931 11.2544 14.1851 11.8545 14.1855 12.4595V50.7868C14.1855 51.8387 15.0384 52.6916 16.0904 52.6916V52.6915Z" fill="url(#paint1_linear_78_2563)"/>
<path d="M16.3353 11.0894C17.0356 13.2876 19.0777 14.7799 21.3849 14.7799H35.4501C35.2642 14.7799 35.0802 14.7693 34.898 14.7501L29.1878 9.04365C28.2097 8.01732 26.8359 7.39893 25.3513 7.39893H19.3647C17.7465 7.39893 16.2981 8.12537 15.3264 9.26889C15.7799 9.80293 16.1229 10.4217 16.3353 11.0894Z" fill="url(#paint2_linear_78_2563)"/>
<path d="M53.4164 52.6915H7.06701C5.11876 52.6915 3.53943 51.1121 3.53943 49.1639V14.2146C3.53943 12.2663 5.11876 10.687 7.06701 10.687H53.4164C55.3647 10.687 56.944 12.2663 56.944 14.2146V49.1638C56.944 51.112 55.3647 52.6913 53.4164 52.6913V52.6915Z" fill="url(#paint3_linear_78_2563)"/>
<path d="M52.0349 16.4424C51.069 15.4194 49.7008 14.7798 48.1824 14.7798H3.53943V49.1638C3.53943 51.112 5.11876 52.6913 7.06701 52.6913H53.4164C55.3647 52.6913 56.944 51.112 56.944 49.1638V21.3515L52.0349 16.4424Z" fill="url(#paint4_linear_78_2563)"/>
<path d="M16.3354 11.0894C17.0357 13.2876 19.0778 14.7799 21.385 14.7799H35.4502C35.2643 14.7799 35.0804 14.7694 34.8981 14.7501L30.8327 10.687H16.1875C16.2414 10.8188 16.2918 10.9521 16.3354 11.0894Z" fill="url(#paint5_linear_78_2563)"/>
<path d="M35.8956 16.116V14.7799H35.4501C33.1434 14.7799 31.1013 13.2876 30.401 11.0894C29.7006 8.89107 27.6586 7.39893 25.3514 7.39893H19.3648C16.4382 7.39893 14.0652 9.7715 14.0652 12.6984V16.116H35.8956Z" fill="url(#paint6_linear_78_2563)"/>
<path d="M16.3354 11.0894C15.6349 8.89107 13.5928 7.39893 11.2862 7.39893H5.29957C2.37258 7.39893 0 9.7715 0 12.6984V47.4578C0 50.3481 2.34328 52.6914 5.23359 52.6914H54.9289C54.1297 52.6914 53.4819 52.0436 53.4819 51.2444V20.0794C53.4819 17.1529 51.1093 14.7799 48.1823 14.7799H21.3848C19.0778 14.7799 17.0357 13.2876 16.3352 11.0894H16.3354Z" fill="url(#paint7_linear_78_2563)"/>
</g>
<defs>
<linearGradient id="paint0_linear_78_2563" x1="47.4792" y1="2.54988" x2="36.7086" y2="31.4534" gradientUnits="userSpaceOnUse">
<stop stop-color="#FFD00D"/>
<stop offset="0.238" stop-color="#FFCB0E"/>
<stop offset="0.535" stop-color="#FFBB11"/>
<stop offset="0.863" stop-color="#FFA215"/>
<stop offset="1" stop-color="#FF9517"/>
</linearGradient>
<linearGradient id="paint1_linear_78_2563" x1="48.1577" y1="44.7579" x2="28.5226" y2="25.1229" gradientUnits="userSpaceOnUse">
<stop stop-color="#FF9517" stop-opacity="0"/>
<stop offset="0.307" stop-color="#EE8421" stop-opacity="0.306"/>
<stop offset="0.678" stop-color="#E07728" stop-opacity="0.678"/>
<stop offset="1" stop-color="#DB722B"/>
</linearGradient>
<linearGradient id="paint2_linear_78_2563" x1="33.0854" y1="20.5456" x2="17.8339" y2="5.29412" gradientUnits="userSpaceOnUse">
<stop stop-color="#FF9517" stop-opacity="0"/>
<stop offset="0.307" stop-color="#EE8421" stop-opacity="0.306"/>
<stop offset="0.678" stop-color="#E07728" stop-opacity="0.678"/>
<stop offset="1" stop-color="#DB722B"/>
</linearGradient>
<linearGradient id="paint3_linear_78_2563" x1="30.2417" y1="-4.25463" x2="30.2417" y2="53.1348" gradientUnits="userSpaceOnUse">
<stop stop-color="#FFFCF8"/>
<stop offset="0.188" stop-color="#FAF8F6"/>
<stop offset="0.404" stop-color="#ECEEF2"/>
<stop offset="0.635" stop-color="#D5DCEA"/>
<stop offset="0.875" stop-color="#B5C4DF"/>
<stop offset="1" stop-color="#A1B5D8"/>
</linearGradient>
<linearGradient id="paint4_linear_78_2563" x1="56.5834" y1="36.4691" x2="41.6445" y2="35.057" gradientUnits="userSpaceOnUse">
<stop stop-color="#A1B5D8" stop-opacity="0"/>
<stop offset="0.67" stop-color="#8190A4" stop-opacity="0.671"/>
<stop offset="1" stop-color="#748290"/>
</linearGradient>
<linearGradient id="paint5_linear_78_2563" x1="32.9328" y1="20.3929" x2="19.051" y2="6.51103" gradientUnits="userSpaceOnUse">
<stop stop-color="#A1B5D8" stop-opacity="0"/>
<stop offset="0.67" stop-color="#8190A4" stop-opacity="0.671"/>
<stop offset="1" stop-color="#748290"/>
</linearGradient>
<linearGradient id="paint6_linear_78_2563" x1="24.9806" y1="8.59166" x2="24.9806" y2="14.7504" gradientUnits="userSpaceOnUse">
<stop stop-color="#FF4974"/>
<stop offset="0.228" stop-color="#FD4571"/>
<stop offset="0.466" stop-color="#F93867"/>
<stop offset="0.71" stop-color="#F12358"/>
<stop offset="0.955" stop-color="#E60642"/>
<stop offset="1" stop-color="#E4003D"/>
</linearGradient>
<linearGradient id="paint7_linear_78_2563" x1="27.4644" y1="30.5212" x2="27.4644" y2="55.2583" gradientUnits="userSpaceOnUse">
<stop stop-color="#FFD00D"/>
<stop offset="0.238" stop-color="#FFCB0E"/>
<stop offset="0.535" stop-color="#FFBB11"/>
<stop offset="0.863" stop-color="#FFA215"/>
<stop offset="1" stop-color="#FF9517"/>
</linearGradient>
<clipPath id="clip0_78_2563">
<rect width="60" height="60" fill="white"/>
</clipPath>
</defs>
</svg>
