<svg width="60" height="60" viewBox="0 0 60 60" fill="none" xmlns="http://www.w3.org/2000/svg">
<path d="M48.776 59.9998H11.224C8.23055 59.9998 5.80383 57.5731 5.80383 54.5796V7.33666C5.80383 4.34322 8.23055 1.9165 11.224 1.9165H48.776C51.7695 1.9165 54.1962 4.34322 54.1962 7.33666V54.5797C54.1961 57.5731 51.7695 59.9998 48.776 59.9998Z" fill="url(#paint0_linear_78_2834)"/>
<path d="M48.7204 6.64502L11.5481 55.1799L16.368 59.9998H48.7759C51.7693 59.9998 54.196 57.5731 54.196 54.5797V12.1207L48.7204 6.64502Z" fill="url(#paint1_linear_78_2834)"/>
<path d="M5.80396 31.6743V54.5797C5.80396 57.5731 8.23067 59.9998 11.2241 59.9998H48.7761C51.7696 59.9998 54.1963 57.5731 54.1963 54.5797V31.6743H5.80396Z" fill="url(#paint2_linear_78_2834)"/>
<path d="M48.7761 1.9165H21.8776V59.9998H48.7761C51.7695 59.9998 54.1962 57.5731 54.1962 54.5796V7.33666C54.1961 4.34322 51.7695 1.9165 48.7761 1.9165Z" fill="url(#paint3_linear_78_2834)"/>
<path d="M48.7761 1.9165H33.1246V10.4596H54.1961V7.33654C54.1961 4.34311 51.7695 1.9165 48.7761 1.9165Z" fill="url(#paint4_linear_78_2834)"/>
<path d="M45.1676 56.4818H14.8325C12.183 56.4818 10.035 54.3339 10.035 51.6844V9.86871C10.035 7.21922 12.183 5.07129 14.8325 5.07129H45.1676C47.8171 5.07129 49.965 7.21922 49.965 9.86871V51.6844C49.965 54.334 47.8172 56.4818 45.1676 56.4818Z" fill="url(#paint5_linear_78_2834)"/>
<path d="M10.035 31.4106V51.6846C10.035 54.3342 12.183 56.482 14.8325 56.482H45.1676C47.8171 56.482 49.965 54.334 49.965 51.6846V31.4106H10.035Z" fill="url(#paint6_linear_78_2834)"/>
<path d="M45.1676 5.07129H24.262V56.4818H45.1676C47.8171 56.4818 49.965 54.3339 49.965 51.6844V9.86871C49.965 7.21922 47.8172 5.07129 45.1676 5.07129Z" fill="url(#paint7_linear_78_2834)"/>
<path d="M45.4682 16.8213L32.1685 30.1209C31.4833 30.8061 30.3723 30.8061 29.687 30.1209L22.2164 22.6503C21.6498 22.0837 20.7354 22.0701 20.1524 22.6197L14.5317 27.917L43.0968 56.482H45.1676C47.8171 56.482 49.965 54.3341 49.965 51.6846V21.3182L45.4682 16.8213Z" fill="url(#paint8_linear_78_2834)"/>
<path d="M23.5365 4.82471H36.4636V10.6686H23.5365V4.82471Z" fill="url(#paint9_linear_78_2834)"/>
<path d="M23.5365 4.82471H36.4636V10.6686H23.5365V4.82471Z" fill="url(#paint10_linear_78_2834)"/>
<path d="M49.965 9.86871C49.965 7.21922 47.8171 5.07129 45.1676 5.07129H36.4191V7.79742C36.4191 9.55383 34.9952 10.9777 33.2388 10.9777H23.5809L49.965 37.3617V9.86871Z" fill="url(#paint11_linear_78_2834)"/>
<path d="M34.1074 11.8677H25.8927C23.9878 11.8677 22.438 10.3179 22.438 8.41313V3.96973H37.5622V8.41301C37.5621 10.3179 36.0123 11.8677 34.1074 11.8677ZM24.1957 5.72754V8.41301C24.1957 9.34863 24.9569 10.1098 25.8926 10.1098H34.1073C35.0429 10.1098 35.8042 9.34863 35.8042 8.41301V5.72754H24.1957Z" fill="url(#paint12_linear_78_2834)"/>
<path d="M34.1074 11.8677H25.8927C23.9878 11.8677 22.438 10.3179 22.438 8.41313V3.96973H37.5622V8.41301C37.5621 10.3179 36.0123 11.8677 34.1074 11.8677ZM24.1957 5.72754V8.41301C24.1957 9.34863 24.9569 10.1098 25.8926 10.1098H34.1073C35.0429 10.1098 35.8042 9.34863 35.8042 8.41301V5.72754H24.1957Z" fill="url(#paint13_linear_78_2834)"/>
<path d="M34.1074 11.8677H25.8927C23.9878 11.8677 22.438 10.3179 22.438 8.41313V3.96973H37.5622V8.41301C37.5621 10.3179 36.0123 11.8677 34.1074 11.8677ZM24.1957 5.72754V8.41301C24.1957 9.34863 24.9569 10.1098 25.8926 10.1098H34.1073C35.0429 10.1098 35.8042 9.34863 35.8042 8.41301V5.72754H24.1957Z" fill="url(#paint14_linear_78_2834)"/>
<path d="M29.8666 5.72754H35.8042V8.41301C35.8042 9.34863 35.043 10.1098 34.1074 10.1098H29.8666V11.8676H34.1074C36.0122 11.8676 37.562 10.3178 37.562 8.41301V3.96973H29.8666V5.72754Z" fill="url(#paint15_linear_78_2834)"/>
<path d="M36.8002 7.49013H23.1999C22.1735 7.49013 21.3414 6.11435 21.3414 4.41735C21.3414 2.96458 21.9568 1.71021 22.8166 1.41056L23.7963 1.06919C27.8872 -0.356396 32.113 -0.356396 36.2039 1.06919L37.1835 1.41056C38.0433 1.71021 38.6587 2.96446 38.6587 4.41735C38.6587 6.11446 37.8267 7.49013 36.8002 7.49013Z" fill="url(#paint16_linear_78_2834)"/>
<path d="M36.8002 7.49016C37.8266 7.49016 38.6586 6.11438 38.6586 4.41738C38.6586 2.96461 38.0433 1.71023 37.1835 1.41059L36.2039 1.06922C34.1584 0.356367 32.0791 0 30 0V7.49016H36.8002Z" fill="url(#paint17_linear_78_2834)"/>
<path d="M21.3414 4.41715C21.3414 6.11426 22.1735 7.48992 23.1999 7.48992H36.8002C37.8267 7.48992 38.6587 6.11414 38.6587 4.41715C38.6587 3.53402 38.4304 2.72578 38.0589 2.15918H21.9412C21.5697 2.72578 21.3414 3.53402 21.3414 4.41715Z" fill="url(#paint18_linear_78_2834)"/>
<path d="M44.7752 36.5921H25.5538C25.455 36.5921 25.3572 36.5727 25.266 36.5349C25.1748 36.4971 25.0919 36.4417 25.0221 36.3719C24.9523 36.3021 24.8969 36.2192 24.8591 36.128C24.8213 36.0368 24.8019 35.939 24.8019 35.8403C24.8019 35.7415 24.8213 35.6437 24.8591 35.5525C24.8969 35.4613 24.9523 35.3784 25.0221 35.3086C25.0919 35.2388 25.1748 35.1834 25.266 35.1456C25.3572 35.1078 25.455 35.0884 25.5538 35.0884H44.7751C44.9745 35.0884 45.1657 35.1676 45.3068 35.3086C45.4478 35.4495 45.527 35.6408 45.527 35.8402C45.527 36.0396 45.4478 36.2309 45.3068 36.3719C45.1658 36.5129 44.9746 36.5921 44.7752 36.5921Z" fill="url(#paint19_linear_78_2834)"/>
<path d="M44.7752 41.7616H25.5538C25.455 41.7616 25.3572 41.7421 25.266 41.7043C25.1748 41.6665 25.0919 41.6112 25.0221 41.5413C24.9523 41.4715 24.8969 41.3886 24.8591 41.2974C24.8213 41.2062 24.8019 41.1084 24.8019 41.0097C24.8019 40.9109 24.8213 40.8132 24.8591 40.722C24.8969 40.6307 24.9523 40.5479 25.0221 40.478C25.0919 40.4082 25.1748 40.3528 25.266 40.315C25.3572 40.2773 25.455 40.2578 25.5538 40.2578H44.7751C44.9745 40.2578 45.1657 40.337 45.3068 40.478C45.4478 40.619 45.527 40.8102 45.527 41.0096C45.527 41.209 45.4478 41.4003 45.3068 41.5413C45.1658 41.6823 44.9746 41.7615 44.7752 41.7616Z" fill="url(#paint20_linear_78_2834)"/>
<path d="M44.7752 46.9315H25.5538C25.3543 46.9315 25.1631 46.8523 25.0221 46.7113C24.8811 46.5703 24.8019 46.379 24.8019 46.1796C24.8019 45.9802 24.8811 45.789 25.0221 45.648C25.1631 45.5069 25.3543 45.4277 25.5538 45.4277H44.7751C44.9745 45.4277 45.1657 45.5069 45.3068 45.6479C45.4478 45.7889 45.527 45.9801 45.527 46.1796C45.527 46.379 45.4478 46.5702 45.3068 46.7112C45.1658 46.8522 44.9746 46.9315 44.7752 46.9315Z" fill="url(#paint21_linear_78_2834)"/>
<path d="M44.7752 52.1004H25.5538C25.3543 52.1004 25.1631 52.0212 25.0221 51.8802C24.8811 51.7392 24.8019 51.548 24.8019 51.3486C24.8019 51.1491 24.8811 50.9579 25.0221 50.8169C25.1631 50.6759 25.3543 50.5967 25.5538 50.5967H44.7751C44.9745 50.5967 45.1657 50.6759 45.3068 50.8169C45.4478 50.9578 45.527 51.1491 45.527 51.3485C45.527 51.5479 45.4478 51.7392 45.3068 51.8802C45.1658 52.0212 44.9746 52.1004 44.7752 52.1004Z" fill="url(#paint22_linear_78_2834)"/>
<path d="M19.7809 41.762H15.8383C15.0843 41.762 14.473 41.1507 14.473 40.3968V36.4541C14.473 35.7001 15.0843 35.0889 15.8383 35.0889H19.7809C20.5349 35.0889 21.1461 35.7001 21.1461 36.4541V40.3968C21.1461 41.1507 20.5349 41.762 19.7809 41.762Z" fill="url(#paint23_linear_78_2834)"/>
<path d="M47.4354 55.9129L24.8529 33.3306L17.1615 40.4149L33.229 56.4822H45.1676C45.988 56.4822 46.76 56.276 47.4354 55.9129Z" fill="url(#paint24_linear_78_2834)"/>
<path d="M18.0866 40.7982C17.9147 40.7986 17.7444 40.765 17.5856 40.6992C17.4268 40.6334 17.2827 40.5367 17.1615 40.4148L14.7304 37.9837C14.5668 37.8186 14.4752 37.5954 14.4757 37.363C14.4762 37.1306 14.5688 36.9078 14.7331 36.7434C14.8975 36.5791 15.1202 36.4865 15.3526 36.486C15.5851 36.4855 15.8083 36.577 15.9733 36.7407L18.0866 38.8539L23.61 33.3305C23.7757 33.1703 23.9978 33.0816 24.2284 33.0835C24.4589 33.0855 24.6795 33.1779 24.8425 33.341C25.0055 33.504 25.098 33.7246 25.0999 33.9551C25.1018 34.1857 25.0131 34.4078 24.8529 34.5735L19.0114 40.415C18.8903 40.5368 18.7461 40.6334 18.5874 40.6992C18.4286 40.765 18.2584 40.7986 18.0866 40.7982Z" fill="url(#paint25_linear_78_2834)"/>
<path d="M18.0866 40.7982C17.9147 40.7986 17.7444 40.765 17.5856 40.6992C17.4268 40.6334 17.2827 40.5367 17.1615 40.4148L14.7304 37.9837C14.5668 37.8186 14.4752 37.5954 14.4757 37.363C14.4762 37.1306 14.5688 36.9078 14.7331 36.7434C14.8975 36.5791 15.1202 36.4865 15.3526 36.486C15.5851 36.4855 15.8083 36.577 15.9733 36.7407L18.0866 38.8539L23.61 33.3305C23.7757 33.1703 23.9978 33.0816 24.2284 33.0835C24.4589 33.0855 24.6795 33.1779 24.8425 33.341C25.0055 33.504 25.098 33.7246 25.0999 33.9551C25.1018 34.1857 25.0131 34.4078 24.8529 34.5735L19.0114 40.415C18.8903 40.5368 18.7461 40.6334 18.5874 40.6992C18.4286 40.765 18.2584 40.7986 18.0866 40.7982Z" fill="url(#paint26_linear_78_2834)"/>
<path d="M30.9405 31.6602C30.3137 31.6602 29.6871 31.4217 29.2101 30.9448L21.5153 23.25C21.386 23.1208 21.2107 23.0481 21.0279 23.0481C20.8451 23.0481 20.6698 23.1208 20.5405 23.25L16.4141 27.3765C16.2493 27.5414 16.0257 27.634 15.7926 27.634C15.5595 27.634 15.336 27.5414 15.1711 27.3765C15.0063 27.2117 14.9137 26.9881 14.9137 26.755C14.9137 26.5219 15.0063 26.2984 15.1711 26.1335L19.2977 22.007C20.2518 21.0529 21.8043 21.0531 22.7583 22.007L30.4531 29.7018C30.5824 29.831 30.7577 29.9036 30.9405 29.9036C31.1233 29.9036 31.2986 29.831 31.4278 29.7018L43.5861 17.5436C43.7509 17.3787 43.9744 17.2861 44.2076 17.2861C44.4407 17.2861 44.6642 17.3787 44.8291 17.5436C44.9939 17.7084 45.0865 17.932 45.0865 18.1651C45.0865 18.3982 44.9939 18.6217 44.8291 18.7866L32.6709 30.9448C32.1937 31.4217 31.5671 31.6602 30.9405 31.6602Z" fill="url(#paint27_linear_78_2834)"/>
<path d="M44.8289 18.7866C44.9937 18.6217 45.0863 18.3982 45.0863 18.1651C45.0863 17.932 44.9937 17.7084 44.8289 17.5436C44.6641 17.3787 44.4405 17.2861 44.2074 17.2861C43.9743 17.2861 43.7507 17.3787 43.5859 17.5436L31.4277 29.7018C31.2984 29.831 31.1231 29.9036 30.9403 29.9036C30.7575 29.9036 30.5822 29.831 30.4529 29.7018L27.8972 27.146L26.6542 28.389L29.21 30.9449C29.6871 31.4218 30.3137 31.6603 30.9404 31.6603C31.567 31.6603 32.1937 31.4218 32.6708 30.9449L44.8289 18.7866Z" fill="url(#paint28_linear_78_2834)"/>
<path d="M15.861 28.4679C16.8991 28.4679 17.7407 27.6263 17.7407 26.5882C17.7407 25.5501 16.8991 24.7085 15.861 24.7085C14.8229 24.7085 13.9813 25.5501 13.9813 26.5882C13.9813 27.6263 14.8229 28.4679 15.861 28.4679Z" fill="url(#paint29_linear_78_2834)"/>
<path d="M13.9813 26.5879C13.9813 27.626 14.8228 28.4676 15.861 28.4676C16.8991 28.4676 17.7407 27.6261 17.7407 26.5879C17.7407 26.3631 17.7011 26.1476 17.6287 25.9478H14.0934C14.019 26.153 13.9811 26.3697 13.9813 26.5879Z" fill="url(#paint30_linear_78_2834)"/>
<path d="M14.5318 27.9169C15.2659 28.651 16.456 28.651 17.19 27.9169C17.924 27.1828 17.924 25.9927 17.19 25.2587C17.0357 25.1042 16.8557 24.9778 16.658 24.8853L14.1582 27.3851C14.2509 27.5827 14.3773 27.7627 14.5318 27.9169Z" fill="url(#paint31_linear_78_2834)"/>
<path d="M44.1391 20.0304C45.1772 20.0304 46.0188 19.1888 46.0188 18.1507C46.0188 17.1126 45.1772 16.271 44.1391 16.271C43.101 16.271 42.2594 17.1126 42.2594 18.1507C42.2594 19.1888 43.101 20.0304 44.1391 20.0304Z" fill="url(#paint32_linear_78_2834)"/>
<path d="M42.2595 18.1504C42.2595 19.1885 43.101 20.0301 44.1392 20.0301C45.1773 20.0301 46.0189 19.1886 46.0189 18.1504C46.0189 17.9256 45.9793 17.7101 45.9069 17.5103H42.3716C42.2972 17.7155 42.2593 17.9322 42.2595 18.1504Z" fill="url(#paint33_linear_78_2834)"/>
<path d="M42.81 19.4794C43.5441 20.2135 44.7342 20.2135 45.4682 19.4794C46.2022 18.7453 46.2022 17.5552 45.4682 16.8212C45.3139 16.6667 45.1339 16.5403 44.9362 16.4478L42.4364 18.9476C42.5291 19.1452 42.6555 19.3252 42.81 19.4794Z" fill="url(#paint34_linear_78_2834)"/>
<defs>
<linearGradient id="paint0_linear_78_2834" x1="16.2353" y1="17.1934" x2="54.3376" y2="55.2958" gradientUnits="userSpaceOnUse">
<stop stop-color="#B3DAFE"/>
<stop offset="1" stop-color="#0182FC"/>
</linearGradient>
<linearGradient id="paint1_linear_78_2834" x1="46.4755" y1="46.6108" x2="24.7552" y2="25.8928" gradientUnits="userSpaceOnUse">
<stop stop-color="#314DC9" stop-opacity="0"/>
<stop offset="0.276" stop-color="#304BC4" stop-opacity="0.276"/>
<stop offset="0.563" stop-color="#2B45B8" stop-opacity="0.563"/>
<stop offset="0.854" stop-color="#243BA3" stop-opacity="0.854"/>
<stop offset="1" stop-color="#1F3596"/>
</linearGradient>
<linearGradient id="paint2_linear_78_2834" x1="30" y1="51.1447" x2="30" y2="60.365" gradientUnits="userSpaceOnUse">
<stop stop-color="#314DC9" stop-opacity="0"/>
<stop offset="0.276" stop-color="#304BC4" stop-opacity="0.276"/>
<stop offset="0.563" stop-color="#2B45B8" stop-opacity="0.563"/>
<stop offset="0.854" stop-color="#243BA3" stop-opacity="0.854"/>
<stop offset="1" stop-color="#1F3596"/>
</linearGradient>
<linearGradient id="paint3_linear_78_2834" x1="43.5112" y1="30.9581" x2="55.1889" y2="30.9581" gradientUnits="userSpaceOnUse">
<stop stop-color="#314DC9" stop-opacity="0"/>
<stop offset="0.276" stop-color="#304BC4" stop-opacity="0.276"/>
<stop offset="0.563" stop-color="#2B45B8" stop-opacity="0.563"/>
<stop offset="0.854" stop-color="#243BA3" stop-opacity="0.854"/>
<stop offset="1" stop-color="#1F3596"/>
</linearGradient>
<linearGradient id="paint4_linear_78_2834" x1="42.7735" y1="6.18811" x2="36.4223" y2="6.18811" gradientUnits="userSpaceOnUse">
<stop stop-color="#314DC9" stop-opacity="0"/>
<stop offset="0.276" stop-color="#304BC4" stop-opacity="0.276"/>
<stop offset="0.563" stop-color="#2B45B8" stop-opacity="0.563"/>
<stop offset="0.854" stop-color="#243BA3" stop-opacity="0.854"/>
<stop offset="1" stop-color="#1F3596"/>
</linearGradient>
<linearGradient id="paint5_linear_78_2834" x1="18.2157" y1="18.9922" x2="50.8361" y2="51.6127" gradientUnits="userSpaceOnUse">
<stop stop-color="#F5FBFF"/>
<stop offset="1" stop-color="#DBD5EF"/>
</linearGradient>
<linearGradient id="paint6_linear_78_2834" x1="30" y1="48.6442" x2="30" y2="56.8053" gradientUnits="userSpaceOnUse">
<stop stop-color="#DBD5EF" stop-opacity="0"/>
<stop offset="0.285" stop-color="#D9D2EE" stop-opacity="0.285"/>
<stop offset="0.474" stop-color="#D4C9E9" stop-opacity="0.474"/>
<stop offset="0.635" stop-color="#CBBAE2" stop-opacity="0.635"/>
<stop offset="0.779" stop-color="#BFA5D7" stop-opacity="0.78"/>
<stop offset="0.913" stop-color="#AF8ACA" stop-opacity="0.913"/>
<stop offset="1" stop-color="#A274BF"/>
</linearGradient>
<linearGradient id="paint7_linear_78_2834" x1="41.4673" y1="30.7766" x2="50.7547" y2="30.7766" gradientUnits="userSpaceOnUse">
<stop stop-color="#DBD5EF" stop-opacity="0"/>
<stop offset="0.285" stop-color="#D9D2EE" stop-opacity="0.285"/>
<stop offset="0.474" stop-color="#D4C9E9" stop-opacity="0.474"/>
<stop offset="0.635" stop-color="#CBBAE2" stop-opacity="0.635"/>
<stop offset="0.779" stop-color="#BFA5D7" stop-opacity="0.78"/>
<stop offset="0.913" stop-color="#AF8ACA" stop-opacity="0.913"/>
<stop offset="1" stop-color="#A274BF"/>
</linearGradient>
<linearGradient id="paint8_linear_78_2834" x1="35.5071" y1="35.2364" x2="30.6618" y2="19.4473" gradientUnits="userSpaceOnUse">
<stop stop-color="#DBD5EF" stop-opacity="0"/>
<stop offset="0.285" stop-color="#D9D2EE" stop-opacity="0.285"/>
<stop offset="0.474" stop-color="#D4C9E9" stop-opacity="0.474"/>
<stop offset="0.635" stop-color="#CBBAE2" stop-opacity="0.635"/>
<stop offset="0.779" stop-color="#BFA5D7" stop-opacity="0.78"/>
<stop offset="0.913" stop-color="#AF8ACA" stop-opacity="0.913"/>
<stop offset="1" stop-color="#A274BF"/>
</linearGradient>
<linearGradient id="paint9_linear_78_2834" x1="30" y1="10.0003" x2="30" y2="7.31529" gradientUnits="userSpaceOnUse">
<stop stop-color="#DBD5EF" stop-opacity="0"/>
<stop offset="0.285" stop-color="#D9D2EE" stop-opacity="0.285"/>
<stop offset="0.474" stop-color="#D4C9E9" stop-opacity="0.474"/>
<stop offset="0.635" stop-color="#CBBAE2" stop-opacity="0.635"/>
<stop offset="0.779" stop-color="#BFA5D7" stop-opacity="0.78"/>
<stop offset="0.913" stop-color="#AF8ACA" stop-opacity="0.913"/>
<stop offset="1" stop-color="#A274BF"/>
</linearGradient>
<linearGradient id="paint10_linear_78_2834" x1="27.1933" y1="7.74666" x2="24.1856" y2="7.74666" gradientUnits="userSpaceOnUse">
<stop stop-color="#DBD5EF" stop-opacity="0"/>
<stop offset="0.285" stop-color="#D9D2EE" stop-opacity="0.285"/>
<stop offset="0.474" stop-color="#D4C9E9" stop-opacity="0.474"/>
<stop offset="0.635" stop-color="#CBBAE2" stop-opacity="0.635"/>
<stop offset="0.779" stop-color="#BFA5D7" stop-opacity="0.78"/>
<stop offset="0.913" stop-color="#AF8ACA" stop-opacity="0.913"/>
<stop offset="1" stop-color="#A274BF"/>
</linearGradient>
<linearGradient id="paint11_linear_78_2834" x1="41.4821" y1="17.7081" x2="34.5484" y2="6.01254" gradientUnits="userSpaceOnUse">
<stop stop-color="#DBD5EF" stop-opacity="0"/>
<stop offset="0.285" stop-color="#D9D2EE" stop-opacity="0.285"/>
<stop offset="0.474" stop-color="#D4C9E9" stop-opacity="0.474"/>
<stop offset="0.635" stop-color="#CBBAE2" stop-opacity="0.635"/>
<stop offset="0.779" stop-color="#BFA5D7" stop-opacity="0.78"/>
<stop offset="0.913" stop-color="#AF8ACA" stop-opacity="0.913"/>
<stop offset="1" stop-color="#A274BF"/>
</linearGradient>
<linearGradient id="paint12_linear_78_2834" x1="30" y1="10.3066" x2="30" y2="11.8103" gradientUnits="userSpaceOnUse">
<stop stop-color="#5A5A5A"/>
<stop offset="1" stop-color="#444444"/>
</linearGradient>
<linearGradient id="paint13_linear_78_2834" x1="30" y1="10.4736" x2="30" y2="11.6432" gradientUnits="userSpaceOnUse">
<stop stop-color="#433F43" stop-opacity="0"/>
<stop offset="1" stop-color="#1A1A1A"/>
</linearGradient>
<linearGradient id="paint14_linear_78_2834" x1="30" y1="9.10922" x2="30" y2="7.15992" gradientUnits="userSpaceOnUse">
<stop stop-color="#433F43" stop-opacity="0"/>
<stop offset="1" stop-color="#1A1A1A"/>
</linearGradient>
<linearGradient id="paint15_linear_78_2834" x1="35.1899" y1="8.51309" x2="37.1949" y2="9.32062" gradientUnits="userSpaceOnUse">
<stop stop-color="#433F43" stop-opacity="0"/>
<stop offset="1" stop-color="#1A1A1A"/>
</linearGradient>
<linearGradient id="paint16_linear_78_2834" x1="30.0001" y1="1.25411" x2="30.0001" y2="6.66888" gradientUnits="userSpaceOnUse">
<stop stop-color="#FEF0AE"/>
<stop offset="1" stop-color="#FAC600"/>
</linearGradient>
<linearGradient id="paint17_linear_78_2834" x1="34.6866" y1="4.99699" x2="37.9889" y2="6.66527" gradientUnits="userSpaceOnUse">
<stop stop-color="#FE9738" stop-opacity="0"/>
<stop offset="1" stop-color="#FE9738"/>
</linearGradient>
<linearGradient id="paint18_linear_78_2834" x1="30.0001" y1="4.32164" x2="30.0001" y2="7.70941" gradientUnits="userSpaceOnUse">
<stop stop-color="#FE9738" stop-opacity="0"/>
<stop offset="1" stop-color="#FE9738"/>
</linearGradient>
<linearGradient id="paint19_linear_78_2834" x1="35.0321" y1="16.3195" x2="35.1992" y2="40.9637" gradientUnits="userSpaceOnUse">
<stop stop-color="#DBD5EF" stop-opacity="0"/>
<stop offset="0.285" stop-color="#D9D2EE" stop-opacity="0.285"/>
<stop offset="0.474" stop-color="#D4C9E9" stop-opacity="0.474"/>
<stop offset="0.635" stop-color="#CBBAE2" stop-opacity="0.635"/>
<stop offset="0.779" stop-color="#BFA5D7" stop-opacity="0.78"/>
<stop offset="0.913" stop-color="#AF8ACA" stop-opacity="0.913"/>
<stop offset="1" stop-color="#A274BF"/>
</linearGradient>
<linearGradient id="paint20_linear_78_2834" x1="35.0321" y1="21.4889" x2="35.1992" y2="46.1331" gradientUnits="userSpaceOnUse">
<stop stop-color="#DBD5EF" stop-opacity="0"/>
<stop offset="0.285" stop-color="#D9D2EE" stop-opacity="0.285"/>
<stop offset="0.474" stop-color="#D4C9E9" stop-opacity="0.474"/>
<stop offset="0.635" stop-color="#CBBAE2" stop-opacity="0.635"/>
<stop offset="0.779" stop-color="#BFA5D7" stop-opacity="0.78"/>
<stop offset="0.913" stop-color="#AF8ACA" stop-opacity="0.913"/>
<stop offset="1" stop-color="#A274BF"/>
</linearGradient>
<linearGradient id="paint21_linear_78_2834" x1="35.0321" y1="26.6589" x2="35.1992" y2="51.303" gradientUnits="userSpaceOnUse">
<stop stop-color="#DBD5EF" stop-opacity="0"/>
<stop offset="0.285" stop-color="#D9D2EE" stop-opacity="0.285"/>
<stop offset="0.474" stop-color="#D4C9E9" stop-opacity="0.474"/>
<stop offset="0.635" stop-color="#CBBAE2" stop-opacity="0.635"/>
<stop offset="0.779" stop-color="#BFA5D7" stop-opacity="0.78"/>
<stop offset="0.913" stop-color="#AF8ACA" stop-opacity="0.913"/>
<stop offset="1" stop-color="#A274BF"/>
</linearGradient>
<linearGradient id="paint22_linear_78_2834" x1="35.0321" y1="31.8279" x2="35.1992" y2="56.4721" gradientUnits="userSpaceOnUse">
<stop stop-color="#DBD5EF" stop-opacity="0"/>
<stop offset="0.285" stop-color="#D9D2EE" stop-opacity="0.285"/>
<stop offset="0.474" stop-color="#D4C9E9" stop-opacity="0.474"/>
<stop offset="0.635" stop-color="#CBBAE2" stop-opacity="0.635"/>
<stop offset="0.779" stop-color="#BFA5D7" stop-opacity="0.78"/>
<stop offset="0.913" stop-color="#AF8ACA" stop-opacity="0.913"/>
<stop offset="1" stop-color="#A274BF"/>
</linearGradient>
<linearGradient id="paint23_linear_78_2834" x1="5.93415" y1="24.0814" x2="20.8042" y2="42.0425" gradientUnits="userSpaceOnUse">
<stop stop-color="#DBD5EF" stop-opacity="0"/>
<stop offset="0.285" stop-color="#D9D2EE" stop-opacity="0.285"/>
<stop offset="0.474" stop-color="#D4C9E9" stop-opacity="0.474"/>
<stop offset="0.635" stop-color="#CBBAE2" stop-opacity="0.635"/>
<stop offset="0.779" stop-color="#BFA5D7" stop-opacity="0.78"/>
<stop offset="0.913" stop-color="#AF8ACA" stop-opacity="0.913"/>
<stop offset="1" stop-color="#A274BF"/>
</linearGradient>
<linearGradient id="paint24_linear_78_2834" x1="27.8594" y1="43.725" x2="20.8076" y2="36.6731" gradientUnits="userSpaceOnUse">
<stop stop-color="#DBD5EF" stop-opacity="0"/>
<stop offset="0.285" stop-color="#D9D2EE" stop-opacity="0.285"/>
<stop offset="0.474" stop-color="#D4C9E9" stop-opacity="0.474"/>
<stop offset="0.635" stop-color="#CBBAE2" stop-opacity="0.635"/>
<stop offset="0.779" stop-color="#BFA5D7" stop-opacity="0.78"/>
<stop offset="0.913" stop-color="#AF8ACA" stop-opacity="0.913"/>
<stop offset="1" stop-color="#A274BF"/>
</linearGradient>
<linearGradient id="paint25_linear_78_2834" x1="19.6029" y1="34.6736" x2="20.6053" y2="39.8948" gradientUnits="userSpaceOnUse">
<stop stop-color="#BBEC6C"/>
<stop offset="0.289" stop-color="#ABDC59"/>
<stop offset="0.866" stop-color="#82B32A"/>
<stop offset="1" stop-color="#78A91F"/>
</linearGradient>
<linearGradient id="paint26_linear_78_2834" x1="20.8003" y1="36.6658" x2="21.789" y2="37.6544" gradientUnits="userSpaceOnUse">
<stop stop-color="#334C0F" stop-opacity="0"/>
<stop offset="0.32" stop-color="#344C12" stop-opacity="0.32"/>
<stop offset="0.565" stop-color="#374A1C" stop-opacity="0.565"/>
<stop offset="0.786" stop-color="#3C482C" stop-opacity="0.786"/>
<stop offset="0.991" stop-color="#444443" stop-opacity="0.991"/>
<stop offset="1" stop-color="#444444"/>
</linearGradient>
<linearGradient id="paint27_linear_78_2834" x1="28.5859" y1="17.8641" x2="32.93" y2="31.9824" gradientUnits="userSpaceOnUse">
<stop stop-color="#FFA1AE"/>
<stop offset="1" stop-color="#FF4565"/>
</linearGradient>
<linearGradient id="paint28_linear_78_2834" x1="36.847" y1="24.0717" x2="38.0464" y2="25.2711" gradientUnits="userSpaceOnUse">
<stop stop-color="#FE0364" stop-opacity="0"/>
<stop offset="0.234" stop-color="#F90362" stop-opacity="0.234"/>
<stop offset="0.517" stop-color="#EA035B" stop-opacity="0.517"/>
<stop offset="0.824" stop-color="#D20250" stop-opacity="0.824"/>
<stop offset="1" stop-color="#C00148"/>
</linearGradient>
<linearGradient id="paint29_linear_78_2834" x1="14.8489" y1="25.576" x2="16.4187" y2="27.1459" gradientUnits="userSpaceOnUse">
<stop stop-color="#FEF0AE"/>
<stop offset="1" stop-color="#FAC600"/>
</linearGradient>
<linearGradient id="paint30_linear_78_2834" x1="15.861" y1="26.491" x2="15.861" y2="28.5405" gradientUnits="userSpaceOnUse">
<stop stop-color="#FE9738" stop-opacity="0"/>
<stop offset="1" stop-color="#FE9738"/>
</linearGradient>
<linearGradient id="paint31_linear_78_2834" x1="15.7389" y1="26.4825" x2="17.3761" y2="27.8947" gradientUnits="userSpaceOnUse">
<stop stop-color="#FE9738" stop-opacity="0"/>
<stop offset="1" stop-color="#FE9738"/>
</linearGradient>
<linearGradient id="paint32_linear_78_2834" x1="43.1271" y1="17.1385" x2="44.6969" y2="18.7084" gradientUnits="userSpaceOnUse">
<stop stop-color="#FEF0AE"/>
<stop offset="1" stop-color="#FAC600"/>
</linearGradient>
<linearGradient id="paint33_linear_78_2834" x1="44.1392" y1="18.0535" x2="44.1392" y2="20.103" gradientUnits="userSpaceOnUse">
<stop stop-color="#FE9738" stop-opacity="0"/>
<stop offset="1" stop-color="#FE9738"/>
</linearGradient>
<linearGradient id="paint34_linear_78_2834" x1="44.017" y1="18.045" x2="45.6543" y2="19.4572" gradientUnits="userSpaceOnUse">
<stop stop-color="#FE9738" stop-opacity="0"/>
<stop offset="1" stop-color="#FE9738"/>
</linearGradient>
</defs>
</svg>
